<svg width="40" height="40" viewBox="0 0 40 40" fill="none" xmlns="http://www.w3.org/2000/svg">
<g clip-path="url(#clip0_795_2534)">
<path d="M10.3333 8.66667C10.3333 5.7538 12.7537 3.33334 15.6666 3.33334C17.9757 3.33334 19.9752 4.8543 20.705 6.93582C21.7462 6.57825 22.8568 6.37029 24.0112 6.33757C22.9832 2.6992 19.6148 0 15.6666 0C10.9128 0 6.99992 3.91285 6.99992 8.66667C6.99992 11.1544 8.07147 13.4118 9.77432 14.9987C4.06672 17.3491 0 22.9914 0 29.4998C0 30.4201 0.746192 31.1664 1.66667 31.1664C2.58713 31.1664 3.33333 30.4201 3.33333 29.4998C3.33333 23.6084 7.59422 18.6009 13.167 17.4264C13.1754 16.1078 13.4125 14.8434 13.8406 13.6707C11.808 12.9141 10.3333 10.9404 10.3333 8.66667Z" fill="#004799"/>
<path d="M25.6667 31.6665C25.6667 30.7461 24.9205 29.9999 24 29.9999C23.0795 29.9999 22.3333 30.7461 22.3333 31.6665V33.3332H20.6667C19.7462 33.3332 19 34.0794 19 34.9999C19 35.9203 19.7462 36.6665 20.6667 36.6665H22.3333V38.3332C22.3333 39.2537 23.0795 39.9999 24 39.9999C24.9205 39.9999 25.6667 39.2537 25.6667 38.3332V36.6665H27.3333C28.2538 36.6665 29 35.9203 29 34.9999C29 34.0794 28.2538 33.3332 27.3333 33.3332H25.6667V31.6665Z" fill="#004799"/>
<path fill-rule="evenodd" clip-rule="evenodd" d="M30.1169 23.7882C31.8866 22.2013 32.9999 19.8975 32.9999 17.3335C32.9999 12.5471 29.1198 8.66687 24.3333 8.66687C19.5469 8.66687 15.6666 12.5471 15.6666 17.3335C15.6666 19.8975 16.7799 22.2013 18.5496 23.788C12.785 26.1113 8.6665 31.7838 8.6665 38.3333C8.6665 39.2538 9.4127 40 10.3332 40C11.2537 40 11.9998 39.2538 11.9998 38.3333C11.9998 31.601 17.5643 26.0228 24.2921 26.0002H24.3333H24.3744C31.1021 26.0228 36.6666 31.601 36.6666 38.3333C36.6666 39.2538 37.4128 40 38.3333 40C39.2538 40 39.9999 39.2538 39.9999 38.3333C39.9999 31.7838 35.8816 26.1113 30.1169 23.7882ZM24.3333 12.0002C21.3878 12.0002 18.9999 14.388 18.9999 17.3335C18.9999 20.2668 21.3681 22.6472 24.2968 22.6668L24.3333 22.6667C24.3454 22.6667 24.3576 22.6667 24.3698 22.6668C27.2984 22.6472 29.6666 20.267 29.6666 17.3335C29.6666 14.388 27.2788 12.0002 24.3333 12.0002Z" fill="#004799"/>
</g>
<defs>
<clipPath id="clip0_795_2534">
<rect width="40" height="40" fill="white"/>
</clipPath>
</defs>
</svg>
