<svg width="20" height="20" viewBox="0 0 20 20" fill="none" xmlns="http://www.w3.org/2000/svg">
<g clip-path="url(#clip0_770_2776)">
<path d="M9.55614 0.0195312C6.39615 0.0195312 3.81131 2.60623 3.81131 5.76621C3.81131 7.6984 4.7806 9.40943 6.25419 10.4504C2.82397 11.8256 0.390924 15.1805 0.390924 19.0942C0.363538 20.328 2.22837 20.328 2.20099 19.0942C2.20099 14.94 5.55046 11.5923 9.70462 11.5923C11.1547 11.5923 12.5008 12.0056 13.6465 12.7147C14.6764 13.3463 15.6239 11.8015 14.5939 11.1699C14.0781 10.8507 13.5191 10.6018 12.9429 10.3867C14.3654 9.34042 15.2957 7.65998 15.2957 5.76621C15.2957 2.60623 12.7161 0.0195312 9.55614 0.0195312ZM9.55614 1.8314C11.7379 1.8314 13.4856 3.58445 13.4856 5.76621C13.4856 7.94796 11.7379 9.69381 9.55614 9.69381C7.37438 9.69381 5.62137 7.94796 5.62137 5.76621C5.62137 3.58445 7.37438 1.8314 9.55614 1.8314ZM15.1083 17.2311V19.0411C15.1345 20.2214 16.8922 20.2214 16.9184 19.0411V17.2311H18.7302C19.9381 17.2311 19.9381 15.4193 18.7302 15.4193H16.9184V13.6092C16.9242 13.1018 16.5119 12.6885 16.0045 12.6935C15.504 12.6969 15.1025 13.1087 15.1083 13.6092V15.4193H13.2549C12.0037 15.4771 12.0903 17.2888 13.2982 17.2311H15.1083Z" fill="white"/>
</g>
<defs>
<clipPath id="clip0_770_2776">
<rect width="20" height="20" fill="white"/>
</clipPath>
</defs>
</svg>
