<svg width="40" height="40" viewBox="0 0 40 40" fill="none" xmlns="http://www.w3.org/2000/svg">
<path d="M20.0014 36.1249C20.5079 36.1249 21.0144 35.9952 21.4651 35.7356L23.0936 34.807C23.7781 34.4174 24.016 33.5488 23.6301 32.8639C23.6289 32.8619 23.6291 32.8597 23.628 32.8576C23.2359 32.1718 22.3624 31.9325 21.6786 32.3246L19.9442 33.2504L2.9122 23.6342L2.91359 23.4214L5.96563 21.7093L18.5293 28.8027C18.9842 29.0643 19.4935 29.1948 20.0028 29.1948C20.5093 29.1948 21.0144 29.065 21.4624 28.8069L26.6308 25.8947C27.3188 25.5082 27.563 24.6375 27.1764 23.9496C26.7899 23.2602 25.9192 23.0167 25.2299 23.404L19.9442 26.3203L2.91359 16.704C2.9122 16.7034 2.91359 16.492 2.9122 16.4913L20.0558 6.875L37.0878 16.4913L37.0864 16.704L32.3296 19.3895C31.643 19.7767 31.3988 20.6481 31.7868 21.3353C32.1747 22.0225 33.044 22.2674 33.7333 21.8788L34.0439 21.7034L37.0864 23.4214C37.0878 23.4221 37.0892 23.6314 37.0906 23.6321L36.8618 23.7605C36.1738 24.1463 35.9282 25.0177 36.3148 25.7056C36.3153 25.7066 36.3164 25.7072 36.3169 25.7082C36.7043 26.3953 37.5757 26.6372 38.2599 26.2526L38.5027 26.1166C39.432 25.5814 40.0055 24.5817 40 23.5072C39.9944 22.423 39.4306 21.4609 38.493 20.9334L36.9505 20.0626L38.4902 19.1934C39.4306 18.6646 39.9944 17.7024 40 16.6182C40.0055 15.5438 39.432 14.544 38.4916 14.0033L21.4707 4.39263C20.5609 3.86936 19.4335 3.87075 18.5404 4.38704L1.49728 14.0089C0.567959 14.544 -0.00554107 15.5438 4.03723e-05 16.6182C0.00562181 17.7024 0.569355 18.6646 1.50705 19.192L3.04947 20.0628L1.50984 20.932C0.569355 21.4609 0.00562181 22.423 4.03723e-05 23.5072C-0.00554107 24.5817 0.567959 25.5814 1.50844 26.1222L18.5293 35.7328C18.9842 35.9945 19.4935 36.1249 20.0014 36.1249Z" fill="#004799"/>
<path d="M31.4308 24.6898C30.641 24.6898 30.0019 25.3296 30.0019 26.1187V28.9764H27.1442C26.3544 28.9764 25.7153 29.6162 25.7153 30.4053C25.7153 30.8125 25.8895 31.175 26.1628 31.4353C26.419 31.6793 26.762 31.8341 27.1442 31.8341H30.0019V34.6919C30.0019 35.4809 30.641 36.1207 31.4308 36.1207C32.2206 36.1207 32.8597 35.4809 32.8597 34.6919V31.8341H35.7174C36.5072 31.8341 37.1463 31.1943 37.1463 30.4053C37.1463 29.6162 36.5072 28.9764 35.7174 28.9764H32.8597V26.1187C32.8597 25.3296 32.2206 24.6898 31.4308 24.6898Z" fill="#004799"/>
</svg>
