<svg width="20" height="20" viewBox="0 0 20 20" fill="none" xmlns="http://www.w3.org/2000/svg">
<g clip-path="url(#clip0_777_3255)">
<path d="M19.555 3.38938C20.1412 1.99695 20.1483 1.0007 19.5759 0.428348C19.0062 -0.141421 18.0067 -0.142319 16.6051 0.425809C15.6558 0.810577 14.661 1.41113 14.1859 1.88621C14.1834 1.88863 14.1811 1.89109 14.1787 1.89351L12.5337 3.58219L10.5662 3.20653L10.832 2.94078C11.1371 2.63567 11.1371 2.14101 10.832 1.83593C10.5269 1.53082 10.0322 1.53082 9.72709 1.83593L8.71075 2.85227L7.28621 2.58027L7.31633 2.55016C7.62141 2.24504 7.62141 1.75039 7.31633 1.44531C7.01121 1.14019 6.51652 1.14019 6.21144 1.44531L5.43074 2.22601L4.4462 2.03804C3.70967 1.89742 2.94432 2.12055 2.39877 2.63492L0.245277 4.66536C-0.0686308 4.96138 -0.0831621 5.4558 0.212816 5.76974C0.366528 5.93275 0.573717 6.01506 0.781413 6.01506C0.973641 6.01506 1.1663 5.94451 1.31724 5.80225L1.71993 5.42256L7.57532 8.32917L4.18198 11.7461L2.73029 11.6812C2.71763 11.6806 2.70521 11.6804 2.69256 11.6804C1.76079 11.6804 0.858093 12.0672 0.215511 12.742C0.042073 12.9241 -0.0330836 13.1787 0.0135963 13.4258C0.0602762 13.673 0.223129 13.8825 0.451099 13.9888L4.22964 15.7507L6.13711 19.5675C6.2509 19.7952 6.46844 19.9532 6.7202 19.9909C6.75887 19.9967 6.7975 19.9995 6.83602 19.9995C7.04817 19.9995 7.25321 19.913 7.40176 19.757L7.45485 19.7012C8.06333 19.0623 8.39845 18.2245 8.39845 17.3422V15.516L11.7452 12.151L13.6644 16.2145C13.8471 16.6054 14.3122 16.7743 14.7029 16.5916C15.0938 16.409 15.2627 15.944 15.08 15.5531L12.6875 10.4766C12.5795 10.2454 12.3654 10.0815 12.114 10.0377C11.8629 9.99379 11.6057 10.0754 11.4258 10.2564L7.06328 14.6427C6.91766 14.7891 6.83598 14.9872 6.83598 15.1937V17.3422C6.83598 17.3826 6.83469 17.4229 6.83211 17.4629L5.50554 14.8084C5.42663 14.6506 5.29671 14.5242 5.13687 14.4496L2.55927 13.2477C2.59904 13.2448 2.63892 13.2432 2.67896 13.2429L4.45764 13.3225C4.67874 13.3328 4.89171 13.2489 5.04694 13.0926L9.43545 8.67347C9.46689 8.64316 9.49599 8.60992 9.52244 8.57394C9.52377 8.57214 9.52509 8.57031 9.52642 8.56851L9.52787 8.56652C9.58424 8.48816 9.62431 8.40179 9.64814 8.31195C9.67615 8.20718 9.68134 8.09988 9.66588 7.99632L9.6656 7.99456C9.66529 7.99257 9.66498 7.99058 9.6647 7.98859C9.64697 7.87632 9.60474 7.76722 9.53802 7.66987C9.48728 7.59554 9.42318 7.52929 9.34708 7.47507C9.3458 7.47417 9.34455 7.47323 9.34326 7.47233L9.34267 7.47194C9.30498 7.44534 9.26548 7.42249 9.22466 7.40339L2.93189 4.27978L3.47072 3.77173C3.65256 3.60024 3.90768 3.52594 4.15319 3.57274L12.5458 5.17517C12.8214 5.26736 13.1376 5.2015 13.3539 4.97947L15.294 2.98793C15.5488 2.73488 16.2107 2.30187 16.9881 1.96008C17.7751 1.61406 18.243 1.55359 18.4392 1.56183C18.444 1.75613 18.3765 2.21859 18.0231 2.99207C17.6733 3.75774 17.2307 4.41802 16.9742 4.6745C16.9723 4.67638 16.9704 4.67826 16.9685 4.68017L15.08 6.6076C14.8649 6.78315 14.7503 7.06815 14.806 7.36007L16.4267 15.8462C16.4736 16.0917 16.3992 16.3469 16.2277 16.5288L14.1973 18.6823C13.9013 18.9962 13.9158 19.4906 14.2297 19.7867C14.3807 19.929 14.5733 19.9995 14.7656 19.9995C14.9732 19.9995 15.1804 19.9172 15.3341 19.7542L17.3646 17.6006C17.879 17.055 18.1021 16.2896 17.9615 15.5531L17.7734 14.568L18.5539 13.7876C18.8589 13.4824 18.8589 12.9878 18.5539 12.6827C18.2487 12.3776 17.754 12.3776 17.449 12.6827L17.419 12.7126L17.147 11.2882L18.1632 10.272C18.4683 9.96684 18.4683 9.47219 18.1632 9.16711C17.8581 8.86199 17.3634 8.86199 17.0583 9.16711L16.7927 9.43277L16.4186 7.47409L18.0821 5.77631C18.5593 5.29755 19.1645 4.31696 19.555 3.38938Z" fill="#004FA9"/>
</g>
<defs>
<clipPath id="clip0_777_3255">
<rect width="20" height="20" fill="white"/>
</clipPath>
</defs>
</svg>
