<svg width="103" height="83" viewBox="0 0 103 83" fill="none" xmlns="http://www.w3.org/2000/svg">
<path d="M88.8926 63.0254C88.5257 64.8678 86.8999 66.2565 84.9497 66.2565H5.52035C3.29994 66.2565 1.5 64.4565 1.5 62.2361V10.1932C1.5 7.97277 3.29994 6.17282 5.52035 6.17282H7.28094" stroke="white" stroke-width="3" stroke-miterlimit="10" stroke-linecap="round" stroke-linejoin="round"/>
<path d="M34.9291 6.17286H84.9498C87.1702 6.17286 88.9701 7.97281 88.9701 10.193V50.449" stroke="white" stroke-width="3" stroke-miterlimit="10" stroke-linecap="round" stroke-linejoin="round"/>
<path d="M82.185 56.139H1.5" stroke="white" stroke-width="3" stroke-miterlimit="10" stroke-linecap="round" stroke-linejoin="round"/>
<path d="M51.2576 66.2565H45.2351H39.2128C39.2128 66.2565 37.4293 77.5252 36.3145 81.5H45.2351H54.1557C53.041 77.5252 51.2576 66.2565 51.2576 66.2565Z" stroke="white" stroke-width="3" stroke-miterlimit="10" stroke-linecap="round" stroke-linejoin="round"/>
<path d="M33.8523 81.5H56.6176" stroke="white" stroke-width="3" stroke-miterlimit="10" stroke-linecap="round" stroke-linejoin="round"/>
<path d="M33.7322 20.9598H8.47783C7.81681 20.9598 7.28088 20.4239 7.28088 19.7629V2.69696C7.28088 2.03594 7.81681 1.50001 8.47783 1.50001H33.7322C34.3933 1.50001 34.929 2.03594 34.929 2.69696V19.7629C34.929 20.4239 34.3933 20.9598 33.7322 20.9598Z" stroke="white" stroke-width="3" stroke-miterlimit="10" stroke-linecap="round" stroke-linejoin="round"/>
<path d="M14.8361 8.61731H18.8576" stroke="white" stroke-width="3" stroke-miterlimit="10" stroke-linecap="round" stroke-linejoin="round"/>
<path d="M14.8361 13.8428H27.374" stroke="white" stroke-width="3" stroke-miterlimit="10" stroke-linecap="round" stroke-linejoin="round"/>
<path d="M15.3679 48.1217H10.9022C10.2311 48.1217 9.68713 47.5777 9.68713 46.9067V29.8769C9.68713 29.2058 10.2311 28.6619 10.9022 28.6619H36.1206C36.7915 28.6619 37.3352 29.2058 37.3352 29.8769V46.9067C37.3352 47.5777 36.7915 48.1217 36.1206 48.1217H22.4054" stroke="white" stroke-width="3" stroke-miterlimit="10" stroke-linecap="round" stroke-linejoin="round"/>
<path d="M17.2423 35.7788H21.2639" stroke="white" stroke-width="3" stroke-miterlimit="10" stroke-linecap="round" stroke-linejoin="round"/>
<path d="M17.2423 41.0044H29.7803" stroke="white" stroke-width="3" stroke-miterlimit="10" stroke-linecap="round" stroke-linejoin="round"/>
<path d="M50.6311 32.1753H44.2729C43.6119 32.1753 43.0759 31.6394 43.0759 30.9783V13.9124C43.0759 13.2514 43.6119 12.7155 44.2729 12.7155H69.5273C70.1883 12.7155 70.7242 13.2514 70.7242 13.9124V18.6171" stroke="white" stroke-width="3" stroke-miterlimit="10" stroke-linecap="round" stroke-linejoin="round"/>
<path d="M50.631 19.8328H52.6418" stroke="white" stroke-width="3" stroke-miterlimit="10" stroke-linecap="round" stroke-linejoin="round"/>
<path d="M50.631 25.0583H54.0833" stroke="white" stroke-width="3" stroke-miterlimit="10" stroke-linecap="round" stroke-linejoin="round"/>
<path d="M80.0386 44.3275L86.188 50.4769L82.694 53.9709L76.7448 48.0215" stroke="white" stroke-width="3" stroke-miterlimit="10" stroke-linecap="round" stroke-linejoin="round"/>
<path d="M100.097 67.7939L100.011 67.8802C98.4286 69.4623 95.8636 69.4623 94.2814 67.8802L81.8657 55.4645C81.682 55.2808 81.682 54.9828 81.8657 54.7989L87.0159 49.6489C87.1999 49.4651 87.4977 49.4651 87.6816 49.6489L100.097 62.0645C101.679 63.6466 101.679 66.2118 100.097 67.7939Z" stroke="white" stroke-width="3" stroke-miterlimit="10" stroke-linecap="round" stroke-linejoin="round"/>
<path d="M81.9746 28.6973C84.3414 34.5339 83.1581 41.4736 78.4243 46.2074C72.1127 52.5191 61.8795 52.5191 55.5678 46.2074C49.2562 39.8958 49.2562 29.6626 55.5678 23.3509C61.6972 17.2216 71.5244 17.0445 77.8673 22.8192" stroke="white" stroke-width="3" stroke-miterlimit="10" stroke-linecap="round" stroke-linejoin="round"/>
<path d="M60.7269 32.1661H64.7485" stroke="white" stroke-width="3" stroke-miterlimit="10" stroke-linecap="round" stroke-linejoin="round"/>
<path d="M60.7269 37.3917H73.2651" stroke="white" stroke-width="3" stroke-miterlimit="10" stroke-linecap="round" stroke-linejoin="round"/>
</svg>
