<svg width="17" height="18" viewBox="0 0 17 18" fill="none" xmlns="http://www.w3.org/2000/svg">
<path d="M14.4209 1.70661C12.1454 -0.56887 8.44772 -0.56887 6.17224 1.70661L5.83092 2.04793L0.312879 7.56597C-0.104293 7.98315 -0.104293 8.64683 0.312879 9.064C0.73005 9.48117 1.39373 9.48117 1.8109 9.064L7.67027 3.20464C9.11141 1.7635 11.4627 1.7635 12.9228 3.20464C14.364 4.64577 14.364 6.9971 12.9228 8.4572L6.11536 15.2647C5.28101 16.099 3.95365 16.099 3.11931 15.2647C2.28496 14.4303 2.28496 13.103 3.11931 12.2686L4.61733 10.7706L8.97867 6.40927C9.18725 6.20068 9.52858 6.20068 9.7182 6.40927C9.92679 6.61786 9.92679 6.95918 9.7182 7.1488L4.80695 12.06C4.38978 12.4772 4.38978 13.1409 4.80695 13.5581C5.22412 13.9752 5.88781 13.9752 6.30498 13.5581L11.2162 8.64683C12.2592 7.6039 12.2592 5.93521 11.2162 4.89228C10.1733 3.84935 8.50461 3.84935 7.46168 4.89228L1.62128 10.7706C-0.047406 12.4203 -0.047406 15.113 1.62128 16.7627C3.271 18.4124 5.96366 18.4124 7.63234 16.7627L14.4209 9.95523C16.6963 7.67975 16.6963 3.98209 14.4209 1.70661Z" fill="#004799"/>
</svg>
