<svg width="9" height="12" viewBox="0 0 9 12" fill="none" xmlns="http://www.w3.org/2000/svg">
<mask id="path-1-inside-1_66_43" fill="white">
<path d="M5.63996 1.19995H4.19996C4.00101 1.19995 3.83997 1.36099 3.83997 1.55995C3.83997 1.7589 4.00101 1.91995 4.19996 1.91995H5.63996C5.83891 1.91995 5.99996 1.7589 5.99996 1.55995C5.99996 1.36099 5.83891 1.19995 5.63996 1.19995Z"/>
</mask>
<path d="M5.63996 1.19995V0.199951H4.19996V1.19995V2.19995H5.63996V1.19995ZM4.19996 1.19995V0.199951C3.44872 0.199951 2.83997 0.808709 2.83997 1.55995H3.83997H4.83997C4.83997 1.91328 4.55329 2.19995 4.19996 2.19995V1.19995ZM3.83997 1.55995H2.83997C2.83997 2.31119 3.44872 2.91995 4.19996 2.91995V1.91995V0.919948C4.55329 0.919948 4.83997 1.20662 4.83997 1.55995H3.83997ZM4.19996 1.91995V2.91995H5.63996V1.91995V0.919948H4.19996V1.91995ZM5.63996 1.91995V2.91995C6.3912 2.91995 6.99996 2.31119 6.99996 1.55995H5.99996H4.99996C4.99996 1.20662 5.28663 0.919948 5.63996 0.919948V1.91995ZM5.99996 1.55995H6.99996C6.99996 0.808711 6.3912 0.199951 5.63996 0.199951V1.19995V2.19995C5.28663 2.19995 4.99996 1.91328 4.99996 1.55995H5.99996Z" fill="white" mask="url(#path-1-inside-1_66_43)"/>
<mask id="path-3-inside-2_66_43" fill="white">
<path d="M7.19996 0H1.43999C0.646084 0 0 0.646084 0 1.43999V10.5599C0 11.3539 0.646084 11.9999 1.43999 11.9999H7.19996C7.99387 11.9999 8.63996 11.3539 8.63996 10.5599V1.43999C8.63996 0.646084 7.99387 0 7.19996 0ZM7.91996 10.5599C7.91996 10.9576 7.59765 11.2799 7.19996 11.2799H1.43999C1.04231 11.2799 0.719996 10.9576 0.719996 10.5599V1.43999C0.719996 1.04231 1.04231 0.719996 1.43999 0.719996H7.19996C7.59765 0.719996 7.91996 1.04231 7.91996 1.43999V10.5599Z"/>
</mask>
<path d="M8.63996 1.43999H7.63996H8.63996ZM7.19996 0V-1H1.43999V0V1H7.19996V0ZM1.43999 0V-1C0.0937996 -1 -1 0.0937996 -1 1.43999H0H1C1 1.19837 1.19837 1 1.43999 1V0ZM0 1.43999H-1V10.5599H0H1V1.43999H0ZM0 10.5599H-1C-1 11.9061 0.0937988 12.9999 1.43999 12.9999V11.9999V10.9999C1.19837 10.9999 1 10.8016 1 10.5599H0ZM1.43999 11.9999V12.9999H7.19996V11.9999V10.9999H1.43999V11.9999ZM7.19996 11.9999V12.9999C8.54616 12.9999 9.63996 11.9061 9.63996 10.5599H8.63996H7.63996C7.63996 10.8016 7.44159 10.9999 7.19996 10.9999V11.9999ZM8.63996 10.5599H9.63996V1.43999H8.63996H7.63996V10.5599H8.63996ZM8.63996 1.43999H9.63996C9.63996 0.0937993 8.54616 -1 7.19996 -1V0V1C7.44159 1 7.63996 1.19837 7.63996 1.43999H8.63996ZM7.91996 10.5599H6.91996C6.91996 10.4053 7.04537 10.2799 7.19996 10.2799V11.2799V12.2799C8.14993 12.2799 8.91996 11.5099 8.91996 10.5599H7.91996ZM7.19996 11.2799V10.2799H1.43999V11.2799V12.2799H7.19996V11.2799ZM1.43999 11.2799V10.2799C1.59459 10.2799 1.72 10.4053 1.72 10.5599H0.719996H-0.280004C-0.280004 11.5099 0.490022 12.2799 1.43999 12.2799V11.2799ZM0.719996 10.5599H1.72V1.43999H0.719996H-0.280004V10.5599H0.719996ZM0.719996 1.43999H1.72C1.72 1.59459 1.59459 1.72 1.43999 1.72V0.719996V-0.280004C0.490023 -0.280004 -0.280004 0.490023 -0.280004 1.43999H0.719996ZM1.43999 0.719996V1.72H7.19996V0.719996V-0.280004H1.43999V0.719996ZM7.19996 0.719996V1.72C7.04537 1.72 6.91996 1.59459 6.91996 1.43999H7.91996H8.91996C8.91996 0.490022 8.14993 -0.280004 7.19996 -0.280004V0.719996ZM7.91996 1.43999H6.91996V10.5599H7.91996H8.91996V1.43999H7.91996Z" fill="white" mask="url(#path-3-inside-2_66_43)"/>
<path d="M4.31997 10.8001C4.71762 10.8001 5.03997 10.4777 5.03997 10.0801C5.03997 9.68246 4.71762 9.36011 4.31997 9.36011C3.92233 9.36011 3.59998 9.68246 3.59998 10.0801C3.59998 10.4777 3.92233 10.8001 4.31997 10.8001Z" fill="white"/>
<path d="M3.00001 1.91995C3.19883 1.91995 3.36001 1.75877 3.36001 1.55995C3.36001 1.36113 3.19883 1.19995 3.00001 1.19995C2.80119 1.19995 2.64001 1.36113 2.64001 1.55995C2.64001 1.75877 2.80119 1.91995 3.00001 1.91995Z" fill="white"/>
</svg>
