<svg width="16" height="16" viewBox="0 0 16 16" fill="none" xmlns="http://www.w3.org/2000/svg">
<path fill-rule="evenodd" clip-rule="evenodd" d="M0.321886 14.1276C-0.106444 14.556 -0.106378 15.2504 0.322018 15.6788C0.750413 16.1071 1.44491 16.1071 1.87323 15.6787L7.99954 9.55129L14.1264 15.6781C14.5547 16.1064 15.2492 16.1064 15.6776 15.6781C16.1059 15.2498 16.1059 14.5552 15.6776 14.1269L9.55063 7.99998L15.6771 1.87242C16.1053 1.44402 16.1053 0.749525 15.6769 0.321206C15.2486 -0.107123 14.554 -0.107058 14.1257 0.321338L7.99932 6.44878L1.87248 0.321864C1.44413 -0.106487 0.749624 -0.106487 0.321272 0.321864C-0.107091 0.750227 -0.107091 1.44472 0.321272 1.87309L6.44834 8.00009L0.321886 14.1276Z" fill="#72A9E9"/>
</svg>
