<svg width="24" height="18" viewBox="0 0 24 18" fill="none" xmlns="http://www.w3.org/2000/svg">
<path d="M21.0594 18H2.94064C1.31952 18 0 16.6509 0 14.9929V3.00706C0 1.3491 1.31952 0 2.94064 0H21.0594C22.6805 0 24 1.3491 24 3.00706V14.9929C24 16.6509 22.6805 18 21.0594 18ZM2.94064 1.63636C2.2016 1.63636 1.6 2.25123 1.6 3.00706V14.9929C1.6 15.7488 2.2016 16.3636 2.94064 16.3636H21.0594C21.7984 16.3636 22.4 15.7488 22.4 14.9929V3.00706C22.4 2.25123 21.7984 1.63636 21.0594 1.63636H2.94064Z" fill="#004799"/>
<path d="M9.27112 14.35H5.92888C4.8656 14.35 4 13.4848 4 12.4211V6.67896C4 5.6152 4.8656 4.75 5.92888 4.75H9.27104C10.3344 4.75 11.2 5.6152 11.2 6.67888V12.421C11.2 13.4848 10.3344 14.35 9.27112 14.35ZM5.92888 6.35C5.74768 6.35 5.6 6.49768 5.6 6.67888V12.421C5.6 12.6023 5.74768 12.75 5.92888 12.75H9.27104C9.45232 12.75 9.6 12.6023 9.6 12.4211V6.67896C9.6 6.49768 9.45232 6.35 9.27112 6.35H5.92888Z" fill="#004799"/>
<path d="M19.1998 13.55H13.5998C13.1576 13.55 12.7998 13.1918 12.7998 12.75C12.7998 12.3083 13.1576 11.95 13.5998 11.95H19.1998C19.642 11.95 19.9998 12.3083 19.9998 12.75C19.9998 13.1918 19.642 13.55 19.1998 13.55Z" fill="#004799"/>
<path d="M19.1998 10.35H13.5998C13.1576 10.35 12.7998 9.99176 12.7998 9.55C12.7998 9.10824 13.1576 8.75 13.5998 8.75H19.1998C19.642 8.75 19.9998 9.10824 19.9998 9.55C19.9998 9.99176 19.642 10.35 19.1998 10.35Z" fill="#004799"/>
<path d="M19.1998 7.14999H13.5998C13.1576 7.14999 12.7998 6.79175 12.7998 6.34999C12.7998 5.90823 13.1576 5.54999 13.5998 5.54999H19.1998C19.642 5.54999 19.9998 5.90823 19.9998 6.34999C19.9998 6.79175 19.642 7.14999 19.1998 7.14999Z" fill="#004799"/>
</svg>
