<svg width="16" height="16" viewBox="0 0 16 16" fill="none" xmlns="http://www.w3.org/2000/svg">
<path d="M12.2 0H8.2C7.984 0 7.784 0.088 7.632 0.232L1.232 6.632C1.088 6.784 1 6.984 1 7.2V12.8C1 14.568 2.432 16 4.2 16H12.2C13.968 16 15.4 14.568 15.4 12.8V3.2C15.4 1.432 13.968 0 12.2 0ZM7.4 2.728V4.8C7.4 5.68 6.68 6.4 5.8 6.4H3.728L7.4 2.728ZM13.8 12.8C13.8 13.68 13.08 14.4 12.2 14.4H4.2C3.32 14.4 2.6 13.68 2.6 12.8V8H5.8C7.568 8 9 6.568 9 4.8V1.6H12.2C13.08 1.6 13.8 2.32 13.8 3.2V12.8Z" fill="#004799"/>
<path d="M11.448 10.0241L10.6 10.8721V7.97615C10.6 7.53615 10.24 7.17615 9.80004 7.17615C9.36004 7.17615 9.00004 7.53615 9.00004 7.97615V10.8721L8.15204 10.0241C7.84004 9.71215 7.33604 9.71215 7.02404 10.0241C6.71204 10.3361 6.71204 10.8401 7.02404 11.1521L9.24004 13.3681C9.39204 13.5201 9.59204 13.6001 9.80004 13.6001C10.008 13.6001 10.208 13.5201 10.368 13.3681L12.584 11.1521C12.896 10.8401 12.896 10.3361 12.584 10.0241C12.272 9.71215 11.76 9.70415 11.448 10.0241Z" fill="#004799"/>
</svg>
