<svg width="10" height="10" viewBox="0 0 10 10" fill="none" xmlns="http://www.w3.org/2000/svg">
<path d="M9.16663 1.51042C9.05393 1.44487 8.91472 1.44487 8.80205 1.51042C8.3656 1.75256 7.87409 1.87812 7.37497 1.875C6.64521 1.89114 5.9396 1.6134 5.41665 1.10417C4.81294 0.513232 3.99668 0.190332 3.15207 0.20835C2.47187 0.202466 1.80684 0.409326 1.25 0.800024V0.625C1.25 0.279834 0.97019 0 0.625 0C0.27981 0 0 0.27981 0 0.625V9.375C0 9.72017 0.27981 10 0.625 10C0.970166 10 1.25 9.72019 1.25 9.375V6.45832C1.31904 6.45186 1.38481 6.42585 1.43957 6.38332C1.93523 6.01831 2.53657 5.8252 3.15207 5.83333C3.88318 5.81653 4.59033 6.09429 5.11457 6.60415C5.71714 7.19424 6.53179 7.51709 7.375 7.49998C8.02122 7.50749 8.65505 7.32258 9.19582 6.96873C9.31155 6.88853 9.37895 6.7553 9.375 6.61455V1.875C9.37632 1.7248 9.2967 1.58552 9.16663 1.51042Z" fill="#004799"/>
</svg>
