<svg width="40" height="42" viewBox="0 0 40 42" fill="none" xmlns="http://www.w3.org/2000/svg">
<path d="M26.7769 28.3337C26.7769 26.3455 24.0408 24.7337 20.6658 24.7337C17.2907 24.7337 14.5547 26.3455 14.5547 28.3337M31.6658 24.7342C31.6658 23.258 30.1574 21.9893 27.9991 21.4337M9.66577 24.7342C9.66577 23.258 11.1741 21.9893 13.3324 21.4337M27.9991 16.6171C28.7492 15.9579 29.2213 14.9999 29.2213 13.9337C29.2213 11.9455 27.5797 10.3337 25.5547 10.3337C24.6156 10.3337 23.7589 10.6804 23.1102 11.2504M13.3324 16.6171C12.5823 15.9579 12.1102 14.9999 12.1102 13.9337C12.1102 11.9455 13.7518 10.3337 15.7769 10.3337C16.716 10.3337 17.5726 10.6804 18.2213 11.2504M20.6658 21.1337C18.6407 21.1337 16.9991 19.522 16.9991 17.5337C16.9991 15.5455 18.6407 13.9337 20.6658 13.9337C22.6908 13.9337 24.3324 15.5455 24.3324 17.5337C24.3324 19.522 22.6908 21.1337 20.6658 21.1337Z" stroke="#004FA9" stroke-width="2" stroke-linecap="round" stroke-linejoin="round"/>
<path d="M3.99541 15.2159L8.63879 13.0095C9.25427 12.7171 9.51441 11.9842 9.2205 11.3727C8.92627 10.7608 8.18925 10.502 7.57409 10.7944L5.69519 11.6871C10.0341 2.9717 20.8936 -0.0916725 29.1601 4.74046C29.7479 5.08424 30.5045 4.88903 30.8502 4.30466C31.1959 3.72029 30.9994 2.96787 30.4119 2.62409C20.7801 -3.00616 8.15001 0.722735 3.31208 10.9487L2.349 8.94573C2.05509 8.33389 1.31774 8.07509 0.702589 8.36744C0.0874368 8.65978 -0.17303 9.39272 0.120879 10.0042L2.34868 14.6376C2.64291 15.2495 3.38025 15.508 3.99541 15.2159Z" fill="#00AAFF"/>
<path d="M25.7822 35.5042L21.5628 32.6002C21.0039 32.2156 20.2395 32.3582 19.8559 32.9189C19.4722 33.4798 19.6148 34.2466 20.1737 34.6313L21.9065 35.8241C12.6134 36.4412 4.09428 28.933 4.19915 19.0209C4.20618 18.3407 3.66237 17.7836 2.9846 17.7762C2.3225 17.7643 1.75119 18.3038 1.74384 18.9946C1.62203 30.5207 11.6207 39.1721 22.4116 38.2562L21.1699 40.0715C20.7862 40.6325 20.9285 41.3993 21.4876 41.784C22.0468 42.1687 22.8112 42.026 23.1945 41.465L26.1 37.2166C26.4833 36.656 26.3414 35.8892 25.7822 35.5042Z" fill="#00AAFF"/>
<path d="M39.9049 7.13395C39.9577 6.45415 39.4496 5.85986 38.7697 5.80714L33.6185 5.40602C32.9396 5.35491 32.3443 5.86114 32.2915 6.54126L31.8918 11.6726C31.8361 12.3881 32.4009 13.0036 33.1245 13.0036C33.7629 13.0033 34.3038 12.5115 34.3543 11.8645L34.5151 9.79815C39.8927 17.8936 37.2179 28.816 28.8548 33.5932C28.2627 33.9313 28.0569 34.6856 28.3952 35.2777C28.7336 35.8701 29.4877 36.0758 30.0801 35.7376C39.8664 30.1479 42.7817 17.353 36.3441 8.0953L38.5777 8.26918C39.2569 8.32157 39.8519 7.81406 39.9049 7.13395Z" fill="#00AAFF"/>
</svg>
