<svg width="24" height="24" viewBox="0 0 24 24" fill="none" xmlns="http://www.w3.org/2000/svg">
<g clip-path="url(#clip0_773_2902)">
<path d="M11.9999 15.1648C10.9115 15.1649 9.82336 14.8987 8.83115 14.3666L1.67655 10.5289C0.639065 9.97246 -0.00322908 8.89637 0.000142428 7.72061C0.00355889 6.54486 0.652102 5.47254 1.69277 4.92204L8.86541 1.1281C10.8282 0.0899487 13.1717 0.0899487 15.1344 1.1281L22.3071 4.92204C23.3477 5.47249 23.9963 6.54481 23.9997 7.72061C24.0031 8.89637 23.3608 9.97246 22.3233 10.5289L15.1686 14.3666C14.1767 14.8987 13.0882 15.1647 11.9999 15.1648ZM11.9999 2.22465C11.2244 2.22465 10.449 2.41161 9.74209 2.78554L2.56954 6.57951C2.13619 6.80873 1.87659 7.23741 1.87519 7.7261C1.8738 8.21479 2.13084 8.64494 2.56289 8.87668L9.71754 12.7143C11.1468 13.4809 12.8533 13.4809 14.2825 12.7143L21.4372 8.87668C21.8693 8.64494 22.1263 8.21483 22.1249 7.7261C22.1235 7.23736 21.8639 6.80873 21.4306 6.57951L14.2577 2.78554C13.5509 2.41166 12.7754 2.22465 11.9999 2.22465ZM15.1687 22.8508L23.5054 18.3793C23.9617 18.1346 24.1332 17.5663 23.8884 17.11C23.6437 16.6538 23.0755 16.4823 22.6192 16.727L14.2824 21.1985C12.8533 21.9651 11.1468 21.9651 9.71386 21.1966L1.37716 16.7719C0.91971 16.5292 0.352263 16.7032 0.109604 17.1605C-0.133144 17.6179 0.0408253 18.1853 0.498181 18.4281L8.8312 22.8508C9.82341 23.383 10.9115 23.649 12 23.649C13.0882 23.649 14.1767 23.3829 15.1687 22.8508ZM15.1687 18.6322L23.5054 14.1606C23.9617 13.9159 24.1332 13.3476 23.8884 12.8914C23.6437 12.4351 23.0755 12.2636 22.6192 12.5083L14.2824 16.9798C12.8533 17.7465 11.1468 17.7464 9.71386 16.9779L1.37716 12.5533C0.91971 12.3105 0.352263 12.4846 0.109604 12.9419C-0.133144 13.3992 0.0408253 13.9667 0.498181 14.2094L8.8312 18.6321C9.82341 19.1643 10.9115 19.4303 12 19.4303C13.0882 19.4303 14.1767 19.1643 15.1687 18.6322Z" fill="#004799"/>
</g>
<defs>
<clipPath id="clip0_773_2902">
<rect width="24" height="24" fill="white"/>
</clipPath>
</defs>
</svg>
