<svg width="18" height="28" viewBox="0 0 18 28" fill="none" xmlns="http://www.w3.org/2000/svg">
<path fill-rule="evenodd" clip-rule="evenodd" d="M17.5814 10.093C17.5814 8.11476 15.9782 6.5116 14 6.5116H3.5814C1.60316 6.5116 0 8.11476 0 10.093V23.1162C0 25.0945 1.60316 26.6976 3.5814 26.6976H14C15.9782 26.6976 17.5814 25.0945 17.5814 23.1162V10.093ZM15.6279 10.093V23.1162C15.6279 24.0149 14.8986 24.7442 14 24.7442H3.5814C2.68279 24.7442 1.95349 24.0149 1.95349 23.1162V10.093C1.95349 9.19439 2.68279 8.46509 3.5814 8.46509H14C14.8986 8.46509 15.6279 9.19439 15.6279 10.093Z" fill="#004799"/>
<path fill-rule="evenodd" clip-rule="evenodd" d="M12.3721 25.7209V27.0232C12.3721 27.5624 12.8097 28 13.3488 28C13.888 28 14.3256 27.5624 14.3256 27.0232V25.7209C14.3256 25.1817 13.888 24.7441 13.3488 24.7441C12.8097 24.7441 12.3721 25.1817 12.3721 25.7209Z" fill="#004799"/>
<path fill-rule="evenodd" clip-rule="evenodd" d="M10.4189 0.976744V7.48837C10.4189 8.02753 10.8565 8.46512 11.3957 8.46512C11.9349 8.46512 12.3724 8.02753 12.3724 7.48837V0.976744C12.3724 0.437581 11.9349 0 11.3957 0C10.8565 0 10.4189 0.437581 10.4189 0.976744Z" fill="#004799"/>
<path fill-rule="evenodd" clip-rule="evenodd" d="M3.25586 25.7209V27.0232C3.25586 27.5624 3.69344 28 4.2326 28C4.77177 28 5.20935 27.5624 5.20935 27.0232V25.7209C5.20935 25.1817 4.77177 24.7441 4.2326 24.7441C3.69344 24.7441 3.25586 25.1817 3.25586 25.7209Z" fill="#004799"/>
<path fill-rule="evenodd" clip-rule="evenodd" d="M5.20947 0.976744V7.48837C5.20947 8.02753 5.64705 8.46512 6.18622 8.46512C6.72538 8.46512 7.16296 8.02753 7.16296 7.48837V0.976744C7.16296 0.437581 6.72538 0 6.18622 0C5.64705 0 5.20947 0.437581 5.20947 0.976744Z" fill="#004799"/>
<path fill-rule="evenodd" clip-rule="evenodd" d="M4.88397 1.95349H12.6979C13.2371 1.95349 13.6747 1.51591 13.6747 0.976744C13.6747 0.437581 13.2371 0 12.6979 0H4.88397C4.34481 0 3.90723 0.437581 3.90723 0.976744C3.90723 1.51591 4.34481 1.95349 4.88397 1.95349Z" fill="#004799"/>
<path fill-rule="evenodd" clip-rule="evenodd" d="M7.81396 11.3953V21.8139C7.81396 22.3531 8.25155 22.7907 8.79071 22.7907C9.32987 22.7907 9.76745 22.3531 9.76745 21.8139V11.3953C9.76745 10.8562 9.32987 10.4186 8.79071 10.4186C8.25155 10.4186 7.81396 10.8562 7.81396 11.3953Z" fill="#004799"/>
<path fill-rule="evenodd" clip-rule="evenodd" d="M3.90723 11.3953V21.8139C3.90723 22.3531 4.34481 22.7907 4.88397 22.7907C5.42313 22.7907 5.86071 22.3531 5.86071 21.8139V11.3953C5.86071 10.8562 5.42313 10.4186 4.88397 10.4186C4.34481 10.4186 3.90723 10.8562 3.90723 11.3953Z" fill="#004799"/>
<path fill-rule="evenodd" clip-rule="evenodd" d="M11.667 11.4767V21.8953C11.667 22.4345 12.1046 22.8721 12.6437 22.8721C13.1829 22.8721 13.6205 22.4345 13.6205 21.8953V11.4767C13.6205 10.9376 13.1829 10.5 12.6437 10.5C12.1046 10.5 11.667 10.9376 11.667 11.4767Z" fill="#004799"/>
</svg>
