<svg width="33" height="40" viewBox="0 0 33 40" fill="none" xmlns="http://www.w3.org/2000/svg">
<path d="M5.85938 40H26.9531C30.184 40 32.8125 37.3715 32.8125 34.1406V5.85938C32.8125 2.62848 30.184 0 26.9531 0C20.1337 0 12.6044 0 5.85938 0C2.62848 0 0 2.62848 0 5.85938V34.1406C0 37.3715 2.62848 40 5.85938 40ZM30.4688 5.85938V34.1406C30.4688 36.0791 28.8916 37.6562 26.9531 37.6562H26.9501C27.6874 36.6763 28.125 35.4587 28.125 34.1406V5.85938C28.125 4.54132 27.6874 3.32367 26.9501 2.34375H26.9531C28.8916 2.34375 30.4688 3.9209 30.4688 5.85938ZM2.34375 5.85938C2.34375 3.9209 3.9209 2.34375 5.85938 2.34375H22.2656C24.2041 2.34375 25.7812 3.9209 25.7812 5.85938V34.1406C25.7812 36.0791 24.2041 37.6562 22.2656 37.6562C21.5256 37.6562 10.3442 37.6562 5.85938 37.6562C3.9209 37.6562 2.34375 36.0791 2.34375 34.1406V5.85938Z" fill="#004799"/>
<path d="M14.0625 25.7812C19.2319 25.7812 23.4375 21.5756 23.4375 16.4062C23.4375 11.2369 19.2319 7.03125 14.0625 7.03125C8.89313 7.03125 4.6875 11.2369 4.6875 16.4062C4.6875 21.5756 8.89313 25.7812 14.0625 25.7812ZM7.12952 17.5781H9.40948C9.51263 19.3665 9.85077 21.0382 10.3897 22.3996C8.69385 21.3565 7.47253 19.6146 7.12952 17.5781ZM14.0625 9.375C14.812 9.375 16.1301 11.5714 16.3687 15.2344H11.7563C11.9949 11.5714 13.313 9.375 14.0625 9.375ZM16.3687 17.5781C16.1301 21.2411 14.812 23.4375 14.0625 23.4375C13.313 23.4375 11.9949 21.2411 11.7563 17.5781H16.3687ZM17.7353 22.3996C18.2742 21.0382 18.6124 19.3655 18.7155 17.5772H20.9955C20.6525 19.614 19.4312 21.3565 17.7353 22.3996ZM20.9955 15.2344H18.7155C18.6124 13.446 18.2742 11.7743 17.7353 10.4129C19.4312 11.456 20.6525 13.1979 20.9955 15.2344ZM10.3897 10.4129C9.85077 11.7743 9.51263 13.446 9.40948 15.2344H7.12952C7.47253 13.1979 8.69385 11.456 10.3897 10.4129Z" fill="#004799"/>
<path d="M19.9219 28.2812H8.20312C7.55585 28.2812 7.03125 28.8058 7.03125 29.4531C7.03125 30.1004 7.55585 30.625 8.20312 30.625H19.9219C20.5692 30.625 21.0938 30.1004 21.0938 29.4531C21.0938 28.8058 20.5692 28.2812 19.9219 28.2812Z" fill="#004799"/>
<path d="M17.5781 32.9688H10.5469C9.8996 32.9688 9.375 33.4933 9.375 34.1406C9.375 34.7879 9.8996 35.3125 10.5469 35.3125H17.5781C18.2254 35.3125 18.75 34.7879 18.75 34.1406C18.75 33.4933 18.2254 32.9688 17.5781 32.9688Z" fill="#004799"/>
</svg>
