<svg width="32" height="32" viewBox="0 0 32 32" fill="none" xmlns="http://www.w3.org/2000/svg">
<path d="M15.1765 28.8H6.94117C6.50437 28.8 6.08544 28.6314 5.77656 28.3313C5.46768 28.0313 5.29414 27.6243 5.29414 27.2V4.79998C5.29414 4.37565 5.46768 3.96869 5.77656 3.66863C6.08544 3.36857 6.50437 3.19999 6.94117 3.19999H15.1765V8C15.1765 9.27304 15.697 10.4939 16.6237 11.3941C17.5504 12.2943 18.8072 12.8 20.1177 12.8H25.0588V16C25.0588 16.4243 25.2324 16.8313 25.5412 17.1314C25.8501 17.4314 26.2691 17.6 26.7059 17.6C27.1427 17.6 27.5616 17.4314 27.8705 17.1314C28.1794 16.8313 28.3529 16.4243 28.3529 16V11.2C28.3529 11.2 28.3529 11.2 28.3529 11.104C28.3357 10.957 28.3026 10.8122 28.2541 10.672V10.528C28.1712 10.3606 28.066 10.2046 27.9412 10.064L18.0588 0.463995C17.9141 0.342705 17.7535 0.240492 17.5811 0.159998C17.532 0.153216 17.4821 0.153216 17.4329 0.159998L16.9223 0H6.94117C5.63069 0 4.37389 0.505713 3.44723 1.40589C2.52059 2.30606 2 3.52696 2 4.79998V27.2C2 28.473 2.52059 29.6939 3.44723 30.5941C4.37389 31.4943 5.63069 32 6.94117 32H15.1765C15.6133 32 16.0322 31.8314 16.3411 31.5314C16.65 31.2313 16.8235 30.8243 16.8235 30.4C16.8235 29.9756 16.65 29.5687 16.3411 29.2686C16.0322 28.9685 15.6133 28.8 15.1765 28.8ZM18.4705 5.456L22.7365 9.59998H20.1177C19.6808 9.59998 19.2618 9.4314 18.953 9.13134C18.6441 8.83129 18.4705 8.42432 18.4705 8V5.456ZM28.3529 20.8H19.1459L21.287 18.736C21.5972 18.4347 21.7714 18.0261 21.7714 17.6C21.7714 17.1739 21.5972 16.7653 21.287 16.464C20.9769 16.1627 20.5563 15.9934 20.1177 15.9934C19.679 15.9934 19.2584 16.1627 18.9482 16.464L14.007 21.264C13.8616 21.4195 13.7446 21.5981 13.6612 21.792C13.4964 22.1815 13.4964 22.6184 13.6612 23.008C13.7366 23.2058 13.8545 23.3858 14.007 23.536L18.9482 28.336C19.1014 28.4859 19.2835 28.605 19.4842 28.6862C19.6849 28.7675 19.9002 28.8093 20.1177 28.8093C20.3351 28.8093 20.5503 28.7675 20.7511 28.6862C20.9517 28.605 21.134 28.4859 21.287 28.336C21.4414 28.1873 21.564 28.0103 21.6476 27.8153C21.7312 27.6203 21.7743 27.4112 21.7743 27.2C21.7743 26.9888 21.7312 26.7797 21.6476 26.5847C21.564 26.3897 21.4414 26.2127 21.287 26.064L19.1459 24H28.3529C28.7898 24 29.2087 23.8314 29.5176 23.5313C29.8265 23.2313 30 22.8243 30 22.4C30 21.9757 29.8265 21.5687 29.5176 21.2687C29.2087 20.9686 28.7898 20.8 28.3529 20.8Z" fill="white"/>
</svg>
