<svg width="32" height="32" viewBox="0 0 32 32" fill="none" xmlns="http://www.w3.org/2000/svg">
<g clip-path="url(#clip0_702_1296)">
<path d="M30.4752 22.8604C29.1693 25.6283 27.1012 27.9526 24.4957 29.5833C20.8718 31.8452 16.5856 32.5637 12.4181 31.6015C8.25688 30.6455 4.7142 28.1213 2.45238 24.4974C0.184315 20.8735 -0.534219 16.5873 0.427991 12.4198C1.3902 8.25853 3.91444 4.71585 7.5321 2.45403C10.0813 0.860756 13.0054 0.0172615 15.9983 0.0172615H16.192C19.1723 0.0547504 22.0715 0.91699 24.5832 2.50401C25.3142 2.96637 25.5267 3.92858 25.0643 4.65961C24.602 5.39064 23.6397 5.60308 22.9087 5.14072C20.8906 3.85985 18.5538 3.16631 16.1545 3.13507C13.6927 3.10383 11.2872 3.78488 9.18785 5.09073C6.26998 6.91518 4.23934 9.76432 3.47082 13.1133C2.70231 16.4748 3.27713 19.9238 5.10158 22.8416C8.86295 28.8586 16.823 30.6955 22.84 26.9341C24.9394 25.622 26.6014 23.7539 27.651 21.5295C28.6757 19.3614 29.0756 16.9559 28.8069 14.5816C28.7132 13.7256 29.3255 12.9509 30.1878 12.8571C31.0438 12.7634 31.8185 13.3757 31.9123 14.238C32.2434 17.1808 31.7436 20.1674 30.4752 22.8604Z" fill="white"/>
<circle cx="28" cy="8" r="2" fill="white"/>
<path d="M21.9437 22.0508C21.3192 22.6753 20.3123 22.6753 19.6877 22.0508L16.4121 18.7688L13.1365 22.0444C12.512 22.669 11.505 22.669 10.8805 22.0444C10.256 21.4199 10.256 20.413 10.8805 19.7884L14.1561 16.5128L10.8805 13.2372C10.256 12.6127 10.256 11.6058 10.8805 10.9812C11.1928 10.669 11.6006 10.516 12.0085 10.516C12.4164 10.516 12.8242 10.669 13.1365 10.9812L16.4121 14.2568L19.6877 10.9812C20 10.669 20.4079 10.516 20.8157 10.516C21.2236 10.516 21.6314 10.669 21.9437 10.9812C22.5682 11.6058 22.5682 12.6127 21.9437 13.2372L18.6681 16.5192L21.9437 19.7948C22.5682 20.4194 22.5682 21.4263 21.9437 22.0508Z" fill="white"/>
</g>
<defs>
<clipPath id="clip0_702_1296">
<rect width="32" height="32" fill="white"/>
</clipPath>
</defs>
</svg>
