<svg width="17" height="18" viewBox="0 0 17 18" fill="none" xmlns="http://www.w3.org/2000/svg">
<path fill-rule="evenodd" clip-rule="evenodd" d="M3.14815 9.96452C1.34426 9.53763 0 7.91507 0 5.98148C0 4.04789 1.34426 2.42534 3.14815 1.99845V1.88889C3.14815 0.845593 3.99374 0 5.03704 0H12.3791C12.9112 0 13.4187 0.224779 13.7769 0.618298L16.5089 3.62352C16.825 3.97107 17 4.42441 17 4.89411V15.7407C17 16.2419 16.801 16.7223 16.4466 17.0762C16.0927 17.4307 15.6123 17.6296 15.1111 17.6296H5.03704C4.53585 17.6296 4.05544 17.4307 3.70159 17.0762C3.34711 16.7223 3.14815 16.2419 3.14815 15.7407V9.96452ZM3.46296 3.21867C3.3553 3.24259 3.25078 3.27344 3.14815 3.30933C2.04819 3.69907 1.25926 4.74867 1.25926 5.98148C1.25926 7.2143 2.04819 8.26389 3.14815 8.65363C3.44344 8.75815 3.76141 8.81482 4.09259 8.81482C4.199 8.81482 4.30415 8.80915 4.40741 8.79719C5.61315 8.6637 6.59159 7.77278 6.85541 6.61111H4.72222C4.38852 6.61111 4.06804 6.47826 3.83192 6.24215C3.59581 6.00604 3.46296 5.68556 3.46296 5.35185V3.21867ZM6.85541 5.35185C6.61489 4.29344 5.78063 3.45919 4.72222 3.21867V5.35185H6.85541ZM11.3333 1.25926H5.03704C4.68948 1.25926 4.40741 1.54133 4.40741 1.88889V1.90085C6.51919 2.06204 8.18518 3.82878 8.18518 5.98148C8.18518 8.13419 6.51919 9.90093 4.40741 10.0621V15.7407C4.40741 15.9076 4.47352 16.0681 4.59189 16.1859C4.70963 16.3043 4.87018 16.3704 5.03704 16.3704H15.1111C15.278 16.3704 15.4385 16.3043 15.5563 16.1859C15.6746 16.0681 15.7407 15.9076 15.7407 15.7407V5.66667H13.2222C12.1789 5.66667 11.3333 4.82107 11.3333 3.77778V1.25926ZM14.4815 14.4815C14.4815 14.829 14.1994 15.1111 13.8519 15.1111C13.5043 15.1111 13.2222 14.829 13.2222 14.4815V10.0741C13.2222 9.72652 13.5043 9.44444 13.8519 9.44444C14.1994 9.44444 14.4815 9.72652 14.4815 10.0741V14.4815ZM6.92593 14.4815C6.92593 14.829 6.64385 15.1111 6.2963 15.1111C5.94874 15.1111 5.66667 14.829 5.66667 14.4815V13.8519C5.66667 13.5043 5.94874 13.2222 6.2963 13.2222C6.64385 13.2222 6.92593 13.5043 6.92593 13.8519V14.4815ZM9.44444 14.4815C9.44444 14.829 9.16237 15.1111 8.81481 15.1111C8.46726 15.1111 8.18518 14.829 8.18518 14.4815V11.963C8.18518 11.6154 8.46726 11.3333 8.81481 11.3333C9.16237 11.3333 9.44444 11.6154 9.44444 11.963V14.4815ZM11.963 14.4815C11.963 14.829 11.6809 15.1111 11.3333 15.1111C10.9858 15.1111 10.7037 14.829 10.7037 14.4815V12.5926C10.7037 12.245 10.9858 11.963 11.3333 11.963C11.6809 11.963 11.963 12.245 11.963 12.5926V14.4815ZM15.5197 4.40741L12.8451 1.46515C12.7752 1.38834 12.6883 1.33104 12.5926 1.29641V3.77778C12.5926 4.12533 12.8747 4.40741 13.2222 4.40741H15.5197Z" fill="#004FA9"/>
</svg>
