<svg width="20" height="19" viewBox="0 0 20 19" fill="none" xmlns="http://www.w3.org/2000/svg">
<path fill-rule="evenodd" clip-rule="evenodd" d="M14.3513 1.11138L3.45999 6.14083C2.67981 6.50108 2.02831 6.80192 1.54441 7.08141C1.07339 7.35339 0.553869 7.71539 0.275339 8.29348C-0.0917816 9.05569 -0.0917816 9.94984 0.275339 10.712C0.553869 11.2901 1.07339 11.6521 1.54441 11.9241C2.02831 12.2036 2.67981 12.5045 3.45999 12.8648L14.3327 17.8856C15.1329 18.2551 15.7993 18.5629 16.3344 18.7532C16.8527 18.9374 17.4724 19.1005 18.0859 18.9247C18.8914 18.6941 19.5442 18.0879 19.8481 17.2885C20.0796 16.6795 19.9833 16.0306 19.8562 15.4829C19.7251 14.9175 19.4931 14.2065 19.2145 13.3526L18.1294 10.0265C18.0164 9.67984 18.0087 9.64164 18.0051 9.61337C18.0017 9.58631 18.0002 9.55903 18.0007 9.53174C18.0011 9.51221 18.0025 9.49278 18.0049 9.47335C18.0085 9.44509 18.016 9.40689 18.1282 9.06006L19.2359 5.63529C19.5115 4.7834 19.741 4.07371 19.8704 3.50934C19.9958 2.96241 20.0902 2.31468 19.858 1.70719C19.553 0.909168 18.9003 0.304642 18.0955 0.0748558C17.4829 -0.100067 16.8647 0.062458 16.3473 0.246374C15.8135 0.43614 15.149 0.743019 14.3513 1.11138ZM16.0715 10.5942H10.4698C9.88246 10.5942 9.40634 10.1056 9.40634 9.50282C9.40634 8.90006 9.88246 8.41146 10.4698 8.41146H16.0969C16.1011 8.39847 16.1053 8.38549 16.1095 8.3725L17.2008 4.9984C17.497 4.08274 17.6951 3.4668 17.7999 3.00944C17.8851 2.63807 17.8731 2.50643 17.8722 2.49005C17.811 2.34211 17.6893 2.22936 17.5396 2.18198C17.5236 2.18281 17.3948 2.18399 17.0435 2.30886C16.6109 2.46264 16.034 2.72785 15.1767 3.12376L4.38024 8.10948C3.54039 8.49724 2.9778 8.75819 2.5876 8.98355C2.27142 9.16614 2.18709 9.26207 2.17613 9.27374C2.11062 9.419 2.11062 9.58653 2.17603 9.73179C2.18709 9.74347 2.27142 9.8394 2.5876 10.022C2.9778 10.2473 3.54039 10.5083 4.38024 10.896L15.1581 15.8732C16.018 16.2703 16.5967 16.5364 17.0308 16.6907C17.3832 16.816 17.5125 16.8172 17.5285 16.8181C17.6782 16.7705 17.7999 16.6576 17.8609 16.5094C17.8617 16.493 17.8734 16.3608 17.787 15.9884C17.6807 15.5299 17.4803 14.9125 17.181 13.9949L16.1124 10.7194C16.1061 10.6999 16.0998 10.6806 16.0935 10.6613C16.0861 10.6389 16.0788 10.6166 16.0715 10.5942Z" fill="#004FA9"/>
</svg>
