<svg width="26" height="32" viewBox="0 0 26 32" fill="none" xmlns="http://www.w3.org/2000/svg">
<path d="M3.61949 27H22.3805C24.3763 27 26 25.3177 26 23.25V3.75C26 1.68225 24.3763 0 22.3805 0H3.61949C1.6237 0 0 1.68225 0 3.75V28.25C0 30.3177 1.6237 32 3.61949 32H21.174H22.3805C24.3763 32 26 30.3177 26 28.25V28.2469C24.9911 29.0333 23.7375 29.5 22.3805 29.5H21.174H3.61949C2.95423 29.5 2.41299 28.9393 2.41299 28.25C2.41299 27.5607 2.95423 27 3.61949 27ZM2.41299 3.75C2.41299 3.06075 2.95423 2.5 3.61949 2.5H22.3805C23.0458 2.5 23.587 3.06075 23.587 3.75V23.25C23.587 23.9393 23.0458 24.5 22.3805 24.5H3.61949C3.19667 24.5 2.79051 24.5755 2.41299 24.7142V3.75ZM11.9389 7.5625C11.9389 6.69956 12.6142 6 13.4471 6C14.28 6 14.9552 6.69956 14.9552 7.5625C14.9552 8.42544 14.28 9.125 13.4471 9.125C12.6142 9.125 11.9389 8.42544 11.9389 7.5625ZM10.4046 14.0509L9.34794 11.8034C9.34854 11.8031 9.51817 11.7174 10.3359 11.3041C11.3171 10.808 12.4731 10.9162 13.3528 11.5864C14.2322 12.2564 14.6763 13.3672 14.5117 14.4852C14.5059 14.5243 14.4984 14.5631 14.4891 14.6015L13.5314 18.5482C13.5116 18.7979 13.6511 18.9453 13.7394 19.0126C13.8328 19.0837 14.0258 19.1849 14.2685 19.0621L15.0883 18.6478L16.1464 20.8946L15.3267 21.3089C14.918 21.5156 14.4789 21.6174 14.0421 21.6174C13.4303 21.6174 12.8231 21.4177 12.3098 21.0267C11.4303 20.3566 10.9863 19.2459 11.1509 18.1279C11.1567 18.0887 11.1643 18.0499 11.1735 18.0116L12.1313 14.0649C12.151 13.8151 12.0115 13.6677 11.9232 13.6004C11.8298 13.5293 11.6368 13.4282 11.3941 13.5509C10.5737 13.9656 10.4046 14.0509 10.4046 14.0509Z" fill="#004FA9"/>
</svg>
