<svg width="15" height="18" viewBox="0 0 15 18" fill="none" xmlns="http://www.w3.org/2000/svg">
<path d="M12.3304 1.67075H10.2777C10.2232 1.20108 9.82301 0.835373 9.33893 0.835373H8.75926C8.43709 0.320389 7.87074 0 7.25056 0C6.63066 0 6.06418 0.320389 5.74132 0.835373H5.16206C4.67798 0.835373 4.2778 1.20108 4.22328 1.67075H2.17241C0.974487 1.67075 0 2.64537 0 3.84315V15.8277C0 17.0255 0.974487 18 2.17241 18H12.3304C13.5282 18 14.5028 17.0255 14.5028 15.8277V3.84315C14.5028 2.64523 13.5283 1.67075 12.3304 1.67075ZM5.27165 1.89006H5.98672C6.24614 1.89006 6.47974 1.73598 6.58177 1.49744C6.69685 1.22841 6.95943 1.05469 7.25056 1.05469C7.54156 1.05469 7.80373 1.22813 7.91812 1.49648C8.02002 1.73557 8.25375 1.89006 8.51358 1.89006H9.22934V3.34149H5.27165V1.89006ZM13.4481 15.8276C13.4481 16.4439 12.9467 16.9453 12.3304 16.9453H2.17241C1.55608 16.9453 1.05469 16.4439 1.05469 15.8276V3.84315C1.05469 3.22682 1.55608 2.72543 2.17241 2.72543H4.21696V3.45122C4.21696 3.97224 4.6409 4.39618 5.16206 4.39618H9.33893C9.86009 4.39618 10.284 3.97224 10.284 3.45122V2.72543H12.3304C12.9467 2.72543 13.4481 3.22682 13.4481 3.84315V15.8276Z" fill="#004FA9"/>
<path d="M6.15759 7.44263H11.737C12.0283 7.44263 12.2643 7.20642 12.2643 6.91528C12.2643 6.62401 12.0283 6.38794 11.737 6.38794H6.15759C5.86632 6.38794 5.63025 6.62401 5.63025 6.91528C5.63025 7.20642 5.86632 7.44263 6.15759 7.44263Z" fill="#004FA9"/>
<path d="M2.85114 7.90221C2.96018 8.01125 3.10341 8.06563 3.24651 8.06563C3.38961 8.06563 3.53284 8.01125 3.64188 7.90221L4.87935 6.6646C5.08535 6.45874 5.08535 6.12476 4.87935 5.9189C4.6735 5.71291 4.33951 5.71291 4.13366 5.9189L3.24651 6.80591L3.08419 6.64359C2.87819 6.43773 2.54435 6.43773 2.33835 6.64359C2.1325 6.84958 2.1325 7.18343 2.33835 7.38942L2.85114 7.90221Z" fill="#004FA9"/>
<path d="M6.14563 11.1877H11.7252C12.0163 11.1877 12.2525 10.9515 12.2525 10.6604C12.2525 10.3691 12.0163 10.1331 11.7252 10.1331H6.14563C5.85449 10.1331 5.61829 10.3691 5.61829 10.6604C5.61829 10.9515 5.85449 11.1877 6.14563 11.1877Z" fill="#004FA9"/>
<path d="M2.83928 11.6473C2.94489 11.7529 3.08524 11.811 3.23465 11.811H3.23506C3.38448 11.8109 3.52496 11.7527 3.62988 11.6473L4.86749 10.4097C5.07349 10.2039 5.07349 9.86987 4.86749 9.66402C4.66164 9.45802 4.32765 9.45802 4.1218 9.66402L3.23465 10.551L3.07219 10.3887C2.86633 10.1828 2.53249 10.1828 2.32649 10.3887C2.1205 10.5947 2.1205 10.9285 2.32649 11.1345L2.83928 11.6473Z" fill="#004FA9"/>
<path d="M11.8034 13.8408H6.224C5.93272 13.8408 5.69666 14.0769 5.69666 14.3682C5.69666 14.6594 5.93272 14.8955 6.224 14.8955H11.8034C12.0947 14.8955 12.3307 14.6594 12.3307 14.3682C12.3307 14.0769 12.0947 13.8408 11.8034 13.8408Z" fill="#004FA9"/>
<path d="M4.20004 13.3718L3.3129 14.2589L3.15044 14.0966C2.94444 13.8906 2.61073 13.8906 2.40474 14.0966C2.19875 14.3025 2.19875 14.6364 2.40474 14.8424L2.91753 15.3551C3.02657 15.4641 3.16966 15.5186 3.3129 15.5186C3.45599 15.5186 3.59923 15.4641 3.70813 15.3551L4.94574 14.1176C5.15173 13.9116 5.15173 13.5778 4.94574 13.3718C4.73988 13.1658 4.4059 13.1658 4.20004 13.3718Z" fill="#004FA9"/>
</svg>
