<svg id="Warstwa_1" enable-background="new 0 0 283.46 283.46" height="283.46" viewBox="0 0 283.46 283.46" width="283.46" xmlns="http://www.w3.org/2000/svg"><g><path d="m2.835 48.378h277.795v186.708h-277.795z" fill="#d6d4d1"/><g><path d="m5.157 50.662h273.23v182.15h-273.23z" fill="#026c34"/><g fill="#fff"><path d="m70.562 97.231s1.655-2.337 1.655-4.549c0-2.221-1.357-1.852-1.859-1.476-.51.385-1.506 1.373-.989 1.978.502.604 1.067-.455 1.412-.455.353 0 .447.188.447 1.113 0 .926-.666 3.389-.666 3.389z"/><path d="m66.585 97.68s.102 11.453 2.612 11.453c0 0 1.114 0 1.42-2.974.322-2.973 1.616-10.409 4.746-10.409 3.122 0-1.569 6.017.91 11.288 0 0 .894 1.953 2.596 1.953 0 0-.416-7.954-.957-10.605-.533-2.667-.235-2.667-.235-2.667s-1.208-1.459-.432-2.776c.792-1.318 1.177-1.828 1.906-.683.714 1.152 3.287 4.801.933 6.056l.973 10.315s2.463-1.562 1.867-4.417c-.597-2.879-1.852-7.122-.33-9.366 0 0 2.039 1.326 2.039 3.365 0 2.048-.156 10.183 3.954 10.183 4.095 0-1.004-9.123-1.004-10.763 0 0-.188-.447.792-1.482s1.099-1.428 1.852-.644c.745.784 2.102 2.149 2.102 3.491 0 1.341-1.152.769-1.152.769s1.388 4.393 1.388 7.326c0 2.941-1.702 5.318-4.855 5.318-3.138 0-3.741-3.852-3.741-3.852s-1.742 2.809-2.628 3.404l.674 12.904s-.078 1.938-1.145 2.941c0 0-.235.102-.33-1.231-.094-1.311-1.318-13.171-1.318-13.171s-5.538.957-5.538-7.248c0 0 .063-1.356.204-2.957.157-1.593-.016-3.311-.525-2.039-.51 1.271-.683 2.399-1.482 6.447-.816 4.032-1.836 5.162-3.044 5.162s-3.443-3.703-3.443-9.735c-.001-6.039 1.191-5.356 1.191-5.356z"/><path d="m86.705 91.655s.188 2.26 1.004 2.26c.832 0 .941-1.593.941-1.593s.313.298.313 1.334c0 1.027-.769 1.435-1.184 1.435-.432 0-1.217-.462-1.217-.965 0 0-.368.879-1.498.879-1.121 0-1.607-1.349-1.607-2.157s.321-1.498.58-1.498.377 1.177.377 1.412c0 .251.203 1.043.689 1.043s.951-.432 1.602-2.15z"/><path d="m66.451 123.463s3.907-5.483 10.009-7.091c0 0 1.051-.432 1.051.674 0 1.122.141 1.083-1.286 1.507-1.435.43-5.208 2.039-9.774 4.91z"/><path d="m111.697 117.501c0-.502-.048-3.389-.534-3.42-.486-.016-1.749.98-1.514 1.231.235.267 1.059 3.954-.871 3.954-1.938 0-2.479-4.715-2.479-4.715-1.066 3.004-2.447 5.083-3.906 5.083-1.436 0-1.82-1.867-1.82-2.313 0-.455.338-2.472-.438-2.472-.793 0-2.385 1.758-2.385 1.758l-1.083-15.595c1.083 1.169 1.742.282 1.742-.823 0-1.106-2.173-6.911-2.684-7.79-.502-.862-1.506.267-2.353 1.538-.863 1.271.109 2.455.109 2.455 0 1.78.22 4.558.848 10.04.643 5.491 1.185 11.634 1.185 11.634l-2.079 1.231s-1.333-4.534-4.91-4.534-3.546 3.02-3.546 7.483 6.902 1.027 6.902 1.027c0 2.926-4.251 8.856-9.93 8.856s-4.274-9.944-4.274-9.944c-3.287 6.785-1.263 13.68 4.165 13.68 5.42 0 10.362-5.036 11.539-7.396 1.177-2.354.698-5.993.698-5.993l1.6-.926s.408 5.412-.36 8.942c-.761 3.538-8.001 8.464-14.026 8.464-6.024 0-6.722-5.632-6.722-7.334s.4-3.671.4-4.942-.314-1.843-.314-1.843c-1.726 2.267-1.663 7.655-1.663 7.655 0 9.985 4.848 10.339 7.829 10.339 2.98 0 7.734-.597 13.609-4.683 5.867-4.071 3.601-17.556 3.601-17.556l.439-.479s-.063 1.969 2.871 1.969c2.926 0 4.377-2.212 4.377-2.212 1.177 1.797 2.776 1.797 2.776 1.797 3.429 0 3.201-3.648 3.201-4.166zm-23.14 3.318c-1.412 0-1.647-2.612-.525-2.612 1.129 0 2.572 2.048 2.572 2.048s-.612.564-2.047.564z"/><path d="m69.15 128.883s.439 1.914-.298 3.923c-.729 2.008-1.177 9.106 2.463 4.455 0 0 1.365 4.651-2.165 4.651-3.545 0-2.149-7.703-1.185-10.322.95-2.619 1.185-2.707 1.185-2.707z"/><path d="m105.076 127.386s-1.592.902-1.592-.926c0-1.835 1.576-1.631 1.576-1.631s1.365.102 1.365 2.737-1.616 3.906-1.616 3.906.8-2.549.267-4.086z"/><path d="m113.007 94.135c0-.604-.212-2.511-1.694-2.511-1.49 0-2.973 1.42-2.973 3.569s1.051 2.636 1.051 2.636c-2.887 4.604-12.959 10.307-6.433 7.483 6.526-2.832 8.057-6.378 8.057-6.378 2.235.103.949-1.679.949-1.679s1.043-2.532 1.043-3.12zm-2.44 1.803c-.62-.518-.455-1.091-.282-1.506.173-.432.98-.871.98-.056.001.832-.698 1.562-.698 1.562z"/><path d="m111.352 107.124s-.173 3.35-2.949 3.35c-2.793 0-2.259-4.447.636-6.542 0 0 .533-.047-.087 1.083-.611 1.121-1.851 3.788-.133 3.788 1.725 0 2.533-1.679 2.533-1.679z"/><path d="m128.845 93.875s-.597-.463-.016-1.191c.564-.723 1.098-.644 1.646.682.558 1.318 1.028 4.189-.228 7.304.001-.002.448-4.732-1.402-6.795z"/><path d="m132.202 113.722s.705 2.776 1.475 2.776c.761 0 .886-2.879.886-2.879s1.153 2.424 1.766 2.424c.611 0 .627-3.271.627-3.271s.863.847.863 2.612-1.153 2.047-1.53 2.047c-.384 0-1.388-.815-1.388-.815s-.338 1.514-1.443 1.514c-1.107-.001-1.899-2.19-1.256-4.408z"/><path d="m162.087 92.519s.65-1.404 1.412-.439c.77.949 1.617 2.91 1.617 5.044 0 2.149-1.352 3.146-1.352 3.146s.597-3.694-.801-5.083c-1.393-1.398-1.44-1.531-.876-2.668z"/><path d="m162.748 103.444s.471 1.624.965 1.624.91-2.11.91-2.11.479 1.867 1.065 1.867c.589 0 1.185-2.471 1.185-2.471s.424.697.424 2.282c0 1.577-.879 1.733-1.112 1.733-.243 0-.91-.016-1.351-.91 0 0-.438.926-1.441.926-.999.002-1.085-1.866-.645-2.941z"/><path d="m207.562 96.032s.65-1.403 1.42-.455c.753.957 1.6 2.927 1.6 5.06 0 2.134-1.35 3.138-1.35 3.138s.598-3.694-.792-5.091c-1.405-1.389-1.452-1.522-.878-2.652z"/><path d="m146.212 138.886s2.203-1.945 3.354-1.945c1.146 0-.125 2.039-.125 2.636 0 .596-.272 1.866 1.567.973 1.853-.887 3.529-1.569 3.845-1.451.313.141-2.649 3.475-5.351 3.475-2.699 0-1.381-2.887-1.303-3.271.094-.384.188-.956-1.311-.274-1.508.672-.676-.143-.676-.143z"/><path d="m197.371 137.324s1.728-.148 1.728.824c0 .98-1.662 2.149-.233 2.149 1.428 0 1.381 1.098.194 1.655-1.2.557-3.71 1.796-3.71.306 0-1.498 1.788-.98 1.788-2.283 0-1.302-1.317-.596-1.317-1.553-.003-.948 1.55-1.098 1.55-1.098z"/><path d="m191.237 120.114s.675-1.09 1.632-.008c.957 1.059 1.351 2.299 1.351 3.601 0 1.278-1.005 2.188-1.271 2.149-.273-.055.03-1.138.03-2.009 0-.878-1.333-1.977-1.796-2.329-.463-.353-.228-1.153.054-1.404z"/><path d="m193.074 114.325s.973-.745.973 1.13c0 1.891-1.897 1.372-5.616 4.181-3.733 2.809-2.685 1.004-2.511.729.18-.26 7.154-6.04 7.154-6.04z"/><path d="m186.146 108.427s1.169 1.647 1.875 3.138c.723 1.475 1.475 1.945 1.506.102.023-1.852 0-4.511 0-4.511s-.055-1.129.637-1.129c.683 0 .713.901 1.168.407.438-.494.008-1.191-.108-1.623-.144-.432-.612-1.538-1.71-.525-1.1 1.004-1.006 2.164-.863 3.545.143 1.365.313 3.695-.57 1.733-.902-1.961-1.404-3.844-2.604-3.844-1.192 0-.902 3.303-.134 3.303.757-.002.803-.596.803-.596z"/><path d="m153.162 125.825c-3.004.533-17.281.251-17.281.251 5.161-2.432 8.417-3.569 8.417-3.569l1.051.541.031-.862s5.615-2.173 5.615-5.067c0-2.902-3.953-5.264-6.512-5.264-2.549 0-4.173 3.247-4.173 5.036 0 1.796.831 2.651.831 2.651s-8.926 3.059-10.079 3.922c-1.153.854-1.852 2.996-1.852 4.235 0 1.24 3.161.989 3.161.989 6.37 0 7.586 1.796 7.586 1.796-6.314 2.408-4.715 7.264-4.715 7.264-4.785-1.529-5.711-3.953-6.416-6.604-.69-2.636-1.334-7.782-2.103-10.582-.761-2.809-3.412-9.476-3.954-9.476-.541 0-2.102 2.973-1.459 4.816.628 1.851 4.174 13.452 4.174 13.452-3.562 6.833-8.676 10.59-11.986 10.59-3.318 0-2.809-3.051-2.809-3.051 6.598-3.444 9.539-8.59 9.539-11.767 0-3.192-1.506-6.637-1.506-6.637s1.051.604 1.051-.51c0-1.121-3.122-4.589-3.624-4.589-.518 0-1.953 2.447-1.953 3.538 0 1.082 1.216 1.404 1.216 1.404s2.644 3.568 2.644 6.534c0 2.965-6.754 7.452-6.754 7.452s.698-4.935-.204-4.777c-.895.156-2.761 6.918-2.761 6.918s-7.656 4.777-8.08 4.981c-.407.181-7.695 3.342-4.769 3.342 2.934 0 12.715-4.424 12.715-4.424.086 5.389 5.146 5.53 5.146 5.53 6.848 0 13.217-10.119 13.217-10.119 4.126 9.311 12.496 9.554 14.449 9.554 1.944 0 2.229-1.726 2.229-2.934s-5.647-1.875-5.647-4.55c0-2.683 11.187-5.075 13.963-5.593 2.776-.51 2.871-1.341 3.192-2.235.324-.885 1.406-2.728-1.59-2.186zm-9.248-9.885c.369 0 3.317 1.49 3.317 1.827 0 .338-3.364.997-3.364.997-.55-1.53-.307-2.824.047-2.824z"/><path d="m115.901 95.192s-.408 4.04-.408 6.307c0 2.274 1.554 5.357 2.832 5.357 1.271 0 4.699-12.598 7.397-12.598s.549 3.224.549 9.609c0 6.369 4.001 4.134 4.439 3.953.455-.204 3.429-1.898 3.429-5.867 0-3.978-1.389-7.868-1.389-8.526 0-.667 1.208-3.452 1.835-2.824.628.627 1.742 4.463 1.742 7.138 0 2.684 1.02 9.523 4.188 9.523s.957-7.232.596-8.409c-.36-1.2-1.914-4.196-1.333-4.941.604-.745 1.349-1.875 1.601-2.361.267-.486 1.128.133 1.851.918.723.784 2.165 2.659 2.165 4.377 0 1.726-2.142-.439-2.142-.439s1.404 4.118 1.404 7.734-1.914 6.197-4.206 6.197c-2.291 0-5.005-3.35-5.005-3.35s-2.267 4.801-6.95 4.801c-4.667 0-4.291-7.186-4.291-7.186s.385-3.891-.125-3.71c-.51.164-2.016 4.8-2.55 6.299-.533 1.514-1.066 3.09-2.572 3.09-1.507 0-4.723-3.702-4.723-8.377.003-4.676 1.666-6.715 1.666-6.715z"/><path d="m151.82 97.868 3.569 5.225-.581-6.127s-.689-.572-.689-1.529c0-.949.705-3.153 1.678-3.153.975 0 3.768 6.879 3.768 8.417 0 1.537-1.412.407-1.412.407l.282 6.989s7.586 11.092 10.261 17.94c2.684 6.84 1.043 6.706.329 5.035-.729-1.687-6.134-13.154-10.149-18.033 0 0 1.238 12.849 1.238 15.963 0 3.13-.957 9.39-2.385 9.39-1.441 0 .598-4.283.502-6.856-.094-2.596-1.818-18.936-2.588-23.438l-7.773-10.817s-1.529.196-1.529-1.977c0-2.157-.485-4.235.502-4.235.988 0 6.889 5.483 6.889 6.448-.005.946-1.912.351-1.912.351z"/><path d="m172.128 99.711s-.117 4.095.738 11.491c.846 7.39.973 12.747.973 15.681s.895 17.085-13.813 17.085c0 0-.901.039-.901-.33 0-.36.888-.674 2.182-1.113 1.294-.431 11.092-3.436 10.275-15.084-.802-11.648-2.158-30.059-2.793-30.655 0 0-.598-.313-.598-1.459 0-1.152 2.244-3.349 2.84-3.349.59 0 2.479 6.393 2.479 7.632-.001 1.245-1.382.101-1.382.101z"/><path d="m179.235 100.651s2.495 22.105 3.318 27.597c.831 5.482-2.196 8.166-2.737 8.166-.542 0 .125-1.891.125-4.88 0-3.004-2.934-22.544-3.577-27.713-.627-5.162-1.302-5.139-1.302-8.261s1.977-4.298 2.486-4.298 1.185 2.125 1.185 2.125 1.404 4.189 2.165 5.358c.77 1.185.77 1.694.77 2.086-.001.378-1.53.583-2.433-.18z"/><path d="m177.644 128.625s-.126 10.488 3.027 10.488c0 0 .871.549 3.287-4.942 2.432-5.482 3.576-6.503 4.722-6.503s3.413 4.558 5.672 4.558c2.267 0 2.94-3.506 2.94-6.048 0-2.564-1.225-19.132-1.225-19.132l-7.324-9.413s-.314-.313-.314-2.369c0-2.055-.299-3.381.471-3.381s1.898 1.718 3.35 2.965c1.451 1.248 2.049 1.687 2.049 2.408 0 .714-1.084.268-1.084.268l2.4 3.545-.367-4.243s-.668-.934-.668-1.914c0-.973 1.162-3.381 1.893-3.381.736 0 3.021 6.338 3.021 7.569 0 1.247-.996-.063-.996-.063l.354 6.801 4.502 6.149s-1.867-11.68-1.867-16.731c0 0-.251-.235-.251-.965s1.468-3.138 2.196-3.138c.738 0 2.715 6.762 2.715 8.275 0 1.491-1.2.455-1.2.455l1.216 16.058s5.773 8.095 6.762 10.354c.988 2.259.896 5.554.533 5.389-.346-.149-3.121-5.68-6.879-10.104 0 0 1.074 9.115-.934 10.551 0 0-.188-3.758-.188-5.672s-.928-7.593-.928-7.593l-5.199-7.295s.809 13.837.809 17.595c0 3.757-1.828 7.208-5.209 7.208s-6.346-4.173-6.346-4.173-1.153.792-3.531 5.616c-2.393 4.801-3.129 5.225-4.148 5.225s-5.099-2.432-5.099-6.565c-.006-4.158 1.838-7.852 1.838-7.852z"/><path d="m212.071 95.066s-.282-.172-.282-.965c0-.784 1.396-2.941 2.041-2.941.635 0 3.606 6.433 3.606 7.664 0 1.239-1.372-.188-1.372-.188s-.031 1.169.745 10.802c.761 9.617 5.161 27.039-7.53 32.192-12.691 5.162 2.557-3.381 4.706-8.707 2.134-5.334.879-12.284.157-19.478-.721-7.176-2.071-18.379-2.071-18.379z"/><path d="m194.768 183.739h-13.696l-.047-1.257s.934-.895.934-1.506c0-.619-.887-2.289-1.528-2.289-.636 0-1.593 1.396-1.593 2.203 0 .809.979 1.614.979 1.614v1.257l-95.072-.3c4.581 4.591 5.013 4.677 25.588 5.187 20.567.519 69.72-.957 69.72-.957v1.537s-.988.762-.988 1.568.831 2.174 1.576 2.174 1.2-1.615 1.2-1.615h4.848s-.094.979 1.1.979c1.192 0 1.23-1.111 1.23-1.111h5.186s.752 1.158 1.944 1.158c1.185 0 2.699-.57 2.699-4.775-.001-4.19-4.08-3.867-4.08-3.867zm-.99 6.251-4.776.056s-.32-.871-1.215-.871c-.896 0-1.037 1.013-1.037 1.013l-4.688.07s-.222-.722-.879-1.121l-.078-1.515 12.851-.313c-.005-.003-.687 1.606-.178 2.681z"/></g></g></g></svg>