<svg height="180" viewBox="0 0 180 180" width="180" xmlns="http://www.w3.org/2000/svg" xmlns:sketch="http://www.bohemiancoding.com/sketch/ns"><g id="Page-1" fill="none" fill-rule="evenodd"><g id="Material"><g id="Slice"/><g id="circle_egypt"><path id="Rectangle-3-copy-2" d="m174.873467 120h-169.75245717c12.35471617 34.955772 45.69086397 60 84.87622837 60 39.1853648 0 72.5215118-25.044228 84.8762248-60z" fill="#262626"/><path id="Rectangle-3-copy-3" d="m5.12100983 120h169.75245717c3.316438-9.383367 5.121009-19.480937 5.121009-29.9999996 0-10.519063-1.804571-20.6166327-5.121013-30.0000004l-169.75245317.0000004c-3.31643875 9.3833673-5.12100983 19.480937-5.12100983 30 0 10.5190626 1.80457108 20.6166326 5.12101363 29.9999996z" fill="#fff"/><path id="Rectangle-3" d="m5.12100983 60h169.75245717c-12.354717-34.9557725-45.690864-60-84.8762288-60-39.1853644 0-72.5215122 25.0442275-84.87622457 59.9999996z" fill="#f1453d"/><g id="Egypt" transform="translate(69 61)"><path id="Shape" d="m21.243 29.52 20.5464 19.0737-1.46277-34.641c-.214914-5.25-4.7772-4.0455-8.0913-2.15169-3.3573 2.15169-7.1874 2.15169-11.2338.7311-4.0455 1.42059-7.8759 1.42059-11.2332-.7311-3.3138-1.89369-7.8756-3.0984-8.091 2.15169l-1.46367 34.641 21.0294-19.0737z" fill="#fff"/><g fill="#c09300"><path id="Shape" d="m21.1133621 29.6596474 20.5464 19.0737.3395603.3152217-.0195471-.462908-1.46277-34.641c-.102949-2.5148817-1.2003777-3.7975748-3.059607-3.9367482-1.4771679-.11057412-3.3750644.5181833-5.3166065 1.6276585-3.1547887 2.0216088-6.848737 2.2008881-11.076143.7167515l-.0631258-.0221619-.0631243.0221662c-4.2264782 1.4841411-7.9207588 1.3048421-11.06725243-.7117423-1.94973935-1.1144727-3.84739151-1.74320827-5.32443755-1.632661-1.85911993.1391431-2.95657197 1.4218068-3.05976355 3.936965l-1.46366031 34.6407673-.01924238.4554137.33763042-.3062313 21.0294-19.0737.3656924-.3316836h-.4937053-.00006-.4853249zm.2592758-.2792948-.1296379.1396474v.190545h.00006v-.190545l-.1280129-.1411386-21.0294 19.0737.31838804.1491824 1.46367-34.641c.09564786-2.3312866 1.0518681-3.4488835 2.70744614-3.5727927 1.3851484-.1036694 3.2171738.5033225 5.09863854 1.5784964 3.24599418 2.0806459 7.06122248 2.265815 11.39087148.7454453l-.1262501.0000043c4.3305676 1.5203542 8.1454505 1.3352055 11.3997351-.750462 1.8732654-1.0701761 3.7055315-1.6771907 5.0908049-1.5734955 1.6556814.1239368 2.6118712 1.2415475 2.7072933 3.572554l1.4627802 34.6412453.3200132-.1476863z"/><g id="wing-right" transform="translate(0 12.6)"><path id="Shape" d="m4.041.147-1.42026 33.696-2.41041 2.1504 1.46352-34.641c.68847-.47346 1.89396-1.20513 2.36715-1.20513z"/><path id="Shape" d="m6.927 2.559-1.20513 28.1865-2.40969 2.46612 1.46316-32.547c.47373.4731 1.89414 1.63494 2.15163 1.89312z"/><path id="Shape" d="m9.552 4.71-.94635 23.5086-1.93668 1.89276 1.20531-26.8215c.47244.47346 1.41933 1.16202 1.67772 1.42002z"/><path id="Shape" d="m12.393 5.916-.94689 20.0361-1.89396 1.53579.94689-22.3032c.47373.214914 1.42044.73128 1.89396.73128z"/><path id="Shape" d="m15.018 5.916-.68922 16.6971-1.93632 1.89387.73176-18.3756c.4728-.000183 1.67811-.000183 1.89378-.21546z"/></g><g id="wing-left" transform="matrix(-1 0 0 1 42 12.6)"><path id="Shape" d="m4.041.147-1.42026 33.696-2.41041 2.1504 1.46352-34.641c.68847-.47346 1.89396-1.20513 2.36715-1.20513z"/><path id="Shape" d="m6.927 2.559-1.20513 28.1865-2.40969 2.46612 1.46316-32.547c.47373.4731 1.89414 1.63494 2.15163 1.89312z"/><path id="Shape" d="m9.552 4.71-.94635 23.5086-1.93668 1.89276 1.20531-26.8215c.47244.47346 1.41933 1.16202 1.67772 1.42002z"/><path id="Shape" d="m12.393 5.916-.94689 20.0361-1.89396 1.53579.94689-22.3032c.47373.214914 1.42044.73128 1.89396.73128z"/><path id="Shape" d="m15.018 5.916-.68922 16.6971-1.93632 1.89387.73176-18.3756c.4728-.000183 1.67811-.000183 1.89378-.21546z"/></g><path id="tail" d="m19.8965561 33.2834398-2.9023044 13.2126067 1.1067336 1.1069791 1.1567518-.8542534 1.0830151-7.7057962-.4512576 7.6679598 1.1112734 1.413887 1.1114769-1.4138772-.4496486-7.7057884 1.081973 7.7435745 1.1557273.8542988 1.1077445-1.1069375-2.9027081-13.2126577z"/></g><g id="leg-left" transform="translate(8.4 27.3)"><path id="Shape" d="m.42 20.5635 7.8765 1.20531 3.3564-15.2772-5.5089-6.2397z" fill="#fff"/><g fill="#c09300"><path id="Shape" d="m11.5693187 6.12751161.2771734.31394269-3.41170148 15.5289135-8.24113281-1.2611083 5.77202219-20.4573495.31199619-.1180199.06275598.07108106-.11211912.40525688-5.5781175 19.79383886 7.50460082 1.1623494 3.30156853-15.01136524z"/><path id="Shape" d="m4.86936398 9.19050256 3.92341333-3.74724717-.26325462-.27563078-3.52459016 3.34936223-.57762979-1.40734826-.35260548.14472284z"/><path id="Shape" d="m7.46789553 10.7754112 2.65740147-3.47831471-.30287396-.23139298-2.07615044 2.72550231-.72877161-6.83540987-.37900198.0404081z"/><path id="Shape" d="m8.84395388 8.43803723 1.29300002 4.46249997.3660922-.1060744-1.29299998-4.46250003z"/><path id="Shape" d="m8.05251636 15.0755022.31834728.2095956 2.61530996-3.9723-.3183472-.2095956zm.32423745.0707794-.8083798-4.4555607-1.78024395 2.4233257-.75493108-2.6878116-2.75908481 2.8299629 1.39242538 5.1078484 1.73874666-2.8488854.94037087 2.8643809 1.98358749-3.0853822-.32060914-.2061192-1.55175154 2.4083474-.94968208-2.892743-1.70974633 2.7927702-1.10111052-4.0270811 2.15000224-2.1988199.78296509 2.7876222 1.72315568-2.3224284.65031887 3.5840164.0940548.4449342.74406455 3.51986.37290762-.0788368z"/><path id="Shape" d="m3.62481713 18.3123092 1.04107529 3.4544716 1.43174505-2.4088897.81156323 2.4709562.3621186-.1189346-1.07865815-3.2841767-1.41095262 2.4044345-1.02452759-3.3995634-1.81542796 2.5498615.31049404.2210628z"/></g></g><g id="leg-right" transform="matrix(-1 0 0 1 33.6 27.3)"><path id="Shape" d="m6.144.252-5.724 20.3115 7.8765 1.20531 3.3564-15.2772-5.5089-6.2397z" fill="#fff"/><g fill="#c09300"><path id="Shape" d="m11.5779138 6.13724695.2685783.30420735-3.41170148 15.5289135-8.24113281-1.2611083 5.77202219-20.4573495.31199619-.1180199.07906512.08955374-.12842826.3867842-5.5781175 19.79383886 7.50460082 1.1623494 3.30156853-15.01136524z"/><path id="Shape" d="m4.86936398 9.19050256 3.92341333-3.74724717-.26325462-.27563078-3.52459016 3.34936223-.57762979-1.40734826-.35260548.14472284z"/><path id="Shape" d="m7.46789553 10.7754112 2.65740147-3.47831471-.30287396-.23139298-2.07615044 2.72550231-.72877161-6.83540987-.37900198.0404081z"/><path id="Shape" d="m8.84395388 8.43803723 1.29300002 4.46249997.3660922-.1060744-1.29299998-4.46250003z"/><path id="Shape" d="m8.05251636 15.0755022.31834728.2095956 2.61530996-3.9723-.3183472-.2095956zm.32423745.0707794-.8083798-4.4555607-1.78024395 2.4233257-.75493108-2.6878116-2.75908481 2.8299629 1.39242538 5.1078484 1.73874666-2.8488854.94037087 2.8643809 1.98358749-3.0853822-.32060914-.2061192-1.55175154 2.4083474-.94968208-2.892743-1.70974633 2.7927702-1.10111052-4.0270811 2.15000224-2.1988199.78296509 2.7876222 1.72315568-2.3224284.65031887 3.5840164.0940548.4449342.74406455 3.51986.37290762-.0788368z"/><path id="Shape" d="m3.62481713 18.3123092 1.04107529 3.4544716 1.43174505-2.4088897.81156323 2.4709562.3621186-.1189346-1.07865815-3.2841767-1.41095262 2.4044345-1.02452759-3.3995634-1.81542796 2.5498615.31049404.2210628z"/></g></g><g id="footer" transform="translate(2.4 46.2)"><path id="Shape" d="m33.6639 9.3228c1.42062-.25764 1.42062-.98928 1.42062-1.93659 1.42062-.47328.68847-2.15112 1.67829-2.15112-.98982.258732-1.20474-1.67823-2.40987-1.41948 0-1.67895-1.67865-1.89387-3.099-1.42131-2.84085.94728-7.8765 1.16256-12.654 1.16256-4.7772-.215274-9.7701-.215274-12.6537-1.16256-1.42026-.47256-3.0981-.257643-3.0981 1.42131-1.20549-.258735-1.42062 1.67823-2.41023 1.41948.98964 0 .257862 1.67784 1.67829 2.15112 0 .94728 0 1.67895 1.46334 1.93659 3.3135.94692 9.0384 1.4202 15.0204 1.4202 5.98296 0 11.70726-.47328 15.06396-1.4202z" fill="#fff"/><path id="Shape" d="m35.4213478 7.63605798c.495849-.23024063.7741149-.61542689.9402376-1.15984368.0206041-.06752372.0968824-.36860663.1082713-.41559941.0997235-.40945401.5085857-.90722131.5085857-.90722131s-.6373546-.31240675-.940641-.69652733c-.0267656-.0338994-.1330728-.17020074-.1182326-.15122382-.5540971-.70855042-.8315073-.87608184-1.2386192-.88182353-.2290877-1.49824382-1.7998493-1.94676286-3.5396029-1.3679351-2.4457592.81553706-6.6669143 1.1443212-12.5414067 1.1443212-.3948118-.01815326-.8262315-.03596059-1.3195469-.05501944-.3621973-.0139932-.5819085-.02214908-1.3286091-.04956581-5.6744955-.2083514-7.97361686-.40922192-9.89423233-1.04015968-1.88164056-.62607687-3.39658975.80852921-3.5121392 1.37410059-.47298448.01729439-.82002161.30810405-1.26426444.87605504.01493355-.0190921-.09174251.11765414-.11858917.15164675-.30309736.38377478-.98890163.82533027-.98890163.82533027s.45743633.36859254.55719348.77801515c.01139449.0469966.08770745.34810509.10831881.41563343.18970144.62151295.57191447 1.15875773.92375123 1.15875772.03701128 1.28265772.39248292 1.79920394 1.7547767 2.03905344 3.18960031.91351964 8.80007025 1.42560254 15.08224255 1.42560254 6.2770586 0 11.8917729-.5114112 15.1607926-1.43359674 1.3789022-.2484209 1.7829686-1.45568254 1.6606152-2.03000028zm-16.8214078 2.75028702c-6.2213887 0-11.77435201-.50683407-14.92239965-1.4064717-1.07151395-.19061364-1.20468535-.43343891-1.20468535-1.5936633v-.25709603l-.24391281-.08127062c-.39309863-.13097863-.57970334-.36102877-.70753459-.77983834-.01680462-.05505647-.08571505-.32756041-.09752198-.37625735-.17020412-.69855059-.15813639-.50785751-.15813639-.50785751s.29528322-.28027954.45659115-.48452385c.02840116-.03596089.13693855-.17509313.12065832-.15427935.39890293-.5099853.6036541-.65087098.93029673-.58076349l.43149957.092613v-.44132646c0-1.18885259 1.13831481-1.57883685 2.62884523-1.08289593 2.01396009.66160495 4.33431367.86433048 10.09197067 1.07573534.7461965.02739823.965682.03554572 1.3272446.0495144.4918969.01900406.9218419.03675051 1.3310289.05518962 5.9683016.00036157 10.2390892-.33228842 12.7828752-1.18051258 1.490509-.4959023 2.6295254-.10581663 2.6295254 1.08296915v.4413595l.4315251-.09265152c.3264379-.07008855.5310328.07073487.9298617.58073641-.016178-.02068755.0919778.11798396.1202885.15384024.4654939.5895609.4605304.49399994.4605304.49399994s-.1139444.30290838-.161685.49892611c-.0118008.04869178-.0806771.32116165-.0974749.37621133-.1277896.41879184-.3143833.64882673-.7075393.77980677l-.2439265.0812642v.25710702c0 1.16119005-.1296332 1.40466915-1.1276089 1.58565945-3.2256889.90827176-8.7832316 1.41447555-15.0003161 1.41447555z" fill="#c09300"/><g id="left" transform="translate(2.4)"><path id="Shape" d="m13.8345 1.920369c.1609704 0 .9759489.47257494.9759489.47257494s.736759.25616548.880957.63686556c.2612351.68969221-.3667969 2.23718291-.3667969 2.23718291s-.9442839-1.56269755-1.74888-1.45275341c-1.67793.214545-4.3035 0-5.724-.258735-1.20513-.215277-3.8304-.68838-5.5092-1.16256-.5315126-.23145674-1.83616782.7540498-1.88908659.45825785-.04621794-.25833735-.19301346-1.05542399.19035641-1.50823313.56385013-.66597955 1.78710415-.97303403 2.17189018-.88568472 1.4637.4731 3.3576.94692 5.2515 1.20474 1.936131.258345 4.088211.473256 5.767311.258345z" fill="#fff"/><path id="Shape" d="m6.91562745 3.57980394c-1.97105229-.36180343-3.45071462-.67204213-4.64918639-1.01213313-.85029705-.37027718-1.13857106-.98960773-.84192316-1.58245824.25513704-.50989111.88617092-.8379911 1.44978348-.70926643 1.61706925.52267231 3.48267647.960931 5.21809334 1.19717709 2.50627448.33442131 4.28977868.44100199 5.71791058.25821284l.0241947-.00154207c.5577619 0 1.0576945.46814061 1.1246328 1.01742496.076862.63071577-.4118335 1.12660565-1.3592331 1.25605604-1.2325543.15759797-3.1469957.09227994-4.73321111-.10278306-.08551568.157819-.22036056.30061588-.41720716.47327553-.31726839.27828493-.61080956.74423253-.61080956.74423253s-.26760856-.49097587-.52016037-.81665417c-.03203035-.04120084-.05008419-.06442488-.06455414-.08318268-.18071797-.23426977-.29335389-.4291705-.33832991-.63835921zm2.06265092-.04976116c1.54419043.1852536 3.39186423.24622091 4.57164923.09537588.7566734-.10339573 1.0797103-.43118833 1.0308543-.83209212-.0441621-.36238635-.2353478-.68238259-.7462819-.68238254-.9661411.09860039-3.2550987.07855769-5.79301722-.26008668-1.75917111-.23947912-3.64663987-.68287341-5.26798235-1.20772673-.36998052-.08398835-.82900768.15467841-1.00812283.51263984-.19146189.3826364-.00933656.77391615.62895295 1.05377392 1.14647009.32382249 2.59158961.6275118 4.51130657.98088664.00658574-.04800214.01578331-.09776496.02758948-.14969763l-.0047416.04224664c0-.57854004.55903166-1.137135 1.137825-1.137135.55542876 0 .921615.71745495.921615 1.395705 0 .06751149-.00311143.12997365-.00964663.18849278z" fill="#c09300"/><path id="Path" d="m7.61971051 4.06777682c-.032501-.0418075-.05000667-.06432639-.06396259-.08241783-.25864887-.33529378-.32725146-.52407947-.25085452-.86013235l.0047416-.04224664c0-.36797.38831834-.755985.756675-.755985.27534695 0 .540465.51943584.540465 1.014555 0 .32666666-.09077817.46688049-.40826709.74535889-.14174298.12432671-.33314314.34275149-.33314314.34275149s.05409134.02465352-.24565426-.36188356z" fill="#fff"/><path id="Shape" d="m2.16014024.5293286c-1.49777441-.26448674-2.48788718 1.42749523-1.88139463 2.63902122l.17879592.35716169.16514142-.36367674c.06007326-.13229416.20544179-.21734046.60612124-.37468732.00016011-.00006288.00016011-.00006288.00032023-.00012576.50276354-.1974353.69461862-.30964827.81386271-.57158015.11152661-.3144468.11871111-.49810735.07372546-.76709342-.00915434-.05473724-.01003645-.06014928-.01290304-.08037777-.02408627-.16996809.00706405-.29094134.18026858-.543057l.16768907-.24408737z" fill="#c09300"/><path id="Path" d="m1.72642995 1.421449c.00351909.02483293.00449986.03085022.0143537.08977005.03515459.21020249.03044096.33069916-.05099838.56195955-.05394336.11668728-.19938677.20175481-.59998099.3590682-.50332791.19765692-.57283175.28400989-.57283175.28400989-.20048824-.8318647.40024374-1.80584099 1.30405861-1.83201825-.04183197.08098373-.13251225.26968584-.09460119.53721056z" fill="#fff"/><path id="Shape" d="m15.063105 5.82080174.344675-.47370666c.3767568-.5177987.5910484-1.27548379.5312875-1.90563032-.071308-.75190451-.5151047-1.23803976-1.2750675-1.23803976h-.3618502l.2047007.29838434c.135013.19680338.1163989.26049839-.0771939.42497225-.0265496.02255615-.1272697.10478844-.1354364.11156117-.2951546.24477403-.4360352.45142737-.4360352.77714724 0 .21980301.1313282.38454641.3875504.57676711.0423603.03177918.0876519.06407141.1471313.10529643.0171681.01189915.1199189.08257869.149468.10314994.3719328.25892871.5207703.42813418.5207703.63426652z" fill="#c09300"/><path id="Path" d="m14.7601053 4.28789152c-.0306311-.02132444-.1338276-.09231061-.150117-.10360074-.055894-.03873998-.0976599-.06851842-.1355218-.0969228-.1667059-.12506461-.2351315-.21090047-.2351315-.27187798 0-.18417186.082021-.3044859.2981938-.48375968.0056337-.00467207.1089714-.08904152.1389093-.11447633.3274574-.27820343.2983826-.43892147.2983826-.59071946.3488785.10449097.5421092.40077099.5847993.85091571.0390463.41172186-.0627236.89939083-.2580555 1.30442602-.0436421-.12316042-.0709204-.16640938-.5414592-.49398474z" fill="#fff"/><g fill="#c09300"><path id="Shape" d="m2.55730244 1.31696267 1.422.474.44677828.1489261-.30184359-.36149725c-.23496519-.28140158-.98432901-.52111652-1.52323713-.52111652z"/><path id="Shape" d="m4.92745807 2.0502605 1.68.474.10024892-.24615022c-.43420723-.23637266-1.39844765-.48883528-1.74270699-.48883528z"/><path id="Shape" d="m12.8324506 2.74896048c-.5101166.0272518-.8542192.09205539-1.0208635.23082732l.1026558.23538958 1.677-.216-.0162429-.26490238c-.3307226 0-.5181785.00269898-.7425494.01468548z"/><path id="Shape" d="m9.20778548 2.75067443.06416452.25105057h1.677l.0958082-.22808213c-.3060965-.30739742-1.31689098-.30739742-1.83697272-.02296844z"/></g></g><g id="right" transform="matrix(-1 0 0 1 34.8 0)"><path id="Shape" d="m13.8345 1.920369c.1609704 0 .9759489.47257494.9759489.47257494s.736759.25616548.880957.63686556c.2612351.68969221-.3667969 2.23718291-.3667969 2.23718291s-.9442839-1.56269755-1.74888-1.45275341c-1.67793.214545-4.3035 0-5.724-.258735-1.20513-.215277-3.8304-.68838-5.5092-1.16256-.5315126-.23145674-1.83616782.7540498-1.88908659.45825785-.04621794-.25833735-.19301346-1.05542399.19035641-1.50823313.56385013-.66597955 1.78710415-.97303403 2.17189018-.88568472 1.4637.4731 3.3576.94692 5.2515 1.20474 1.936131.258345 4.088211.473256 5.767311.258345z" fill="#fff"/><path id="Shape" d="m6.91562745 3.57980394c-1.97105229-.36180343-3.45071462-.67204213-4.64918639-1.01213313-.85029705-.37027718-1.13857106-.98960773-.84192316-1.58245824.25513704-.50989111.88617092-.8379911 1.44978348-.70926643 1.61706925.52267231 3.48267647.960931 5.21809334 1.19717709 2.50627448.33442131 4.28977868.44100199 5.71791058.25821284l.0241947-.00154207c.5577619 0 1.0576945.46814061 1.1246328 1.01742496.076862.63071577-.4118335 1.12660565-1.3592331 1.25605604-1.2325543.15759797-3.1469957.09227994-4.73321111-.10278306-.08551568.157819-.22036056.30061588-.41720716.47327553-.31726839.27828493-.61080956.74423253-.61080956.74423253s-.26760856-.49097587-.52016037-.81665417c-.03203035-.04120084-.05008419-.06442488-.06455414-.08318268-.18071797-.23426977-.29335389-.4291705-.33832991-.63835921zm2.06265092-.04976116c1.54419043.1852536 3.39186423.24622091 4.57164923.09537588.7566734-.10339573 1.0797103-.43118833 1.0308543-.83209212-.0441621-.36238635-.2353478-.68238259-.7462819-.68238254-.9661411.09860039-3.2550987.07855769-5.79301722-.26008668-1.75917111-.23947912-3.64663987-.68287341-5.26798235-1.20772673-.36998052-.08398835-.82900768.15467841-1.00812283.51263984-.19146189.3826364-.00933656.77391615.62895295 1.05377392 1.14647009.32382249 2.59158961.6275118 4.51130657.98088664.00658574-.04800214.01578331-.09776496.02758948-.14969763l-.0047416.04224664c0-.57854004.55903166-1.137135 1.137825-1.137135.55542876 0 .921615.71745495.921615 1.395705 0 .06751149-.00311143.12997365-.00964663.18849278z" fill="#c09300"/><path id="Path" d="m7.61971051 4.06777682c-.032501-.0418075-.05000667-.06432639-.06396259-.08241783-.25864887-.33529378-.32725146-.52407947-.25085452-.86013235l.0047416-.04224664c0-.36797.38831834-.755985.756675-.755985.27534695 0 .540465.51943584.540465 1.014555 0 .32666666-.09077817.46688049-.40826709.74535889-.14174298.12432671-.33314314.34275149-.33314314.34275149s.05409134.02465352-.24565426-.36188356z" fill="#fff"/><path id="Shape" d="m2.16014024.5293286c-1.49777441-.26448674-2.48788718 1.42749523-1.88139463 2.63902122l.17879592.35716169.16514142-.36367674c.06007326-.13229416.20544179-.21734046.60612124-.37468732.00016011-.00006288.00016011-.00006288.00032023-.00012576.50276354-.1974353.69461862-.30964827.81386271-.57158015.11152661-.3144468.11871111-.49810735.07372546-.76709342-.00915434-.05473724-.01003645-.06014928-.01290304-.08037777-.02408627-.16996809.00706405-.29094134.18026858-.543057l.16768907-.24408737z" fill="#c09300"/><path id="Path" d="m1.72642995 1.421449c.00351909.02483293.00449986.03085022.0143537.08977005.03515459.21020249.03044096.33069916-.05099838.56195955-.05394336.11668728-.19938677.20175481-.59998099.3590682-.50332791.19765692-.57283175.28400989-.57283175.28400989-.20048824-.8318647.40024374-1.80584099 1.30405861-1.83201825-.04183197.08098373-.13251225.26968584-.09460119.53721056z" fill="#fff"/><path id="Shape" d="m15.063105 5.82080174.344675-.47370666c.3767568-.5177987.5910484-1.27548379.5312875-1.90563032-.071308-.75190451-.5151047-1.23803976-1.2750675-1.23803976h-.3618502l.2047007.29838434c.135013.19680338.1163989.26049839-.0771939.42497225-.0265496.02255615-.1272697.10478844-.1354364.11156117-.2951546.24477403-.4360352.45142737-.4360352.77714724 0 .21980301.1313282.38454641.3875504.57676711.0423603.03177918.0876519.06407141.1471313.10529643.0171681.01189915.1199189.08257869.149468.10314994.3719328.25892871.5207703.42813418.5207703.63426652z" fill="#c09300"/><path id="Path" d="m14.7601053 4.28789152c-.0306311-.02132444-.1338276-.09231061-.150117-.10360074-.055894-.03873998-.0976599-.06851842-.1355218-.0969228-.1667059-.12506461-.2351315-.21090047-.2351315-.27187798 0-.18417186.082021-.3044859.2981938-.48375968.0056337-.00467207.1089714-.08904152.1389093-.11447633.3274574-.27820343.2983826-.43892147.2983826-.59071946.3488785.10449097.5421092.40077099.5847993.85091571.0390463.41172186-.0627236.89939083-.2580555 1.30442602-.0436421-.12316042-.0709204-.16640938-.5414592-.49398474z" fill="#fff"/><g fill="#c09300"><path id="Shape" d="m2.55730244 1.31696267 1.422.474.44677828.1489261-.30184359-.36149725c-.23496519-.28140158-.98432901-.52111652-1.52323713-.52111652z"/><path id="Shape" d="m4.92745807 2.0502605 1.68.474.10024892-.24615022c-.43420723-.23637266-1.39844765-.48883528-1.74270699-.48883528z"/><path id="Shape" d="m12.8324506 2.74896048c-.5101166.0272518-.8542192.09205539-1.0208635.23082732l.1026558.23538958 1.677-.216-.0162429-.26490238c-.3307226 0-.5181785.00269898-.7425494.01468548z"/><path id="Shape" d="m9.20778548 2.75067443.06416452.25105057h1.677l.0958082-.22808213c-.3060965-.30739742-1.31689098-.30739742-1.83697272-.02296844z"/></g></g><g id="text" fill="#c09300" transform="translate(3.9 3.6)"><path id="Shape" d="m.702 1.374c-.160218-.030624-.244356-.157377-.204033-.30738.049113-.1827.195483-.287217.33378-.238326.087936.031086.248919.193407.249552.251622.0009.066825-.084177.225771-.120798.226137-.01581.000159-.04026.01395-.054366.030603-.030003.035448-.124023.052647-.204123.037338z"/><path id="Shape" d="m17.181 2.55c-.059607-.02208-.154563-.15555-.154455-.217131.0006-.116151.172254-.30534.278643-.30642.052548-.0003.196425.07443.250233.130386.097512.101367.076257.267834-.046269.36237-.060288.046515-.240075.063375-.32814.03078z"/><path id="Shape" d="m17.289 3.294c-.126054-.042627-.172164-.104328-.182409-.24408-.01065-.14562.00348-.168291.157359-.252192l.109668-.059793.103938.04635c.143964.064191.208014.133389.213093.230226.00546.104304-.07191.211035-.192036.26487-.105486.047274-.111759.047712-.209613.01464z"/><path id="Shape" d="m2.025.027c-.103857-.00327-.246408.092187-.32814.140625-.194736.045645-.42141.16533-.60936.0375-.185157-.057237-.4314-.01212-.45936.215625.047517.195537.32145.30729.4875.178125.12318-.161274.45936-.25584.49686.01875-.137115.207645-.121467.48267-.234375.70314-.01836.137319-.075528.26772-.15.38436-.13863.01392-.286125-.0024-.40314.084375-.187803.01026-.37941.103611-.4875.2625-.121014.173454-.236607.34962-.271875.5625.032175.217482.281262.279825.46875.290625.200082.055077.40032.127299.6.1875.32559.072909.6306.190617.95625.2625.47532.143274.97437.209217 1.45314.3375.050166.01665.097215.03114.15.0375.198699.041319.30237-.174867.31875-.3375.098592-.34788.173844-.70173.271875-1.05.067461-.139677.148935-.45516-.121875-.38436-.154455.092616-.285546.23202-.47814.24375-.262176.01527-.112539.283554-.00936.39375.02277.17616-.032967.38664-.15.525-.155982.098871-.35148-.01683-.51564-.05625-.172407.003-.51702-.084975-.35625-.31875.057099-.173073.062154-.36249.13125-.53436.088059-.184365.100659-.38553.140625-.58125-.108366-.233199-.293568.076755-.44064.103125-.101307.070365-.48162.100254-.28125.28125.172554.131088.04029.35901.00936.525-.01107.231075-.251343.286182-.44064.234375-.188304-.00909-.45039-.149244-.290625-.35625.036345-.172536.0966-.34206.13125-.51564.07122-.209331.131196-.40884.20625-.61875.032553-.185988.099339-.36237.1875-.525.00519-.205629.143325-.38256.140625-.59064-.01407-.101628-.059559-.13866-.121875-.140625zm-1.07814 2.175c.02451-.00423.04197-.0006.065625.00936.074913.031875.077124.092814 0 .159375-.033714.0291-.071985.05715-.084375.05625-.140313-.01206-.18168-.032922-.1875-.084375-.00516-.045351.00921-.058365.103125-.103125.046668-.02226.078621-.033258.103125-.0375z"/><path id="Shape" d="m.636 3.708c-.148788-.139881-.124863-.241926.095187-.40596.094152-.070179.151263-.062241.25893.035991.165711.151179.172344.246885.02607.37644-.072303.064032-.103935.077163-.188091.078003-.088041.0009-.11298-.01002-.192108-.084465z"/><path id="Shape" d="m1.551 3.984c-.145464-.035865-.229323-.182361-.186762-.32628.038556-.130377.060855-.143208.252078-.145134.214434-.0021.256056.033732.258117.222555.0012.106296-.00705.130956-.059913.180123-.06213.057783-.18156.088932-.26352.068724z"/><path id="Shape" d="m28.284 4.008c-.068103-.056682-.081816-.082305-.082596-.154437-.0009-.123192.070047-.213516.223815-.283146.204549-.092646.287943-.079908.36498.055725.102474.180387.097536.254025-.02517.3756-.067734.067098-.080415.07101-.235479.07257-.152268.0009-.169686-.00315-.24555-.066306z"/><path id="Shape" d="m2.766 4.353c-.109167-.02913-.16575-.111048-.167178-.242025-.0012-.100149.00603-.116118.076086-.170955.045366-.035502.117054-.065913.173568-.073623.08007-.01095.109326-.00396.173748.041325.165156.116094.200238.230916.10461.34236-.101859.118716-.198423.146259-.36084.102909z"/><path id="Shape" d="m9.342 4.647c-.02421-.030186-.077748-.048036-.08325-.0861.0096-.166461.01755-.33501.070575-.49446.02886-.156903.0036-.32076.058296-.47361.056094-.278046.056046-.56478.120651-.84108.003-.142281.01647-.2847.057723-.42162.047322-.216504.00408-.44286.067818-.65682-.00684-.080358.085722-.294963.166974-.167832.117963.172935.273417.31353.42624.45459.131313.075756.01077.187335-.079974.224925-.124563.049092-.154839.186258-.145998.30666-.01746.124365-.067392.242055-.072459.369-.02634.186726-.02118.37638-.045459.56295-.054633.182703-.033732.37791-.051969.56625.0024.119577-.054426.22818-.046575.34812-.01452.121776-.01995.268296-.122139.35172-.098664.049815-.241287.041211-.32046-.042684z"/><path id="Shape" d="m18.252 1.707c-.144666.109389-.274059.238581-.40314.36564-.177753.13467.146031.212994.1875.32814.047148.175914.04434.36318.05625.54375.053769.165426.077505.34152.065625.51564-.01557.18669-.259014.147345-.36564.253125-.147528.062166-.206367.207141-.31875.30936-.073875.144825-.093645.32289-.103125.4875.01059.134364-.090744.284793 0 .40314.0117.01671.02556.0396.0375.05625.030345.04356.10275.00876.15.01875.151104-.00846.30855.01419.45-.046875.363-.062829.72933-.067815 1.09686-.084375.224775.00717.44103-.071085.66564-.065625.176043.038922.255225-.151878.253125-.290625-.099672-.196077-.0135-.42855-.09375-.62814-.070482-.201738-.042708-.4284-.075-.6375-.00444-.164505-.213204-.225516-.31875-.103125-.102432.103542-.267867.124209-.34686.253125-.088977.180717.188235.180951.234375.31875.052767.13926.035475.294177.046875.44064.034266.177711-.158757.18786-.28125.20625-.161025.060336-.387.100767-.47814-.09375-.05727-.143844-.049425-.297858-.065625-.45-.00393-.267546-.068265-.53052-.084375-.79686-.01542-.32904-.07221-.65598-.09375-.98436-.003-.136647-.02118-.3594-.215625-.31875zm-.1875 2.475.09375.00936.00936.1125.00936.1125-.121875.0375c-.064536.01908-.120975.02829-.121875.02811-.0009-.000255-.0264-.01593-.05625-.0375-.065877-.04758-.049035-.115509.0375-.20625.04878-.051084.071637-.06099.15-.05625z"/><path id="Shape" d="m9.075 1.398c-.114054.040512-.258735.207939-.375.20625-.264.01869-.227154.275757-.0375.36564.02499.077964.0015.176367.00936.2625.036864.23688-.112605.42747-.084375.66564-.01326.261093-.092085.51531-.103125.77814-.074112.270981-.074952.54963-.121875.825-.031293.246969-.209889.159813-.36564.09375-.0012-.107067-.00816-.211686-.00936-.31875.064911-.245133-.132303-.31668-.32814-.34686-.205833.01947-.30684-.156948-.2625-.3375.088464-.105309.3108-.07602.45-.09375.29439.061026.28248-.33354.13125-.46875-.103416-.190701-.35946-.272778-.43125-.46875.02868-.259926-.143913-.51966-.35625-.64686-.32655-.02292-.57312.258918-.69375.53436-.13575.039255-.271173.079971-.40314.13125-.212667.053244-.51591.4221-.225.5625.163272.044964.66006.158346.44064.38436-.123672.21213-.3603.215742-.57186.159375-.217095.000189-.45882-.105621-.45-.35625-.044295-.224955-.037011-.46737-.140625-.675-.044541-.251787-.33024-.192891-.34686.0375-.220023.160209-.19071.41934-.0375.60936.095628.218673.0009.47328-.09375.675-.057273.262491-.34677.271419-.55314.35625-.101253.039312-.48855-.02337-.34686.196875.225936.079734.49575.151479.73125.09375.246885-.030642.46125-.199452.58125-.4125.165798-.168009.4506-.080055.66564-.084375.23184-.0006.46878.162729.69375.05625.065217-.169314.36657-.44874.45936-.159375-.01578.258795.212796.39771.45.36564.259125-.01482.163335.183288.159375.3375.01713.280344.197916.42741.43125.54375.079473.02145.1635.01422.24375 0 .224379-.070539.46608-.17067.53436-.42186.091083-.204213.093213-.43521.159375-.64686.053166-.33897.1218-.678.13125-1.02186.082851-.31149.059052-.6408.121875-.95625.039693-.23454.06924-.46902.09375-.70314-.02751-.125205-.081567-.146181-.15-.121875zm-2.03436 1.24686c.045432.00555.07068.061227.075.159375.0048.109227.061884.198225.13125.215625.054735.01371.050043.071646-.00936.1125-.034521.02373-.09627.0381-.20625.0375-.173412-.0009-.280929-.045828-.375-.140625l-.05625-.05625.084375-.05625c.042534-.032493.119502-.099777.16875-.15.085482-.087195.142068-.127419.1875-.121875z"/><path id="Shape" d="m26.85.282c-.170139.0078-.34119.035388-.49686.075-.31206-.01941-.46872.30813-.16875.46875.180498.46029.46212-.095052.75-.05625.43125.083868.4677.54969.53436.9.02427.34701.124317.68448.225 1.0125.288666.32085-.216216.52206-.43125.271875-.183384-.199302-.57612-.44385-.79686-.16875-.27108.114798-.282207.47709-.50625.58125-.36273.110409-.40839-.33564-.6-.525-.176172-.247281-.51309-.268938-.7875-.35625-.128739-.260595-.061644-.70368-.32814-.88125-.22374.091275-.63393.51066-.290625.70314.33531.288201-.146346.42033-.3.61875-.219474.244368-.254547.5808-.290625.89064-.37779.208698-.45132-.236307-.49686-.51564-.02943-.33345-.31074-.235563-.50625-.1125-.285747.115758-.42843.38709-.62814.6-.02397.194301.01116.40701.00936.60936.064938.243426.36072.12909.54375.1125.29364-.122811.41385.188235.178125.36564-.159543.202809-.66594.096879-.61875.42186.163185.01908.33315.01296.49686 0 .32715-.089397.67842-.32019.7125-.68436.04308-.31746.50028-.259632.75-.32814.31224-.090006.68844-.113112.75936.28125.212829.223497.67458.4752.90936.16875.238353-.145569.35292-.40128.3375-.675-.048609-.235383.38064-.243942.4875-.1125.156423.257388.6453.181434.88125.0375.25083-.185163.30528-.5115.66564-.51564.53469-.160056 1.09026-.252366 1.6125-.45.42312-.09219-.06297-.35931-.16875-.51564-.32211-.159294-.60243.49257-.96564.16875-.280692-.214815-.261636-.62298-.36564-.9375-.071142-.40719-.053163-.87681-.34686-1.2-.201726-.214473-.4758-.2661-.75936-.253125zm-2.04375 2.84064c.037719-.0009.080271.01779.15.05625.131523.072579.225189.192882.225.290625-.000129.063783-.01635.068091-.1125.1125-.059157.0273-.12642.05655-.15.05625-.054294-.0006-.187314-.107064-.1875-.15-.000195-.01782-.01743-.085947-.0375-.140625-.035283-.096204-.02982-.094929.01875-.159375.031041-.041232.056031-.064596.09375-.065625zm1.95936.103125c.111687-.00732.178068.02754.225.1125.054534.098688.01746.174285-.121875.234375-.061047.02634-.1221.047775-.13125.046875-.00918-.0009-.059532-.030759-.1125-.065625-.081036-.053331-.09285-.079161-.09375-.140625-.0009-.094623.104784-.17901.234375-.1875zm-2.68125.02811c.032712-.0051.062493.012.103125.046875.053997.046368.071055.083661.084375.178125.00942.065652.00795.150552 0 .1875-.01458.06783-.01596.064725-.16875.065625-.192087.0018-.20991-.01917-.20625-.196875.0024-.113046.00354-.14346.065625-.20625.048132-.048684.089163-.069915.121875-.075zm-1.65.43125c.059853.01407.11637.059283.13125.13125.01968.09525.0024.138669-.075.178125-.06663.03393-.220203.04524-.2625.01875-.01371-.00858-.04197-.0309-.05625-.05625-.0204-.036342-.01665-.05382.00936-.075.01815-.01476.037617-.035955.0375-.046875-.00012-.01092.02019-.048948.046875-.084375.043824-.05817.108897-.079689.16875-.065625zm2.775.35625c.053382-.0003.098589.01827.13125.046875.055578.048693.0537.120117-.00936.16875-.040527.03132-.261495.02844-.3375 0-.033816-.01263-.046689-.02961-.046875-.065625-.0006-.042273.01125-.068301.084375-.103125.061275-.02928.124743-.046521.178125-.046875z"/><path id="Shape" d="m20.058 5.487c-.02874-.01875-.071301-.035097-.02844-.066471.051831-.090741.155355-.122148.247302-.155922.164337-.071196.30621-.192108.41211-.33552.015-.099894.127152-.154065.126657-.258522.0009-.142461.00933-.28848-.02538-.4278-.038511-.12771-.135441-.225597-.247947-.292185-.077001-.060447-.2022-.077136-.230631-.184206-.01575-.102837.076029-.181203.108159-.272805.066975-.126453.123327-.259092.19527-.3825.077736-.08634.197676-.00468.237894.078717.056745.083313.107037.172779.135228.269244.090675.099525.171072.216261.2037.34854.044517.093168.114948.180702.110787.289827.00009.12492.070527.236214.066102.36189.00399.168126.00393.34347-.057552.50223-.042003.088032-.126174.140892-.181917.219768-.095691.088662-.201111.173697-.32391.220845-.086784.0276-.137118.127695-.245802.103398-.154374.0027-.31098.0237-.46416-.0012.00969.01626-.046899-.02745-.037479-.01719z"/><path id="Shape" d="m18.003 5.622c-.072804-.074874-.08856-.106629-.089364-.180096-.0009-.074241.01338-.103701.08466-.175707.131487-.132825.195744-.136032.42273-.02115.216912.109794.29025.119736.30966.042006.01875-.075066.143655-.143748.262305-.14424.075018-.0006.117471.01431.177549.061104.075408.058749.079047.067902.080967.203805.0012.138897-.0006.144165-.087126.220773-.083169.073227-.096549.077745-.199623.067428-.131154-.01317-.209862-.073221-.231219-.176532-.01548-.075003-.041826-.09291-.061569-.04191-.00627.01638-.038592.036555-.071682.04488-.061056.01542-.16464.080586-.238245.150018-.02781.02622-.076578.038565-.155589.039366-.106689.0009-.121539-.00549-.203478-.089745z"/><path id="Shape" d="m12.057 2.952c-.199398.0021-.41415.16986-.44064.36564.045618.225678.233094.44685.1125.68436.083268.30393-.228441.41922-.44064.24375-.12813-.291402-.193047-.61074-.38436-.87186-.241233-.068286-.34635.31707-.51564.45.083925.226515.32874.42972.35625.7125.05856.274446-.108384.57918-.34686.72186-.205752.196416-.48762.126222-.74064.16875-.30726.179571.225546.245265.36564.253125.31431.031938.64062-.00951.87186-.24375.230733-.110124.212913-.50916.4875-.55314.47652-.02127.94878.073065 1.425.084375.254808.061008.64905-.030294.825.159375.0006.33225.282234.53715.55314.66564.14961.041616.30723-.143784.45936-.178125.289593-.092292.201546-.4506.375-.59064.49512-.02679.99489-.02112 1.49064-.02811.094389.0024.122202-.131964.1875-.1875-.01089-.191643-.01779-.38178-.046875-.57186-.095457-.241959.01539-.55338-.159375-.75936-.249033-.067818-.46086.160065-.7125.178125-.277848.123738-.51195.38031-.525.69375-.164499.268974-.42831-.047874-.3375-.271875-.01038-.097623.02112-.211287-.00936-.3-.152094-.182442-.41841-.12282-.62814-.15-.30552.01218-.60381-.053865-.90936-.046875-.267879-.02022-.5466.02331-.80625-.046875-.30951-.00879-.266877-.31146-.31875-.525-.054897-.040713-.121035-.056919-.1875-.05625zm.6 1.10625c.102924.0021.199968.0156.3.02811.129246.02127.26697-.044448.39375 0 .292953.049824.58608.038055.88125.065625.077955-.0012.133737.055413.1875.103125.0006.205071.000198.41367 0 .61875-.00897.077301.02289.17946-.046875.234375-.02241.01539-.04749.03216-.075.0375-.081195-.021-.167193-.07437-.20625-.15-.01242-.107226.00537-.211212.00936-.31875-.0021-.02781.01212-.0711 0-.09375-.063834-.045201-.136161-.0747-.215625-.075-.254835-.00873-.5046-.02748-.75936-.0375-.21207-.01338-.42999.01812-.6375-.0375-.080535-.02928-.185367-.01923-.234375-.103125-.070251-.081681.031086-.179085.103125-.215625.095481-.04341.197076-.058233.3-.05625zm3.3843.075c.047598-.0006.062805.015.084375.103125.01377.056295.02988.12516.0375.15.01089.035433-.00654.046875-.05625.065625-.1482.055938-.295698.050391-.34686-.01875-.02322-.031362.00387-.130353.046875-.16875.086838-.077553.182976-.131073.234375-.13125z"/></g></g><g id="shield" transform="translate(11.7 15.3)"><path id="Shape" d="m9.294 21.669c9.7926-7.5318 8.9529-18.5649 8.9529-18.5649-.25839.051669-.50385.077505-.76224.077505-2.05413 0-6.9534-1.17513-8.0964-2.66778-1.22436 1.35102-6.231 2.66778-8.2722 2.66778-.258387 0-.51675-.02583-.76221-.077505 0 0-.85266 11.0328 8.94 18.5649z" fill="#fff"/><path id="Shape" d="m14.8258937 15.9121555c1.6356197-2.5673487 2.6633089-5.313368 3.1998892-8.09066459.3533724-1.82902706.4487784-3.39532159.4025069-4.55265037-.0034579-.08648769-.0241447-.37212968-.0241447-.37212968s-.6759007.11236414-.9194851.11236414c-2.4681905 0-6.992926-1.33799577-7.95941863-2.60014378l-.12583587-.16432975-.13898807.15336638c-1.06966407 1.18032079-5.83788906 2.61110715-8.14435743 2.61110715-.24823127 0-.91907615-.11431076-.91907615-.11431076s-.02129654.28973272-.02489974.37842385c-.04716965 1.1610592.04744072 2.72893902.39990872 4.55801374.53462354 2.77434087 1.55982453 5.51708257 3.19221126 8.08143767 1.39669358 2.1940991 3.19157529 4.1756772 5.42445879 5.8931167l.21052201.0000018c2.23308201-1.7175344 4.02873871-3.6992804 5.42670881-5.8936025zm-5.5320437 5.5843145c-2.06698915-1.6837983-4.05456097-3.9091565-5.23855904-5.7691271-1.60761756-2.5254446-2.61766073-5.2276343-3.14447184-7.96143388-.34707943-1.80111161-.44010824-3.3427819-.39395942-4.47871394.17873868.06693993.32740079.06693992.5992003.06693992 2.39434981 0 7.08714553-1.27804807 8.2494274-2.60104894 1.2345388 1.32300086 5.6377413 2.60104894 8.1191726 2.60104894.2667233 0 .5988453-.07150954.5988453-.07150954.0452675 1.13221916-.0485432 2.67232405-.3965172 4.47340949-.5287512 2.73677365-1.5412714 5.44226095-3.1521131 7.97071685-1.37672 2.1609669-3.1444888 4.0859199-5.241025 5.7697182zm7.91784-17.713905c-2.2539078 0-6.3231365-1.11694882-7.76299047-2.35398964l-.0840948-.07224949-.08836702.06695667c-1.55018803 1.17459474-5.79548462 2.35928246-7.88984771 2.35928246-.07023193 0-.14444512-.00796159-.23008256-.0236903l-.16049432-.02947738-.00166596.16317037c-.00379116.37131974.01154248.76638117.04363393 1.25351149.09620722 1.45972863.35136762 2.94396139.75092401 4.39308046 1.2372386 4.48593486 3.77028222 8.31185616 7.41844169 11.21743236l.08557237.0681541.08557224-.0681542c3.6509769-2.9078309 6.1871612-6.7372627 7.4271254-11.22667395.4001957-1.44876899.6561741-2.93287631.7533041-4.39244757.0316197-.47615002.0471287-.86239289.0445346-1.22644909l.0000001-.15214653s-.3091303.02369024-.3915656.02369024z" fill="#c09300"/><path id="Path" d="m6.11408914 17.3363551c.93703289 1.1397736 2.00068721 2.1900422 3.18463849 3.141693 1.10647507-.8936859 2.10874407-1.8717218 3.00127367-2.9293004l.0000878-14.4176431c-1.2074362-.40064722-2.2926103-.89818087-2.94656319-1.42448033-.70396909.5543603-1.91784175 1.07680559-3.23943591 1.48772796v14.14200387z" fill="#fff"/></g><g id="head" transform="translate(14.4)"><path id="Path" d="m11.1856139 14.3228987c.2968027.0625572.6135651.1108144.9301518.1467137.1106787.0125504.4018404.0383395.4238139.0397613l1.0276197.0664945-.9420376-.4159193c-1.1184118-.4937905-2.2863587-4.45061853-2.1496791-7.54110738.1116554-2.75684166-.2829657-4.36602243-.98244645-5.06563697-.60107177-.60107177-2.49973826-1.17417287-3.91825804-1.25296836-.39777423-.01955986-.65237197.12628898-.7543045.38525514-.04505931.11447611-.04293396.10362672-.04293396.10362672-1.43848021-.34344366-2.59455047-.37306579-3.17235275.01199131-.31370149.20913988-.52056214.76137268-.58180247 1.36266662-.02667172.2618788-.01898309.49776909.02584886.65803485.07125121.25470965.28137714.37855521.50085265.20297097.76200641-.6096097 1.4910564-.27589272 2.20550051.76084094.51239482.74010401.42492401 2.91994164-.29497612 5.30106849-.27565438.91607707-.73691271 1.89618547-1.33191163 2.89976267-.35516231.5990478-.73592445 1.169444-1.11662699 1.6918715-.13316646.1827406-.25674557.3463471-.36753182.4884237-.06617179.0848613-.11315932.1434315-.13775849.1733211l-.24589217.2987748h.38694877c.2699981 0 .57045146-.0498634.89684068-.1425585.33624553-.0954942.69141197-.2338732 1.05517093-.40394.25227188-.1179437.62874474-.3232205.62874474-.3232205l-.30000084 1.2440887-.0898707.3726894.34606955-.1649545c.3150092-.1501496.6298214-.3277126.94137595-.5270265.35245077-.2254767.68266719-.4668132.98164436-.7082393.10478145-.0846118.25815431-.2027069.25815431-.2027069l1.06609276 1.1285766.14836664.1556344.12962107-.1715607c.07786524-.103059.41057064-.4777571.47525795-.5456146.15340521-.1609233.31812612-.3246727.48288644-.4824304.09882304-.0946229.09964903-.0846049.09964903-.0846049s.05346365.0471641.08423597.0732432c.17509793.1483932.37770099.2964605.60579645.4346285.5510496.3337964 1.16090343.5570982 1.81825871.6177923.23751.0143773.2744596-.1562883.2389874-.3749543-.0170179-.1049059-.0555184-.2401352-.1112646-.4015936-.0155788-.0451209.1697523.0618125.7817591.1908053z" fill="#fff"/><path id="Shape" d="m3.37154779 13.2647999c-.15342742.087858-.7097685.3952633-.9264414.4965636-.34728119.162363-.68479241.2938632-1.00024589.3834524-.29629407.084148-.39656268.0965622-.39656268.0965622s.16805426-.2229906.25905859-.3478733c.38711154-.5312223.77416348-1.1110409 1.13562765-1.720718.6089128-1.0270456 1.08222417-2.0327649 1.36737653-2.98040707.60080225-1.9872014.77877698-3.84276892.51951619-4.94397371.03183778-.03762803.07061157-.07713989.11765322-.11830602.19995-.176427 1.03506.01179 1.03506.01179-1.1292-1.929-2.41128-2.387751-2.97588-2.35245-.5217198.02524035-.84477427.57426126-.98638876.88468762-.0454808.0378471-.0900005.07948751-.13344717.12499343 0 0-.02244697-.37792689 0-.59832453.03393327-.33317696.12189933-.64944387.23470125-.86261197.17711276-.11363258.44022838-.22333767.81596068-.25421855.87039-.0588 1.1292.07056 1.79952.59988.67044.529308 1.19973.788064 1.52907.72924.10587-.01176.164697.176427.270534.30582.082353.094095.05883.176442.37641.176442.19995 0 .305787-.38814.43518-.49401.16467-.129396.470505-.188187.67047-.235266.42342-.10584.62337-.094092.94095-.12936.15357357-.01803361.68147458-.0360849 1.05148529.14275617.44298561.76321676.68977501 2.18963738.59928531 4.42390901-.14272455 3.22714483.9088472 6.63986892 1.850332 7.47927462-.2396607-.0313213-.476388-.0701785-.6998051-.1172682-.5188641-.1093611-.9037115-.2517592-1.0832225-.4129252l.0014794-.0010073c-.37882152-.5563682-.69061387-1.5160477-.93421297-2.757668-.14545284-.7413706-.25787092-1.53693248-.34119616-2.33266948-.0291772-.2786356-.05262458-.53732051-.07085705-.76935245-.01091369-.13889092-.01765034-.23778108-.02072874-.28997987l-.38045896.0224374c.00321985.05459717.01012422.15594941.02123887.29739786.01848144.23520036.04222435.49714571.07175837.77918885.0844211.80620228.1983675 1.61257969.34625357 2.36635249.25282714 1.2886555.57769725 2.2885876.99317424 2.898791l.00388921-.0026481c.05856782.152905.28925912.7643927.28925912.7643927-.53753341-.0726689-1.04557036-.2679217-1.51017053-.5493516-.21076166-.1276681-.39788891-.2644253-.55887212-.4008565-.03938818-.033381-.099874-.0914084-.15733304-.1480518-.11646271-.3833588-.20156144-1.4803618-.25275144-3.0325221-.02346877-.71160944-.03856239-1.47437949-.04694824-2.23719601-.00293545-.26702228-.00482245-.51496066-.00587064-.73744047-.00062854-.13340898-.00083789-.22862451-.00083789-.27927502h-.38112c0 .05123052.00021066.14704191.00084212.28107061.00105182.22324967.00294485.47198129.00588943.73983438.00841425.76539885.02356081 1.53084416.04713232 2.24556901.05024204 1.5234166.12959538 2.5926768.25206715 3.0691038-.05910648.0548731-.1124035.1045515-.13386575.1251015-.16849385.1613326-.3370271.3288719-.49465912.494229-.0668985.0701771-.13053102.1386266-.19042171.2049942-.122047.1352456-.17806979.2053206-.17806979.2053206l-.95888301-1.0058537c.30236753-.6242576.54486372-1.6565865.74024893-2.9955992.11353951-.77810821.20373557-1.61090292.27303909-2.44357208.02424831-.29133906.04415794-.56190022.06002379-.80479431.00953419-.14596113.01561006-.25043682.01852055-.30652948l-.380608-.01974866c-.00282507.05444658-.00880264.15723195-.01822208.30143631-.01572351.24071507-.03546805.50903268-.05952101.79802461-.06870011.82541936-.15808379 1.65071318-.27035862 2.42015431-.19882483 1.362585-.44817263 2.3985427-.74444916 2.9603992-.1209662.1067166-.27574016.2423364-.33387607.2892815-.28909718.2334479-.60864237.4669855-.94899797.6847245-.2993918.1915328-.55006438.3169997-.55006438.3169997l.28902066-1.1985545c.48878295-.558839.9122016-1.6155353 1.28531221-3.0377778.19353785-.73773765.36074085-1.52709888.50133236-2.31631231.04918818-.27611887.09154908-.53255992.12702694-.7628091.02133239-.13844592.03565958-.23762213.04292183-.29100452l-.37764142-.05137514c-.00696886.05122568-.02097645.14818961-.04195512.28433988-.03504056.22741115-.07691949.48093445-.12556516.75400796-.13893377.77990767-.30410301 1.55966755-.494765 2.28644293-.36151158 1.3780287-.77209218 2.398631-1.21334622 2.8946967zm7.81406611 1.0580988c.2968027.0625572.6135651.1108144.9301518.1467137.1106787.0125504.4018404.0383395.4238139.0397613l1.0276197.0664945-.9420376-.4159193c-1.1184118-.4937905-2.2863587-4.45061853-2.1496791-7.54110738.1116554-2.75684166-.2829657-4.36602243-.98244645-5.06563697-.60107177-.60107177-2.49973826-1.17417287-3.91825804-1.25296836-.39777423-.01955986-.65237197.12628898-.7543045.38525514-.04505931.11447611-.04293396.10362672-.04293396.10362672-1.43848021-.34344366-2.59455047-.37306579-3.17235275.01199131-.31370149.20913988-.52056214.76137268-.58180247 1.36266662-.02667172.2618788-.01898309.49776909.02584886.65803485.07125121.25470965.28137714.37855521.50085265.20297097.76200641-.6096097 1.4910564-.27589272 2.20550051.76084094.51239482.74010401.42492401 2.91994164-.29497612 5.30106849-.27565438.91607707-.73691271 1.89618547-1.33191163 2.89976267-.35516231.5990478-.73592445 1.169444-1.11662699 1.6918715-.13316646.1827406-.25674557.3463471-.36753182.4884237-.06617179.0848613-.11315932.1434315-.13775849.1733211l-.24589217.2987748h.38694877c.2699981 0 .57045146-.0498634.89684068-.1425585.33624553-.0954942.69141197-.2338732 1.05517093-.40394.25227188-.1179437.62874474-.3232205.62874474-.3232205l-.30000084 1.2440887-.0898707.3726894.34606955-.1649545c.3150092-.1501496.6298214-.3277126.94137595-.5270265.35245077-.2254767.68266719-.4668132.98164436-.7082393.10478145-.0846118.25815431-.2027069.25815431-.2027069l1.06609276 1.1285766.14836664.1556344.12962107-.1715607c.07786524-.103059.41057064-.4777571.47525795-.5456146.15340521-.1609233.31812612-.3246727.48288644-.4824304.09882304-.0946229.09964903-.0846049.09964903-.0846049s.05346365.0471641.08423597.0732432c.17509793.1483932.37770099.2964605.60579645.4346285.5510496.3337964 1.16090343.5570982 1.81825871.6177923.23751.0143773.2744596-.1562883.2389874-.3749543-.0170179-.1049059-.0555184-.2401352-.1112646-.4015936-.0155788-.0451209.1697523.0618125.7817591.1908053z" fill="#c09300"/><ellipse id="eye" cx="6.247" cy="2.002" fill="#fff" rx=".353" ry=".353"/></g></g></g></g></g></svg>