<svg width="70" height="75" viewBox="0 0 70 75" fill="none" xmlns="http://www.w3.org/2000/svg">
<path d="M33.7542 16.6367V21.2547" stroke="white" stroke-width="2.25" stroke-miterlimit="10" stroke-linecap="round" stroke-linejoin="round"/>
<path d="M52.9976 40.4961H57.616" stroke="white" stroke-width="2.25" stroke-miterlimit="10" stroke-linecap="round" stroke-linejoin="round"/>
<path d="M21.8234 19.833L24.1326 23.8323" stroke="white" stroke-width="2.25" stroke-miterlimit="10" stroke-linecap="round" stroke-linejoin="round"/>
<path d="M43.376 57.1592L45.685 61.1583" stroke="white" stroke-width="2.25" stroke-miterlimit="10" stroke-linecap="round" stroke-linejoin="round"/>
<path d="M14.1291 51.8253L17.0889 50.1167" stroke="white" stroke-width="2.25" stroke-miterlimit="10" stroke-linecap="round" stroke-linejoin="round"/>
<path d="M13.0894 28.5662L17.089 30.8751" stroke="white" stroke-width="2.25" stroke-miterlimit="10" stroke-linecap="round" stroke-linejoin="round"/>
<path d="M50.4196 50.1167L54.4191 52.4256" stroke="white" stroke-width="2.25" stroke-miterlimit="10" stroke-linecap="round" stroke-linejoin="round"/>
<path d="M24.1326 57.1592L22.4233 60.1191" stroke="white" stroke-width="2.25" stroke-miterlimit="10" stroke-linecap="round" stroke-linejoin="round"/>
<path d="M44.3415 43.5623H34.4601C34.4601 43.5623 39.6919 34.0801 40.5552 33.021C41.4281 31.95 42.2549 32.618 42.3336 33.5627C42.4122 34.5074 42.2942 48.206 42.2942 48.206" stroke="white" stroke-width="2.25" stroke-miterlimit="10" stroke-linecap="round" stroke-linejoin="round"/>
<path d="M31.8112 48.3235C31.8112 48.3235 24.1553 48.4197 23.7926 48.2989C23.43 48.1781 24.3741 47.5396 29.3935 40.3685C30.3309 39.0293 30.847 37.8993 31.0664 36.9528L31.1442 36.3442C31.1442 34.1207 29.3415 32.3181 27.1177 32.3181C25.161 32.3181 23.5303 33.7138 23.1669 35.5638" stroke="white" stroke-width="2.25" stroke-miterlimit="10" stroke-linecap="round" stroke-linejoin="round"/>
<path d="M49.7126 17.5556L53.2827 21.304L58.2806 15.6814" stroke="white" stroke-width="2.25" stroke-miterlimit="10" stroke-linecap="round" stroke-linejoin="round"/>
<path d="M48.106 32.2532C42.3509 28.9307 38.8057 22.7901 38.8057 16.1448V10.5577C38.8057 9.91996 39.1458 9.33063 39.6982 9.01177L52.9444 1.36414C53.4967 1.04529 54.1771 1.04529 54.7294 1.36414L67.9756 9.01177C68.5279 9.33063 68.8682 9.91996 68.8682 10.5577V16.1448C68.8682 22.7901 65.3229 28.9307 59.5679 32.2532L54.7294 35.0468C54.1771 35.3656 53.4967 35.3656 52.9444 35.0468L48.106 32.2532Z" stroke="white" stroke-width="2.25" stroke-miterlimit="10" stroke-linecap="round" stroke-linejoin="round"/>
<path d="M46.679 11.1649L44.6068 12.3612C44.3307 12.5207 44.1606 12.8152 44.1606 13.1341V16.1446C44.1606 20.8768 46.6852 25.2495 50.7833 27.6156L53.3905 29.121C53.6666 29.2805 54.0067 29.2805 54.2829 29.121L56.8901 27.6158C60.9884 25.2498 63.513 20.877 63.513 16.1448V13.1341C63.513 12.8152 63.343 12.5206 63.0669 12.3612L54.283 7.28993C54.0069 7.13057 53.6666 7.13057 53.3906 7.28993L51.0642 8.63301" stroke="white" stroke-width="2.25" stroke-miterlimit="10" stroke-linecap="round" stroke-linejoin="round"/>
<path d="M10.094 59.4551L19.3529 68.714C25.2344 74.5955 34.7703 74.5955 40.6518 68.714C41.8164 67.5494 41.8164 65.661 40.6518 64.4962L35.3919 59.2363C34.2273 58.0717 32.3389 58.0717 31.1742 59.2363L29.4743 60.9362C27.7527 62.6579 24.9615 62.6579 23.2399 60.9362L13.3139 51.0103C11.5923 49.2886 11.5923 46.4974 13.3139 44.7758L15.0138 43.0759C16.1784 41.9113 16.1784 40.023 15.0138 38.8582L9.75387 33.5983C8.58927 32.4337 6.7009 32.4337 5.53615 33.5983C-0.345384 39.4798 -0.345384 49.0157 5.53615 54.8972L6.5159 55.877" stroke="white" stroke-width="2.25" stroke-miterlimit="10" stroke-linecap="round" stroke-linejoin="round"/>
<path d="M40.4851 68.8765C48.049 67.0897 54.4738 62.3578 58.4846 55.959" stroke="white" stroke-width="2.25" stroke-miterlimit="10" stroke-linecap="round" stroke-linejoin="round"/>
<path d="M38.8056 11.7703C37.1647 11.4838 35.4771 11.3333 33.7542 11.3333C19.9622 11.3333 8.40749 20.906 5.36987 33.7687" stroke="white" stroke-width="2.25" stroke-miterlimit="10" stroke-linejoin="round"/>
<path d="M60.7904 51.4541C62.1635 48.071 62.9198 44.3716 62.9198 40.4956C62.9198 37.1974 62.3715 34.0275 61.3623 31.071" stroke="white" stroke-width="2.25" stroke-miterlimit="10" stroke-linecap="round" stroke-linejoin="round"/>
<path d="M39.7508 63.5948C50.0266 60.9353 57.616 51.6019 57.616 40.4958C57.616 38.2118 57.2946 36.0031 56.6953 33.9116" stroke="white" stroke-width="2.25" stroke-miterlimit="10" stroke-linejoin="round"/>
<path d="M38.8366 17.181C37.1986 16.8256 35.4985 16.6367 33.7541 16.6367C22.6476 16.6367 13.3139 24.2241 10.6532 34.4976" stroke="white" stroke-width="2.25" stroke-miterlimit="10" stroke-linejoin="round"/>
</svg>
