<svg width="42" height="44" viewBox="0 0 42 44" fill="none" xmlns="http://www.w3.org/2000/svg">
<path d="M19.9489 9.31396V12.0888" stroke="#004FA9" stroke-width="1.6" stroke-miterlimit="10" stroke-linecap="round" stroke-linejoin="round"/>
<path d="M19.9489 35.2135V37.9884" stroke="#004FA9" stroke-width="1.6" stroke-miterlimit="10" stroke-linecap="round" stroke-linejoin="round"/>
<path d="M5.61185 23.6512H8.38672" stroke="#004FA9" stroke-width="1.6" stroke-miterlimit="10" stroke-linecap="round" stroke-linejoin="round"/>
<path d="M31.5111 23.6512H34.286" stroke="#004FA9" stroke-width="1.6" stroke-miterlimit="10" stroke-linecap="round" stroke-linejoin="round"/>
<path d="M12.7804 11.2347L14.1678 13.638" stroke="#004FA9" stroke-width="1.6" stroke-miterlimit="10" stroke-linecap="round" stroke-linejoin="round"/>
<path d="M25.7301 33.6643L27.1176 36.0675" stroke="#004FA9" stroke-width="1.6" stroke-miterlimit="10" stroke-linecap="round" stroke-linejoin="round"/>
<path d="M7.53256 30.8197L9.93577 29.4323" stroke="#004FA9" stroke-width="1.6" stroke-miterlimit="10" stroke-linecap="round" stroke-linejoin="round"/>
<path d="M7.53256 16.4827L9.93577 17.8701" stroke="#004FA9" stroke-width="1.6" stroke-miterlimit="10" stroke-linecap="round" stroke-linejoin="round"/>
<path d="M29.9621 29.4323L32.3653 30.8197" stroke="#004FA9" stroke-width="1.6" stroke-miterlimit="10" stroke-linecap="round" stroke-linejoin="round"/>
<path d="M12.7804 36.0675L14.1678 33.6643" stroke="#004FA9" stroke-width="1.6" stroke-miterlimit="10" stroke-linecap="round" stroke-linejoin="round"/>
<path d="M39.0979 23.6512C39.0979 34.2268 30.5246 42.8001 19.9489 42.8001C9.37322 42.8001 0.799988 34.2269 0.799988 23.6512C0.799988 13.0754 9.37331 4.5022 19.9489 4.5022" stroke="#00AAFF" stroke-width="1.6" stroke-miterlimit="10" stroke-linecap="round" stroke-linejoin="round"/>
<path d="M26.3101 25.4937H20.373C20.373 25.4937 23.5165 19.7958 24.0352 19.1594C24.5597 18.5158 25.0565 18.9172 25.1038 19.4849C25.1511 20.0526 25.0801 28.2842 25.0801 28.2842" stroke="#00AAFF" stroke-width="1.6" stroke-miterlimit="10" stroke-linecap="round" stroke-linejoin="round"/>
<path d="M18.7814 28.3548C18.7814 28.3548 14.1815 28.4126 13.9635 28.34C13.7457 28.2674 14.3129 27.8838 17.3288 23.5746C17.892 22.7698 18.2021 22.0909 18.334 21.5221L18.3807 21.1563C18.3807 19.8202 17.2976 18.7371 15.9614 18.7371C14.7858 18.7371 13.8059 19.5757 13.5876 20.6874" stroke="#00AAFF" stroke-width="1.6" stroke-miterlimit="10" stroke-linecap="round" stroke-linejoin="round"/>
<path d="M19.0115 2.77917L20.8237 4.59143L19.0115 6.4036" stroke="#00AAFF" stroke-width="1.6" stroke-miterlimit="10" stroke-linecap="round" stroke-linejoin="round"/>
<path d="M40.8056 6.74744V6.25282C40.8056 5.7266 40.5248 5.24026 40.0691 4.97719L33.1759 0.997415C32.7202 0.73426 32.1587 0.73426 31.703 0.997415L24.8098 4.9771C24.3541 5.24026 24.0734 5.72651 24.0734 6.25274V9.0855C24.0734 12.7842 26.0466 16.2019 29.2498 18.0513L31.703 19.4676C32.1587 19.7308 32.7202 19.7308 33.1759 19.4676L35.6292 18.0513C38.6526 16.3057 40.5794 13.1626 40.7861 9.70502" stroke="#004FA9" stroke-width="1.6" stroke-miterlimit="10" stroke-linecap="round" stroke-linejoin="round"/>
<path d="M28.4466 13.7805C29.0364 14.5319 29.7706 15.1773 30.6245 15.6703L32.2282 16.5961C32.3589 16.6716 32.52 16.6716 32.6507 16.5961L34.2544 15.6702C36.6068 14.312 38.0559 11.8021 38.0559 9.08567V7.23387C38.0559 7.08294 37.9754 6.94342 37.8447 6.86795L32.6507 3.86922C32.52 3.79376 32.3589 3.79376 32.2282 3.86922L27.0341 6.86795C26.9034 6.94342 26.8228 7.08294 26.8228 7.23387V9.08567C26.8228 9.79046 26.9212 10.481 27.1068 11.1415" stroke="#00AAFF" stroke-width="1.6" stroke-miterlimit="10" stroke-linecap="round" stroke-linejoin="round"/>
<path d="M32.4395 16.6527V3.81262" stroke="#00AAFF" stroke-width="1.6" stroke-miterlimit="10" stroke-linejoin="round"/>
<path d="M24.109 9.92774C22.7923 9.52912 21.3958 9.31396 19.949 9.31396C12.0307 9.31396 5.61185 15.7329 5.61185 23.6511C5.61185 24.4436 5.67717 25.2207 5.80089 25.9782" stroke="#004FA9" stroke-width="1.6" stroke-miterlimit="10" stroke-linecap="round" stroke-linejoin="round"/>
<path d="M6.58005 28.8394C8.65909 34.1929 13.8605 37.9883 19.9489 37.9883C27.8671 37.9883 34.286 31.5693 34.286 23.6512C34.286 22.1077 34.0411 20.6218 33.5898 19.2288" stroke="#004FA9" stroke-width="1.6" stroke-miterlimit="10" stroke-linecap="round" stroke-linejoin="round"/>
</svg>
