<svg width="72" height="72" viewBox="0 0 72 72" fill="none" xmlns="http://www.w3.org/2000/svg">
<path opacity="0.15" d="M71.4302 45.9592C71.4302 69.6574 55.3733 52.3495 40.6259 63.8446C16.5331 82.6243 0 65.7149 0 45.9592C0 26.2035 15.1789 3.03428 35.7151 10.1884C54.6569 16.7871 71.4302 22.2611 71.4302 45.9592Z" fill="#CCE4FF"/>
<path d="M71.311 16.9291C71.0651 16.0147 70.4652 15.2352 69.6444 14.7626C68.8231 14.2877 67.8465 14.1592 66.9303 14.4051C66.0154 14.6516 65.2359 15.2509 64.7633 16.0717L64.168 17.1076C63.6024 16.7826 62.8798 16.9739 62.5491 17.5366L59.5252 22.691L58.4893 22.0957C58.2149 21.937 57.8882 21.894 57.5825 21.9765C57.2761 22.0597 57.0157 22.2608 56.8582 22.5363C56.5355 23.1054 56.732 23.8286 57.2988 24.1553L58.3347 24.7505L48.2154 42.2866L45.7152 48.9658L44.5247 51.1916C43.8277 52.4041 43.9021 53.9115 44.7154 55.0491L42.0367 58.3346L41.2869 56.4541C40.9485 55.6158 40.1655 55.0415 39.2651 54.9712C38.3641 54.9002 37.5008 55.3455 37.0364 56.1204L36.608 56.8464L36.2034 52.0844C36.1104 50.9579 35.2378 50.0522 34.1159 49.9162C32.9934 49.7807 31.9308 50.4533 31.5722 51.5252L28.6436 60.311C28.439 60.9324 28.7738 61.6021 29.3934 61.8113C29.5097 61.8654 29.6347 61.8979 29.7626 61.9061C30.2741 61.9078 30.7299 61.5817 30.8938 61.0969L33.8102 52.3111L34.227 57.1441C34.313 58.1753 35.0542 59.0327 36.0621 59.2664C37.0701 59.5001 38.113 59.056 38.6437 58.1683L39.0843 57.4417L39.8226 59.3112C40.1359 60.0988 40.8445 60.6609 41.6833 60.7859C42.5221 60.9109 43.3638 60.5801 43.894 59.918L46.668 56.4064C46.9749 56.4866 47.2911 56.5267 47.6085 56.5256C48.8845 56.5354 50.0691 55.8635 50.7155 54.7631L51.9061 52.775L56.4419 47.2631L66.6682 29.5125L67.7041 30.1078C67.9802 30.2659 68.1813 30.5269 68.2633 30.8344C68.3458 31.1396 68.3028 31.4651 68.1447 31.7389L63.3827 39.9893C63.203 40.2602 63.142 40.5927 63.2141 40.9101C63.2862 41.2269 63.4844 41.5007 63.7634 41.6675C64.0378 41.8268 64.3645 41.8698 64.6702 41.7873C64.9766 41.7041 65.237 41.503 65.3945 41.2275L70.1566 32.9771C70.6315 32.1557 70.7599 31.1791 70.5135 30.263C70.267 29.348 69.6677 28.5685 68.8469 28.0959L67.811 27.5006L70.7873 22.3457C71.1122 21.7801 70.921 21.0581 70.3588 20.7267L70.9541 19.6909C71.4418 18.8567 71.5709 17.8603 71.311 16.9291ZM66.8228 17.2622C66.9803 16.9867 67.2419 16.7849 67.5494 16.703C67.8552 16.6274 68.1784 16.6698 68.4539 16.8221C68.73 16.9797 68.9312 17.2413 69.0137 17.5482C69.0893 17.854 69.0469 18.1772 68.8946 18.4527L68.2993 19.4886L66.2276 18.2981L66.8228 17.2622ZM50.5964 50.5015L50.0011 50.1563L48.2392 49.132L49.9296 44.6083L53.6796 46.7748L50.5964 50.5015ZM47.0249 53.9417C46.522 53.5912 46.3674 52.9168 46.668 52.3821L47.2632 51.3468L49.3344 52.5373L48.7391 53.5609C48.5723 53.8504 48.2921 54.0562 47.966 54.1289C47.6399 54.2009 47.2987 54.1335 47.0249 53.9417ZM55.0369 44.8228L50.9178 42.4418L60.4419 25.941L64.561 28.322L55.0369 44.8228ZM65.7515 26.2625L61.6324 23.8815L64.0134 19.7624L68.1325 22.1434L65.7515 26.2625Z" fill="white"/>
<path d="M18.7859 53.3465L14.572 57.5494L12.048 55.0253C11.5836 54.5638 10.8337 54.5638 10.3692 55.0253C10.1437 55.2491 10.017 55.5532 10.017 55.8706C10.017 56.1879 10.1437 56.4925 10.3692 56.7158L12.8932 59.2398C13.3397 59.6827 13.9431 59.9309 14.572 59.9304C15.2045 59.9338 15.8131 59.6856 16.2625 59.2398L20.4647 55.0253C20.8693 54.5527 20.8419 53.8488 20.4025 53.4093C19.9624 52.9693 19.2585 52.942 18.7859 53.3465Z" fill="white"/>
<path d="M4.76202 56.5489C4.76202 62.1381 9.29268 66.6682 14.8813 66.6682C20.4699 66.6682 25.0006 62.1381 25.0006 56.5489C25.0006 55.8914 24.4675 55.3584 23.8101 55.3584C23.1526 55.3584 22.6196 55.8914 22.6196 56.5489C22.6196 60.8226 19.155 64.2872 14.8813 64.2872C10.6076 64.2872 7.14303 60.8226 7.14303 56.5489C7.14303 52.2752 10.6076 48.8106 14.8813 48.8106C16.5566 48.806 18.1872 49.3495 19.5241 50.3586C20.0502 50.7533 20.7966 50.6464 21.1907 50.1203C21.5854 49.5942 21.4791 48.8484 20.953 48.4537C17.8866 46.1541 13.7838 45.7844 10.3559 47.498C6.92737 49.2123 4.76202 52.7164 4.76202 56.5489Z" fill="white"/>
<path d="M42.8581 9.52407C43.5156 9.52407 44.0486 8.9916 44.0486 8.33357C44.0486 7.67612 43.5156 7.14307 42.8581 7.14307H11.905C11.2476 7.14307 10.7145 7.67612 10.7145 8.33357V13.0956C10.7145 13.7536 11.2476 14.2861 11.905 14.2861H42.8581C43.5156 14.2861 44.0486 13.7536 44.0486 13.0956C44.0486 12.4381 43.5156 11.9051 42.8581 11.9051H13.0955V9.52407H42.8581Z" fill="white"/>
<path d="M15.4765 16.667C14.8191 16.667 14.286 17.2 14.286 17.8575C14.286 18.5155 14.8191 19.048 15.4765 19.048H39.2866C39.944 19.048 40.4771 18.5155 40.4771 17.8575C40.4771 17.2 39.944 16.667 39.2866 16.667H15.4765Z" fill="white"/>
<path d="M46.4296 25.0005H20.2385C19.5811 25.0005 19.048 25.5335 19.048 26.191C19.048 26.849 19.5811 27.3815 20.2385 27.3815H46.4296C47.0871 27.3815 47.6201 26.849 47.6201 26.191C47.6201 25.5335 47.0871 25.0005 46.4296 25.0005Z" fill="white"/>
<path d="M34.5246 33.3341C34.5246 32.6766 33.9915 32.1436 33.3341 32.1436H9.524C8.86655 32.1436 8.3335 32.6766 8.3335 33.3341C8.3335 33.9921 8.86655 34.5246 9.524 34.5246H33.3341C33.9915 34.5246 34.5246 33.9921 34.5246 33.3341Z" fill="white"/>
<path d="M46.4297 32.1436H38.0961C37.4387 32.1436 36.9056 32.6766 36.9056 33.3341C36.9056 33.9921 37.4387 34.5246 38.0961 34.5246H46.4297C47.0871 34.5246 47.6202 33.9921 47.6202 33.3341C47.6202 32.6766 47.0871 32.1436 46.4297 32.1436Z" fill="white"/>
<path d="M21.429 40.4772C22.0865 40.4772 22.6195 39.9447 22.6195 39.2867C22.6195 38.6292 22.0865 38.0962 21.429 38.0962H9.524C8.86655 38.0962 8.3335 38.6292 8.3335 39.2867C8.3335 39.9447 8.86655 40.4772 9.524 40.4772H21.429Z" fill="white"/>
<path d="M26.1911 40.4772H34.5246C35.182 40.4772 35.7151 39.9447 35.7151 39.2867C35.7151 38.6292 35.182 38.0962 34.5246 38.0962H26.1911C25.5336 38.0962 25.0005 38.6292 25.0005 39.2867C25.0005 39.9447 25.5336 40.4772 26.1911 40.4772Z" fill="white"/>
<path d="M53.5726 54.7632C52.9152 54.7632 52.3821 55.2962 52.3821 55.9537V67.8587C52.3821 68.5168 51.8491 69.0492 51.1916 69.0492H3.57151C2.91406 69.0492 2.38101 68.5168 2.38101 67.8587V3.57151C2.38101 2.91406 2.91406 2.38101 3.57151 2.38101H51.1916C51.8491 2.38101 52.3821 2.91406 52.3821 3.57151V25.9295C52.3821 26.587 52.9152 27.12 53.5726 27.12C54.2301 27.12 54.7631 26.587 54.7631 25.9295V3.57151C54.7631 1.59916 53.164 0 51.1916 0H3.57151C1.59916 0 0 1.59916 0 3.57151V67.8587C0 69.8316 1.59916 71.4302 3.57151 71.4302H51.1916C53.164 71.4302 54.7631 69.8316 54.7631 67.8587V55.9537C54.7631 55.2962 54.2301 54.7632 53.5726 54.7632Z" fill="white"/>
</svg>
