<svg width="36" height="32" viewBox="0 0 36 32" fill="none" xmlns="http://www.w3.org/2000/svg">
<path d="M4.51282 22.1539C3.31595 22.1539 2.16809 21.6784 1.32177 20.8321C0.475457 19.9858 0 18.8379 0 17.6411V14.359C0 13.1621 0.475457 12.0143 1.32177 11.168C2.16809 10.3216 3.31595 9.84619 4.51282 9.84619H6.15385C6.47895 9.85044 6.78953 9.98148 7.01943 10.2114C7.24933 10.4413 7.38037 10.7519 7.38462 11.077V19.2821C7.38031 20.0424 7.07636 20.7704 6.53873 21.308C6.00109 21.8456 5.27314 22.1496 4.51282 22.1539ZM4.51282 12.3077C3.96879 12.3077 3.44704 12.5238 3.06235 12.9085C2.67766 13.2932 2.46154 13.815 2.46154 14.359V17.6411C2.46154 18.1851 2.67766 18.7069 3.06235 19.0915C3.44704 19.4762 3.96879 19.6923 4.51282 19.6923C4.62163 19.6923 4.72598 19.6491 4.80292 19.5722C4.87985 19.4952 4.92308 19.3909 4.92308 19.2821V12.3077H4.51282Z" fill="#004FA9"/>
<path d="M30.7692 22.1539H29.1282C28.8031 22.1496 28.4925 22.0186 28.2626 21.7887C28.0327 21.5588 27.9017 21.2482 27.8974 20.9231V11.077C27.9017 10.7519 28.0327 10.4413 28.2626 10.2114C28.4925 9.98148 28.8031 9.85044 29.1282 9.84619H30.7692C31.9661 9.84619 33.114 10.3216 33.9603 11.168C34.8066 12.0143 35.282 13.1621 35.282 14.359V17.6411C35.282 18.8379 34.8066 19.9858 33.9603 20.8321C33.114 21.6784 31.9661 22.1539 30.7692 22.1539ZM30.359 19.6923H30.7692C31.3133 19.6923 31.835 19.4762 32.2197 19.0915C32.6044 18.7069 32.8205 18.1851 32.8205 17.6411V14.359C32.8205 13.815 32.6044 13.2932 32.2197 12.9085C31.835 12.5238 31.3133 12.3077 30.7692 12.3077H30.359V19.6923Z" fill="#004FA9"/>
<path d="M29.1282 13.9487C28.8031 13.9445 28.4925 13.8134 28.2626 13.5835C28.0327 13.3536 27.9017 13.0431 27.8974 12.718C27.8974 9.99778 26.8168 7.38902 24.8934 5.46557C22.9699 3.54212 20.3612 2.46154 17.641 2.46154C14.9208 2.46154 12.3121 3.54212 10.3886 5.46557C8.46519 7.38902 7.3846 9.99778 7.3846 12.718C7.3846 13.0444 7.25493 13.3574 7.02412 13.5882C6.79331 13.8191 6.48026 13.9487 6.15383 13.9487C5.82741 13.9487 5.51436 13.8191 5.28355 13.5882C5.05274 13.3574 4.92307 13.0444 4.92307 12.718C4.92307 9.34494 6.26299 6.11008 8.64807 3.725C11.0331 1.33992 14.268 0 17.641 0C21.014 0 24.2489 1.33992 26.634 3.725C29.019 6.11008 30.359 9.34494 30.359 12.718C30.3547 13.0431 30.2237 13.3536 29.9938 13.5835C29.7639 13.8134 29.4533 13.9445 29.1282 13.9487Z" fill="#004FA9"/>
<path d="M22.5641 30.3591H19.2821C18.9556 30.3591 18.6426 30.2294 18.4118 29.9986C18.181 29.7678 18.0513 29.4547 18.0513 29.1283C18.0513 28.8019 18.181 28.4888 18.4118 28.258C18.6426 28.0272 18.9556 27.8975 19.2821 27.8975H22.5641C23.9773 27.8932 25.3313 27.3299 26.3306 26.3306C27.3298 25.3314 27.8931 23.9773 27.8975 22.5642V20.9232C27.8975 20.5967 28.0271 20.2837 28.2579 20.0529C28.4888 19.8221 28.8018 19.6924 29.1282 19.6924C29.4546 19.6924 29.7677 19.8221 29.9985 20.0529C30.2293 20.2837 30.359 20.5967 30.359 20.9232V22.5642C30.359 24.6315 29.5378 26.6142 28.0759 28.076C26.6141 29.5378 24.6315 30.3591 22.5641 30.3591Z" fill="#004FA9"/>
<path d="M17.641 22.5641C16.3797 22.6343 15.1396 22.2169 14.1775 21.3983C13.2153 20.5796 12.6046 19.4225 12.4718 18.1662C12.4567 18.0045 12.4736 17.8415 12.5215 17.6864C12.5695 17.5313 12.6474 17.3872 12.7511 17.2622C12.8547 17.1373 12.9819 17.034 13.1255 16.9582C13.269 16.8824 13.4261 16.8356 13.5877 16.8205C13.7493 16.8054 13.9123 16.8223 14.0674 16.8703C14.2225 16.9182 14.3667 16.9962 14.4916 17.0998C14.6166 17.2034 14.7199 17.3306 14.7957 17.4742C14.8715 17.6177 14.9183 17.7748 14.9333 17.9364C15.0156 18.5782 15.344 19.1628 15.8492 19.567C16.3544 19.9711 16.9969 20.1632 17.641 20.1026C18.2852 20.1632 18.9276 19.9711 19.4328 19.567C19.938 19.1628 20.2664 18.5782 20.3487 17.9364C20.3638 17.7748 20.4106 17.6177 20.4864 17.4742C20.5622 17.3306 20.6655 17.2034 20.7904 17.0998C20.9154 16.9962 21.0595 16.9182 21.2146 16.8703C21.3697 16.8223 21.5327 16.8054 21.6944 16.8205C21.856 16.8356 22.0131 16.8824 22.1566 16.9582C22.3002 17.034 22.4274 17.1373 22.531 17.2622C22.6346 17.3872 22.7126 17.5313 22.7605 17.6864C22.8085 17.8415 22.8254 18.0045 22.8103 18.1662C22.6775 19.4225 22.0668 20.5796 21.1046 21.3983C20.1424 22.2169 18.9024 22.6343 17.641 22.5641Z" fill="#004FA9"/>
<path d="M17.641 31.9999H16C15.2384 31.9999 14.5079 31.6974 13.9693 31.1588C13.4308 30.6202 13.1282 29.8898 13.1282 29.1281C13.1282 28.3665 13.4308 27.636 13.9693 27.0975C14.5079 26.5589 15.2384 26.2563 16 26.2563H17.641C18.4027 26.2563 19.1331 26.5589 19.6717 27.0975C20.2103 27.636 20.5128 28.3665 20.5128 29.1281C20.5128 29.8898 20.2103 30.6202 19.6717 31.1588C19.1331 31.6974 18.4027 31.9999 17.641 31.9999ZM16 28.7179C15.8912 28.7179 15.7868 28.7611 15.7099 28.838C15.633 28.915 15.5897 29.0193 15.5897 29.1281C15.5897 29.2369 15.633 29.3413 15.7099 29.4182C15.7868 29.4952 15.8912 29.5384 16 29.5384H17.641C17.7498 29.5384 17.8542 29.4952 17.9311 29.4182C18.0081 29.3413 18.0513 29.2369 18.0513 29.1281C18.0513 29.0193 18.0081 28.915 17.9311 28.838C17.8542 28.7611 17.7498 28.7179 17.641 28.7179H16Z" fill="#004FA9"/>
<path d="M14.359 12.7178C15.2653 12.7178 16 11.9831 16 11.0768C16 10.1705 15.2653 9.43579 14.359 9.43579C13.4527 9.43579 12.718 10.1705 12.718 11.0768C12.718 11.9831 13.4527 12.7178 14.359 12.7178Z" fill="#004FA9"/>
<path d="M20.9231 12.7178C21.8294 12.7178 22.5641 11.9831 22.5641 11.0768C22.5641 10.1705 21.8294 9.43579 20.9231 9.43579C20.0168 9.43579 19.282 10.1705 19.282 11.0768C19.282 11.9831 20.0168 12.7178 20.9231 12.7178Z" fill="#004FA9"/>
</svg>
