<svg width="18" height="18" viewBox="0 0 18 18" fill="none" xmlns="http://www.w3.org/2000/svg">
<path d="M16.0714 0H1.92857C1.41708 0 0.926543 0.203188 0.564866 0.564866C0.203188 0.926543 0 1.41708 0 1.92857V12.2143C0 12.7258 0.203188 13.2163 0.564866 13.578C0.926543 13.9397 1.41708 14.1429 1.92857 14.1429H6.42857V16.7143H4.5C4.3295 16.7143 4.16599 16.782 4.04543 16.9026C3.92487 17.0231 3.85714 17.1866 3.85714 17.3571C3.85714 17.5276 3.92487 17.6912 4.04543 17.8117C4.16599 17.9323 4.3295 18 4.5 18H13.5C13.6705 18 13.834 17.9323 13.9546 17.8117C14.0751 17.6912 14.1429 17.5276 14.1429 17.3571C14.1429 17.1866 14.0751 17.0231 13.9546 16.9026C13.834 16.782 13.6705 16.7143 13.5 16.7143H11.5714V14.1429H16.0714C16.5829 14.1429 17.0735 13.9397 17.4351 13.578C17.7968 13.2163 18 12.7258 18 12.2143V1.92857C18 1.41708 17.7968 0.926543 17.4351 0.564866C17.0735 0.203188 16.5829 0 16.0714 0ZM10.2857 16.7143H7.71429V14.1429H10.2857V16.7143ZM16.7143 12.2143C16.7143 12.3848 16.6466 12.5483 16.526 12.6689C16.4054 12.7894 16.2419 12.8571 16.0714 12.8571H1.92857C1.75808 12.8571 1.59456 12.7894 1.474 12.6689C1.35344 12.5483 1.28571 12.3848 1.28571 12.2143V1.92857C1.28571 1.75808 1.35344 1.59456 1.474 1.474C1.59456 1.35344 1.75808 1.28571 1.92857 1.28571H16.0714C16.2419 1.28571 16.4054 1.35344 16.526 1.474C16.6466 1.59456 16.7143 1.75808 16.7143 1.92857V12.2143ZM3.85714 9H6.42857C6.76956 9 7.09659 8.86454 7.33771 8.62342C7.57883 8.3823 7.71429 8.05528 7.71429 7.71429V3.85714C7.71429 3.51615 7.57883 3.18912 7.33771 2.94801C7.09659 2.70689 6.76956 2.57143 6.42857 2.57143H3.85714C3.51615 2.57143 3.18912 2.70689 2.94801 2.94801C2.70689 3.18912 2.57143 3.51615 2.57143 3.85714V7.71429C2.57143 8.05528 2.70689 8.3823 2.94801 8.62342C3.18912 8.86454 3.51615 9 3.85714 9ZM3.85714 3.85714H6.42857V7.71429H3.85714V3.85714ZM15.4286 10.9286C15.4286 11.0991 15.3608 11.2626 15.2403 11.3831C15.1197 11.5037 14.9562 11.5714 14.7857 11.5714H3.21429C3.04379 11.5714 2.88028 11.5037 2.75972 11.3831C2.63916 11.2626 2.57143 11.0991 2.57143 10.9286C2.57143 10.7581 2.63916 10.5946 2.75972 10.474C2.88028 10.3534 3.04379 10.2857 3.21429 10.2857H14.7857C14.9562 10.2857 15.1197 10.3534 15.2403 10.474C15.3608 10.5946 15.4286 10.7581 15.4286 10.9286ZM9 7.71429V5.14286C9 4.97236 9.06773 4.80885 9.18829 4.68829C9.30885 4.56773 9.47236 4.5 9.64286 4.5C9.81335 4.5 9.97687 4.56773 10.0974 4.68829C10.218 4.80885 10.2857 4.97236 10.2857 5.14286V7.71429C10.2857 7.88478 10.218 8.0483 10.0974 8.16885C9.97687 8.28941 9.81335 8.35714 9.64286 8.35714C9.47236 8.35714 9.30885 8.28941 9.18829 8.16885C9.06773 8.0483 9 7.88478 9 7.71429ZM15.4286 5.78571V7.71429C15.4286 7.88478 15.3608 8.0483 15.2403 8.16885C15.1197 8.28941 14.9562 8.35714 14.7857 8.35714C14.6152 8.35714 14.4517 8.28941 14.3311 8.16885C14.2106 8.0483 14.1429 7.88478 14.1429 7.71429V5.78571C14.1429 5.61522 14.2106 5.4517 14.3311 5.33115C14.4517 5.21059 14.6152 5.14286 14.7857 5.14286C14.9562 5.14286 15.1197 5.21059 15.2403 5.33115C15.3608 5.4517 15.4286 5.61522 15.4286 5.78571ZM11.5714 7.71429V3.85714C11.5714 3.68665 11.6392 3.52313 11.7597 3.40257C11.8803 3.28202 12.0438 3.21429 12.2143 3.21429C12.3848 3.21429 12.5483 3.28202 12.6689 3.40257C12.7894 3.52313 12.8571 3.68665 12.8571 3.85714V7.71429C12.8571 7.88478 12.7894 8.0483 12.6689 8.16885C12.5483 8.28941 12.3848 8.35714 12.2143 8.35714C12.0438 8.35714 11.8803 8.28941 11.7597 8.16885C11.6392 8.0483 11.5714 7.88478 11.5714 7.71429Z" fill="#004FA9"/>
</svg>
