<svg width="20" height="20" viewBox="0 0 20 20" fill="none" xmlns="http://www.w3.org/2000/svg">
<path d="M10.4738 18.2666L8.68298 18.6248L9.04115 16.834C9.15926 16.2434 9.44959 15.701 9.87548 15.2751L16.4677 8.68286L18.625 10.8401L12.0328 17.4323C11.6069 17.8582 11.0644 18.1485 10.4738 18.2666Z" stroke="#004FA9" stroke-width="1.25" stroke-miterlimit="10" stroke-linecap="round" stroke-linejoin="round"/>
<path d="M14.3538 6.48289V5.20142" stroke="#004FA9" stroke-width="1.25" stroke-miterlimit="10" stroke-linecap="round" stroke-linejoin="round"/>
<path d="M9.77754 0.625H2.15042C1.30797 0.625 0.625 1.30797 0.625 2.15042V17.0996C0.625 17.942 1.30797 18.625 2.15042 18.625H5.57225" stroke="#004FA9" stroke-width="1.25" stroke-miterlimit="10" stroke-linecap="round" stroke-linejoin="round"/>
<path d="M14.3539 5.20127H11.303C10.4606 5.20127 9.77759 4.5183 9.77759 3.67585V0.625L14.3539 5.20127Z" stroke="#004FA9" stroke-width="1.25" stroke-miterlimit="10" stroke-linecap="round" stroke-linejoin="round"/>
<path d="M3.67584 7.94727H11.303" stroke="#004FA9" stroke-width="1.25" stroke-miterlimit="10" stroke-linecap="round" stroke-linejoin="round"/>
<path d="M3.67584 10.998H9.83863" stroke="#004FA9" stroke-width="1.25" stroke-miterlimit="10" stroke-linecap="round" stroke-linejoin="round"/>
<path d="M3.67584 14.0486H6.9544" stroke="#004FA9" stroke-width="1.25" stroke-miterlimit="10" stroke-linecap="round" stroke-linejoin="round"/>
</svg>
