<svg width="32" height="32" viewBox="0 0 32 32" fill="none" xmlns="http://www.w3.org/2000/svg">
<path fill-rule="evenodd" clip-rule="evenodd" d="M3.70202 0C1.67487 0.000166653 -0.00847134 1.66444 3.20758e-05 3.68978V18.9723C-0.0040529 20.9956 1.67154 22.6648 3.6916 22.6648H5.33551V25.3312C5.34134 26.0676 5.94334 26.6598 6.68005 26.6539C6.96141 26.6517 7.23486 26.5606 7.46136 26.3936L12.4451 22.6648H22.9806C25.0034 22.6647 26.6722 20.9942 26.6722 18.9724V7.99933H28.3161C28.9034 7.99942 29.3423 8.44171 29.3399 9.01491V24.2975C29.3424 24.8906 28.8971 25.3312 28.3161 25.3312H25.3435C24.6067 25.3284 24.0071 25.9227 24.0045 26.6593V27.9873L20.8053 25.5969C20.575 25.4247 20.2957 25.3316 20.0082 25.3312H13.3414C11.5624 25.3312 11.5624 27.9977 13.3414 27.9977H19.5626L24.536 31.7291C25.4142 32.3905 26.6706 31.7658 26.6722 30.6667V27.9977H28.3162C30.339 27.9977 32.0085 26.3164 32 24.2871V9.02266V9.01483C32.0039 6.995 30.338 5.33305 28.3161 5.33289H26.6722V3.68978C26.6722 1.66794 25.0034 0 22.9806 0L3.70202 0ZM3.70202 2.66644H22.9806C23.5617 2.66644 24.0044 3.10907 24.0044 3.68978V18.9723C24.0044 19.5531 23.5617 19.9982 22.9806 19.9982H12.0023C11.7148 19.9987 11.4352 20.0918 11.2051 20.2639L8.00333 22.6544V21.3263C8.00041 20.59 7.40092 19.9955 6.66429 19.9982H3.6916C3.11053 19.9982 2.66527 19.5568 2.66777 18.9723V3.68978C2.66777 3.68628 2.66777 3.68286 2.66777 3.67936C2.66535 3.09991 3.1057 2.66653 3.70202 2.66644ZM13.3413 3.9945C13.067 3.9945 12.7947 4.02966 12.5337 4.08299C12.2728 4.1364 12.0155 4.20815 11.7756 4.30956C11.5357 4.41097 11.3084 4.54087 11.0957 4.68453C10.8829 4.82818 10.6849 4.98567 10.5043 5.16624C10.3236 5.3468 10.166 5.5447 10.0223 5.75735C9.87858 5.97 9.74862 6.19465 9.64716 6.43438C9.5457 6.67419 9.46608 6.93134 9.41273 7.19215C9.35929 7.45313 9.33195 7.72527 9.33195 7.99942C9.33195 8.73644 9.92969 9.33397 10.6672 9.33397C11.4046 9.33397 12.0024 8.73652 12.0024 7.99942C12.0024 7.90534 12.0134 7.8096 12.031 7.72344C12.0487 7.63711 12.0756 7.55787 12.1092 7.47863C12.1427 7.39938 12.181 7.32314 12.2291 7.25206C12.2771 7.18098 12.3352 7.11482 12.3958 7.05416C12.4565 6.9935 12.5227 6.9355 12.5938 6.88751C12.665 6.83951 12.7386 6.80385 12.8179 6.77035C12.8972 6.73685 12.9791 6.70986 13.0654 6.69219C13.1517 6.67453 13.2475 6.66094 13.3416 6.66094C13.4357 6.66094 13.521 6.67453 13.6073 6.69219C13.6937 6.70986 13.773 6.73677 13.8523 6.77035C13.9315 6.80385 14.0078 6.83951 14.0789 6.88751C14.1501 6.9355 14.2162 6.9935 14.2769 7.05416C14.3376 7.11482 14.3956 7.18098 14.4437 7.25206C14.4917 7.32314 14.5274 7.3993 14.5609 7.47863C14.5944 7.55787 14.624 7.63711 14.6417 7.72344C14.6593 7.80968 14.6703 7.90542 14.6703 7.99942C14.6703 8.09349 14.6593 8.17882 14.6417 8.26506C14.624 8.35147 14.5944 8.43321 14.5609 8.51246C14.5274 8.5917 14.4917 8.66794 14.4437 8.73902C14.3956 8.8101 14.3376 8.87359 14.2769 8.93434C14.2162 8.99508 14.1501 9.05558 14.0789 9.10357C14.0078 9.15157 13.9316 9.19765 13.8523 9.23115C13.773 9.26464 13.6937 9.28114 13.6073 9.29881C13.521 9.31647 13.4357 9.32747 13.3416 9.32747C12.6048 9.32464 12.0053 9.91934 12.0024 10.6557V10.6684V10.9913V11.3272V11.6501V11.986V12.3193V12.6448V12.9807V13.314C12.0188 14.0503 12.6292 14.6339 13.3659 14.6176C14.0796 14.6018 14.6543 14.0273 14.6702 13.314V12.9807V12.6448V12.3193V11.986V11.749C14.7438 11.7229 14.8253 11.7115 14.8968 11.6814C15.1367 11.58 15.364 11.4605 15.5768 11.3168C15.7895 11.1732 15.985 11.0052 16.1655 10.8247C16.3462 10.6441 16.5063 10.4462 16.6501 10.2336C16.7938 10.0209 16.9212 9.79368 17.0226 9.55395C17.1241 9.31414 17.2063 9.05699 17.2597 8.79618C17.3132 8.5352 17.3379 8.27348 17.3379 7.99942C17.3379 7.72527 17.3132 7.45304 17.2597 7.19215C17.2063 6.93134 17.1241 6.67419 17.0226 6.43438C16.9212 6.19465 16.7938 5.97 16.6501 5.75735C16.5063 5.5447 16.3461 5.3468 16.1655 5.16624C15.9849 4.98567 15.7895 4.82818 15.5768 4.68453C15.364 4.54087 15.1367 4.41097 14.8968 4.30956C14.6569 4.20815 14.3996 4.1364 14.1387 4.08299C13.8775 4.02958 13.6156 3.9945 13.3413 3.9945ZM13.3361 15.9961C12.5994 15.9961 12.0023 16.5929 12.0023 17.3293C12.0023 18.0657 12.5994 18.6625 13.3361 18.6625C14.0729 18.6625 14.67 18.0657 14.67 17.3293C14.67 16.5929 14.0729 15.9961 13.3361 15.9961Z" fill="#004FA9"/>
</svg>
