<svg width="22" height="22" viewBox="0 0 22 22" fill="none" xmlns="http://www.w3.org/2000/svg">
<path fill-rule="evenodd" clip-rule="evenodd" d="M3.18536 19.9997C5.85273 22.667 10.1772 22.667 12.8446 19.9997L19.9995 12.8447C22.6668 10.1774 22.6668 5.85273 19.9995 3.18538C18.9128 2.09869 17.151 2.09869 16.0643 3.18538L14.6333 4.61639C13.5466 5.70308 13.5466 7.46497 14.6333 8.55166C15.1273 9.04561 15.1273 9.84648 14.6333 10.3404L10.3403 14.6335C9.84635 15.1274 9.04556 15.1274 8.55157 14.6335C7.46493 13.5467 5.70308 13.5467 4.61633 14.6335L3.18536 16.0645C2.09872 17.1511 2.09872 18.913 3.18536 19.9997ZM11.7713 18.9264C9.69679 21.0011 6.33316 21.0011 4.25864 18.9264C3.76465 18.4325 3.76465 17.6316 4.25864 17.1377L5.68962 15.7067C6.18361 15.2128 6.98439 15.2128 7.47839 15.7067C8.56503 16.7934 10.3269 16.7934 11.4136 15.7067L15.7065 11.4137C16.7932 10.327 16.7932 8.5651 15.7065 7.47841C15.2126 6.98445 15.2126 6.1836 15.7065 5.68964L17.1375 4.25864C17.6315 3.76468 18.4323 3.76468 18.9263 4.25864C21.0009 6.33324 21.0009 9.69682 18.9263 11.7715L11.7713 18.9264Z" fill="white"/>
<path fill-rule="evenodd" clip-rule="evenodd" d="M7.83587 7.83667C8.83032 6.84215 10.1902 6.43602 11.4857 6.62014C11.9006 6.67911 12.2848 6.39052 12.3438 5.97556C12.4027 5.56059 12.1141 5.17639 11.6993 5.11742C9.95147 4.86903 8.10887 5.41707 6.76258 6.76342C5.4162 8.10976 4.86817 9.95237 5.11659 11.7001C5.17558 12.1151 5.55978 12.4036 5.97475 12.3447C6.38971 12.2858 6.67829 11.9015 6.6193 11.4866C6.43514 10.1911 6.84131 8.8312 7.83587 7.83667Z" fill="white"/>
<path fill-rule="evenodd" clip-rule="evenodd" d="M4.25878 4.25874C6.42346 2.09403 9.38427 1.21097 12.2012 1.61145C12.6162 1.67044 13.0004 1.38188 13.0594 0.966917C13.1184 0.551957 12.8298 0.167738 12.4149 0.108746C9.14567 -0.356025 5.702 0.668899 3.1855 3.18548C0.668897 5.70208 -0.356019 9.14571 0.10883 12.415C0.167822 12.83 0.552027 13.1185 0.966991 13.0595C1.38186 13.0006 1.67044 12.6163 1.61145 12.2014C1.21095 9.38432 2.094 6.42347 4.25878 4.25874Z" fill="white"/>
</svg>
