<svg width="13" height="16" viewBox="0 0 13 16" fill="none" xmlns="http://www.w3.org/2000/svg">
<path d="M6.49998 12.1427C6.7839 12.1427 7.06782 12.0418 7.29681 11.8401C8.66136 10.6383 11.3 7.96913 11.3 5.3C11.3 2.64902 9.15096 0.5 6.49998 0.5C3.849 0.5 1.69998 2.64902 1.69998 5.3C1.69998 7.96913 4.3386 10.6383 5.70315 11.8402C5.93214 12.0418 6.21606 12.1427 6.49998 12.1427Z" stroke="white" stroke-miterlimit="10" stroke-linecap="round" stroke-linejoin="round"/>
<path d="M10.4918 11.5161C11.7241 11.8458 12.5 12.3257 12.5 12.86C12.5 13.8541 9.81371 14.66 6.5 14.66C3.18629 14.66 0.5 13.8541 0.5 12.86C0.5 12.3257 1.27592 11.8458 2.50817 11.5161" stroke="white" stroke-miterlimit="10" stroke-linecap="round" stroke-linejoin="round"/>
<path d="M6.50001 7.10024C7.49412 7.10024 8.30001 6.29436 8.30001 5.30024C8.30001 4.30613 7.49412 3.50024 6.50001 3.50024C5.5059 3.50024 4.70001 4.30613 4.70001 5.30024C4.70001 6.29436 5.5059 7.10024 6.50001 7.10024Z" stroke="white" stroke-miterlimit="10" stroke-linecap="round" stroke-linejoin="round"/>
</svg>
