<svg width="22" height="25" viewBox="0 0 22 25" fill="none" xmlns="http://www.w3.org/2000/svg">
<path d="M7.4727 8.54286H4.96024C3.57411 8.54286 2.88053 8.54286 2.3511 8.8169C1.8854 9.05795 1.50705 9.44231 1.26976 9.9154C1 10.4532 1 11.1578 1 12.566V19.606C1 21.0141 1 21.7178 1.26976 22.2556C1.50705 22.7287 1.8854 23.1137 2.3511 23.3548C2.88001 23.6286 3.57279 23.6286 4.95621 23.6286H16.8438C18.2272 23.6286 18.919 23.6286 19.4479 23.3548C19.9136 23.1137 20.2932 22.7287 20.5305 22.2556C20.8 21.7183 20.8 21.0156 20.8 19.6102V12.5618C20.8 11.1564 20.8 10.4527 20.5305 9.9154C20.2932 9.44231 19.9136 9.05795 19.4479 8.8169C18.9185 8.54286 18.2264 8.54286 16.8402 8.54286H14.3266M7.4727 8.54286H14.3266M7.4727 8.54286C7.31498 8.54286 7.1875 8.41297 7.1875 8.25275V4.77143C7.1875 2.68853 8.84964 1 10.9 1C12.9504 1 14.6125 2.68853 14.6125 4.77143V8.25275C14.6125 8.41297 14.4843 8.54286 14.3266 8.54286" stroke="white" stroke-width="2" stroke-linecap="round" stroke-linejoin="round"/>
</svg>
