<svg width="21" height="24" viewBox="0 0 21 24" fill="none" xmlns="http://www.w3.org/2000/svg">
<path fill-rule="evenodd" clip-rule="evenodd" d="M15.5063 9.83896C15.0095 9.83896 14.6063 9.43579 14.6063 8.93903V6.36283C14.6063 3.84782 12.5605 1.80198 10.0455 1.80198H10.0263C8.81079 1.80198 7.67208 2.26994 6.81174 3.12308C5.94541 3.97981 5.46665 5.12332 5.46185 6.34243V8.93903C5.46185 9.43579 5.05868 9.83896 4.56192 9.83896C4.06516 9.83896 3.66199 9.43579 3.66199 8.93903V6.36283C3.66919 4.63496 4.33753 3.04029 5.54344 1.84518C6.75055 0.64887 8.34402 -0.0434732 10.0491 0.00211964C13.5528 0.00211964 16.4062 2.8555 16.4062 6.36283V8.93903C16.4062 9.43579 16.003 9.83896 15.5063 9.83896Z" fill="#004799"/>
<path fill-rule="evenodd" clip-rule="evenodd" d="M5.44998 9.75351C3.43653 9.75351 1.79986 11.3902 1.79986 13.4036V18.55C1.79986 20.5635 3.43653 22.2001 5.44998 22.2001H14.6185C16.6307 22.2001 18.2686 20.5635 18.2686 18.55V13.4036C18.2686 11.3902 16.6307 9.75351 14.6185 9.75351H5.44998ZM14.6185 24H5.44998C2.44421 24 0 21.5558 0 18.55V13.4036C0 10.3979 2.44421 7.95364 5.44998 7.95364H14.6185C17.6242 7.95364 20.0684 10.3979 20.0684 13.4036V18.55C20.0684 21.5558 17.6242 24 14.6185 24Z" fill="#004799"/>
<path fill-rule="evenodd" clip-rule="evenodd" d="M10.0341 18.209C9.53732 18.209 9.13416 17.8059 9.13416 17.3091V14.6441C9.13416 14.1473 9.53732 13.7442 10.0341 13.7442C10.5308 13.7442 10.934 14.1473 10.934 14.6441V17.3091C10.934 17.8059 10.5308 18.209 10.0341 18.209Z" fill="#004799"/>
</svg>
