<svg width="73" height="80" viewBox="0 0 73 80" fill="none" xmlns="http://www.w3.org/2000/svg">
<path d="M72.5926 30.3704C72.5926 28.8889 71.4815 27.4074 69.6296 27.4074C67.7778 27.4074 66.6667 28.5185 66.6667 30.3704H72.5926ZM41.4815 5.92593C42.963 5.92593 44.4444 4.81482 44.4444 2.96296C44.4444 1.11111 43.3333 0 41.4815 0V5.92593ZM66.6667 30.3704V62.2222H72.2222V30.3704H66.6667ZM54.8148 74.0741H17.7778V79.6296H54.8148V74.0741ZM5.92593 62.2222V17.7778H0V62.2222H5.92593ZM17.7778 5.92593H41.4815V0H17.7778V5.92593ZM17.7778 74.0741C11.1111 74.0741 5.92593 68.5185 5.92593 62.2222H0C0 71.8519 7.77778 80 17.7778 80V74.0741ZM66.6667 62.2222C66.6667 68.8889 61.1111 74.0741 54.8148 74.0741V79.6296C64.4445 79.6296 72.5926 71.8519 72.5926 61.8519H66.6667V62.2222ZM5.92593 17.7778C5.92593 11.1111 11.4815 5.92593 17.7778 5.92593V0C8.14815 0 0 8.14815 0 17.7778H5.92593Z" fill="#004FA9"/>
<path d="M21.4815 18.5184C20 18.5184 18.5185 19.9999 18.5185 21.4814C18.5185 22.9629 20 24.4444 21.4815 24.4444V18.5184ZM36.2963 24.4444C37.7778 24.4444 39.2592 23.3332 39.2592 21.4814C39.2592 19.6295 37.7778 18.5184 36.2963 18.5184V24.4444ZM21.4815 24.4444H36.2963V18.5184H21.4815V24.4444Z" fill="#004FA9"/>
<path d="M21.4815 37.037C20 37.037 18.5185 38.1481 18.5185 40C18.5185 41.8518 19.6296 42.9629 21.4815 42.9629V37.037ZM51.1111 42.9629C52.5926 42.9629 54.074 41.8518 54.074 40C54.074 38.1481 52.9629 37.037 51.1111 37.037V42.9629ZM21.4815 42.9629H51.1111V37.4074H21.4815V42.9629Z" fill="#004FA9"/>
<path d="M21.4815 55.5555C20 55.5555 18.5185 56.6667 18.5185 58.5185C18.5185 60.3704 19.6296 61.4815 21.4815 61.4815V55.5555ZM51.1111 61.4815C52.5926 61.4815 54.074 60.3704 54.074 58.5185C54.074 56.6667 52.9629 55.5555 51.1111 55.5555V61.4815ZM21.4815 61.4815H51.1111V55.9259H21.4815V61.4815Z" fill="#004FA9"/>
<path d="M58.5185 28.1482C57.037 28.1482 55.5555 27.037 55.5555 25.1852V2.96296C55.5555 1.48148 56.6667 0 58.5185 0C60.3704 0 61.4815 1.11111 61.4815 2.96296V25.1852C61.4815 26.6667 60 28.1482 58.5185 28.1482Z" fill="#004FA9"/>
<path d="M69.6296 17.037H47.4074C45.9259 17.037 44.4445 15.9259 44.4445 14.074C44.4445 12.2222 45.5556 11.1111 47.4074 11.1111H69.6296C71.1111 11.1111 72.5926 12.2222 72.5926 14.074C72.5926 15.9259 71.1111 17.037 69.6296 17.037Z" fill="#004FA9"/>
</svg>
