<svg width="84" height="84" viewBox="0 0 84 84" fill="none" xmlns="http://www.w3.org/2000/svg">
<path d="M67.2283 63.2457H72.0415C77.542 63.2457 82.0001 58.7876 82.0001 53.2872V33.3702C82.0001 27.8698 77.542 23.4117 72.0415 23.4117H11.9585C6.45809 23.4117 2 27.8698 2 33.3702V53.2872C2 58.7876 6.45809 63.2457 11.9585 63.2457H16.7718" stroke="#004FA9" stroke-width="4" stroke-miterlimit="10" stroke-linecap="round" stroke-linejoin="round"/>
<path d="M71.2121 49.9678H12.7888" stroke="#004FA9" stroke-width="4" stroke-miterlimit="10" stroke-linecap="round" stroke-linejoin="round"/>
<path d="M71.2121 42.9679H12.7888" stroke="#004FA9" stroke-width="4" stroke-miterlimit="10" stroke-linecap="round" stroke-linejoin="round"/>
<path d="M21.7509 82.0001H62.2488C64.9987 82.0001 67.2281 79.7707 67.2281 77.0209V49.9669H16.7716V77.0209C16.7716 79.7707 19.001 82.0001 21.7509 82.0001Z" stroke="#004FA9" stroke-width="4" stroke-miterlimit="10" stroke-linecap="round" stroke-linejoin="round"/>
<path d="M48.639 60.5895H35.361" stroke="#004FA9" stroke-width="4" stroke-miterlimit="10" stroke-linecap="round" stroke-linejoin="round"/>
<path d="M48.639 71.2113H35.361" stroke="#004FA9" stroke-width="4" stroke-miterlimit="10" stroke-linecap="round" stroke-linejoin="round"/>
<path d="M20.7556 34.0325H12.7888" stroke="#004FA9" stroke-width="4" stroke-miterlimit="10" stroke-linecap="round" stroke-linejoin="round"/>
<path d="M70 34.0001H67" stroke="#004FA9" stroke-width="4" stroke-miterlimit="10" stroke-linecap="round" stroke-linejoin="round"/>
<path d="M26.7301 1.99997H57.2696C62.7695 1.99997 67.2281 6.45856 67.2281 11.9585V23.4108H16.7716V11.9585C16.7716 6.45856 21.2302 1.99997 26.7301 1.99997Z" stroke="#004FA9" stroke-width="4" stroke-miterlimit="10" stroke-linecap="round" stroke-linejoin="round"/>
</svg>
