<svg width="66" height="72" viewBox="0 0 66 72" fill="none" xmlns="http://www.w3.org/2000/svg">
<path d="M13.9269 0.150391H51.5314C54.494 0.150584 56.9092 2.45309 56.9093 5.27539V40.6426C56.9092 43.4648 54.4939 45.7674 51.5314 45.7676H13.9269C10.9643 45.7674 8.54904 43.4648 8.54893 40.6426V5.27539C8.54899 2.45309 10.9643 0.150596 13.9269 0.150391ZM13.9269 1.79102C11.874 1.79121 10.1476 3.32306 10.1476 5.27539V40.6426C10.1477 42.5949 11.874 44.1268 13.9269 44.127H51.5314C53.5866 44.1268 55.2686 42.5927 55.2687 40.6426V5.27539C55.2686 3.32523 53.5866 1.7912 51.5314 1.79102H13.9269Z" fill="white" stroke="white" stroke-width="0.299941"/>
<path d="M9.36925 7.78906H56.089C56.5548 7.78906 56.9093 8.14355 56.9093 8.60938C56.9093 9.02867 56.5592 9.3877 56.089 9.3877H9.36925C8.89904 9.3877 8.54894 9.02867 8.54893 8.60938C8.54893 8.14355 8.90342 7.78906 9.36925 7.78906Z" fill="white" stroke="white" stroke-width="0.299941"/>
<path d="M14.9403 3.99097H18.1473C18.5796 3.99097 18.9686 4.3541 18.9686 4.76929C18.9685 5.23082 18.5751 5.5896 18.1473 5.5896H14.9403C14.4745 5.5896 14.1201 5.235 14.1199 4.76929C14.1199 4.34998 14.4701 3.99097 14.9403 3.99097Z" fill="white" stroke="white" stroke-width="0.299941"/>
<path d="M21.4397 3.99097H24.6897C25.1132 3.99114 25.468 4.34577 25.468 4.76929C25.4679 5.23927 25.1088 5.58943 24.6897 5.5896H21.4397C21.0119 5.5896 20.6195 5.23082 20.6194 4.76929C20.6194 4.3541 21.0074 3.99097 21.4397 3.99097Z" fill="white" stroke="white" stroke-width="0.299941"/>
<path d="M27.9812 3.99097H31.1882C31.6584 3.99097 32.0095 4.34998 32.0095 4.76929C32.0094 5.235 31.6539 5.5896 31.1882 5.5896H27.9812C27.5154 5.5896 27.161 5.235 27.1608 4.76929C27.1608 4.34998 27.5109 3.99097 27.9812 3.99097Z" fill="white" stroke="white" stroke-width="0.299941"/>
<path d="M1.94141 15.8501H9.36914C9.78845 15.8501 10.1475 16.2002 10.1475 16.6704C10.1475 17.1027 9.78432 17.4907 9.36914 17.4907H1.79199L1.79102 17.6411L1.74902 55.9624V56.1118H1.89941L63.4746 56.1548C63.4815 56.1548 63.4995 56.1546 63.5156 56.1528C63.5307 56.1512 63.5784 56.1448 63.6182 56.105C63.6575 56.0654 63.6633 56.0187 63.665 56.0034C63.6668 55.9873 63.667 55.9694 63.667 55.9624V17.6831C63.667 17.6761 63.6668 17.6581 63.665 17.6421C63.6633 17.6268 63.6574 17.58 63.6182 17.5405C63.5784 17.5007 63.5307 17.4944 63.5156 17.4927C63.4995 17.4909 63.4815 17.4907 63.4746 17.4907H56.0889C55.6273 17.4906 55.2686 17.0982 55.2686 16.6704C55.2686 16.2046 55.6231 15.8502 56.0889 15.8501H63.4746C64.489 15.8501 65.3085 16.6687 65.3086 17.6831V56.0044C65.3086 56.9746 64.4912 57.7954 63.4746 57.7954H1.94141C0.969134 57.7954 0.150391 56.9767 0.150391 56.0044V17.6831C0.150491 16.6666 0.971281 15.8501 1.94141 15.8501Z" fill="white" stroke="white" stroke-width="0.299941"/>
<path d="M0.970703 50.6687H64.4873C64.9152 50.6687 65.3086 51.0274 65.3086 51.489C65.3086 51.9042 64.9196 52.2673 64.4873 52.2673H0.970703C0.500499 52.2673 0.150398 51.9083 0.150391 51.489C0.150391 51.0232 0.504878 50.6687 0.970703 50.6687Z" fill="white" stroke="white" stroke-width="0.299941"/>
<path d="M17.8945 66.0308H47.5635C47.9828 66.0308 48.3428 66.3809 48.3428 66.8511V71.0718C48.3426 71.4953 47.987 71.8501 47.5635 71.8501H17.8945C17.4245 71.8501 17.0744 71.4909 17.0742 71.0718V66.8511C17.0742 66.3852 17.4287 66.0308 17.8945 66.0308ZM18.7149 70.2505H46.7432V67.6714H18.7149V70.2505Z" fill="white" stroke="white" stroke-width="0.299941"/>
<path d="M29.8383 56.155H35.6205C36.0356 56.1552 36.3988 56.5431 36.3988 56.9753V66.8513C36.3987 67.2834 36.0355 67.6714 35.6205 67.6716H29.8383C29.3768 67.6716 29.0181 67.2791 29.018 66.8513V56.9753C29.018 56.5475 29.3767 56.155 29.8383 56.155ZM30.6586 66.03H34.7992V57.7957H30.6586V66.03Z" fill="white" stroke="white" stroke-width="0.299941"/>
<path d="M52.5019 53.4116H55.1611C55.5888 53.4118 55.9814 53.7704 55.9814 54.2319C55.9814 54.6554 55.5846 55.052 55.1611 55.0522H52.5019C52.0403 55.0522 51.6816 54.6598 51.6816 54.2319C51.6816 53.7661 52.0361 53.4116 52.5019 53.4116Z" fill="white" stroke="white" stroke-width="0.299941"/>
<path d="M58.1149 53.4116H60.7741C61.2018 53.4118 61.5944 53.7704 61.5944 54.2319C61.5944 54.6554 61.1976 55.052 60.7741 55.0522H58.1149C57.6913 55.0522 57.2946 54.6555 57.2946 54.2319C57.2946 53.7703 57.687 53.4116 58.1149 53.4116Z" fill="white" stroke="white" stroke-width="0.299941"/>
<path d="M51.4285 12.8572L44.9999 20.5715L41.7857 16.7143" stroke="white" stroke-width="2" stroke-linecap="round" stroke-linejoin="round"/>
<path d="M41.3601 24.3755H52.9655C53.4314 24.3755 53.7868 24.73 53.7868 25.1958C53.7868 25.6151 53.4357 25.9741 52.9655 25.9741H41.3601C40.9364 25.9741 40.5817 25.6194 40.5817 25.1958C40.5817 24.7256 40.9408 24.3755 41.3601 24.3755Z" fill="white" stroke="white" stroke-width="0.299941"/>
<path d="M41.36 29.229H52.9655C53.4313 29.229 53.7868 29.5835 53.7868 30.0493C53.7868 30.4686 53.4357 30.8276 52.9655 30.8276H41.36C40.9364 30.8276 40.5817 30.4729 40.5817 30.0493C40.5817 29.5791 40.9407 29.229 41.36 29.229Z" fill="white" stroke="white" stroke-width="0.299941"/>
<path d="M41.36 34.0825H52.9655C53.4313 34.0825 53.7868 34.437 53.7868 34.9028C53.7868 35.3221 53.4357 35.6812 52.9655 35.6812H41.36C40.9364 35.6812 40.5817 35.3264 40.5817 34.9028C40.5817 34.4326 40.9407 34.0825 41.36 34.0825Z" fill="white" stroke="white" stroke-width="0.299941"/>
<path d="M41.36 38.9358H52.9655C53.4313 38.9358 53.7868 39.2903 53.7868 39.7561C53.7868 40.184 53.4271 40.5764 52.9655 40.5764H41.36C40.9448 40.5764 40.5817 40.1884 40.5817 39.7561C40.5817 39.2859 40.9407 38.9358 41.36 38.9358Z" fill="white" stroke="white" stroke-width="0.299941"/>
<path d="M17.9785 29.5664H20.2998C20.4719 29.5664 20.6525 29.6351 20.8008 29.7461L24.8056 32.9932L24.8984 33.0684L24.9922 32.9951L29.168 29.7461L29.1689 29.7471C29.3171 29.636 29.4969 29.5665 29.6689 29.5664H31.9902C35.4518 29.5664 38.2976 32.4101 38.2978 35.915V41.4023C38.2976 41.8678 37.943 42.2224 37.4775 42.2227H12.4502C12.0224 42.2227 11.6301 41.8638 11.6299 41.4023V35.915C11.6301 32.4108 14.4743 29.5666 17.9785 29.5664ZM17.9785 31.207C15.3637 31.2072 13.2707 33.3003 13.2705 35.915V40.623H36.6982V35.915C36.698 33.2993 34.562 31.207 31.9902 31.207H29.956L29.915 31.2393L25.4014 34.7402C25.1178 34.9529 24.6901 34.9517 24.4082 34.7051L24.4033 34.7012L20.0556 31.2402L20.0146 31.207H17.9785Z" fill="white" stroke="white" stroke-width="0.299941"/>
<path d="M23.1273 14.4995C23.9062 14.4995 24.4567 15.0001 24.9535 15.5825L25.1634 15.8364L25.1673 15.8413C25.7924 16.5497 26.4268 17.3267 27.6439 17.3267C28.0407 17.3266 28.5175 17.2389 28.9916 17.0679C29.2077 17.0244 29.3532 16.9888 29.5004 16.9888C30.3584 16.9888 30.9424 17.6239 31.3412 18.5249C31.7378 19.4211 31.9262 20.5311 32.0101 21.3696V21.3706C32.2819 23.933 31.3542 25.6903 30.4886 26.7505L30.3187 26.9507C28.9538 28.4397 26.9249 29.3501 24.8998 29.3501C23.2052 29.35 21.5144 28.7407 20.2425 27.4585C18.9718 26.1773 18.1071 24.212 18.0863 21.48V21.4624L18.0824 21.4448L18.0795 21.3979C18.078 21.3605 18.0771 21.3078 18.0785 21.2417C18.0813 21.1093 18.0927 20.9241 18.1195 20.6987C18.1731 20.248 18.2905 19.637 18.5365 18.9585C19.028 17.603 20.0309 15.9785 22.0609 14.8179C22.4267 14.6146 22.7812 14.4996 23.1273 14.4995ZM23.1136 16.0991C23.1077 16.0995 23.1005 16.0999 23.0921 16.1011C23.0751 16.1035 23.0529 16.1083 23.0277 16.1167C22.9847 16.131 22.9354 16.159 22.8841 16.2026C21.2645 17.1313 20.4641 18.44 20.0697 19.5151C19.8727 20.0521 19.7765 20.531 19.7298 20.8765C19.7065 21.0493 19.696 21.1894 19.6908 21.2866C19.6882 21.335 19.6864 21.3728 19.6859 21.3989V21.4409C19.7073 23.7487 20.3814 25.3306 21.3754 26.3354C22.3683 27.3391 23.6646 27.7514 24.8998 27.7515C26.503 27.7515 28.0638 27.0583 29.1058 25.8862L29.1048 25.8853C30.1505 24.7513 30.5819 23.2305 30.4095 21.5503V21.5493L30.3353 21.0093C30.2532 20.4908 30.1475 20.0377 30.0345 19.6704C29.9592 19.4256 29.8797 19.2168 29.8021 19.0513C29.7262 18.8893 29.6459 18.7564 29.5638 18.6743L29.4984 18.6089L29.4105 18.6382C28.7938 18.8437 28.2193 18.9262 27.6439 18.9263C25.6927 18.9263 24.6341 17.7123 23.9623 16.8726L23.9574 16.8657L23.9515 16.8599L23.5492 16.4263C23.4829 16.3547 23.4175 16.2864 23.3597 16.2329C23.3308 16.2062 23.3018 16.1803 23.2738 16.1597C23.2477 16.1405 23.2132 16.1187 23.1752 16.106L23.1517 16.0981H23.1214C23.1192 16.0982 23.1165 16.0989 23.1136 16.0991Z" fill="white" stroke="white" stroke-width="0.299941"/>
<path d="M23.0481 11.8333C25.9942 10.8647 28.6414 11.3094 30.4476 12.9446L30.6194 13.1057C32.6338 15.079 33.144 18.3888 31.9749 21.7708V21.7717C31.8698 22.0871 31.5495 22.303 31.2308 22.303C31.1361 22.303 31.0871 22.2746 30.9407 22.2258C30.5133 22.0834 30.304 21.6215 30.4436 21.2375L30.4446 21.2356C31.384 18.5029 31.0541 15.8177 29.4798 14.2434L29.4778 14.2415C28.0333 12.841 25.8202 12.5515 23.262 13.4846C23.0705 13.5221 22.8504 13.5202 22.6761 13.4504C22.5234 13.385 22.2001 13.2469 21.7786 13.2874C21.3486 13.3286 20.84 13.5522 20.3128 14.1672L20.3108 14.1702C19.6131 15.0205 19.1726 16.2315 19.0276 17.4231C18.8831 18.6121 19.029 19.8121 19.5394 20.6331L19.5442 20.6389C19.6632 20.8089 19.6925 21.0274 19.6429 21.2356C19.5929 21.4445 19.4661 21.6295 19.2942 21.7327L19.2913 21.7356C18.8918 21.9898 18.4016 21.8739 18.1946 21.4944H18.1956L18.1897 21.4846L18.0501 21.2551C17.389 20.0819 17.2252 18.5976 17.4202 17.1497C17.628 15.6069 18.241 14.1274 19.0628 13.1399C20.1715 11.8669 21.5473 11.3904 22.9563 11.8333L23.0022 11.8479L23.0481 11.8333Z" fill="white" stroke="white" stroke-width="0.299941"/>
<path d="M20.3609 27.0049C20.4616 26.6022 20.8769 26.3322 21.271 26.4141L21.3501 26.4355L21.3609 26.4385C21.7844 26.5444 22.0334 26.9669 21.9273 27.3945L21.0845 30.5967C20.9756 30.9598 20.6513 31.2069 20.3003 31.207C20.2798 31.207 20.2552 31.2019 20.2095 31.1904C20.1774 31.1824 20.1302 31.1719 20.0787 31.168C19.6517 31.0583 19.3761 30.5951 19.5142 30.1807L19.5162 30.1719L20.3609 27.0068V27.0049Z" fill="white" stroke="white" stroke-width="0.299941"/>
<path d="M28.6194 26.4778C29.0351 26.3392 29.4999 26.6169 29.6077 27.0461V27.0471L29.6086 27.05L30.4524 30.1692V30.1702C30.5602 30.6022 30.3064 31.0598 29.8918 31.1672C29.8396 31.1711 29.7914 31.1826 29.759 31.1907C29.7135 31.202 29.6896 31.2073 29.6692 31.2073C29.3197 31.2073 28.9964 30.9623 28.886 30.6018L28.0412 27.4358C27.9425 27.0354 28.1551 26.6394 28.5305 26.5042L28.6086 26.4807L28.6194 26.4778Z" fill="white" stroke="white" stroke-width="0.299941"/>
<path d="M17.1348 36.8254C17.55 36.8254 17.9131 37.2134 17.9131 37.6458V41.4016C17.9131 41.8718 17.5541 42.2229 17.1348 42.2229C16.669 42.2229 16.3145 41.8674 16.3145 41.4016V37.6458C16.3145 37.2179 16.6732 36.8254 17.1348 36.8254Z" fill="white" stroke="white" stroke-width="0.299941"/>
<path d="M32.8347 36.8254C33.2583 36.8254 33.655 37.2221 33.655 37.6458V41.4016C33.655 41.8632 33.2626 42.2229 32.8347 42.2229C32.3689 42.2229 32.0144 41.8674 32.0144 41.4016V37.6458C32.0144 37.2179 32.3731 36.8254 32.8347 36.8254Z" fill="white" stroke="white" stroke-width="0.299941"/>
</svg>
