<svg width="35" height="35" viewBox="0 0 35 35" fill="none" xmlns="http://www.w3.org/2000/svg">
<path d="M27.8513 18.395L26.9348 17.545L27.8513 18.395ZM16.2436 6.7873L17.0936 7.70379L16.2436 6.7873ZM33.3627 4.38155L34.6021 4.54365L33.3627 4.38155ZM30.2571 1.27591L30.4192 2.51536L30.2571 1.27591ZM8.46565 18.1351L9.58803 18.6854V18.6854L8.46565 18.1351ZM16.5035 26.173L15.9532 25.0506V25.0506L16.5035 26.173ZM14.5462 17.2513C14.0581 16.7631 13.2666 16.7631 12.7785 17.2513C12.2903 17.7394 12.2903 18.5309 12.7785 19.019L13.6623 18.1351L14.5462 17.2513ZM18.8421 25.0827C19.3303 25.5708 20.1217 25.5708 20.6099 25.0827C21.098 24.5945 21.098 23.8031 20.6099 23.3149L19.726 24.1988L18.8421 25.0827ZM8.42177 27.9846C8.90993 27.4964 8.90993 26.705 8.42177 26.2168C7.93362 25.7287 7.14216 25.7287 6.65401 26.2168L7.53789 27.1007L8.42177 27.9846ZM2.01092 30.8599C1.52277 31.3481 1.52277 32.1395 2.01092 32.6277C2.49908 33.1158 3.29054 33.1158 3.77869 32.6277L2.89481 31.7438L2.01092 30.8599ZM4.93946 24.5023C5.42762 24.0141 5.42762 23.2227 4.93946 22.7345C4.45131 22.2464 3.65985 22.2464 3.17169 22.7345L4.05558 23.6184L4.93946 24.5023ZM0.850153 25.0561C0.361997 25.5442 0.361998 26.3357 0.850153 26.8238C1.33831 27.312 2.12976 27.312 2.61792 26.8238L1.73404 25.9399L0.850153 25.0561ZM11.9041 31.4669C12.3922 30.9788 12.3922 30.1873 11.9041 29.6991C11.4159 29.211 10.6245 29.211 10.1363 29.6991L11.0202 30.583L11.9041 31.4669ZM7.81478 32.0207C7.32662 32.5088 7.32662 33.3003 7.81478 33.7885C8.30293 34.2766 9.09439 34.2766 9.58255 33.7885L8.69866 32.9046L7.81478 32.0207ZM16.4364 31.7992C16.3388 31.1158 15.7056 30.6409 15.0222 30.7385C14.3388 30.8361 13.8639 31.4693 13.9615 32.1527L15.199 31.976L16.4364 31.7992ZM23.6726 26.2882L24.91 26.1114V26.1114L23.6726 26.2882ZM2.48584 20.6771C3.16926 20.7747 3.80242 20.2999 3.90006 19.6164C3.99769 18.933 3.52281 18.2999 2.83939 18.2022L2.66262 19.4397L2.48584 20.6771ZM8.35039 10.966L8.17362 12.2035L8.17362 12.2035L8.35039 10.966ZM25.4045 0.925112C24.7353 1.09456 24.3301 1.77445 24.4995 2.44369C24.669 3.11292 25.3489 3.51808 26.0181 3.34864L25.7113 2.13687L25.4045 0.925112ZM21.1197 5.06475C21.744 4.76989 22.0109 4.02483 21.7161 3.40061C21.4212 2.77639 20.6762 2.5094 20.0519 2.80426L20.5858 3.93451L21.1197 5.06475ZM12.9399 25.5382L13.8237 24.6543L9.98432 20.8149L9.10044 21.6988L8.21655 22.5826L12.056 26.4221L12.9399 25.5382ZM27.8513 18.395L26.9348 17.545C23.8288 20.8939 18.7843 23.6627 15.9532 25.0506L16.5035 26.173L17.0537 27.2953C19.9106 25.8948 25.3235 22.9588 28.7678 19.245L27.8513 18.395ZM8.46565 18.1351L9.58803 18.6854C10.9759 15.8544 13.7447 10.8098 17.0936 7.70379L16.2436 6.7873L15.3936 5.8708C11.6799 9.31516 8.74386 14.728 7.34327 17.5849L8.46565 18.1351ZM33.3627 4.38155L32.1233 4.21944C31.6245 8.03295 30.2997 13.9169 26.9348 17.545L27.8513 18.395L28.7678 19.245C32.7045 15.0004 34.0956 8.41658 34.6021 4.54365L33.3627 4.38155ZM33.3627 4.38155L34.6021 4.54365C34.9502 1.88209 32.7565 -0.31163 30.095 0.0364674L30.2571 1.27591L30.4192 2.51536C31.4525 2.38021 32.2584 3.18607 32.1233 4.21944L33.3627 4.38155ZM9.10044 21.6988L9.98432 20.8149C9.39346 20.224 9.24982 19.3753 9.58803 18.6854L8.46565 18.1351L7.34327 17.5849C6.50527 19.2942 6.91801 21.2841 8.21655 22.5826L9.10044 21.6988ZM12.9399 25.5382L12.056 26.4221C13.3545 27.7206 15.3444 28.1333 17.0537 27.2953L16.5035 26.173L15.9532 25.0506C15.2633 25.3888 14.4146 25.2452 13.8237 24.6543L12.9399 25.5382ZM13.6623 18.1351L12.7785 19.019L18.8421 25.0827L19.726 24.1988L20.6099 23.3149L14.5462 17.2513L13.6623 18.1351ZM7.53789 27.1007L6.65401 26.2168L2.01092 30.8599L2.89481 31.7438L3.77869 32.6277L8.42177 27.9846L7.53789 27.1007ZM4.05558 23.6184L3.17169 22.7345L0.850153 25.0561L1.73404 25.9399L2.61792 26.8238L4.93946 24.5023L4.05558 23.6184ZM11.0202 30.583L10.1363 29.6991L7.81478 32.0207L8.69866 32.9046L9.58255 33.7885L11.9041 31.4669L11.0202 30.583ZM20.3064 9.68916L19.4225 8.80527C17.6522 10.5756 17.6522 13.4458 19.4225 15.2161L20.3064 14.3322L21.1903 13.4484C20.3963 12.6544 20.3963 11.367 21.1903 10.573L20.3064 9.68916ZM20.3064 14.3322L19.4225 15.2161C21.1928 16.9864 24.063 16.9864 25.8333 15.2161L24.9495 14.3322L24.0656 13.4484C23.2716 14.2424 21.9843 14.2424 21.1903 13.4484L20.3064 14.3322ZM24.9495 14.3322L25.8333 15.2161C27.6036 13.4458 27.6036 10.5756 25.8333 8.80527L24.9495 9.68916L24.0656 10.573C24.8596 11.367 24.8596 12.6544 24.0656 13.4484L24.9495 14.3322ZM24.9495 9.68916L25.8333 8.80527C24.063 7.03497 21.1928 7.03497 19.4225 8.80527L20.3064 9.68916L21.1903 10.573C21.9842 9.77904 23.2716 9.77904 24.0656 10.573L24.9495 9.68916ZM23.2083 27.6811L22.3244 26.7972L17.1009 32.0207L17.9848 32.9046L18.8687 33.7885L24.0922 28.565L23.2083 27.6811ZM23.2083 23.038L21.9709 23.2148L22.4352 26.465L23.6726 26.2882L24.91 26.1114L24.4457 22.8612L23.2083 23.038ZM17.9848 32.9046L17.1009 32.0207C16.8728 32.2489 16.482 32.1186 16.4364 31.7992L15.199 31.976L13.9615 32.1527C14.2985 34.5116 17.1838 35.4733 18.8687 33.7885L17.9848 32.9046ZM23.2083 27.6811L24.0922 28.565C24.7357 27.9214 25.0388 27.0124 24.91 26.1114L23.6726 26.2882L22.4352 26.465C22.4526 26.587 22.4116 26.7101 22.3244 26.7972L23.2083 27.6811ZM6.95747 11.4303L6.07359 10.5465L0.850118 15.7699L1.734 16.6538L2.61789 17.5377L7.84135 12.3142L6.95747 11.4303ZM11.6006 11.4303L11.7773 10.1929L8.52717 9.7286L8.35039 10.966L8.17362 12.2035L11.4238 12.6678L11.6006 11.4303ZM1.734 16.6538L0.850118 15.7699C-0.834771 17.4548 0.127001 20.3401 2.48584 20.6771L2.66262 19.4397L2.83939 18.2022C2.51996 18.1566 2.38972 17.7659 2.61789 17.5377L1.734 16.6538ZM6.95747 11.4303L7.84135 12.3142C7.92851 12.2271 8.05161 12.186 8.17362 12.2035L8.35039 10.966L8.52717 9.7286C7.62617 9.59989 6.71716 9.90289 6.07359 10.5465L6.95747 11.4303ZM25.7113 2.13687L26.0181 3.34864C27.6285 2.9409 29.1547 2.68074 30.4192 2.51536L30.2571 1.27591L30.095 0.0364674C28.756 0.211583 27.1303 0.488152 25.4045 0.925112L25.7113 2.13687ZM16.2436 6.7873L17.0936 7.70379C18.2401 6.64047 19.6236 5.77148 21.1197 5.06475L20.5858 3.93451L20.0519 2.80426C18.3868 3.59085 16.7723 4.59209 15.3936 5.8708L16.2436 6.7873Z" fill="#004FA9"/>
</svg>
