<svg width="16" height="18" viewBox="0 0 16 18" fill="none" xmlns="http://www.w3.org/2000/svg">
<path d="M8.00002 18C7.70643 18.0006 7.41559 17.9423 7.14403 17.8282C5.03031 16.9797 3.21688 15.4972 1.94191 13.5754C0.666938 11.6535 -0.00996193 9.38221 0.000110804 7.0597V3.72933C-0.000119207 3.17051 0.186064 2.62833 0.527891 2.1924C0.869718 1.75647 1.34673 1.45288 1.88009 1.3318L7.48002 0.0552937C7.82294 -0.0184312 8.17709 -0.0184312 8.52001 0.0552937L14.1199 1.3318C14.6533 1.45288 15.1303 1.75647 15.4721 2.1924C15.814 2.62833 16.0002 3.17051 15.9999 3.72933V7.0597C16.0083 9.38284 15.3308 11.6545 14.0562 13.5773C12.7815 15.5001 10.9691 16.9845 8.85601 17.8363C8.58282 17.9438 8.29272 17.9993 8.00002 18ZM8.00002 1.63456H7.82402L2.22408 2.91106C2.04362 2.95263 1.88282 3.05689 1.76905 3.20608C1.65528 3.35527 1.59557 3.54018 1.60009 3.72933V7.0597C1.59202 9.05508 2.17357 11.0064 3.2685 12.6578C4.36343 14.3093 5.92065 15.5838 7.73602 16.3144C7.90623 16.3796 8.0938 16.3796 8.26401 16.3144C10.0794 15.5838 11.6366 14.3093 12.7315 12.6578C13.8265 11.0064 14.408 9.05508 14.3999 7.0597V3.72933C14.4045 3.54018 14.3448 3.35527 14.231 3.20608C14.1172 3.05689 13.9564 2.95263 13.7759 2.91106L8.17601 1.63456H8.00002ZM7.38402 11.2656C7.17528 11.2669 6.97432 11.1847 6.82403 11.0365L5.00005 9.20357C4.92507 9.1275 4.86556 9.037 4.82494 8.93729C4.78433 8.83757 4.76342 8.73062 4.76342 8.6226C4.76342 8.51458 4.78433 8.40763 4.82494 8.30791C4.86556 8.2082 4.92507 8.1177 5.00005 8.04163C5.14994 7.88922 5.3527 7.80368 5.56404 7.80368C5.77539 7.80368 5.97815 7.88922 6.12804 8.04163L7.39202 9.30995L10.68 6.03686C10.7551 5.9611 10.8441 5.90122 10.9418 5.86063C11.0395 5.82004 11.1441 5.79955 11.2496 5.8003C11.3551 5.80106 11.4594 5.82307 11.5566 5.86506C11.6538 5.90705 11.7419 5.96821 11.816 6.04504C11.89 6.12188 11.9486 6.21288 11.9883 6.31285C12.0279 6.41282 12.048 6.51981 12.0472 6.62771C12.0465 6.73561 12.025 6.8423 11.9839 6.94169C11.9429 7.04108 11.8831 7.13123 11.808 7.20699L7.96002 11.0774C7.79948 11.2148 7.5927 11.2824 7.38402 11.2656Z" fill="#004FA9"/>
</svg>
