<svg width="72" height="72" viewBox="0 0 72 72" fill="none" xmlns="http://www.w3.org/2000/svg">
<path d="M17.9232 27.0042C17.2636 27.0042 16.7283 26.4689 16.7283 25.8093V21.4814C16.7283 21.1063 16.9027 20.755 17.2015 20.5303C18.4202 19.6079 19.118 18.2218 19.118 16.7282V13.1436C19.118 10.5077 16.9744 8.36411 14.3385 8.36411C11.7026 8.36411 9.55902 10.5077 9.55902 13.1436V16.7282C9.55902 18.2218 10.2568 19.6079 11.4756 20.5303C11.7743 20.755 11.9488 21.1086 11.9488 21.4838V25.8117C11.9488 26.4712 11.4135 27.0065 10.7539 27.0065C10.0943 27.0065 9.55902 26.4689 9.55902 25.8093V22.0454C8.03197 20.6809 7.16927 18.7739 7.16927 16.7282V13.1436C7.16927 9.19097 10.3859 5.97437 14.3385 5.97437C18.2912 5.97437 21.5078 9.19097 21.5078 13.1436V16.7282C21.5078 18.7739 20.6451 20.6785 19.118 22.0454V25.8093C19.118 26.4689 18.5827 27.0042 17.9232 27.0042Z" fill="white"/>
<path d="M15.5406 23.7778C14.9861 23.7778 14.4891 23.3883 14.372 22.8243C14.2405 22.1767 14.6564 21.5458 15.304 21.4144C17.5121 20.9579 19.118 18.9888 19.118 16.7281C19.118 16.0685 19.6533 15.5332 20.3129 15.5332C20.9725 15.5332 21.5078 16.0685 21.5078 16.7281C21.5078 20.1167 19.0989 23.0705 15.7819 23.7516C15.7007 23.7683 15.6218 23.7778 15.5406 23.7778Z" fill="white"/>
<path d="M22.4016 28.8779C22.2438 28.8779 22.0837 28.8468 21.9308 28.7799L17.4524 26.8562C16.8454 26.5957 16.5658 25.8931 16.8263 25.2861C17.0844 24.6767 17.7869 24.4019 18.3939 24.66L22.8723 26.5838C23.4793 26.8442 23.7589 27.5468 23.4985 28.1538C23.3049 28.6079 22.8628 28.8779 22.4016 28.8779Z" fill="white"/>
<path d="M7.16926 43.343C7.00437 43.343 6.8347 43.3095 6.67458 43.2354L2.10059 41.1563C0.824465 40.5732 0 39.2923 0 37.8919V34.5797C0 31.2293 1.9835 28.2182 5.05194 26.9086L10.2783 24.6408C10.8901 24.3779 11.5879 24.6551 11.8508 25.2597C12.1113 25.8643 11.8341 26.5693 11.2295 26.8322L5.99828 29.1024C3.80449 30.0416 2.38975 32.19 2.38975 34.5797V37.8919C2.38975 38.3579 2.66458 38.7881 3.08995 38.9817L7.66394 41.0607C8.26377 41.3332 8.52903 42.0429 8.2566 42.6428C8.05586 43.0825 7.62093 43.343 7.16926 43.343Z" fill="white"/>
<path d="M18.9723 15.3183C16.5921 15.3183 14.317 14.4986 12.3933 12.9477C11.8819 12.5342 11.8006 11.7838 12.2116 11.27C12.6299 10.7563 13.3826 10.6774 13.8916 11.0908C15.4259 12.3263 17.2469 12.9931 19.1133 12.9285C18.9986 10.3906 16.9003 8.36411 14.3385 8.36411C11.7026 8.36411 9.55902 10.5077 9.55902 13.1436V14.0278C9.55902 14.6874 9.02372 15.2227 8.36414 15.2227C7.70457 15.2227 7.16927 14.6898 7.16927 14.0278V13.1436C7.16927 9.19097 10.3859 5.97437 14.3385 5.97437C18.2912 5.97437 21.5078 9.19097 21.5078 13.1436V13.98C21.5078 14.5679 21.08 15.0674 20.5017 15.1606C19.9497 15.249 19.4717 15.3183 18.9723 15.3183Z" fill="white"/>
<path d="M60.9387 27.0042C60.2792 27.0042 59.7439 26.4689 59.7439 25.8093V21.4815C59.7439 21.1063 59.9183 20.755 60.217 20.5304C61.4358 19.6079 62.1336 18.2219 62.1336 16.7283V13.1437C62.1336 10.5078 59.99 8.36417 57.3541 8.36417C54.7182 8.36417 52.5746 10.5078 52.5746 13.1437V16.7283C52.5746 18.2219 53.2724 19.6079 54.4912 20.5304C54.7899 20.755 54.9644 21.1087 54.9644 21.4839V25.8117C54.9644 26.4713 54.429 27.0066 53.7695 27.0066C53.1099 27.0066 52.5746 26.4713 52.5746 25.8117V22.0479C51.0475 20.6833 50.1848 18.7763 50.1848 16.7307V13.1461C50.1848 9.19341 53.4015 5.97681 57.3541 5.97681C61.3068 5.97681 64.5234 9.19341 64.5234 13.1461V16.7307C64.5234 18.7763 63.6607 20.6809 62.1336 22.0479V25.8117C62.1336 26.4689 61.5983 27.0042 60.9387 27.0042Z" fill="white"/>
<path d="M58.5562 23.7781C58.0017 23.7781 57.5047 23.3886 57.3876 22.8246C57.2561 22.177 57.6719 21.5461 58.3196 21.4146C60.5277 20.9582 62.1336 18.989 62.1336 16.7283C62.1336 16.0688 62.6689 15.5334 63.3285 15.5334C63.9881 15.5334 64.5234 16.0688 64.5234 16.7283C64.5234 20.117 62.1145 23.0707 58.7975 23.7518C58.7163 23.7685 58.6374 23.7781 58.5562 23.7781Z" fill="white"/>
<path d="M49.6424 28.7273C49.1811 28.7273 48.739 28.4573 48.5455 28.0032C48.285 27.3986 48.5646 26.6936 49.1716 26.4332L53.2987 24.66C53.9009 24.4043 54.6059 24.6767 54.8664 25.2861C55.1269 25.8907 54.8473 26.5957 54.2403 26.8561L50.1131 28.6293C49.9602 28.6963 49.8025 28.7273 49.6424 28.7273Z" fill="white"/>
<path d="M64.5234 43.3431C64.0717 43.3431 63.6368 43.0826 63.436 42.6429C63.1636 42.0431 63.4289 41.3333 64.0287 41.0609L68.6027 38.9818C69.0281 38.7882 69.3029 38.3605 69.3029 37.8921V34.5799C69.3029 32.1901 67.8882 30.0418 65.7015 29.1074L60.4632 26.8323C59.8586 26.5694 59.5814 25.8669 59.8419 25.2599C60.1047 24.6529 60.7978 24.3757 61.4143 24.6409L66.6455 26.9112C69.7092 28.2184 71.6926 31.2295 71.6926 34.5799V37.8921C71.6926 39.2925 70.8682 40.5734 69.5921 41.1565L65.0181 43.2356C64.8579 43.3073 64.6883 43.3431 64.5234 43.3431Z" fill="white"/>
<path d="M35.8463 26.2872C35.1868 26.2872 34.6515 25.7519 34.6515 25.0924C34.6515 24.4328 35.1868 23.8975 35.8463 23.8975C38.3269 23.8975 43.0156 21.6511 43.0156 13.1436V9.559C43.0156 5.60635 39.799 2.38975 35.8463 2.38975C31.8937 2.38975 28.6771 5.60635 28.6771 9.559V13.1436C28.6771 17.2635 29.7788 20.4156 31.8602 22.2581C32.3549 22.6954 32.4027 23.4506 31.963 23.9453C31.5209 24.4424 30.7681 24.483 30.2782 24.048C28.4572 22.4374 26.2873 19.2399 26.2873 13.1436V9.559C26.2873 4.28721 30.5745 0 35.8463 0C41.1181 0 45.4054 4.28721 45.4054 9.559V13.1436C45.4054 23.5414 39.1538 26.2872 35.8463 26.2872Z" fill="white"/>
<path d="M58.549 43.0155C57.8894 43.0155 57.3541 42.4802 57.3541 41.8206V41.1539C57.3541 37.6099 55.1197 34.4411 51.7956 33.2725L41.8279 29.7356C40.394 29.2362 39.431 27.8788 39.431 26.3613V23.4219C39.431 22.7624 39.9663 22.2271 40.6258 22.2271C41.2854 22.2271 41.8207 22.7624 41.8207 23.4219V26.3613C41.8207 26.8632 42.1433 27.3124 42.6213 27.4797L52.5913 31.0189C56.869 32.5221 59.7439 36.5966 59.7439 41.1539V41.823C59.7439 42.4826 59.2086 43.0155 58.549 43.0155Z" fill="white"/>
<path d="M13.1436 43.0154C12.4841 43.0154 11.9488 42.4801 11.9488 41.8206V41.1753C11.9488 40.4297 12.0276 39.6817 12.183 38.9433C12.9525 35.3037 15.6146 32.2687 19.1228 31.0165L29.069 27.5275C29.5493 27.3602 29.8719 26.9085 29.8719 26.4067V23.4195C29.8719 22.7599 30.4072 22.2246 31.0668 22.2246C31.7264 22.2246 32.2617 22.7599 32.2617 23.4195V26.4067C32.2617 27.9218 31.2986 29.2791 29.86 29.7834L19.921 33.27C17.1895 34.2427 15.12 36.6061 14.5201 39.438C14.3983 40.0115 14.3385 40.597 14.3385 41.1753V41.8206C14.3385 42.4825 13.8032 43.0154 13.1436 43.0154Z" fill="white"/>
<path d="M35.8296 33.4564C31.865 33.4564 29.7979 30.3641 29.2578 28.7271C29.0499 28.0986 29.3916 27.4247 30.0177 27.2168C30.6438 27.0113 31.3154 27.3506 31.5233 27.9719C31.5735 28.1153 32.6321 31.0643 35.8296 31.0643C39.0534 31.0643 40.1885 28.0245 40.2387 27.8955C40.461 27.2765 41.154 26.9539 41.7634 27.1738C42.3823 27.3936 42.7097 28.0699 42.4922 28.6913C42.4229 28.8872 40.7716 33.4564 35.8296 33.4564Z" fill="white"/>
<path d="M38.9769 11.748C35.5787 11.748 32.0419 10.5507 30.0918 8.79666C29.5995 8.35456 29.5589 7.5994 30.001 7.1095C30.4431 6.6196 31.2054 6.57897 31.6882 7.02108C34.0445 9.13839 39.6891 10.2448 42.9224 8.50989C43.5031 8.19683 44.2296 8.4143 44.5403 8.9974C44.8533 9.5805 44.6335 10.3022 44.0528 10.6153C42.5783 11.4015 40.7979 11.748 38.9769 11.748Z" fill="white"/>
<path d="M54.0515 64.5234C53.6117 64.5234 53.1912 64.2796 52.9809 63.859C52.6893 63.2663 52.9307 62.5518 53.5233 62.2579L59.4332 59.3304C59.7654 59.1655 60.1621 59.1655 60.4919 59.3304L64.3537 61.2446L63.7252 56.9813C63.6726 56.6133 63.7921 56.2381 64.055 55.9728L67.0732 52.8877L62.8195 52.1636C62.4538 52.1014 62.136 51.8696 61.9615 51.5398L59.9637 47.721L57.9635 51.5398C57.789 51.8696 57.4712 52.1014 57.1056 52.1636L52.8542 52.8877L55.8701 55.9728C56.3313 56.446 56.3217 57.2012 55.8509 57.6624C55.3778 58.126 54.6202 58.1164 54.1614 57.6433L49.5516 52.9283C49.2409 52.6105 49.131 52.1468 49.2696 51.7239C49.4082 51.3009 49.7666 50.9902 50.2063 50.9161L56.1234 49.9076L58.9074 44.5928C59.1154 44.1985 59.524 43.9524 59.9661 43.9524C60.413 43.9524 60.8169 44.2009 61.0248 44.5928L63.8064 49.9076L69.7259 50.9161C70.1656 50.9902 70.524 51.3033 70.6626 51.7239C70.8013 52.1445 70.6913 52.6105 70.3807 52.9283L66.1819 57.2179L67.0565 63.154C67.1186 63.5937 66.9346 64.0335 66.5762 64.2939C66.2177 64.5568 65.7398 64.5974 65.3431 64.3967L59.9661 61.7321L54.5868 64.3967C54.4123 64.4851 54.2307 64.5234 54.0515 64.5234Z" fill="white"/>
<path d="M28.8587 71.0258C28.6101 71.0258 28.364 70.9493 28.1561 70.7988C27.7976 70.5383 27.6112 70.0986 27.6757 69.6565L28.7225 62.5279L23.6849 57.3756C23.3742 57.0577 23.2643 56.5941 23.4029 56.1711C23.5415 55.7481 23.8999 55.4351 24.3397 55.3634L31.4468 54.1542L34.7877 47.7712C35.2035 46.9825 36.4916 46.9825 36.9074 47.7712L40.2482 54.1542L47.3554 55.3634C47.7951 55.4375 48.1536 55.7505 48.2922 56.1711C48.4308 56.5917 48.3208 57.0577 48.0102 57.3756L42.9702 62.5279L44.0193 69.6565C44.0814 70.0962 43.8974 70.5359 43.5389 70.7964C43.1805 71.0616 42.7025 71.0975 42.3058 70.8991L35.8463 67.6993L29.3892 70.8991C29.2219 70.9828 29.0403 71.0258 28.8587 71.0258ZM26.9875 57.3349L30.8446 61.2804C31.105 61.5481 31.2269 61.9209 31.1743 62.2889L30.3714 67.7447L35.3158 65.2952C35.648 65.1279 36.0447 65.1279 36.3745 65.2952L41.3165 67.7447L40.5135 62.2889C40.4609 61.9209 40.5804 61.5457 40.8433 61.2804L44.7027 57.3349L39.2613 56.4077C38.8956 56.3456 38.5778 56.1138 38.4034 55.784L35.8463 50.8969L33.2893 55.784C33.1148 56.1138 32.797 56.3456 32.4314 56.4077L26.9875 57.3349Z" fill="white"/>
<path d="M17.8347 64.5234C17.6555 64.5234 17.4763 64.4828 17.3042 64.3991L11.9273 61.7346L6.54793 64.4015C6.15362 64.5975 5.67806 64.5592 5.31482 64.2964C4.95635 64.0359 4.76995 63.5962 4.83448 63.1565L5.70913 57.2203L1.51033 52.9307C1.19966 52.6129 1.08973 52.1493 1.22834 51.7263C1.36694 51.3033 1.7254 50.9903 2.16512 50.9186L8.08454 49.9101L10.8686 44.5953C11.0765 44.201 11.4852 43.9548 11.9273 43.9548C12.3742 43.9548 12.778 44.2034 12.9859 44.5953L15.7676 49.9101L21.6846 50.9186C22.1244 50.9926 22.4828 51.3057 22.6214 51.7263C22.76 52.1469 22.6501 52.6129 22.3394 52.9307L17.7296 57.6433C17.2731 58.1165 16.5156 58.126 16.04 57.6624C15.5693 57.2012 15.5597 56.4461 16.0209 55.9729L19.0368 52.8877L14.7854 52.1636C14.4174 52.1015 14.1019 51.8697 13.9275 51.5399L11.9297 47.7211L9.92943 51.5399C9.75498 51.8697 9.43714 52.1015 9.07151 52.1636L4.81775 52.8877L7.83601 55.9729C8.09649 56.2405 8.21837 56.6133 8.16579 56.9814L7.53729 61.2447L11.4015 59.3305C11.7337 59.1656 12.1304 59.1656 12.4602 59.3305L18.3677 62.2579C18.9603 62.5519 19.2017 63.2664 18.9101 63.8591C18.6951 64.2796 18.2721 64.5234 17.8347 64.5234Z" fill="white"/>
</svg>
