<svg width="24" height="24" viewBox="0 0 24 24" fill="none" xmlns="http://www.w3.org/2000/svg">
<path d="M19.4999 0.75C19.523 0.749919 19.5457 0.755517 19.5663 0.765625C19.587 0.775742 19.605 0.790386 19.6191 0.808594C19.633 0.826711 19.6428 0.847705 19.6474 0.870117L20.1298 3.28223L20.2285 3.77246L20.7187 3.87109L23.1308 4.35352C23.1533 4.35807 23.1742 4.36786 23.1923 4.38184C23.2106 4.39589 23.2252 4.4139 23.2353 4.43457C23.2454 4.45528 23.251 4.47793 23.2509 4.50098C23.2508 4.52402 23.2456 4.54675 23.2353 4.56738L22.8788 5.28125C22.3503 6.33698 21.4648 7.17118 20.3798 7.63672C19.2946 8.1023 18.0796 8.16894 16.9501 7.82422L16.5195 7.69336L11.8066 12.4062L11.7968 12.415L11.788 12.4248C11.7743 12.4395 11.7576 12.4518 11.7392 12.46C11.7208 12.4681 11.7007 12.4723 11.6806 12.4727C11.6606 12.473 11.6406 12.4694 11.622 12.4619C11.6034 12.4544 11.5864 12.4429 11.5722 12.4287C11.558 12.4145 11.5465 12.3976 11.539 12.3789C11.5315 12.3603 11.5279 12.3404 11.5283 12.3203C11.5286 12.3002 11.5328 12.2801 11.541 12.2617C11.5492 12.2433 11.5614 12.2266 11.5761 12.2129L11.5859 12.2041L11.5947 12.1943L15.9892 7.7998L16.3085 7.48145L16.1767 7.05078C15.832 5.9213 15.8986 4.70634 16.3642 3.62109C16.8298 2.53586 17.6646 1.65053 18.7206 1.12207L18.7197 1.12109L19.4335 0.764648C19.454 0.754487 19.4771 0.750106 19.4999 0.75ZM18.4531 1.61621C17.5705 2.17226 16.8982 3.00688 16.5419 3.9873C16.1858 4.96757 16.1657 6.03847 16.4853 7.03125L16.6035 7.39746L16.9697 7.51562C17.9627 7.83557 19.034 7.81614 20.0146 7.45996C20.9953 7.10368 21.8296 6.43069 22.3857 5.54785L22.9658 4.62695L21.8984 4.41211L20.0722 4.04688C20.0432 4.04106 20.016 4.02679 19.9951 4.00586C19.9742 3.98494 19.9599 3.95771 19.954 3.92871L19.5888 2.10352L19.374 1.03613L18.4531 1.61621Z" stroke="white" stroke-width="1.5"/>
<path d="M8.90558 7.07758C9.99195 6.49646 11.2324 6.26905 12.4544 6.42621H12.4554C12.4747 6.42875 12.4932 6.4351 12.5101 6.44476C12.5272 6.45457 12.5429 6.46724 12.555 6.48285C12.567 6.49843 12.5752 6.51659 12.5804 6.53558C12.5855 6.5546 12.5868 6.57464 12.5843 6.59418C12.5817 6.61362 12.5755 6.63283 12.5657 6.64984C12.556 6.66677 12.5431 6.68184 12.5276 6.69379C12.5121 6.70582 12.4939 6.71499 12.4749 6.72015C12.456 6.72525 12.4358 6.72558 12.4163 6.72308C11.2564 6.57398 10.0784 6.79058 9.04718 7.34222C8.0158 7.89398 7.18214 8.7543 6.66241 9.80219C6.1428 10.85 5.96287 12.034 6.14777 13.1889C6.33269 14.3439 6.87375 15.4123 7.69464 16.2455C8.51554 17.0788 9.57577 17.6352 10.7278 17.8373C11.8799 18.0395 13.0668 17.8775 14.1224 17.3735C15.1777 16.8695 16.0495 16.0487 16.6165 15.0258C17.1812 14.0071 17.4147 12.8385 17.2864 11.6811H17.2874C17.2839 11.6421 17.2959 11.6031 17.3206 11.5727C17.3454 11.5424 17.3813 11.5224 17.4202 11.518C17.459 11.5137 17.4978 11.5253 17.5286 11.5493C17.5587 11.5726 17.5783 11.6065 17.5843 11.644C17.7202 12.8641 17.4744 14.0964 16.8792 15.1703C16.2819 16.2481 15.3632 17.113 14.2513 17.644C13.1395 18.1749 11.8896 18.346 10.6761 18.1332C9.46259 17.9204 8.34552 17.334 7.48077 16.4565C6.61598 15.5788 6.04574 14.4525 5.85089 13.2358C5.65617 12.0193 5.84554 10.7721 6.39288 9.6684C6.94034 8.5645 7.81909 7.65881 8.90558 7.07758Z" stroke="white" stroke-width="1.5"/>
<path d="M7.07812 2.37231C9.07931 1.44049 11.3121 1.13703 13.4834 1.49536L13.917 1.57544C13.9364 1.57943 13.9553 1.58778 13.9717 1.59888C13.9878 1.60989 14.002 1.62361 14.0127 1.63989C14.0235 1.65636 14.0304 1.67523 14.0342 1.69458C14.0379 1.71391 14.0381 1.73389 14.0342 1.75317C14.0302 1.77254 14.0228 1.79149 14.0117 1.80786C14.0007 1.82417 13.9862 1.83802 13.9697 1.84888C13.9532 1.85975 13.9345 1.86761 13.915 1.87134L13.8564 1.87036C11.6135 1.40661 9.28046 1.67802 7.2041 2.64478C5.39136 3.48887 3.85301 4.82604 2.76465 6.50415C1.67649 8.18203 1.0822 10.1325 1.05078 12.1321C1.01942 14.1316 1.55198 16.0996 2.58691 17.8108C3.62188 19.522 5.11777 20.9071 6.90332 21.8079C8.68891 22.7086 10.6922 23.0892 12.6836 22.9045C14.6749 22.7199 16.5736 21.9775 18.1631 20.7639C19.7526 19.5502 20.9692 17.9137 21.6719 16.0413C22.3745 14.169 22.5352 12.1367 22.1367 10.177C22.1328 10.1577 22.133 10.1368 22.1367 10.1174C22.1405 10.0982 22.1484 10.0801 22.1592 10.0637C22.1811 10.0305 22.2149 10.0073 22.2539 9.99927C22.2732 9.99534 22.2932 9.99459 22.3125 9.99829C22.3319 10.002 22.3507 10.0099 22.3672 10.0208C22.3834 10.0315 22.3972 10.0456 22.4082 10.0618L22.4316 10.1165C22.901 12.4238 22.6138 14.8209 21.6133 16.9524C20.6127 19.084 18.952 20.8364 16.877 21.9495C14.8019 23.0625 12.423 23.4766 10.0938 23.1311C7.76443 22.7855 5.6079 21.6981 3.94531 20.0305C2.28306 18.3631 1.20287 16.2042 0.864258 13.8743C0.525711 11.5439 0.947068 9.16577 2.06641 7.09399C3.18575 5.02233 4.94352 3.3664 7.07812 2.37231Z" stroke="white" stroke-width="1.5"/>
</svg>
