<svg width="40" height="27" viewBox="0 0 40 27" fill="none" xmlns="http://www.w3.org/2000/svg">
<path d="M13.8367 23.6479C12.4171 23.6479 10.9928 23.6479 9.57316 23.6479C9.14585 23.6479 8.7233 23.6337 8.296 23.5767C8.42419 23.5957 8.54763 23.61 8.67582 23.629C7.99689 23.534 7.33219 23.3536 6.69599 23.0925C6.80994 23.1399 6.92388 23.1874 7.03783 23.2349C6.57254 23.0402 6.12625 22.8028 5.70844 22.5227C5.60399 22.4515 5.49954 22.3803 5.39984 22.3091C5.18619 22.1524 5.41408 22.3613 5.49005 22.3803C5.44257 22.366 5.38559 22.2948 5.34286 22.2616C5.14346 22.0954 4.9488 21.9197 4.76363 21.7346C4.58796 21.5589 4.41704 21.3738 4.26036 21.1791C4.22238 21.1316 4.1844 21.0794 4.14167 21.0319C4.04671 20.9132 4.37906 21.3548 4.21289 21.1221C4.14167 21.0177 4.0657 20.918 3.99449 20.8135C3.70962 20.3862 3.46748 19.9304 3.26333 19.4556C3.3108 19.5696 3.35828 19.6835 3.40576 19.7975C3.14463 19.1613 2.96421 18.5013 2.86926 17.8176C2.88825 17.9458 2.90249 18.0693 2.92148 18.1975C2.82653 17.4853 2.83128 16.7684 2.92623 16.0562C2.90724 16.1844 2.893 16.3078 2.87401 16.436C2.96896 15.7618 3.14938 15.1066 3.41051 14.4752C3.36303 14.5891 3.31555 14.7031 3.26807 14.817C3.46273 14.3612 3.69063 13.9244 3.966 13.5114C4.03247 13.4069 4.10369 13.3072 4.1749 13.2075C4.23188 13.1268 4.41229 12.9227 4.12743 13.2598C4.16066 13.2218 4.18915 13.1838 4.21763 13.1458C4.37906 12.9464 4.55473 12.7565 4.73514 12.5713C4.91081 12.3957 5.09123 12.2295 5.28114 12.0681C5.32862 12.0301 5.3761 11.9873 5.42358 11.9494C5.60874 11.7974 5.20043 12.1155 5.34286 12.0111C5.44257 11.9399 5.54227 11.8639 5.64672 11.7974C6.06928 11.5126 6.52032 11.2657 6.99035 11.0663C6.8764 11.1137 6.76246 11.1612 6.64851 11.2087C7.30845 10.9333 7.99214 10.7434 8.69956 10.6485C8.57137 10.6675 8.44793 10.6817 8.31974 10.7007C8.3957 10.6912 8.47641 10.6817 8.55238 10.6722C9.21707 10.601 9.71084 10.2734 9.92449 9.62768C10.0147 9.35231 10.1192 9.08168 10.2284 8.81581C10.1809 8.92975 10.1334 9.0437 10.0859 9.15765C10.3091 8.63064 10.5702 8.11788 10.8693 7.62886C11.0165 7.38672 11.1732 7.14933 11.3393 6.91669C11.3773 6.86446 11.4153 6.81223 11.4533 6.75526C11.4723 6.72677 11.4913 6.70303 11.5103 6.67455C11.5957 6.55585 11.3678 6.85496 11.3868 6.83122C11.4865 6.71728 11.5767 6.58909 11.6764 6.47514C12.0373 6.04784 12.4266 5.64902 12.8444 5.28344C12.9488 5.18849 13.058 5.09828 13.1672 5.00807C13.2195 4.96534 13.2717 4.92736 13.3192 4.88462C13.4853 4.75169 13.0343 5.09828 13.2669 4.92736C13.4948 4.75644 13.7275 4.59501 13.9696 4.43833C14.5156 4.08699 15.0949 3.78788 15.6931 3.5315C15.5791 3.57898 15.4652 3.62646 15.3512 3.67393C16.2676 3.29411 17.2266 3.03298 18.2047 2.8953C18.0765 2.91429 17.953 2.92853 17.8248 2.94752C18.8456 2.81458 19.8806 2.81458 20.9014 2.94752C20.7732 2.92853 20.6498 2.91429 20.5216 2.8953C21.5186 3.03298 22.4872 3.29886 23.4178 3.68343C23.3038 3.63595 23.1899 3.58847 23.0759 3.541C23.5982 3.76414 24.1014 4.02052 24.5857 4.31489C24.8231 4.45732 25.051 4.60925 25.2741 4.77068C25.3359 4.81341 25.3928 4.85614 25.4546 4.90362C25.4783 4.92261 25.5068 4.9416 25.5305 4.96059C25.6492 5.0508 25.3406 4.81341 25.3691 4.8324C25.4783 4.9321 25.6017 5.01756 25.7157 5.11252C26.143 5.47335 26.5466 5.86742 26.9121 6.28997C27.0023 6.39443 27.0926 6.49888 27.178 6.60333C27.216 6.65081 27.2587 6.70303 27.2967 6.75051C27.4296 6.91669 27.0783 6.4609 27.2492 6.68879C27.4202 6.91668 27.5863 7.15408 27.7383 7.39621C28.0848 7.93746 28.3792 8.5072 28.6308 9.09593C28.5834 8.98198 28.5359 8.86803 28.4884 8.75408C28.816 9.53747 29.0534 10.3588 29.2006 11.1945C29.2528 11.4888 29.4854 11.7594 29.7133 11.9351C29.9602 12.125 30.2546 12.239 30.5774 12.239C31.1947 12.239 31.8166 12.22 32.4291 12.3007C32.3009 12.2817 32.1774 12.2675 32.0493 12.2485C32.6522 12.3339 33.2362 12.4954 33.8012 12.728C33.6873 12.6805 33.5733 12.633 33.4594 12.5856C33.8724 12.7612 34.2665 12.9701 34.6416 13.217C34.7365 13.2787 34.8267 13.3405 34.9169 13.4069C35.1306 13.5636 34.8789 13.3405 34.8362 13.3405C34.86 13.3405 34.9312 13.4164 34.9502 13.4307C35.1306 13.5779 35.3063 13.7345 35.4724 13.9007C35.6291 14.0574 35.781 14.2188 35.9235 14.3897C35.9567 14.4277 35.9852 14.4657 36.0184 14.5037C36.1276 14.6366 35.8143 14.2283 35.952 14.423C36.0184 14.5132 36.0801 14.6034 36.1466 14.6936C36.403 15.0782 36.6214 15.4865 36.8018 15.909C36.7543 15.7951 36.7069 15.6811 36.6594 15.5672C36.9015 16.1559 37.0724 16.7684 37.1579 17.3998C37.1389 17.2716 37.1247 17.1482 37.1057 17.02C37.1864 17.6372 37.1864 18.2592 37.1057 18.8764C37.1247 18.7482 37.1389 18.6248 37.1579 18.4966C37.0724 19.1138 36.911 19.712 36.6784 20.2865C36.7258 20.1726 36.7733 20.0586 36.8208 19.9447C36.6404 20.3672 36.4267 20.7755 36.1704 21.1601C36.1134 21.2456 36.0517 21.331 35.9899 21.4165C35.9282 21.5019 35.762 21.6776 36.0612 21.3263C36.0279 21.3643 35.9947 21.407 35.9614 21.4497C35.8143 21.6254 35.6623 21.7963 35.5009 21.9577C35.3442 22.1144 35.1876 22.2616 35.0166 22.3993C34.9976 22.4135 34.8979 22.518 34.8695 22.518C34.8979 22.518 35.1876 22.2806 34.9834 22.4278C34.8884 22.4942 34.7982 22.5607 34.7033 22.6272C34.3187 22.8836 33.9104 23.1019 33.4878 23.2824L33.8297 23.1399C33.2552 23.3773 32.657 23.5387 32.0398 23.6195C32.168 23.6005 32.2914 23.5862 32.4196 23.5672C31.6457 23.6669 30.8481 23.629 30.0694 23.629C29.0297 23.629 27.9899 23.629 26.9501 23.629C26.6937 23.629 26.4374 23.629 26.181 23.629C25.4356 23.629 24.7234 24.2842 24.7566 25.0533C24.7899 25.8272 25.3833 26.4776 26.181 26.4776H29.7466C31.2944 26.4776 32.8469 26.5394 34.3235 25.9886C36.7923 25.0723 38.7009 23.1494 39.5698 20.6616C40.0351 19.3274 40.092 17.9126 39.8879 16.5262C39.6647 15.0164 38.9621 13.6301 38.0125 12.4574C37.0724 11.2989 35.8048 10.4633 34.4279 9.92204C33.3169 9.48525 32.1347 9.38554 30.9525 9.38554C30.8291 9.38554 30.7056 9.38554 30.5822 9.38554C31.038 9.73213 31.4985 10.0835 31.9543 10.4301C31.5745 8.26981 30.5869 6.27098 29.2006 4.58077C27.8285 2.90004 26.0053 1.66087 24.0017 0.853739C21.9032 0.0133779 19.61 -0.171786 17.388 0.146317C15.1471 0.469167 13.077 1.45671 11.3109 2.85257C9.37375 4.38611 7.9589 6.52262 7.17552 8.85379C7.6313 8.5072 8.09184 8.15586 8.54763 7.80927C7.08056 7.96595 5.67521 8.3885 4.42179 9.18139C3.23009 9.93154 2.22356 10.9333 1.45916 12.1155C0.0205756 14.3423 -0.382988 17.2147 0.376661 19.7547C1.0556 22.0195 2.59388 23.9945 4.63544 25.1957C5.61824 25.7702 6.71973 26.1833 7.8497 26.3494C8.53339 26.4492 9.20758 26.4776 9.89601 26.4776H13.8319C14.5773 26.4776 15.2895 25.8224 15.2563 25.0533C15.2278 24.3031 14.6343 23.6479 13.8367 23.6479Z" fill="#004799"/>
<path d="M15.057 19.223C15.7264 18.5535 16.3958 17.8841 17.0653 17.2147L20.2701 14.0099L21.0155 13.2645C20.346 13.2645 19.6718 13.2645 19.0024 13.2645L21.0107 15.2728L24.2155 18.4776L24.9609 19.223C25.4879 19.75 26.4564 19.788 26.974 19.223C27.4962 18.6532 27.5389 17.7702 26.974 17.2099C26.3045 16.5405 25.6351 15.871 24.9656 15.2016C23.8974 14.1333 22.8291 13.0651 21.7609 11.9968C21.514 11.7499 21.2623 11.4983 21.0155 11.2514C20.4695 10.7054 19.5484 10.7054 19.0024 11.2514C18.333 11.9209 17.6635 12.5903 16.9941 13.2597C15.9258 14.328 14.8576 15.3963 13.7893 16.4645C13.5424 16.7114 13.2908 16.963 13.0439 17.2099C12.5169 17.7369 12.4789 18.7055 13.0439 19.223C13.6136 19.7452 14.4967 19.788 15.057 19.223Z" fill="#004799"/>
<path d="M21.4332 25.0722C21.4332 23.6289 21.4332 22.1856 21.4332 20.7422C21.4332 18.4443 21.4332 16.1416 21.4332 13.8437C21.4332 13.3167 21.4332 12.7897 21.4332 12.2579C21.4332 11.5125 20.778 10.8003 20.0088 10.8336C19.2349 10.8668 18.5845 11.4603 18.5845 12.2579V16.5879V23.4865V25.0722C18.5845 25.8176 19.2397 26.5298 20.0088 26.4966C20.7827 26.4634 21.4332 25.8699 21.4332 25.0722Z" fill="#004799"/>
</svg>
