<svg width="72" height="75" viewBox="0 0 72 75" fill="none" xmlns="http://www.w3.org/2000/svg">
<path opacity="0.15" d="M72 46.5554C72 70.4426 55.815 52.9967 40.95 64.5835C16.665 83.513 0 66.4687 0 46.5554C0 26.6422 15.3 3.2881 36 10.4993C55.0929 17.1506 72 22.6683 72 46.5554Z" fill="#CCE4FF"/>
<path d="M34.681 16.6367V21.2547" stroke="white" stroke-width="2.25" stroke-miterlimit="10" stroke-linecap="round" stroke-linejoin="round"/>
<path d="M53.9244 40.4961H58.5428" stroke="white" stroke-width="2.25" stroke-miterlimit="10" stroke-linecap="round" stroke-linejoin="round"/>
<path d="M22.7502 19.833L25.0594 23.8323" stroke="white" stroke-width="2.25" stroke-miterlimit="10" stroke-linecap="round" stroke-linejoin="round"/>
<path d="M44.3028 57.1592L46.6119 61.1583" stroke="white" stroke-width="2.25" stroke-miterlimit="10" stroke-linecap="round" stroke-linejoin="round"/>
<path d="M15.0559 51.8253L18.0157 50.1167" stroke="white" stroke-width="2.25" stroke-miterlimit="10" stroke-linecap="round" stroke-linejoin="round"/>
<path d="M14.0162 28.5662L18.0158 30.8751" stroke="white" stroke-width="2.25" stroke-miterlimit="10" stroke-linecap="round" stroke-linejoin="round"/>
<path d="M51.3464 50.1167L55.3459 52.4256" stroke="white" stroke-width="2.25" stroke-miterlimit="10" stroke-linecap="round" stroke-linejoin="round"/>
<path d="M25.0594 57.1592L23.3501 60.1191" stroke="white" stroke-width="2.25" stroke-miterlimit="10" stroke-linecap="round" stroke-linejoin="round"/>
<path d="M45.2683 43.5623H35.3869C35.3869 43.5623 40.6187 34.0801 41.482 33.021C42.355 31.95 43.1817 32.618 43.2604 33.5627C43.3391 34.5074 43.221 48.206 43.221 48.206" stroke="white" stroke-width="2.25" stroke-miterlimit="10" stroke-linecap="round" stroke-linejoin="round"/>
<path d="M32.738 48.3235C32.738 48.3235 25.0821 48.4197 24.7194 48.2989C24.3568 48.1781 25.3009 47.5396 30.3203 40.3685C31.2578 39.0293 31.7738 37.8993 31.9933 36.9528L32.071 36.3442C32.071 34.1207 30.2683 32.3181 28.0446 32.3181C26.0878 32.3181 24.4572 33.7138 24.0937 35.5638" stroke="white" stroke-width="2.25" stroke-miterlimit="10" stroke-linecap="round" stroke-linejoin="round"/>
<path d="M50.6395 17.5556L54.2095 21.304L59.2075 15.6814" stroke="white" stroke-width="2.25" stroke-miterlimit="10" stroke-linecap="round" stroke-linejoin="round"/>
<path d="M49.0328 32.2532C43.2777 28.9307 39.7325 22.7901 39.7325 16.1448V10.5577C39.7325 9.91996 40.0726 9.33063 40.625 9.01177L53.8713 1.36414C54.4235 1.04529 55.104 1.04529 55.6562 1.36414L68.9024 9.01177C69.4547 9.33063 69.795 9.91996 69.795 10.5577V16.1448C69.795 22.7901 66.2497 28.9307 60.4947 32.2532L55.6562 35.0468C55.104 35.3656 54.4235 35.3656 53.8713 35.0468L49.0328 32.2532Z" stroke="white" stroke-width="2.25" stroke-miterlimit="10" stroke-linecap="round" stroke-linejoin="round"/>
<path d="M47.6058 11.1649L45.5336 12.3612C45.2575 12.5207 45.0874 12.8152 45.0874 13.1341V16.1446C45.0874 20.8768 47.612 25.2495 51.7101 27.6156L54.3173 29.121C54.5934 29.2805 54.9336 29.2805 55.2097 29.121L57.8169 27.6158C61.9152 25.2498 64.4399 20.877 64.4399 16.1448V13.1341C64.4399 12.8152 64.2698 12.5206 63.9937 12.3612L55.2098 7.28993C54.9337 7.13057 54.5934 7.13057 54.3174 7.28993L51.991 8.63301" stroke="white" stroke-width="2.25" stroke-miterlimit="10" stroke-linecap="round" stroke-linejoin="round"/>
<path d="M11.0208 59.4551L20.2797 68.714C26.1612 74.5955 35.6971 74.5955 41.5786 68.714C42.7432 67.5494 42.7432 65.661 41.5786 64.4962L36.3187 59.2363C35.1541 58.0717 33.2658 58.0717 32.101 59.2363L30.4011 60.9362C28.6795 62.6579 25.8883 62.6579 24.1667 60.9362L14.2407 51.0103C12.5191 49.2886 12.5191 46.4974 14.2407 44.7758L15.9406 43.0759C17.1052 41.9113 17.1052 40.023 15.9406 38.8582L10.6807 33.5983C9.51608 32.4337 7.62772 32.4337 6.46297 33.5983C0.581435 39.4798 0.581435 49.0157 6.46297 54.8972L7.44272 55.877" stroke="white" stroke-width="2.25" stroke-miterlimit="10" stroke-linecap="round" stroke-linejoin="round"/>
<path d="M41.4119 68.8765C48.9758 67.0897 55.4006 62.3578 59.4115 55.959" stroke="white" stroke-width="2.25" stroke-miterlimit="10" stroke-linecap="round" stroke-linejoin="round"/>
<path d="M39.7325 11.7703C38.0915 11.4838 36.4039 11.3333 34.681 11.3333C20.8891 11.3333 9.3343 20.906 6.29669 33.7687" stroke="white" stroke-width="2.25" stroke-miterlimit="10" stroke-linejoin="round"/>
<path d="M61.7172 51.4541C63.0903 48.071 63.8466 44.3716 63.8466 40.4956C63.8466 37.1974 63.2983 34.0275 62.2892 31.071" stroke="white" stroke-width="2.25" stroke-miterlimit="10" stroke-linecap="round" stroke-linejoin="round"/>
<path d="M40.6776 63.5948C50.9535 60.9353 58.5429 51.6019 58.5429 40.4958C58.5429 38.2118 58.2214 36.0031 57.6221 33.9116" stroke="white" stroke-width="2.25" stroke-miterlimit="10" stroke-linejoin="round"/>
<path d="M39.7634 17.181C38.1254 16.8256 36.4253 16.6367 34.681 16.6367C23.5744 16.6367 14.2407 24.2241 11.58 34.4976" stroke="white" stroke-width="2.25" stroke-miterlimit="10" stroke-linejoin="round"/>
</svg>
