<svg width="40" height="40" viewBox="0 0 40 40" fill="none" xmlns="http://www.w3.org/2000/svg">
<path d="M13.6845 37.8945C13.103 37.8945 12.6318 37.4233 12.6318 36.8418V28.4208C12.6318 27.8393 13.103 27.3682 13.6845 27.3682H17.1932C17.7747 27.3682 18.2459 27.8393 18.2459 28.4208C18.2459 29.0023 17.7747 29.4734 17.1932 29.4734H14.7371V36.8418C14.7371 37.4233 14.2659 37.8945 13.6845 37.8945Z" fill="#004FA9"/>
<path d="M16.491 12.6314H11.5788C10.9973 12.6314 10.5261 12.1603 10.5261 11.5788V5.96474C10.5261 5.38326 10.9973 4.91211 11.5788 4.91211H16.491C17.0725 4.91211 17.5437 5.38326 17.5437 5.96474V11.5788C17.5437 12.1603 17.0725 12.6314 16.491 12.6314ZM12.6314 10.5261H15.4384V7.01737H12.6314V10.5261Z" fill="#004FA9"/>
<path d="M25.6146 12.6314H20.7023C20.1208 12.6314 19.6497 12.1603 19.6497 11.5788V5.96474C19.6497 5.38326 20.1208 4.91211 20.7023 4.91211H25.6146C26.1961 4.91211 26.6672 5.38326 26.6672 5.96474V11.5788C26.6672 12.1603 26.1961 12.6314 25.6146 12.6314ZM21.7549 10.5261H24.5619V7.01737H21.7549V10.5261Z" fill="#004FA9"/>
<path d="M16.491 23.1588H11.5788C10.9973 23.1588 10.5261 22.6876 10.5261 22.1061V16.4921C10.5261 15.9106 10.9973 15.4395 11.5788 15.4395H16.491C17.0725 15.4395 17.5437 15.9106 17.5437 16.4921V22.1061C17.5437 22.6876 17.0725 23.1588 16.491 23.1588ZM12.6314 21.0535H15.4384V17.5447H12.6314V21.0535Z" fill="#004FA9"/>
<path d="M22.1042 37.895H1.05263C0.471151 37.895 0 37.4239 0 36.8424V10.8775C0 10.4279 0.285432 10.0281 0.710667 9.88174L7.02646 7.71343C7.57745 7.52497 8.17503 7.8176 8.36418 8.36721C8.55263 8.91717 8.26001 9.51613 7.71039 9.70493L2.10527 11.6289V35.7898H22.1042C22.6857 35.7898 23.1569 36.2609 23.1569 36.8424C23.1569 37.4239 22.6857 37.895 22.1042 37.895Z" fill="#004FA9"/>
<path d="M36.1407 23.3198C35.5592 23.3198 35.0881 22.8486 35.0881 22.2671V11.6291L29.4829 9.7051C28.9333 9.5163 28.6407 8.91734 28.8292 8.36738C29.018 7.81742 29.6166 7.5248 30.1669 7.7136L36.4827 9.88191C36.9079 10.0282 37.1933 10.4281 37.1933 10.8777V22.2671C37.1933 22.8486 36.7222 23.3198 36.1407 23.3198Z" fill="#004FA9"/>
<path d="M7.36855 37.8947C6.78707 37.8947 6.31592 37.4236 6.31592 36.8421V1.05263C6.31592 0.471151 6.78707 0 7.36855 0H29.8247C30.4062 0 30.8773 0.471151 30.8773 1.05263V22.1053C30.8773 22.6867 30.4062 23.1579 29.8247 23.1579C29.2432 23.1579 28.7721 22.6867 28.7721 22.1053V2.10526H8.42118V36.8421C8.42118 37.4236 7.95003 37.8947 7.36855 37.8947Z" fill="#004FA9"/>
<path d="M1.05184 17.5451C0.569401 17.5451 0.13425 17.211 0.0252886 16.7204C-0.100803 16.1529 0.256917 15.5906 0.824671 15.4645L7.14025 14.061C7.70629 13.9346 8.26994 14.293 8.39603 14.8604C8.52213 15.4279 8.16441 15.9902 7.59665 16.1163L1.28107 17.5198C1.20432 17.5369 1.12757 17.5451 1.05184 17.5451Z" fill="#004FA9"/>
<path d="M36.1417 17.5451C36.066 17.5451 35.9892 17.5369 35.9125 17.5198L29.5967 16.1163C29.0289 15.9902 28.6712 15.4279 28.7973 14.8604C28.9237 14.293 29.4884 13.9346 30.0531 14.061L36.3689 15.4645C36.9367 15.5906 37.2944 16.1529 37.1683 16.7204C37.0593 17.211 36.6242 17.5451 36.1417 17.5451Z" fill="#004FA9"/>
<path d="M20.7023 21.0535C20.1208 21.0535 19.6497 20.5823 19.6497 20.0009V16.4921C19.6497 15.9106 20.1208 15.4395 20.7023 15.4395H25.6146C26.1961 15.4395 26.6672 15.9106 26.6672 16.4921V18.5973C26.6672 19.1788 26.1961 19.65 25.6146 19.65C25.0331 19.65 24.5619 19.1788 24.5619 18.5973V17.5447H21.7549V20.0009C21.7549 20.5823 21.2838 21.0535 20.7023 21.0535Z" fill="#004FA9"/>
<path d="M31.93 39.9996H27.7195C27.3676 39.9996 27.039 39.8238 26.8437 39.5309L19.8265 29.0045C19.7113 28.8315 19.6497 28.6283 19.6497 28.4207V26.3154C19.6497 26.1009 19.7151 25.8919 19.8371 25.7158L22.7565 21.5052C22.9532 21.2215 23.2766 21.0522 23.6217 21.0522H36.0285C36.3736 21.0522 36.697 21.2215 36.8937 21.5052L39.8131 25.7158C39.9351 25.8919 40.0005 26.1009 40.0005 26.3154V28.4207C40.0005 28.6287 39.9389 28.8315 39.8237 29.0045L32.8059 39.5309C32.6105 39.8238 32.2819 39.9996 31.93 39.9996ZM28.2828 37.8944H31.3667L37.8953 28.102V26.6447L35.4775 23.1575H24.1727L21.7549 26.6447V28.102L28.2828 37.8944Z" fill="#004FA9"/>
<path d="M38.9479 28.5677H20.7023C20.1208 28.5677 19.6497 28.0965 19.6497 27.515C19.6497 26.9336 20.1208 26.4624 20.7023 26.4624H38.9479C39.5294 26.4624 40.0005 26.9336 40.0005 27.515C40.0005 28.0965 39.5294 28.5677 38.9479 28.5677Z" fill="#004FA9"/>
<path d="M30.063 39.9411C29.9486 39.9411 29.8321 39.9223 29.7176 39.8827C29.1683 39.6924 28.8778 39.0943 29.0686 38.5471L32.9276 27.4757L31.3593 22.4108C31.1876 21.8571 31.4991 21.2696 32.0545 21.0988C32.612 20.929 33.1993 21.2382 33.3706 21.7919L35.0407 27.1856C35.1069 27.3991 35.1031 27.6284 35.0294 27.8395L31.0574 39.2357C30.9063 39.6692 30.4989 39.9411 30.063 39.9411Z" fill="#004FA9"/>
<path d="M29.5864 39.9408C29.1506 39.9408 28.7432 39.6689 28.592 39.2354L24.62 27.8392C24.5463 27.6281 24.5426 27.3989 24.6087 27.1854L26.2788 21.7916C26.4501 21.2382 27.0395 20.9294 27.5949 21.0985C28.1504 21.2693 28.4618 21.8568 28.2902 22.4106L26.7218 27.4754L30.5808 38.5468C30.7717 39.094 30.4811 39.6921 29.9318 39.8824C29.8177 39.922 29.7009 39.9408 29.5864 39.9408Z" fill="#004FA9"/>
</svg>
