<svg width="32" height="32" viewBox="0 0 32 32" fill="none" xmlns="http://www.w3.org/2000/svg">
<path d="M10.9473 30.3159C10.4821 30.3159 10.1052 29.939 10.1052 29.4738V22.7369C10.1052 22.2717 10.4821 21.8947 10.9473 21.8947L14.7543 21.8947C15.2195 21.8947 15.5964 22.2717 15.5964 22.7369C15.5964 23.202 15.2195 23.579 14.7543 23.579H11.7894V29.4738C11.7894 29.939 11.4125 30.3159 10.9473 30.3159Z" fill="white"/>
<path d="M13.1927 10.1052H9.26299C8.79781 10.1052 8.4209 9.72829 8.4209 9.2631V4.77183C8.4209 4.30664 8.79781 3.92972 9.26299 3.92972H13.1927C13.6579 3.92972 14.0348 4.30664 14.0348 4.77183V9.2631C14.0348 9.72829 13.6579 10.1052 13.1927 10.1052ZM10.1051 8.42099H12.3506V5.61394H10.1051V8.42099Z" fill="white"/>
<path d="M20.4916 10.1052H16.5618C16.0966 10.1052 15.7197 9.72829 15.7197 9.2631V4.77183C15.7197 4.30664 16.0966 3.92972 16.5618 3.92972H20.4916C20.9567 3.92972 21.3337 4.30664 21.3337 4.77183V9.2631C21.3337 9.72829 20.9567 10.1052 20.4916 10.1052ZM17.4039 8.42099H19.6495V5.61394H17.4039V8.42099Z" fill="white"/>
<path d="M13.1927 18.5272H9.26299C8.79781 18.5272 8.4209 18.1503 8.4209 17.6851V13.1938C8.4209 12.7286 8.79781 12.3517 9.26299 12.3517H13.1927C13.6579 12.3517 14.0348 12.7286 14.0348 13.1938V17.6851C14.0348 18.1503 13.6579 18.5272 13.1927 18.5272ZM10.1051 16.843H12.3506V14.0359H10.1051V16.843Z" fill="white"/>
<path d="M15.683 30.3163H0.842089C0.376913 30.3163 0 29.9394 0 29.4742V8.70208C0 8.34243 0.228341 8.02252 0.568522 7.90547L5.62106 6.17081C6.06184 6.02004 6.5399 6.25414 6.69121 6.69384C6.84197 7.13381 6.60788 7.61298 6.16819 7.76402L1.68418 9.30324V28.6321H15.6831C16.1482 28.6321 16.5251 29.009 16.5251 29.4742C16.5251 29.9394 16.1482 30.3163 15.683 30.3163Z" fill="white"/>
<path d="M28.912 16.656C28.4468 16.656 28.0699 16.2791 28.0699 15.8139V9.30337L23.5859 7.76416C23.1462 7.61312 22.9121 7.13394 23.0628 6.69397C23.2139 6.254 23.6928 6.0199 24.133 6.17094L29.1855 7.9056C29.5257 8.02266 29.754 8.34256 29.754 8.70222V15.8139C29.754 16.2791 29.3771 16.656 28.912 16.656Z" fill="white"/>
<path d="M5.89482 30.3161C5.42965 30.3161 5.05273 29.9392 5.05273 29.474V0.842113C5.05273 0.376924 5.42965 0 5.89482 0H23.8594C24.3246 0 24.7015 0.376924 24.7015 0.842113V14.6844C24.7015 15.1496 24.3246 15.5265 23.8594 15.5265C23.3942 15.5265 23.0173 15.1496 23.0173 14.6844V1.68423H6.73691V29.474C6.73691 29.9392 6.36 30.3161 5.89482 30.3161Z" fill="white"/>
<path d="M0.841458 14.0362C0.455512 14.0362 0.107398 13.769 0.0202304 13.3764C-0.0806406 12.9225 0.205529 12.4726 0.659724 12.3717L5.71209 11.2489C6.16491 11.1478 6.61583 11.4345 6.7167 11.8885C6.81757 12.3424 6.5314 12.7922 6.0772 12.8931L1.02484 14.0159C0.963437 14.0297 0.902038 14.0362 0.841458 14.0362Z" fill="white"/>
<path d="M28.9128 14.0362C28.8522 14.0362 28.7908 14.0297 28.7294 14.0159L23.6768 12.8931C23.2226 12.7922 22.9364 12.3424 23.0373 11.8885C23.1385 11.4345 23.5902 11.1478 24.042 11.2489L29.0945 12.3717C29.5487 12.4726 29.8349 12.9225 29.734 13.3764C29.6468 13.769 29.2987 14.0362 28.9128 14.0362Z" fill="white"/>
<path d="M16.5618 16.843C16.0966 16.843 15.7197 16.466 15.7197 16.0008V13.1938C15.7197 12.7286 16.0966 12.3517 16.5618 12.3517H20.4916C20.9567 12.3517 21.3337 12.7286 21.3337 13.1938V14.878C21.3337 15.3432 20.9567 15.7201 20.4916 15.7201C20.0264 15.7201 19.6495 15.3432 19.6495 14.878V14.0359H17.4039V16.0008C17.4039 16.466 17.027 16.843 16.5618 16.843Z" fill="white"/>
<path d="M24.2894 31.75C20.1757 31.75 16.8289 28.4032 16.8289 24.2895C16.8289 20.1758 20.1757 16.8289 24.2894 16.8289C28.4031 16.8289 31.7499 20.1758 31.7499 24.2895C31.7499 28.4032 28.4031 31.75 24.2894 31.75ZM24.2894 18.4868C21.0899 18.4868 18.4868 21.09 18.4868 24.2895C18.4868 27.489 21.0899 30.0921 24.2894 30.0921C27.4889 30.0921 30.092 27.489 30.092 24.2895C30.092 21.09 27.4889 18.4868 24.2894 18.4868Z" fill="white"/>
<path d="M24.421 32C20.242 32 16.842 28.6001 16.842 24.421C16.842 20.242 20.242 16.8421 24.421 16.8421C28.6 16.8421 31.9999 20.242 31.9999 24.421C31.9999 28.6001 28.6 32 24.421 32ZM24.421 18.5263C21.1707 18.5263 18.5263 21.1708 18.5263 24.421C18.5263 27.6713 21.1707 30.3158 24.421 30.3158C27.6713 30.3158 30.3157 27.6713 30.3157 24.421C30.3157 21.1708 27.6713 18.5263 24.421 18.5263Z" fill="white"/>
<path d="M21.6141 28.0702C21.3986 28.0702 21.1832 27.988 21.0187 27.8235C20.6897 27.4948 20.6897 26.9614 21.0187 26.6327L26.6327 21.0187C26.9617 20.6897 27.4946 20.6897 27.8235 21.0187C28.1525 21.3473 28.1525 21.8808 27.8235 22.2094L22.2095 27.8235C22.045 27.988 21.8295 28.0702 21.6141 28.0702Z" fill="white"/>
<path d="M27.2281 28.0702C27.0127 28.0702 26.7972 27.988 26.6327 27.8235L21.0187 22.2094C20.6897 21.8808 20.6897 21.3473 21.0187 21.0187C21.3476 20.6897 21.8805 20.6897 22.2095 21.0187L27.8235 26.6327C28.1525 26.9614 28.1525 27.4948 27.8235 27.8235C27.659 27.988 27.4436 28.0702 27.2281 28.0702Z" fill="white"/>
</svg>
