<svg width="12" height="11" viewBox="0 0 12 11" fill="none" xmlns="http://www.w3.org/2000/svg">
<path d="M4.26533 10.4002H3.59982C3.53295 10.4002 3.46715 10.3834 3.40844 10.3514C3.34973 10.3194 3.29999 10.2732 3.26376 10.217C3.22752 10.1608 3.20596 10.0964 3.20103 10.0297C3.19611 9.96299 3.20798 9.89613 3.23556 9.83521L4.8471 6.27888L2.42729 6.22513L1.54478 7.29441C1.37652 7.50591 1.24227 7.60016 0.899762 7.60016H0.451753C0.380819 7.60245 0.310381 7.5876 0.246406 7.55687C0.182431 7.52614 0.126806 7.48045 0.0842448 7.42366C0.0247436 7.34341 -0.0337576 7.2074 0.0232436 7.0134L0.518754 5.23836C0.522504 5.22511 0.527004 5.21186 0.532004 5.19886C0.532254 5.19762 0.532254 5.19635 0.532004 5.19511C0.526841 5.18212 0.522418 5.16885 0.518754 5.15536L0.0227436 3.36907C-0.0310076 3.17882 0.0277437 3.04581 0.0867449 2.96756C0.126365 2.91499 0.177767 2.87245 0.236819 2.84336C0.295871 2.81427 0.360926 2.79944 0.426752 2.80006H0.899762C1.15552 2.80006 1.40377 2.91481 1.54978 3.10007L2.41404 4.15134L4.8471 4.11534L3.23606 0.565262C3.20844 0.504373 3.19652 0.437532 3.2014 0.370849C3.20627 0.304166 3.22778 0.239768 3.26396 0.183543C3.30014 0.127317 3.34984 0.0810588 3.40851 0.0489954C3.46719 0.016932 3.53296 8.6849e-05 3.59982 0H4.27258C4.36644 0.00188614 4.45867 0.024891 4.54242 0.0673064C4.62617 0.109722 4.69929 0.170458 4.75634 0.245005L7.88266 4.04509L9.32694 4.00709C9.43269 4.00134 9.7257 3.99934 9.79345 3.99934C11.175 4.00009 12 4.4486 12 5.20011C12 5.43662 11.9055 5.87513 11.2732 6.15413C10.9 6.31914 10.402 6.40264 9.79295 6.40264C9.72595 6.40264 9.43369 6.40064 9.32644 6.39489L7.88241 6.35639L4.74834 10.1565C4.69124 10.2307 4.61818 10.2911 4.53458 10.3333C4.45098 10.3755 4.35896 10.3984 4.26533 10.4002Z" fill="#004799"/>
</svg>
