<svg width="40" height="37" viewBox="0 0 40 37" fill="none" xmlns="http://www.w3.org/2000/svg">
<path d="M23.6719 22.7178C23.6719 23.5995 22.7567 24.281 21.875 24.281H19.4992L14.895 30.0622C14.6985 30.3091 14.4 30.4528 14.0845 30.4528H14.0842C13.3212 30.4528 12.8198 29.6557 13.1503 28.9678L15.4034 24.281H11.6571L10.2988 25.7244C10.1804 25.8502 10.015 25.9216 9.84192 25.9216H9.76807C9.42169 25.9216 9.14062 25.6408 9.14062 25.2944V20.0671C9.14062 19.7198 9.42322 19.4384 9.77051 19.4399C9.94598 19.4406 10.1132 19.5147 10.2316 19.6444L11.6098 21.156H15.4089L13.1528 16.4709C12.8214 15.7827 13.3231 14.9847 14.0866 14.985C14.4012 14.9853 14.6985 15.1281 14.895 15.3738L19.5242 21.156H21.875C22.7567 21.156 23.6719 21.8359 23.6719 22.7178ZM36.875 22.7966C36.875 23.9071 37.663 24.873 38.7485 25.0933C39.4766 25.2413 40 25.8816 40 26.6247V30.6091C40 34.0554 37.1964 36.8591 33.75 36.8591H6.25C2.80365 36.8591 0 34.0554 0 30.6091V26.6247C0 25.8816 0.523377 25.2413 1.25153 25.0933C2.33704 24.873 3.125 23.9071 3.125 22.7966C3.125 21.6863 2.33704 20.7205 1.25153 20.4998C0.523377 20.3521 0 19.7119 0 18.9688V11.7105C0 10.2957 0.48706 8.90833 1.37146 7.8039C2.25555 6.69947 3.50281 5.92097 4.88342 5.61152L29.3213 0.135749C29.3243 0.134834 29.3274 0.134224 29.3304 0.133613C32.0444 -0.457512 34.8282 0.955452 35.9497 3.49329C36.2985 4.28248 35.9415 5.20502 35.152 5.55384C34.3628 5.90266 33.4402 5.5456 33.0914 4.75642C32.5677 3.57172 31.268 2.91193 29.9994 3.18629L5.56671 8.66114C5.34393 8.71088 5.13153 8.78321 4.93195 8.87537C5.35706 8.78352 5.79773 8.73408 6.25 8.73408H33.75C37.196 8.73408 40 11.538 40 14.9841V18.9688C40 19.7119 39.4766 20.3521 38.7482 20.4998C37.663 20.7205 36.875 21.6863 36.875 22.7966ZM36.875 14.9841C36.875 13.2611 35.473 11.8591 33.75 11.8591H29.9219C29.9219 12.7221 29.2224 13.4216 28.3594 13.4216C27.4963 13.4216 26.7969 12.7221 26.7969 11.8591H6.25C4.52698 11.8591 3.125 13.2611 3.125 14.9841V17.8555C4.99268 18.7448 6.25 20.6558 6.25 22.7966C6.25 24.9377 4.99268 26.8484 3.125 27.738V30.6091C3.125 32.3324 4.52698 33.7341 6.25 33.7341H26.7969C26.7969 32.8713 27.4963 32.1716 28.3594 32.1716C29.2224 32.1716 29.9219 32.8713 29.9219 33.7341H33.75C35.473 33.7341 36.875 32.3324 36.875 30.6091V27.738C35.0073 26.8484 33.75 24.9377 33.75 22.7966C33.75 20.6558 35.0073 18.7448 36.875 17.8555V14.9841ZM28.3594 15.7653C27.4963 15.7653 26.7969 16.4651 26.7969 17.3278C26.7969 18.1909 27.4963 18.8903 28.3594 18.8903C29.2224 18.8903 29.9219 18.1909 29.9219 17.3278C29.9219 16.4651 29.2224 15.7653 28.3594 15.7653ZM28.3594 21.2341C27.4963 21.2341 26.7969 21.9338 26.7969 22.7966C26.7969 23.6596 27.4963 24.3591 28.3594 24.3591C29.2224 24.3591 29.9219 23.6596 29.9219 22.7966C29.9219 21.9338 29.2224 21.2341 28.3594 21.2341ZM28.3594 26.7028C27.4963 26.7028 26.7969 27.4026 26.7969 28.2653C26.7969 29.1284 27.4963 29.8278 28.3594 29.8278C29.2224 29.8278 29.9219 29.1284 29.9219 28.2653C29.9219 27.4026 29.2224 26.7028 28.3594 26.7028Z" fill="#004799"/>
</svg>
