<svg width="28" height="32" viewBox="0 0 28 32" fill="none" xmlns="http://www.w3.org/2000/svg">
<path d="M10.953 28.1879H4.1557C2.9294 28.1879 1.93289 27.1903 1.93289 25.9651V4.1557C1.93289 2.9294 2.93047 1.93289 4.1557 1.93289H12.5756C12.6958 1.93289 12.8118 1.94899 12.9289 1.96725V6.70067C12.9289 8.46497 14.3646 9.90067 16.1289 9.90067H20.8623C20.8816 10.0177 20.8966 10.1358 20.8966 10.2572V14.2615C20.8966 14.7952 21.3294 15.2279 21.8631 15.2279C22.3968 15.2279 22.8295 14.7952 22.8295 14.2615V10.2572C22.8295 9.14685 22.3968 8.10201 21.6107 7.31705L15.5114 1.21664C14.7264 0.431678 13.6838 0 12.5756 0H4.1557C1.86416 0 0 1.86416 0 4.1557V25.9651C0 28.2566 1.86416 30.1208 4.1557 30.1208H10.953C11.4867 30.1208 11.9195 29.6881 11.9195 29.1544C11.9195 28.6207 11.4867 28.1879 10.953 28.1879ZM19.5297 7.96779H16.1278C15.4287 7.96779 14.8607 7.39973 14.8607 6.70067V3.29879L19.5297 7.96779Z" fill="white"/>
<path d="M4.99543 14.5171H17.8309C18.3646 14.5171 18.7973 14.0843 18.7973 13.5506C18.7973 13.0169 18.3646 12.5842 17.8309 12.5842H4.99543C4.46174 12.5842 4.02899 13.0169 4.02899 13.5506C4.02899 14.0843 4.46174 14.5171 4.99543 14.5171Z" fill="white"/>
<path d="M4.99543 9.31544H10.1412C10.6749 9.31544 11.1076 8.88269 11.1076 8.349C11.1076 7.8153 10.6749 7.38255 10.1412 7.38255H4.99543C4.46174 7.38255 4.02899 7.8153 4.02899 8.349C4.02899 8.88269 4.46174 9.31544 4.99543 9.31544Z" fill="white"/>
<path d="M11.5544 17.7825H4.9933C4.45961 17.7825 4.02686 18.2153 4.02686 18.749C4.02686 19.2827 4.45961 19.7154 4.9933 19.7154H11.5544C12.0881 19.7154 12.5208 19.2827 12.5208 18.749C12.5208 18.2153 12.0881 17.7825 11.5544 17.7825Z" fill="white"/>
<path d="M4.9933 24.9235H9.83625C10.3699 24.9235 10.8027 24.4907 10.8027 23.957C10.8027 23.4234 10.3699 22.9906 9.83625 22.9906H4.9933C4.45961 22.9906 4.02686 23.4234 4.02686 23.957C4.02686 24.4907 4.45853 24.9235 4.9933 24.9235Z" fill="white"/>
<path d="M20.1632 16.9128C16.0032 16.9128 12.6196 20.2964 12.6196 24.4564C12.6196 28.6164 16.0032 32 20.1632 32C24.3232 32 27.7068 28.6164 27.7068 24.4564C27.7068 20.2964 24.3232 16.9128 20.1632 16.9128ZM20.1632 30.0671C17.0695 30.0671 14.5525 27.5501 14.5525 24.4564C14.5525 21.3627 17.0695 18.8456 20.1632 18.8456C23.2569 18.8456 25.7739 21.3627 25.7739 24.4564C25.7739 27.5501 23.2569 30.0671 20.1632 30.0671Z" fill="white"/>
<path d="M19.3131 27C19.1334 27 18.9611 26.9281 18.8341 26.8003L16.8019 24.755C16.5372 24.4889 16.5372 24.057 16.8019 23.7909C17.0665 23.5246 17.4952 23.5246 17.7598 23.7909L19.3131 25.354L22.447 22.1997C22.7112 21.9334 23.1403 21.9334 23.4049 22.1997C23.6695 22.4658 23.6695 22.8975 23.4049 23.1638L19.792 26.8003C19.665 26.9281 19.4928 27 19.3131 27Z" fill="white"/>
</svg>
