<svg width="32" height="32" viewBox="0 0 32 32" fill="none" xmlns="http://www.w3.org/2000/svg">
<g clip-path="url(#clip0_702_1307)">
<path d="M13.1766 30.1176H3.29423C2.77659 30.1176 2.35306 29.6941 2.35306 29.1765V2.82353C2.35306 2.30588 2.77659 1.88235 3.29423 1.88235H14.5884V7.52941C14.5884 9.08235 15.8589 10.3529 17.4119 10.3529H24.0001C24.1131 10.3529 24.2166 10.3247 24.3201 10.2871C24.3484 10.2776 24.3766 10.2588 24.4048 10.2494C24.4801 10.2118 24.5554 10.1647 24.6213 10.1082C24.6401 10.0988 24.6589 10.0894 24.6684 10.08C24.6684 10.08 24.6778 10.0612 24.6872 10.0518C24.7625 9.96706 24.8284 9.88235 24.8754 9.77882C24.9225 9.67529 24.8754 9.76 24.8754 9.75059C24.9131 9.65647 24.9319 9.55294 24.9319 9.44941C24.9319 9.42118 24.9319 9.38353 24.9319 9.35529C24.9319 9.27059 24.9131 9.19529 24.8848 9.12C24.8754 9.09176 24.866 9.05412 24.8566 9.02588C24.8095 8.92235 24.7531 8.82824 24.6684 8.74353L16.1978 0.272941C16.1131 0.188235 16.0189 0.131765 15.9248 0.0847059C15.9154 0.0847059 15.906 0.0658824 15.8966 0.0658824C15.8778 0.0658824 15.8589 0.0658823 15.8307 0.0564705C15.7554 0.0282352 15.6707 0.0188235 15.5954 0.00941176C15.5766 0.00941176 15.5578 0 15.5389 0H3.29423C1.74129 0 0.470703 1.27059 0.470703 2.82353V29.1765C0.470703 30.7294 1.74129 32 3.29423 32H13.1766C13.6942 32 14.1178 31.5765 14.1178 31.0588C14.1178 30.5412 13.6942 30.1176 13.1766 30.1176ZM21.7319 8.47059H17.4119C16.8942 8.47059 16.4707 8.04706 16.4707 7.52941V3.20941L21.7319 8.47059ZM14.5884 15.0588H5.17659C4.65894 15.0588 4.23541 14.6353 4.23541 14.1176C4.23541 13.6 4.65894 13.1765 5.17659 13.1765H14.5884C15.106 13.1765 15.5295 13.6 15.5295 14.1176C15.5295 14.6353 15.106 15.0588 14.5884 15.0588ZM11.7648 8.47059C12.2825 8.47059 12.706 8.89412 12.706 9.41177C12.706 9.92941 12.2825 10.3529 11.7648 10.3529H5.17659C4.65894 10.3529 4.23541 9.92941 4.23541 9.41177C4.23541 8.89412 4.65894 8.47059 5.17659 8.47059H11.7648ZM28.706 25.4118H27.2942V21.5435C27.2942 21.2988 27.3978 21.0635 27.5766 20.8847C28.8848 19.5482 29.4401 17.6471 29.0636 15.7929C28.6213 13.5906 26.8425 11.8212 24.6495 11.3976C22.9648 11.0682 21.2519 11.5012 19.9436 12.5835C18.6354 13.6659 17.8919 15.2471 17.8919 16.9412C17.8919 18.4188 18.466 19.8212 19.5013 20.8847C19.6801 21.0635 19.7742 21.2988 19.7742 21.5435V25.4118H18.3625C17.4778 25.4118 16.6495 25.7506 16.0284 26.3718C15.4072 26.9929 15.0684 27.8212 15.0684 28.7059C15.0684 30.5224 16.546 32 18.3625 32H28.7154C29.5813 32 30.4378 31.6518 31.0495 31.04C31.6707 30.4188 32.0095 29.5906 32.0095 28.7059C32.0095 26.8894 30.5319 25.4118 28.7154 25.4118H28.706ZM20.8378 19.5765C20.1413 18.8612 19.7648 17.9294 19.7648 16.9412C19.7648 15.8118 20.2636 14.7576 21.1389 14.0329C22.0236 13.3082 23.1436 13.0259 24.2919 13.2424C25.7507 13.5247 26.9272 14.6918 27.2189 16.16C27.4731 17.4118 27.106 18.6541 26.2307 19.5671C25.7036 20.1035 25.4213 20.8094 25.4213 21.5435V25.4118H21.6566V21.5435C21.6566 20.8094 21.3742 20.1129 20.8472 19.5765H20.8378ZM29.7036 29.7129C29.4401 29.9765 29.0731 30.1271 28.706 30.1271H18.3531C17.5719 30.1271 16.9413 29.4965 16.9413 28.7153C16.9413 28.3388 17.0919 27.9718 17.3554 27.7176C17.6189 27.4541 17.986 27.3035 18.3531 27.3035H28.706C29.4872 27.3035 30.1178 27.9341 30.1178 28.7153C30.1178 29.0918 29.9672 29.4494 29.7036 29.7129Z" fill="white"/>
<path d="M8.52249 26.9009L15.0001 20C15.3576 19.6257 15.3439 19.0268 14.9695 18.6693C14.5952 18.3118 13.9964 18.3256 13.6389 18.6999L7.16124 25.6008C6.80371 25.9752 6.81748 26.574 7.19182 26.9315C7.56617 27.289 8.16497 27.2753 8.52249 26.9009Z" fill="white"/>
<path d="M8.60359 25.6775L5.60186 22.5272C5.41272 22.3275 4.95052 22.4555 4.57474 22.8115C4.19897 23.1675 4.04627 23.6222 4.23541 23.8218L7.23714 26.9721C7.42628 27.1717 7.88848 27.0438 8.26425 26.6877C8.64002 26.3317 8.79273 25.8771 8.60359 25.6775Z" fill="white"/>
</g>
<defs>
<clipPath id="clip0_702_1307">
<rect width="32" height="32" fill="white"/>
</clipPath>
</defs>
</svg>
