<svg width="32" height="32" viewBox="0 0 32 32" fill="none" xmlns="http://www.w3.org/2000/svg">
<path d="M12.24 24.7747C11.7231 24.7747 11.3025 24.354 11.3025 23.8372C11.3025 23.3193 10.8828 22.8997 10.365 22.8997C9.84717 22.8997 9.42749 23.3193 9.42749 23.8372C9.42749 25.063 10.2161 26.1074 11.3125 26.4917V27.3125C11.3125 27.8303 11.7322 28.25 12.25 28.25C12.7678 28.25 13.1875 27.8303 13.1875 27.3125V26.4849C14.2734 26.0952 15.0525 25.0557 15.0525 23.8372C15.0525 22.2864 13.7908 21.0247 12.24 21.0247C11.7231 21.0247 11.3025 20.604 11.3025 20.0872C11.3025 19.5701 11.7231 19.1497 12.24 19.1497C12.7568 19.1497 13.1775 19.5701 13.1775 20.0872C13.1775 20.605 13.5972 21.0247 14.115 21.0247C14.6328 21.0247 15.0525 20.605 15.0525 20.0872C15.0525 18.8687 14.2734 17.8291 13.1875 17.4392V16.0625C13.1875 15.5447 12.7678 15.125 12.25 15.125C11.7322 15.125 11.3125 15.5447 11.3125 16.0625V17.4324C10.2161 17.8167 9.42749 18.8611 9.42749 20.0872C9.42749 21.6379 10.6892 22.8997 12.24 22.8997C12.7568 22.8997 13.1775 23.3201 13.1775 23.8372C13.1775 24.354 12.7568 24.7747 12.24 24.7747Z" fill="white"/>
<path d="M3.82129 30.469C5.77222 31.5134 8.45068 32 12.25 32C15.3413 32 17.668 31.6797 19.4756 30.9985C19.9919 31.6104 20.7637 32 21.625 32H29.1875C30.7383 32 32 30.7383 32 29.1875C32 28.4678 31.7278 27.8105 31.2815 27.3125C31.728 26.8145 32 26.1572 32 25.4375C32 24.7178 31.7278 24.0605 31.2815 23.5625C31.728 23.0645 32 22.4072 32 21.6875C32 20.9678 31.7278 20.3105 31.2815 19.8125C31.728 19.3145 32 18.6572 32 17.9375C32 16.3867 30.7383 15.125 29.1875 15.125H21.625C21.5337 15.125 21.4434 15.1296 21.3542 15.1384C20.4133 13.9988 19.3108 13.0432 18.0959 12.3103C18.541 11.8127 18.8125 11.1562 18.8125 10.4375C18.8125 9.31714 18.1538 8.3479 17.2034 7.896L18.7664 3.10327C18.8594 2.81763 18.8101 2.50488 18.6338 2.26196C18.4573 2.0188 18.1753 1.875 17.875 1.875H14.9014C14.5142 0.783691 13.4722 0 12.25 0C11.0276 0 9.98511 0.783691 9.59814 1.875H6.625C6.32471 1.875 6.04272 2.0188 5.86621 2.26196C5.68994 2.50488 5.64062 2.81763 5.73364 3.10327L7.29663 7.896C6.34619 8.3479 5.6875 9.31714 5.6875 10.4375C5.6875 11.1567 5.95923 11.8137 6.40503 12.3115C2.64355 14.5818 0 18.8936 0 23.5625C0 26.7878 1.28564 29.1113 3.82129 30.469ZM30.125 21.6875C30.125 22.2043 29.7043 22.625 29.1875 22.625H21.625C21.1082 22.625 20.6875 22.2043 20.6875 21.6875C20.6875 21.1707 21.1082 20.75 21.625 20.75H29.1875C29.7043 20.75 30.125 21.1707 30.125 21.6875ZM30.125 25.4375C30.125 25.9543 29.7043 26.375 29.1875 26.375H21.625C21.1082 26.375 20.6875 25.9543 20.6875 25.4375C20.6875 24.9207 21.1082 24.5 21.625 24.5H29.1875C29.7043 24.5 30.125 24.9207 30.125 25.4375ZM29.1875 30.125H21.625C21.1082 30.125 20.6875 29.7043 20.6875 29.1875C20.6875 28.6707 21.1082 28.25 21.625 28.25H29.1875C29.7043 28.25 30.125 28.6707 30.125 29.1875C30.125 29.7043 29.7043 30.125 29.1875 30.125ZM30.125 17.9375C30.125 18.4543 29.7043 18.875 29.1875 18.875H21.625C21.1082 18.875 20.6875 18.4543 20.6875 17.9375C20.6875 17.4207 21.1082 17 21.625 17H29.1875C29.7043 17 30.125 17.4207 30.125 17.9375ZM15.9731 11.375H8.5271C8.5188 11.3748 8.5105 11.375 8.5022 11.375H8.5C7.98315 11.375 7.5625 10.9543 7.5625 10.4375C7.5625 9.92163 7.98145 9.50171 8.49707 9.50024H8.49976C8.50195 9.50024 8.50415 9.5 8.50635 9.5H15.9934C15.9956 9.5 15.998 9.50024 16.0002 9.50024H16.0029C16.5186 9.50171 16.9375 9.92163 16.9375 10.4375C16.9375 10.9543 16.5168 11.375 16 11.375H15.9971C15.9893 11.375 15.9812 11.3748 15.9731 11.375ZM10.375 3.75C10.8928 3.75 11.3125 3.33032 11.3125 2.8125C11.3125 2.29565 11.7332 1.875 12.25 1.875C12.7668 1.875 13.1875 2.29565 13.1875 2.8125V4.6875C13.1875 5.20532 13.6072 5.625 14.125 5.625C14.6428 5.625 15.0625 5.20532 15.0625 4.6875V3.75H16.5833L15.3196 7.625H9.18042L7.91675 3.75H10.375ZM8.68286 13.25H15.8135C17.2332 13.843 18.5271 14.7769 19.6062 15.9822C19.1155 16.4888 18.8125 17.1782 18.8125 17.9375C18.8125 18.6572 19.0847 19.3145 19.531 19.8125C19.0847 20.3105 18.8125 20.9678 18.8125 21.6875C18.8125 22.4072 19.0847 23.0645 19.531 23.5625C19.0847 24.0605 18.8125 24.7178 18.8125 25.4375C18.8125 26.1572 19.0847 26.8145 19.531 27.3125C19.0847 27.8105 18.8125 28.4678 18.8125 29.1875C18.8125 29.2068 18.8135 29.2258 18.814 29.2449C17.228 29.8438 15.1157 30.125 12.25 30.125C8.77148 30.125 6.37427 29.709 4.7063 28.8159C2.77466 27.7817 1.875 26.1125 1.875 23.5625C1.875 19.1406 4.66602 14.9268 8.68286 13.25Z" fill="white"/>
</svg>
