<svg width="24" height="24" viewBox="0 0 24 24" fill="none" xmlns="http://www.w3.org/2000/svg">
<path d="M4.21875 16.9219H0.703125C0.314758 16.9219 0 17.2366 0 17.625V23.2969C0 23.6852 0.314758 24 0.703125 24H4.21875C4.60712 24 4.92188 23.6852 4.92188 23.2969V17.625C4.92188 17.2366 4.60712 16.9219 4.21875 16.9219ZM3.51562 22.5938H1.40625V18.3281H3.51562V22.5938Z" fill="white"/>
<path d="M10.5938 12.7031H7.07812C6.68976 12.7031 6.375 13.0179 6.375 13.4062V23.2969C6.375 23.6852 6.68976 24 7.07812 24H10.5938C10.9821 24 11.2969 23.6852 11.2969 23.2969V13.4062C11.2969 13.0179 10.9821 12.7031 10.5938 12.7031ZM9.89062 22.5938H7.78125V14.1094H9.89062V22.5938Z" fill="white"/>
<path d="M16.9219 11.2969H13.4062C13.0179 11.2969 12.7031 11.6116 12.7031 12V23.2969C12.7031 23.6852 13.0179 24 13.4062 24H16.9219C17.3102 24 17.625 23.6852 17.625 23.2969V12C17.625 11.6116 17.3102 11.2969 16.9219 11.2969ZM16.2188 22.5938H14.1094V12.7031H16.2188V22.5938Z" fill="white"/>
<path d="M23.2969 5.67188H19.7812C19.3929 5.67188 19.0781 5.98663 19.0781 6.375V23.2969C19.0781 23.6852 19.3929 24 19.7812 24H23.2969C23.6852 24 24 23.6852 24 23.2969V6.375C24 5.98663 23.6852 5.67188 23.2969 5.67188ZM22.5938 22.5938H20.4844V7.07812H22.5938V22.5938Z" fill="white"/>
<path d="M2.46094 15.5156C3.62402 15.5156 4.57031 14.5693 4.57031 13.4062C4.57031 13.2092 4.54248 13.0186 4.49176 12.8375L7.26324 10.9059C7.60822 11.1517 8.02954 11.2969 8.48438 11.2969C9.55298 11.2969 10.4381 10.4978 10.5749 9.466L13.3636 8.87878C13.7344 9.48523 14.4027 9.89062 15.1641 9.89062C16.3271 9.89062 17.2734 8.94434 17.2734 7.78125C17.2734 7.49982 17.2176 7.2312 17.1171 6.98547L20.5206 3.95581C20.8228 4.12317 21.1699 4.21875 21.5391 4.21875C22.7021 4.21875 23.6484 3.27246 23.6484 2.10938C23.6484 0.946289 22.7021 0 21.5391 0C20.376 0 19.4297 0.946289 19.4297 2.10938C19.4297 2.39081 19.4855 2.65942 19.5861 2.90515L16.1825 5.93481C15.8804 5.76746 15.5332 5.67188 15.1641 5.67188C14.0953 5.67188 13.2103 6.47095 13.0735 7.50275L10.2849 8.08997C9.91406 7.48352 9.24573 7.07812 8.48438 7.07812C7.32129 7.07812 6.375 8.02441 6.375 9.1875C6.375 9.38452 6.40283 9.57513 6.45355 9.75623L3.68207 11.6878C3.3371 11.4421 2.91577 11.2969 2.46094 11.2969C1.29785 11.2969 0.351562 12.2432 0.351562 13.4062C0.351562 14.5693 1.29785 15.5156 2.46094 15.5156ZM21.5391 1.40625C21.9267 1.40625 22.2422 1.72174 22.2422 2.10938C22.2422 2.49701 21.9267 2.8125 21.5391 2.8125C21.1514 2.8125 20.8359 2.49701 20.8359 2.10938C20.8359 1.72174 21.1514 1.40625 21.5391 1.40625ZM15.1641 7.07812C15.5517 7.07812 15.8672 7.39362 15.8672 7.78125C15.8672 8.16888 15.5517 8.48438 15.1641 8.48438C14.7764 8.48438 14.4609 8.16888 14.4609 7.78125C14.4609 7.39362 14.7764 7.07812 15.1641 7.07812ZM8.48438 8.48438C8.87201 8.48438 9.1875 8.79987 9.1875 9.1875C9.1875 9.57513 8.87201 9.89062 8.48438 9.89062C8.09674 9.89062 7.78125 9.57513 7.78125 9.1875C7.78125 8.79987 8.09674 8.48438 8.48438 8.48438ZM2.46094 12.7031C2.84857 12.7031 3.16406 13.0186 3.16406 13.4062C3.16406 13.7939 2.84857 14.1094 2.46094 14.1094C2.0733 14.1094 1.75781 13.7939 1.75781 13.4062C1.75781 13.0186 2.0733 12.7031 2.46094 12.7031Z" fill="white"/>
</svg>
