<svg width="24" height="24" viewBox="0 0 24 24" fill="none" xmlns="http://www.w3.org/2000/svg">
<g clip-path="url(#clip0_114_298)">
<path d="M18.0938 10.5812C18.6115 10.5812 19.0312 10.1615 19.0312 9.64374C19.0312 9.12597 18.6115 8.70624 18.0938 8.70624C17.576 8.70624 17.1562 9.12597 17.1562 9.64374C17.1562 10.1615 17.576 10.5812 18.0938 10.5812Z" fill="#72A9E9"/>
<path d="M20.25 1.67499H19.0312V0.737488C19.0312 0.219707 18.6115 -0.200012 18.0938 -0.200012C17.576 -0.200012 17.1562 0.219707 17.1562 0.737488V1.67499H12.8906V0.737488C12.8906 0.219707 12.4709 -0.200012 11.9531 -0.200012C11.4353 -0.200012 11.0156 0.219707 11.0156 0.737488V1.67499H6.79688V0.737488C6.79688 0.219707 6.37716 -0.200012 5.85938 -0.200012C5.34159 -0.200012 4.92188 0.219707 4.92188 0.737488V1.67499H3.75C1.68225 1.67499 0 3.35724 0 5.42499V20.05C0 22.1177 1.68225 23.8 3.75 23.8H10.9219C11.4397 23.8 11.8594 23.3803 11.8594 22.8625C11.8594 22.3447 11.4397 21.925 10.9219 21.925H3.75C2.71613 21.925 1.875 21.0839 1.875 20.05V5.42499C1.875 4.39111 2.71613 3.54999 3.75 3.54999H4.92188V4.48749C4.92188 5.00527 5.34159 5.42499 5.85938 5.42499C6.37716 5.42499 6.79688 5.00527 6.79688 4.48749V3.54999H11.0156V4.48749C11.0156 5.00527 11.4353 5.42499 11.9531 5.42499C12.4709 5.42499 12.8906 5.00527 12.8906 4.48749V3.54999H17.1562V4.48749C17.1562 5.00527 17.576 5.42499 18.0938 5.42499C18.6115 5.42499 19.0312 5.00527 19.0312 4.48749V3.54999H20.25C21.2839 3.54999 22.125 4.39111 22.125 5.42499V10.7687C22.125 11.2865 22.5447 11.7062 23.0625 11.7062C23.5803 11.7062 24 11.2865 24 10.7687V5.42499C24 3.35724 22.3177 1.67499 20.25 1.67499Z" fill="#72A9E9"/>
<path d="M18.3281 12.4562C15.2006 12.4562 12.6562 15.0006 12.6562 18.1281C12.6562 21.2556 15.2006 23.8 18.3281 23.8C21.4556 23.8 24 21.2556 24 18.1281C24 15.0006 21.4556 12.4562 18.3281 12.4562ZM18.3281 21.925C16.2345 21.925 14.5312 20.2217 14.5312 18.1281C14.5312 16.0345 16.2345 14.3312 18.3281 14.3312C20.4217 14.3312 22.125 16.0345 22.125 18.1281C22.125 20.2217 20.4217 21.925 18.3281 21.925Z" fill="#72A9E9"/>
<path d="M19.6875 17.1906H19.2656V16.2062C19.2656 15.6885 18.8459 15.2687 18.3281 15.2687C17.8103 15.2687 17.3906 15.6885 17.3906 16.2062V18.1281C17.3906 18.6459 17.8103 19.0656 18.3281 19.0656H19.6875C20.2053 19.0656 20.625 18.6459 20.625 18.1281C20.625 17.6103 20.2053 17.1906 19.6875 17.1906Z" fill="#72A9E9"/>
<path d="M14.0156 10.5812C14.5334 10.5812 14.9531 10.1615 14.9531 9.64374C14.9531 9.12597 14.5334 8.70624 14.0156 8.70624C13.4979 8.70624 13.0781 9.12597 13.0781 9.64374C13.0781 10.1615 13.4979 10.5812 14.0156 10.5812Z" fill="#72A9E9"/>
<path d="M9.9375 14.6594C10.4553 14.6594 10.875 14.2396 10.875 13.7219C10.875 13.2041 10.4553 12.7844 9.9375 12.7844C9.41973 12.7844 9 13.2041 9 13.7219C9 14.2396 9.41973 14.6594 9.9375 14.6594Z" fill="#72A9E9"/>
<path d="M5.85938 10.5812C6.37714 10.5812 6.79688 10.1615 6.79688 9.64374C6.79688 9.12597 6.37714 8.70624 5.85938 8.70624C5.34161 8.70624 4.92188 9.12597 4.92188 9.64374C4.92188 10.1615 5.34161 10.5812 5.85938 10.5812Z" fill="#72A9E9"/>
<path d="M5.85938 14.6594C6.37714 14.6594 6.79688 14.2396 6.79688 13.7219C6.79688 13.2041 6.37714 12.7844 5.85938 12.7844C5.34161 12.7844 4.92188 13.2041 4.92188 13.7219C4.92188 14.2396 5.34161 14.6594 5.85938 14.6594Z" fill="#72A9E9"/>
<path d="M5.85938 18.7375C6.37714 18.7375 6.79688 18.3178 6.79688 17.8C6.79688 17.2823 6.37714 16.8625 5.85938 16.8625C5.34161 16.8625 4.92188 17.2823 4.92188 17.8C4.92188 18.3178 5.34161 18.7375 5.85938 18.7375Z" fill="#72A9E9"/>
<path d="M9.9375 18.7375C10.4553 18.7375 10.875 18.3178 10.875 17.8C10.875 17.2823 10.4553 16.8625 9.9375 16.8625C9.41973 16.8625 9 17.2823 9 17.8C9 18.3178 9.41973 18.7375 9.9375 18.7375Z" fill="#72A9E9"/>
<path d="M9.9375 10.5812C10.4553 10.5812 10.875 10.1615 10.875 9.64374C10.875 9.12597 10.4553 8.70624 9.9375 8.70624C9.41973 8.70624 9 9.12597 9 9.64374C9 10.1615 9.41973 10.5812 9.9375 10.5812Z" fill="#72A9E9"/>
</g>
<defs>
<clipPath id="clip0_114_298">
<rect width="24" height="24" fill="white"/>
</clipPath>
</defs>
</svg>
