<svg width="18" height="24" viewBox="0 0 18 24" fill="none" xmlns="http://www.w3.org/2000/svg">
<path d="M6.83301 4.5H10.167C10.402 4.50015 10.5 4.65994 10.5 4.75C10.5 4.84006 10.402 4.99985 10.167 5H6.83301C6.59798 4.99985 6.5 4.84006 6.5 4.75C6.5 4.65994 6.59798 4.50015 6.83301 4.5Z" stroke="#004799"/>
<path d="M2.87988 0.5H14.4004C15.7118 0.500251 16.7802 1.56841 16.7803 2.87988V21.1201C16.7802 22.4316 15.7118 23.4997 14.4004 23.5H2.87988C1.5683 23.4999 0.500064 22.4317 0.5 21.1201V2.87988C0.500064 1.56829 1.5683 0.500056 2.87988 0.5ZM2.87988 0.94043C1.80845 0.940485 0.940493 1.80846 0.94043 2.87988V21.1201C0.940494 22.1915 1.80845 23.0595 2.87988 23.0596H14.4004C15.4717 23.0593 16.3398 22.1914 16.3398 21.1201V2.87988C16.3398 1.80858 15.4717 0.940679 14.4004 0.94043H2.87988Z" stroke="#004799"/>
<path d="M8.64019 19.6001C9.43547 19.6001 10.0802 18.9554 10.0802 18.1601C10.0802 17.3648 9.43547 16.7201 8.64019 16.7201C7.8449 16.7201 7.2002 17.3648 7.2002 18.1601C7.2002 18.9554 7.8449 19.6001 8.64019 19.6001Z" fill="#004799"/>
</svg>
