<svg width="24" height="24" viewBox="0 0 24 24" fill="none" xmlns="http://www.w3.org/2000/svg">
<path d="M23.2 19.2H22.4V9.6C22.4 9.17565 22.2314 8.76869 21.9314 8.46863C21.6313 8.16857 21.2243 8 20.8 8H18.4C17.9757 8 17.5687 8.16857 17.2686 8.46863C16.9686 8.76869 16.8 9.17565 16.8 9.6V19.2H14.8V12.8C14.8 12.3757 14.6314 11.9687 14.3314 11.6686C14.0313 11.3686 13.6243 11.2 13.2 11.2H10.8C10.3757 11.2 9.96869 11.3686 9.66863 11.6686C9.36857 11.9687 9.2 12.3757 9.2 12.8V19.2H7.2V16C7.2 15.5757 7.03143 15.1687 6.73137 14.8686C6.43131 14.5686 6.02435 14.4 5.6 14.4H3.2C2.77565 14.4 2.36869 14.5686 2.06863 14.8686C1.76857 15.1687 1.6 15.5757 1.6 16V19.2H0.8C0.587827 19.2 0.384344 19.2843 0.234315 19.4343C0.0842854 19.5843 0 19.7878 0 20V21.6C0 22.2365 0.252856 22.847 0.702944 23.2971C1.15303 23.7471 1.76348 24 2.4 24H21.6C22.2365 24 22.847 23.7471 23.2971 23.2971C23.7471 22.847 24 22.2365 24 21.6V20C24 19.7878 23.9157 19.5843 23.7657 19.4343C23.6157 19.2843 23.4122 19.2 23.2 19.2ZM18.4 9.6H20.8V19.2H18.4V9.6ZM10.8 12.8H13.2V19.2H10.8V12.8ZM3.2 16H5.6V19.2H3.2V16ZM22.4 21.6C22.4 21.8122 22.3157 22.0157 22.1657 22.1657C22.0157 22.3157 21.8122 22.4 21.6 22.4H2.4C2.18783 22.4 1.98434 22.3157 1.83431 22.1657C1.68429 22.0157 1.6 21.8122 1.6 21.6V20.8H22.4V21.6Z" fill="#004799"/>
<path d="M3.99992 11.648C4.12615 11.6483 4.25066 11.6188 4.36329 11.5618C4.47591 11.5048 4.57344 11.4219 4.64792 11.32L8.43192 6.056L11.4159 9.256C11.4887 9.33449 11.5764 9.39759 11.674 9.44157C11.7715 9.48554 11.8769 9.50949 11.9839 9.512C12.0905 9.51367 12.1964 9.49401 12.2953 9.45417C12.3943 9.41432 12.4842 9.35511 12.5599 9.28L19.1999 2.696V4.8C19.1999 5.01217 19.2842 5.21566 19.4342 5.36569C19.5843 5.51571 19.7877 5.6 19.9999 5.6C20.2121 5.6 20.4156 5.51571 20.5656 5.36569C20.7156 5.21566 20.7999 5.01217 20.7999 4.8V0.8C20.7999 0.587827 20.7156 0.384344 20.5656 0.234315C20.4156 0.0842854 20.2121 0 19.9999 0H15.9999C15.7877 0 15.5843 0.0842854 15.4342 0.234315C15.2842 0.384344 15.1999 0.587827 15.1999 0.8C15.1999 1.01217 15.2842 1.21566 15.4342 1.36569C15.5843 1.51571 15.7877 1.6 15.9999 1.6H18.0319L11.9999 7.552L8.93592 4.256C8.85507 4.16832 8.75564 4.09983 8.64491 4.05554C8.53417 4.01124 8.41493 3.99227 8.29592 4C8.17861 4.00903 8.06473 4.04382 7.9624 4.10189C7.86007 4.15997 7.77182 4.23991 7.70392 4.336L3.35192 10.4C3.22964 10.5721 3.18037 10.7856 3.21484 10.9939C3.2493 11.2022 3.36472 11.3884 3.53592 11.512C3.67286 11.6041 3.83493 11.6516 3.99992 11.648Z" fill="#004799"/>
</svg>
