<svg width="24" height="24" viewBox="0 0 24 24" fill="none" xmlns="http://www.w3.org/2000/svg">
<path d="M2.68603 10.6741C2.31989 10.308 2.31989 9.71433 2.68603 9.34823L8.17505 3.85922C8.54119 3.49317 9.13477 3.49308 9.50086 3.85922L12.9522 7.31053L18.3877 1.875H15.9795C15.4617 1.875 15.042 1.45528 15.042 0.9375C15.042 0.419719 15.4617 1.37835e-07 15.9795 1.37835e-07H20.6505C21.1767 -0.000281112 21.5885 0.429891 21.5885 0.9375V5.60906C21.5885 6.12684 21.1688 6.54656 20.651 6.54656C20.1332 6.54656 19.7135 6.12684 19.7135 5.60906V3.20086L13.6151 9.2993C13.2489 9.66544 12.6554 9.66544 12.2893 9.2993L8.83795 5.84798L4.01184 10.6741C3.64575 11.0402 3.05208 11.0401 2.68603 10.6741ZM6.69792 17.5312V23.0625C6.69792 23.5803 6.2782 24 5.76042 24H0.9375C0.419719 24 0 23.5803 0 23.0625V17.5312C0 17.0135 0.419719 16.5938 0.9375 16.5938H5.76042C6.2782 16.5938 6.69792 17.0135 6.69792 17.5312ZM4.82292 18.4688H1.875V22.125H4.82292V18.4688ZM15.3489 13.9653V23.0625C15.3489 23.5803 14.9292 24 14.4114 24H9.58856C9.07078 24 8.65106 23.5803 8.65106 23.0625V13.9653C8.65106 13.4475 9.07078 13.0278 9.58856 13.0278H14.4115C14.9292 13.0278 15.3489 13.4475 15.3489 13.9653ZM13.4739 14.9028H10.526V22.125H13.4739V14.9028ZM24 10.3994V23.0625C24 23.5803 23.5803 24 23.0625 24H18.2396C17.7218 24 17.3021 23.5803 17.3021 23.0625V10.3994C17.3021 9.88158 17.7218 9.46186 18.2396 9.46186H23.0625C23.5803 9.46186 24 9.88158 24 10.3994ZM22.125 11.3369H19.1771V22.125H22.125V11.3369Z" fill="white"/>
</svg>
