<svg width="24" height="24" viewBox="0 0 24 24" fill="none" xmlns="http://www.w3.org/2000/svg">
<path d="M2.4 11.2H8.8C9.4363 11.1993 10.0463 10.9462 10.4963 10.4963C10.9462 10.0463 11.1993 9.4363 11.2 8.8V2.4C11.1993 1.7637 10.9462 1.15367 10.4963 0.703739C10.0463 0.253807 9.4363 0.000719915 8.8 0H2.4C1.7637 0.000719915 1.15367 0.253807 0.703739 0.703739C0.253807 1.15367 0.000719915 1.7637 0 2.4V8.8C0.000719915 9.4363 0.253807 10.0463 0.703739 10.4963C1.15367 10.9462 1.7637 11.1993 2.4 11.2ZM1.6 2.4C1.6 2.18783 1.68428 1.98434 1.83431 1.83431C1.98434 1.68428 2.18783 1.6 2.4 1.6H8.8C9.01217 1.6 9.21565 1.68428 9.36568 1.83431C9.51571 1.98434 9.6 2.18783 9.6 2.4V8.8C9.6 9.01217 9.51571 9.21565 9.36568 9.36568C9.21565 9.51571 9.01217 9.6 8.8 9.6H2.4C2.18783 9.6 1.98434 9.51571 1.83431 9.36568C1.68428 9.21565 1.6 9.01217 1.6 8.8V2.4Z" fill="#004FA9"/>
<path d="M2.4 24H8.8C9.4363 23.9993 10.0463 23.7462 10.4963 23.2963C10.9462 22.8463 11.1993 22.2363 11.2 21.6V15.2C11.1993 14.5637 10.9462 13.9537 10.4963 13.5037C10.0463 13.0538 9.4363 12.8007 8.8 12.8H2.4C1.7637 12.8007 1.15367 13.0538 0.703739 13.5037C0.253807 13.9537 0.000719915 14.5637 0 15.2V21.6C0.000719915 22.2363 0.253807 22.8463 0.703739 23.2963C1.15367 23.7462 1.7637 23.9993 2.4 24ZM1.6 15.2C1.6 14.9878 1.68428 14.7843 1.83431 14.6343C1.98434 14.4843 2.18783 14.4 2.4 14.4H8.8C9.01217 14.4 9.21565 14.4843 9.36568 14.6343C9.51571 14.7843 9.6 14.9878 9.6 15.2V21.6C9.6 21.8122 9.51571 22.0157 9.36568 22.1657C9.21565 22.3157 9.01217 22.4 8.8 22.4H2.4C2.18783 22.4 1.98434 22.3157 1.83431 22.1657C1.68428 22.0157 1.6 21.8122 1.6 21.6V15.2Z" fill="#004FA9"/>
<path d="M21.6 0H15.2C14.5637 0.000719915 13.9537 0.253807 13.5038 0.703739C13.0539 1.15367 12.8008 1.7637 12.8 2.4V8.8C12.8008 9.4363 13.0539 10.0463 13.5038 10.4963C13.9537 10.9462 14.5637 11.1993 15.2 11.2H21.6C22.2363 11.1993 22.8464 10.9462 23.2963 10.4963C23.7462 10.0463 23.9993 9.4363 24 8.8V2.4C23.9993 1.7637 23.7462 1.15367 23.2963 0.703739C22.8464 0.253807 22.2363 0.000719915 21.6 0ZM22.4 8.8C22.4 9.01217 22.3158 9.21565 22.1657 9.36568C22.0157 9.51571 21.8122 9.6 21.6 9.6H15.2C14.9879 9.6 14.7844 9.51571 14.6344 9.36568C14.4843 9.21565 14.4 9.01217 14.4 8.8V2.4C14.4 2.18783 14.4843 1.98434 14.6344 1.83431C14.7844 1.68428 14.9879 1.6 15.2 1.6H21.6C21.8122 1.6 22.0157 1.68428 22.1657 1.83431C22.3158 1.98434 22.4 2.18783 22.4 2.4V8.8Z" fill="#004FA9"/>
<path d="M18.4 12.8C17.2925 12.8 16.2098 13.1284 15.2889 13.7438C14.3679 14.3591 13.6502 15.2337 13.2263 16.257C12.8025 17.2802 12.6916 18.4062 12.9077 19.4925C13.1237 20.5788 13.6571 21.5766 14.4403 22.3598C15.2234 23.143 16.2213 23.6763 17.3075 23.8924C18.3938 24.1085 19.5198 23.9976 20.5431 23.5737C21.5663 23.1499 22.4409 22.4321 23.0563 21.5112C23.6716 20.5903 24 19.5076 24 18.4C23.9983 16.9153 23.4077 15.492 22.3579 14.4422C21.3081 13.3924 19.8847 12.8018 18.4 12.8ZM18.4 22.4C17.6089 22.4 16.8356 22.1654 16.1778 21.7259C15.52 21.2864 15.0073 20.6616 14.7045 19.9307C14.4018 19.1998 14.3226 18.3956 14.4769 17.6196C14.6313 16.8437 15.0122 16.131 15.5716 15.5716C16.131 15.0122 16.8438 14.6312 17.6197 14.4769C18.3956 14.3225 19.1999 14.4017 19.9308 14.7045C20.6617 15.0072 21.2864 15.5199 21.7259 16.1777C22.1655 16.8355 22.4 17.6089 22.4 18.4C22.3988 19.4605 21.9769 20.4772 21.2271 21.227C20.4772 21.9769 19.4605 22.3987 18.4 22.4Z" fill="#004FA9"/>
</svg>
