<svg width="20" height="24" viewBox="0 0 20 24" fill="none" xmlns="http://www.w3.org/2000/svg">
<path d="M17.4536 6.5451C17.1643 6.5451 16.8869 6.66003 16.6823 6.86461C16.4777 7.06918 16.3628 7.34665 16.3628 7.63596V19.8437C16.3315 20.3953 16.0835 20.9123 15.6728 21.2819C15.2621 21.6515 14.722 21.8438 14.1702 21.8171H5.46514C4.91328 21.8438 4.37318 21.6515 3.9625 21.2819C3.55182 20.9123 3.30382 20.3953 3.27253 19.8437V7.63596C3.27253 7.34665 3.1576 7.06918 2.95302 6.86461C2.74845 6.66003 2.47099 6.5451 2.18167 6.5451C1.89236 6.5451 1.6149 6.66003 1.41032 6.86461C1.20575 7.06918 1.09082 7.34665 1.09082 7.63596V19.8437C1.12196 20.9741 1.59979 22.046 2.41968 22.8248C3.23956 23.6036 4.33466 24.0257 5.46514 23.9988H14.1702C15.3006 24.0257 16.3957 23.6036 17.2156 22.8248C18.0355 22.046 18.5133 20.9741 18.5445 19.8437V7.63596C18.5445 7.34665 18.4296 7.06918 18.225 6.86461C18.0204 6.66003 17.7429 6.5451 17.4536 6.5451Z" fill="#004799"/>
<path d="M18.5445 3.27256H14.1811V1.09085C14.1811 0.801541 14.0662 0.524078 13.8616 0.319504C13.657 0.114929 13.3796 0 13.0902 0H6.54512C6.25581 0 5.97835 0.114929 5.77377 0.319504C5.5692 0.524078 5.45427 0.801541 5.45427 1.09085V3.27256H1.09085C0.801541 3.27256 0.524078 3.38749 0.319504 3.59206C0.114929 3.79664 0 4.0741 0 4.36341C0 4.65273 0.114929 4.93019 0.319504 5.13476C0.524078 5.33934 0.801541 5.45427 1.09085 5.45427H18.5445C18.8338 5.45427 19.1113 5.33934 19.3159 5.13476C19.5204 4.93019 19.6354 4.65273 19.6354 4.36341C19.6354 4.0741 19.5204 3.79664 19.3159 3.59206C19.1113 3.38749 18.8338 3.27256 18.5445 3.27256ZM7.63598 3.27256V2.18171H11.9994V3.27256H7.63598Z" fill="#004799"/>
<path d="M8.72712 17.4536V9.81766C8.72712 9.52835 8.61219 9.25089 8.40761 9.04631C8.20304 8.84174 7.92558 8.72681 7.63626 8.72681C7.34695 8.72681 7.06949 8.84174 6.86491 9.04631C6.66034 9.25089 6.54541 9.52835 6.54541 9.81766V17.4536C6.54541 17.7429 6.66034 18.0204 6.86491 18.225C7.06949 18.4296 7.34695 18.5445 7.63626 18.5445C7.92558 18.5445 8.20304 18.4296 8.40761 18.225C8.61219 18.0204 8.72712 17.7429 8.72712 17.4536Z" fill="#004799"/>
<path d="M13.0904 17.4536V9.81766C13.0904 9.52835 12.9755 9.25089 12.7709 9.04631C12.5663 8.84174 12.2889 8.72681 11.9995 8.72681C11.7102 8.72681 11.4328 8.84174 11.2282 9.04631C11.0236 9.25089 10.9087 9.52835 10.9087 9.81766V17.4536C10.9087 17.7429 11.0236 18.0204 11.2282 18.225C11.4328 18.4296 11.7102 18.5445 11.9995 18.5445C12.2889 18.5445 12.5663 18.4296 12.7709 18.225C12.9755 18.0204 13.0904 17.7429 13.0904 17.4536Z" fill="#004799"/>
</svg>
