<svg width="16" height="16" viewBox="0 0 16 16" fill="none" xmlns="http://www.w3.org/2000/svg">
<path fill-rule="evenodd" clip-rule="evenodd" d="M11.7911 7.24006L12.9449 5.70296C13.5166 4.94139 13.7573 4.00307 13.6228 3.06005C13.4884 2.11703 12.9957 1.28402 12.2341 0.712374C10.663 -0.466636 8.42344 -0.149789 7.24348 1.42317L0.895171 9.88024C-0.996531 12.4028 0.686445 15.4077 0.758841 15.5346C0.856623 15.7048 1.02116 15.8261 1.21296 15.8703C1.26749 15.8834 1.79401 16 2.52832 16C3.7158 16 5.44391 15.6963 6.59661 14.16L11.6442 7.43572C11.6736 7.40817 11.7009 7.37761 11.7259 7.34433C11.751 7.31095 11.7728 7.27607 11.7911 7.24006ZM1.8429 14.5455C2.57721 14.6348 4.42942 14.6978 5.46835 13.3129L10.1657 7.05512L6.72016 4.46822L2.02248 10.7264C0.962866 12.1405 1.5458 13.8714 1.8429 14.5455ZM7.56653 3.3408L11.0126 5.92696L11.8167 4.85584C12.5303 3.90623 12.3375 2.55329 11.3879 1.83967C10.4374 1.12794 9.08347 1.32068 8.37079 2.26935L7.56653 3.3408Z" fill="#005FCC"/>
<path d="M15.2463 15.7539H9.25057C8.86132 15.7539 8.54541 15.438 8.54541 15.0488C8.54541 14.6595 8.86132 14.3436 9.25057 14.3436H15.2463C15.6355 14.3436 15.9514 14.6595 15.9514 15.0488C15.9514 15.438 15.6355 15.7539 15.2463 15.7539Z" fill="#005FCC"/>
</svg>
