<svg width="31" height="32" viewBox="0 0 31 32" fill="none" xmlns="http://www.w3.org/2000/svg">
<path d="M30.236 19.4791L28.6624 17.9354C28.4218 17.6972 28.1353 17.5083 27.8196 17.3799C27.504 17.2514 27.1654 17.1858 26.8237 17.187C26.4815 17.1863 26.1424 17.2525 25.8265 17.3818C25.5105 17.5111 25.224 17.7009 24.9835 17.9401L16.2648 26.541C16.1543 26.6492 16.0667 26.7778 16.007 26.9193C15.9473 27.0609 15.9167 27.2127 15.917 27.3659V30.8306C15.917 31.1407 16.0425 31.4382 16.2658 31.6575C16.4892 31.8768 16.7921 32 17.1079 32H20.6376C20.9525 31.9996 21.2545 31.8768 21.4776 31.6585L30.236 23.0982C30.4782 22.8607 30.6703 22.5786 30.8014 22.2681C30.9325 21.9576 31 21.6248 31 21.2886C31 20.9525 30.9325 20.6197 30.8014 20.3092C30.6703 19.9987 30.4782 19.7166 30.236 19.4791ZM26.8237 19.5259C26.8533 19.5251 26.8827 19.5304 26.91 19.5414C26.9373 19.5524 26.962 19.5689 26.9825 19.5898L28.5545 21.1335C28.5754 21.1538 28.592 21.1781 28.6032 21.2049C28.6144 21.2317 28.62 21.2605 28.6196 21.2894C28.6201 21.3184 28.6147 21.3472 28.6035 21.374C28.5923 21.4008 28.5756 21.4251 28.5545 21.4453L27.5446 22.4324L25.6646 20.5862L26.6697 19.5945C26.6895 19.5737 26.7134 19.5569 26.7398 19.5451C26.7662 19.5334 26.7947 19.5268 26.8237 19.5259ZM20.1422 29.6611H18.2956V27.8477L23.9816 22.2343L25.8536 24.0727L20.1422 29.6611ZM12.3413 28.1018H5.99003C3.48604 28.1018 2.41744 27.0525 2.41744 24.5935V5.88232C2.41744 3.42336 3.48604 2.37398 5.99003 2.37398H14.3261V5.88232C14.2328 6.67234 14.3227 7.47283 14.5889 8.22393C14.8552 8.97502 15.291 9.65727 15.8636 10.2196C16.4363 10.782 17.131 11.2099 17.8959 11.4714C18.6607 11.7329 19.4759 11.8211 20.2804 11.7296H23.8529V13.6786C23.8529 13.9888 23.9784 14.2863 24.2017 14.5056C24.4251 14.7249 24.728 14.8481 25.0438 14.8481C25.3596 14.8481 25.6625 14.7249 25.8859 14.5056C26.1092 14.2863 26.2347 13.9888 26.2347 13.6786V10.5601C26.2348 10.4066 26.204 10.2545 26.144 10.1127C26.0841 9.97083 25.9962 9.84204 25.8853 9.7337L16.3585 0.378118C16.2481 0.269285 16.117 0.182949 15.9726 0.124077C15.8281 0.0652051 15.6733 0.0349591 15.5169 0.0350793H5.99003C5.18555 -0.056487 4.37039 0.0317684 3.60555 0.293243C2.8407 0.554718 2.14596 0.982644 1.5733 1.54501C1.00064 2.10738 0.564875 2.78962 0.298613 3.54072C0.03235 4.29181 -0.0575213 5.0923 0.0357216 5.88232V24.5935C-0.0575213 25.3835 0.03235 26.184 0.298613 26.9351C0.564875 27.6862 1.00064 28.3684 1.5733 28.9308C2.14596 29.4932 2.8407 29.9211 3.60555 30.1826C4.37039 30.444 5.18555 30.5323 5.99003 30.4407H12.3413C12.6571 30.4407 12.96 30.3175 13.1834 30.0982C13.4067 29.8789 13.5321 29.5814 13.5321 29.2713C13.5321 28.9611 13.4067 28.6637 13.1834 28.4444C12.96 28.225 12.6571 28.1018 12.3413 28.1018ZM16.7078 5.88232V4.02836L22.1683 9.39067H20.2804C17.7764 9.39067 16.7078 8.34128 16.7078 5.88232ZM7.57784 14.0685C7.26201 14.0685 6.95911 14.1917 6.73578 14.411C6.51245 14.6303 6.38698 14.9278 6.38698 15.2379C6.38698 15.5481 6.51245 15.8455 6.73578 16.0648C6.95911 16.2841 7.26201 16.4074 7.57784 16.4074H18.6925C19.0084 16.4074 19.3113 16.2841 19.5346 16.0648C19.7579 15.8455 19.8834 15.5481 19.8834 15.2379C19.8834 14.9278 19.7579 14.6303 19.5346 14.411C19.3113 14.1917 19.0084 14.0685 18.6925 14.0685H7.57784ZM13.9291 20.3055H7.57784C7.26201 20.3055 6.95911 20.4287 6.73578 20.648C6.51245 20.8674 6.38698 21.1648 6.38698 21.475C6.38698 21.7851 6.51245 22.0826 6.73578 22.3019C6.95911 22.5212 7.26201 22.6444 7.57784 22.6444H13.9291C14.2449 22.6444 14.5478 22.5212 14.7712 22.3019C14.9945 22.0826 15.12 21.7851 15.12 21.475C15.12 21.1648 14.9945 20.8674 14.7712 20.648C14.5478 20.4287 14.2449 20.3055 13.9291 20.3055Z" fill="white"/>
</svg>
