<svg width="16" height="16" viewBox="0 0 16 16" fill="none" xmlns="http://www.w3.org/2000/svg">
<path d="M16 13.5999C16 13.705 15.9794 13.809 15.9392 13.9061C15.899 14.0032 15.84 14.0914 15.7657 14.1657C15.6915 14.24 15.6033 14.2989 15.5062 14.3391C15.4091 14.3793 15.3051 14.4 15.2 14.3999H7.85258C7.68956 14.8674 7.38515 15.2726 6.98153 15.5593C6.57792 15.846 6.0951 16 5.60002 16C5.10495 16 4.62213 15.846 4.21852 15.5593C3.8149 15.2726 3.51048 14.8674 3.34746 14.3999H0.8C0.587827 14.3999 0.384344 14.3157 0.234315 14.1656C0.0842854 14.0156 0 13.8121 0 13.5999C0 13.3878 0.0842854 13.1843 0.234315 13.0343C0.384344 12.8842 0.587827 12.7999 0.8 12.7999H3.34742C3.51046 12.3325 3.81488 11.9273 4.2185 11.6407C4.62212 11.354 5.10493 11.1999 5.6 11.1999C6.09507 11.1999 6.57788 11.354 6.9815 11.6407C7.38512 11.9273 7.68954 12.3325 7.85258 12.7999H15.2C15.3051 12.7999 15.4091 12.8206 15.5062 12.8608C15.6033 12.901 15.6915 12.9599 15.7657 13.0342C15.84 13.1085 15.899 13.1967 15.9392 13.2938C15.9794 13.3908 16 13.4949 16 13.5999ZM15.2 7.19997H13.4526C13.2895 6.73252 12.9851 6.32737 12.5815 6.04068C12.1779 5.75399 11.6951 5.59997 11.2 5.59997C10.7049 5.59997 10.2221 5.75399 9.8185 6.04068C9.41488 6.32737 9.11046 6.73252 8.94742 7.19997H0.8C0.587827 7.19997 0.384344 7.28426 0.234315 7.43429C0.0842854 7.58431 0 7.7878 0 7.99997C0 8.21214 0.0842854 8.41562 0.234315 8.56565C0.384344 8.71568 0.587827 8.79997 0.8 8.79997H8.94746C9.11048 9.26743 9.4149 9.6726 9.81852 9.9593C10.2221 10.246 10.7049 10.4 11.2 10.4C11.6951 10.4 12.1779 10.246 12.5815 9.9593C12.9851 9.6726 13.2896 9.26743 13.4526 8.79997H15.2C15.4122 8.79997 15.6157 8.71568 15.7657 8.56565C15.9157 8.41562 16 8.21214 16 7.99997C16 7.7878 15.9157 7.58431 15.7657 7.43429C15.6157 7.28426 15.4122 7.19997 15.2 7.19997ZM0.8 3.19999H4.94746C5.11048 3.66746 5.4149 4.07263 5.81852 4.35933C6.22213 4.64603 6.70495 4.80005 7.20002 4.80005C7.6951 4.80005 8.17792 4.64603 8.58153 4.35933C8.98515 4.07263 9.28956 3.66746 9.45258 3.19999H15.2C15.4122 3.19999 15.6157 3.11571 15.7657 2.96568C15.9157 2.81565 16 2.61217 16 2.4C16 2.18782 15.9157 1.98434 15.7657 1.83431C15.6157 1.68428 15.4122 1.6 15.2 1.6H9.45258C9.28955 1.13255 8.98512 0.727393 8.5815 0.440706C8.17788 0.154019 7.69507 0 7.2 0C6.70493 0 6.22212 0.154019 5.8185 0.440706C5.41488 0.727393 5.11046 1.13255 4.94742 1.6H0.8C0.587827 1.6 0.384344 1.68428 0.234315 1.83431C0.0842854 1.98434 0 2.18782 0 2.4C0 2.61217 0.0842854 2.81565 0.234315 2.96568C0.384344 3.11571 0.587827 3.19999 0.8 3.19999Z" fill="#72A9E9"/>
</svg>
