<svg width="12" height="11" viewBox="0 0 12 11" fill="none" xmlns="http://www.w3.org/2000/svg">
<path d="M0.214286 9.23914H11.7857C11.9041 9.23914 12 9.33507 12 9.45342V10.3106C12 10.4289 11.9041 10.5249 11.7857 10.5249H0.214286C0.0959387 10.5249 0 10.4289 0 10.3106V9.45342C0 9.33507 0.0959387 9.23914 0.214286 9.23914Z" fill="#004799"/>
<path d="M11.3486 3.22425L11.3036 1.48639C11.3023 1.45286 11.2932 1.42011 11.2769 1.39074C11.2607 1.36137 11.2378 1.33621 11.2101 1.31726C11.1824 1.29831 11.1507 1.28611 11.1175 1.28161C11.0842 1.27712 11.0504 1.28047 11.0186 1.29139L9.96864 1.66211C9.93719 1.6734 9.90881 1.69186 9.88574 1.71604C9.86268 1.74022 9.84557 1.76944 9.83578 1.80139L9.3815 3.26282C9.37079 3.29639 9.35244 3.32701 9.3279 3.3523C9.30336 3.37758 9.2733 3.39683 9.24007 3.40853L6.97935 4.16711C6.94491 4.17838 6.90825 4.18114 6.87251 4.17513C6.83677 4.16913 6.80302 4.15455 6.77415 4.13263C6.74528 4.11072 6.72216 4.08213 6.70677 4.04932C6.69138 4.01651 6.68418 3.98045 6.68578 3.94425L6.88078 0.224248C6.88253 0.188217 6.87514 0.152328 6.8593 0.119921C6.84345 0.0875139 6.81967 0.0596414 6.79016 0.0388972C6.76064 0.0181531 6.72636 0.00521126 6.69051 0.00127623C6.65465 -0.0026588 6.61838 0.0025408 6.58507 0.0163911L6.06221 0.23282C5.83305 0.328061 5.62724 0.471808 5.45893 0.654174C5.29062 0.836541 5.1638 1.0532 5.08721 1.28925L3.93864 4.79925C3.91034 4.8857 3.8617 4.9641 3.79682 5.02786C3.73194 5.09162 3.65271 5.13888 3.56578 5.16568L2.87364 5.37996C1.96507 5.60068 1.03935 6.58425 0.707211 7.36639C0.648114 7.4947 0.628778 7.63776 0.651692 7.77716C0.674606 7.91655 0.738722 8.04589 0.835782 8.14853C0.931629 8.25361 1.05654 8.32784 1.19465 8.3618C1.33276 8.39575 1.47785 8.3879 1.6115 8.33925L9.94721 5.3971C10.3886 5.24144 10.7657 4.94355 11.0194 4.55025C11.273 4.15695 11.3889 3.69052 11.3486 3.22425Z" fill="#004799"/>
</svg>
