<svg width="29" height="32" viewBox="0 0 29 32" fill="none" xmlns="http://www.w3.org/2000/svg">
<path d="M4.92308 6.15385C4.92308 5.47446 5.47446 4.92308 6.15385 4.92308H19.2821C19.9614 4.92308 20.5128 5.47446 20.5128 6.15385C20.5128 6.83323 19.9614 7.38462 19.2821 7.38462H6.15385C5.47446 7.38462 4.92308 6.83323 4.92308 6.15385ZM7.79487 14.7692H6.15385C5.47446 14.7692 4.92308 15.3206 4.92308 16C4.92308 16.6794 5.47446 17.2308 6.15385 17.2308H7.79487C8.47426 17.2308 9.02564 16.6794 9.02564 16C9.02564 15.3206 8.47426 14.7692 7.79487 14.7692ZM6.15385 12.3077H12.7179C13.3973 12.3077 13.9487 11.7563 13.9487 11.0769C13.9487 10.3975 13.3973 9.84615 12.7179 9.84615H6.15385C5.47446 9.84615 4.92308 10.3975 4.92308 11.0769C4.92308 11.7563 5.47446 12.3077 6.15385 12.3077ZM22.4903 21.3333H20.5128V19.2246C20.5128 18.5452 19.9614 17.9938 19.2821 17.9938C18.6027 17.9938 18.0513 18.5452 18.0513 19.2246V22.5641C18.0513 23.2435 18.6027 23.7949 19.2821 23.7949H22.4903C23.1696 23.7949 23.721 23.2435 23.721 22.5641C23.721 21.8847 23.1696 21.3333 22.4903 21.3333ZM28.7179 22.5641C28.7179 27.7662 24.4857 32 19.2821 32C17.3145 32 15.4864 31.3928 13.9733 30.359H4.51282C2.02338 30.359 0 28.3356 0 25.8462V4.51282C0 2.02338 2.02338 0 4.51282 0H20.9231C23.4125 0 25.4359 2.02338 25.4359 4.51282V15.4273C27.4412 17.1586 28.7179 19.7136 28.7179 22.5641ZM4.51282 27.8974H11.5052C10.4599 26.3795 9.84615 24.5432 9.84615 22.5641C9.84615 17.3621 14.0784 13.1282 19.2821 13.1282C20.5916 13.1282 21.8404 13.3973 22.9744 13.8814V4.51282C22.9744 3.38215 22.0537 2.46154 20.9231 2.46154H4.51282C3.38215 2.46154 2.46154 3.38215 2.46154 4.51282V25.8462C2.46154 26.9768 3.38215 27.8974 4.51282 27.8974ZM26.2564 22.5641C26.2564 18.7192 23.1286 15.5897 19.2821 15.5897C15.4355 15.5897 12.3077 18.7192 12.3077 22.5641C12.3077 26.409 15.4355 29.5385 19.2821 29.5385C23.1286 29.5385 26.2564 26.409 26.2564 22.5641Z" fill="white"/>
</svg>
