<svg width="24" height="24" viewBox="0 0 24 24" fill="none" xmlns="http://www.w3.org/2000/svg">
<path d="M13.4531 0C13.0648 0 12.75 0.314812 12.75 0.703125V10.5938C12.75 10.9821 13.0648 11.2969 13.4531 11.2969H23.2969C23.6852 11.2969 24 10.9821 24 10.5938C24 4.77539 19.2784 0 13.4531 0ZM14.1562 9.89062V1.43316C18.6382 1.77745 22.2264 5.38514 22.5673 9.89062H14.1562Z" fill="white"/>
<path d="M14.7559 22.4248L11.3438 13.2794V3.5625C11.3438 3.17419 11.0289 2.85938 10.6406 2.85938C4.85044 2.85938 0 7.55377 0 13.4062C0 19.215 4.80342 24 10.6406 24C11.9145 24 13.1608 23.7742 14.3447 23.3287C14.7075 23.1922 14.8914 22.7879 14.7559 22.4248ZM10.6406 22.5938C5.54878 22.5938 1.40625 18.4723 1.40625 13.4062C1.40625 8.6002 5.17284 4.64855 9.9375 4.29187V13.4062C9.9375 13.4902 9.9525 13.5734 9.98184 13.6521L13.1838 22.2341C12.3609 22.473 11.5084 22.5938 10.6406 22.5938Z" fill="white"/>
<path d="M23.2969 12.7031H13.4531C13.2227 12.7031 13.0069 12.816 12.8756 13.0053C12.7441 13.1946 12.7138 13.4362 12.7944 13.6521L16.2509 22.9164C16.3874 23.2821 16.7947 23.4651 17.1573 23.3287C21.2501 21.7889 24 17.8013 24 13.4063C24 13.0179 23.6852 12.7031 23.2969 12.7031ZM17.3122 21.7383L14.4659 14.1047H22.5666C22.3123 17.3994 20.2879 20.3433 17.3122 21.7383Z" fill="white"/>
</svg>
