<svg width="32" height="32" viewBox="0 0 32 32" fill="none" xmlns="http://www.w3.org/2000/svg">
<path d="M6.45614 25.8246H2.52632C1.13322 25.8246 0 24.6913 0 23.2983V5.33334C0 3.94024 1.13322 2.80702 2.52632 2.80702H6.45614C6.92132 2.80702 7.29825 3.18394 7.29825 3.64913C7.29825 4.11431 6.92132 4.49123 6.45614 4.49123H2.52632C2.06195 4.49123 1.68421 4.86897 1.68421 5.33334V23.2983C1.68421 23.7626 2.06195 24.1404 2.52632 24.1404H6.45614C6.92132 24.1404 7.29825 24.5173 7.29825 24.9825C7.29825 25.4476 6.92132 25.8246 6.45614 25.8246Z" fill="white"/>
<path d="M27.7896 16.4246C27.3245 16.4246 26.9475 16.0477 26.9475 15.5825V5.33334C26.9475 4.86897 26.5698 4.49123 26.1054 4.49123H22.1756C21.7104 4.49123 21.3335 4.11431 21.3335 3.64913C21.3335 3.18394 21.7104 2.80702 22.1756 2.80702H26.1054C27.4985 2.80702 28.6317 3.94024 28.6317 5.33334V15.5825C28.6317 16.0477 28.2548 16.4246 27.7896 16.4246Z" fill="white"/>
<path d="M14.8774 28.6316H8.14057C6.74748 28.6316 5.61426 27.4984 5.61426 26.1053V2.52632C5.61426 1.13322 6.74748 0 8.14057 0H20.4915C21.8845 0 23.0178 1.13322 23.0178 2.52632V15.0715C23.0178 15.5367 22.6408 15.9137 22.1757 15.9137C21.7105 15.9137 21.3336 15.5367 21.3336 15.0715V2.52632C21.3336 2.06195 20.9558 1.68421 20.4915 1.68421H8.14057C7.67621 1.68421 7.29847 2.06195 7.29847 2.52632V26.1053C7.29847 26.5696 7.67621 26.9474 8.14057 26.9474H14.8774C15.3426 26.9474 15.7195 27.3243 15.7195 27.7895C15.7195 28.2547 15.3426 28.6316 14.8774 28.6316Z" fill="white"/>
<path d="M13.25 22.9C12.2145 22.9 11.2712 22.2651 10.9023 21.3198C10.6943 20.7873 10.9408 20.1799 11.4525 19.9633C11.9629 19.746 12.5472 20.0026 12.7552 20.5361C12.819 20.6992 13.027 20.8175 13.25 20.8175C13.6566 20.8175 14 20.5436 14 20.2195V20.1392C14 19.8077 13.3151 19.5704 13.0791 19.526C12.1253 19.3606 10.5 18.6112 10.5 16.8608V16.7805C10.5 15.3026 11.7337 14.1 13.25 14.1C14.2855 14.1 15.2288 14.7349 15.5977 15.6802C15.8057 16.2127 15.5592 16.8201 15.0475 17.0367C14.5368 17.2533 13.9525 16.9971 13.7448 16.4639C13.681 16.3009 13.473 16.1826 13.25 16.1826C12.8434 16.1826 12.5 16.4564 12.5 16.7805V16.8608C12.5 17.1923 13.1849 17.4296 13.4209 17.474C14.3747 17.6394 16 18.3888 16 20.1392V20.2195C16 21.6974 14.7663 22.9 13.25 22.9Z" fill="white"/>
<path d="M13.2502 16.3C12.9464 16.3 12.7002 15.8708 12.7002 15.341V13.959C12.7002 13.4292 12.9464 13 13.2502 13C13.554 13 13.8002 13.4292 13.8002 13.959V15.341C13.8002 15.8708 13.554 16.3 13.2502 16.3Z" fill="white"/>
<path d="M13.2502 24C12.9464 24 12.7002 23.5708 12.7002 23.041V21.659C12.7002 21.1292 12.9464 20.7 13.2502 20.7C13.554 20.7 13.8002 21.1292 13.8002 21.659V23.041C13.8002 23.5708 13.554 24 13.2502 24Z" fill="white"/>
<path d="M12.5 6C12.5 5.44759 13.1504 5 13.953 5L16.047 5C16.8496 5 17.5 5.44759 17.5 6C17.5 6.55241 16.8496 7 16.047 7L13.953 7C13.1504 7 12.5 6.55241 12.5 6Z" fill="white"/>
<path d="M12.5 10C12.5 9.44759 13.1504 9 13.953 9L16.047 9C16.8496 9 17.5 9.44759 17.5 10C17.5 10.5524 16.8496 11 16.047 11L13.953 11C13.1504 11 12.5 10.5524 12.5 10Z" fill="white"/>
<path d="M24.4212 32C20.2422 32 16.8423 28.6001 16.8423 24.421C16.8423 20.242 20.2422 16.8421 24.4212 16.8421C28.6002 16.8421 32.0002 20.242 32.0002 24.421C32.0002 28.6001 28.6002 32 24.4212 32ZM24.4212 18.5263C21.171 18.5263 18.5265 21.1708 18.5265 24.421C18.5265 27.6713 21.171 30.3158 24.4212 30.3158C27.6715 30.3158 30.316 27.6713 30.316 24.421C30.316 21.1708 27.6715 18.5263 24.4212 18.5263Z" fill="white"/>
<path d="M21.6141 28.0702C21.3986 28.0702 21.1832 27.9879 21.0187 27.8235C20.6897 27.4948 20.6897 26.9613 21.0187 26.6327L26.6327 21.0186C26.9617 20.6897 27.4946 20.6897 27.8235 21.0186C28.1525 21.3473 28.1525 21.8808 27.8235 22.2094L22.2095 27.8235C22.045 27.9879 21.8295 28.0702 21.6141 28.0702Z" fill="white"/>
<path d="M27.2281 28.0702C27.0127 28.0702 26.7972 27.9879 26.6327 27.8235L21.0187 22.2094C20.6897 21.8808 20.6897 21.3473 21.0187 21.0186C21.3476 20.6897 21.8805 20.6897 22.2095 21.0186L27.8235 26.6327C28.1525 26.9613 28.1525 27.4948 27.8235 27.8235C27.659 27.9879 27.4436 28.0702 27.2281 28.0702Z" fill="white"/>
</svg>
