<svg width="32" height="32" viewBox="0 0 32 32" fill="none" xmlns="http://www.w3.org/2000/svg">
<path d="M6.35526 25.421H2.48684C1.11551 25.421 0 24.3055 0 22.9342V5.24999C0 3.87867 1.11551 2.76315 2.48684 2.76315H6.35526C6.81318 2.76315 7.18421 3.13418 7.18421 3.5921C7.18421 4.05002 6.81318 4.42105 6.35526 4.42105H2.48684C2.02973 4.42105 1.65789 4.79289 1.65789 5.24999V22.9342C1.65789 23.3913 2.02973 23.7632 2.48684 23.7632H6.35526C6.81318 23.7632 7.18421 24.1342 7.18421 24.5921C7.18421 25.05 6.81318 25.421 6.35526 25.421Z" fill="white"/>
<path d="M27.3553 16.1211C26.8973 16.1211 26.5263 15.7501 26.5263 15.2922V5.24999C26.5263 4.79289 26.1545 4.42105 25.6974 4.42105H21.8289C21.371 4.42105 21 4.05002 21 3.5921C21 3.13418 21.371 2.76315 21.8289 2.76315H25.6974C27.0687 2.76315 28.1842 3.87867 28.1842 5.24999V15.2922C28.1842 15.7501 27.8132 16.1211 27.3553 16.1211Z" fill="white"/>
<path d="M14.6448 28.1842H8.01321C6.64188 28.1842 5.52637 27.0687 5.52637 25.6974V2.48684C5.52637 1.11551 6.64188 0 8.01321 0H20.1711C21.5424 0 22.6579 1.11551 22.6579 2.48684V14.7892C22.6579 15.2471 22.2869 15.6181 21.829 15.6181C21.3711 15.6181 21.0001 15.2471 21.0001 14.7892V2.48684C21.0001 2.02973 20.6282 1.65789 20.1711 1.65789H8.01321C7.5561 1.65789 7.18426 2.02973 7.18426 2.48684V25.6974C7.18426 26.1545 7.5561 26.5263 8.01321 26.5263H14.6448C15.1027 26.5263 15.4737 26.8973 15.4737 27.3553C15.4737 27.8132 15.1027 28.1842 14.6448 28.1842Z" fill="white"/>
<path d="M13.25 21.65C12.2145 21.65 11.2712 21.0151 10.9023 20.0698C10.6943 19.5373 10.9408 18.9299 11.4525 18.7133C11.9629 18.496 12.5472 18.7526 12.7552 19.2861C12.819 19.4492 13.027 19.5675 13.25 19.5675C13.6566 19.5675 14 19.2936 14 18.9695V18.8892C14 18.5577 13.3151 18.3204 13.0791 18.276C12.1253 18.1106 10.5 17.3612 10.5 15.6108V15.5305C10.5 14.0526 11.7337 12.85 13.25 12.85C14.2855 12.85 15.2288 13.4849 15.5977 14.4302C15.8057 14.9627 15.5592 15.5701 15.0475 15.7867C14.5368 16.0033 13.9525 15.7471 13.7448 15.2139C13.681 15.0509 13.473 14.9326 13.25 14.9326C12.8434 14.9326 12.5 15.2064 12.5 15.5305V15.6108C12.5 15.9423 13.1849 16.1796 13.4209 16.224C14.3747 16.3894 16 17.1388 16 18.8892V18.9695C16 20.4474 14.7663 21.65 13.25 21.65Z" fill="white"/>
<path d="M13.2502 15.05C12.9464 15.05 12.7002 14.6208 12.7002 14.091V12.709C12.7002 12.1792 12.9464 11.75 13.2502 11.75C13.554 11.75 13.8002 12.1792 13.8002 12.709V14.091C13.8002 14.6208 13.554 15.05 13.2502 15.05Z" fill="white"/>
<path d="M13.2502 22.75C12.9464 22.75 12.7002 22.3208 12.7002 21.791V20.409C12.7002 19.8792 12.9464 19.45 13.2502 19.45C13.554 19.45 13.8002 19.8792 13.8002 20.409V21.791C13.8002 22.3208 13.554 22.75 13.2502 22.75Z" fill="white"/>
<path d="M11.5 4.75C11.5 4.19759 12.1504 3.75 12.953 3.75L15.047 3.75C15.8496 3.75 16.5 4.19759 16.5 4.75C16.5 5.30241 15.8496 5.75 15.047 5.75L12.953 5.75C12.1504 5.75 11.5 5.30241 11.5 4.75Z" fill="white"/>
<path d="M11.5 8.75C11.5 8.19759 12.1504 7.75 12.953 7.75L15.047 7.75C15.8496 7.75 16.5 8.19759 16.5 8.75C16.5 9.30241 15.8496 9.75 15.047 9.75L12.953 9.75C12.1504 9.75 11.5 9.30241 11.5 8.75Z" fill="white"/>
<path d="M24.0396 31.5C19.9259 31.5 16.5791 28.1532 16.5791 24.0395C16.5791 19.9258 19.9259 16.5789 24.0396 16.5789C28.1533 16.5789 31.5002 19.9258 31.5002 24.0395C31.5002 28.1532 28.1533 31.5 24.0396 31.5ZM24.0396 18.2368C20.8401 18.2368 18.237 20.84 18.237 24.0395C18.237 27.239 20.8401 29.8421 24.0396 29.8421C27.2391 29.8421 29.8423 27.239 29.8423 24.0395C29.8423 20.84 27.2391 18.2368 24.0396 18.2368Z" fill="white"/>
<path d="M23.0721 27.0792C22.8522 27.0792 22.6415 26.9918 22.486 26.8364L19.9992 24.3495C19.6754 24.026 19.6754 23.5009 19.9992 23.1773C20.323 22.8535 20.8476 22.8535 21.1714 23.1773L23.0721 25.0778L26.9071 21.2426C27.2304 20.9188 27.7555 20.9188 28.0793 21.2426C28.4031 21.5661 28.4031 22.091 28.0793 22.4148L23.6582 26.8364C23.5028 26.9918 23.2921 27.0792 23.0721 27.0792Z" fill="white"/>
</svg>
