<svg width="24" height="24" viewBox="0 0 24 24" fill="none" xmlns="http://www.w3.org/2000/svg">
<path d="M19.1644 7.42087C19.9091 7.79287 20.43 8.47537 20.5935 9.29174L20.6396 9.52199C20.7101 9.87262 21.0176 10.1246 21.375 10.1246C21.7324 10.1246 22.0399 9.87224 22.1104 9.52199L22.1565 9.29174C22.32 8.47499 22.8405 7.79287 23.5856 7.42087C23.8399 7.29374 24 7.03424 24 6.74999C24 6.46574 23.8395 6.20624 23.5856 6.07912C22.8409 5.70712 22.32 5.02462 22.1565 4.20824L22.1104 3.97799C22.0399 3.62737 21.7324 3.37537 21.375 3.37537C21.0176 3.37537 20.7101 3.62774 20.6396 3.97799L20.5935 4.20824C20.43 5.02499 19.9095 5.70712 19.1644 6.07912C18.9101 6.20624 18.75 6.46574 18.75 6.74999C18.75 7.03424 18.9105 7.29374 19.1644 7.42087ZM21.375 6.10574C21.5404 6.33937 21.7301 6.55462 21.9416 6.74999C21.7305 6.94499 21.5408 7.16062 21.375 7.39424C21.2096 7.16062 21.0199 6.94537 20.8084 6.74999C21.0195 6.55499 21.2092 6.33937 21.375 6.10574Z" fill="#004799"/>
<path d="M17.25 10.5V3C17.25 1.34588 15.9041 0 14.25 0H3C1.34588 0 0 1.34588 0 3V19.5C0 21.1541 1.34588 22.5 3 22.5H13.017C14.1758 23.4364 15.6476 24 17.25 24C20.9719 24 24 20.9719 24 17.25C24 13.5281 20.9719 10.5 17.25 10.5ZM1.5 19.5V3C1.5 2.17275 2.17275 1.5 3 1.5H14.25C15.0773 1.5 15.75 2.17275 15.75 3V10.674C12.7485 11.3588 10.5 14.0445 10.5 17.25C10.5 18.6367 10.9215 19.9268 11.6415 21H3C2.17275 21 1.5 20.3272 1.5 19.5ZM17.25 22.5C14.355 22.5 12 20.145 12 17.25C12 14.355 14.355 12 17.25 12C20.145 12 22.5 14.355 22.5 17.25C22.5 20.145 20.145 22.5 17.25 22.5Z" fill="#004799"/>
<path d="M17.0625 15.375H18.75C19.164 15.375 19.5 15.039 19.5 14.625C19.5 14.211 19.164 13.875 18.75 13.875H18C18 13.461 17.664 13.125 17.25 13.125C16.836 13.125 16.5 13.461 16.5 13.875V13.9549C15.6356 14.2005 15 14.9955 15 15.9375C15 17.0745 15.9255 18 17.0625 18H17.4375C17.7476 18 18 18.2524 18 18.5625C18 18.8726 17.7476 19.125 17.4375 19.125H15.75C15.336 19.125 15 19.461 15 19.875C15 20.289 15.336 20.625 15.75 20.625H16.5C16.5 21.039 16.836 21.375 17.25 21.375C17.664 21.375 18 21.039 18 20.625V20.5451C18.8644 20.2995 19.5 19.5045 19.5 18.5625C19.5 17.4255 18.5745 16.5 17.4375 16.5H17.0625C16.7524 16.5 16.5 16.2476 16.5 15.9375C16.5 15.6274 16.7524 15.375 17.0625 15.375Z" fill="#004799"/>
<path d="M3.75 9.75H13.5C13.914 9.75 14.25 9.414 14.25 9V3.75C14.25 3.336 13.914 3 13.5 3H3.75C3.336 3 3 3.336 3 3.75V9C3 9.414 3.336 9.75 3.75 9.75ZM4.5 4.5H12.75V8.25H4.5V4.5Z" fill="#004799"/>
<path d="M5.25 11.25H3.75C3.336 11.25 3 11.586 3 12C3 12.414 3.336 12.75 3.75 12.75H5.25C5.664 12.75 6 12.414 6 12C6 11.586 5.664 11.25 5.25 11.25Z" fill="#004799"/>
<path d="M9.375 11.25H7.875C7.461 11.25 7.125 11.586 7.125 12C7.125 12.414 7.461 12.75 7.875 12.75H9.375C9.789 12.75 10.125 12.414 10.125 12C10.125 11.586 9.789 11.25 9.375 11.25Z" fill="#004799"/>
<path d="M5.25 14.25H3.75C3.336 14.25 3 14.586 3 15C3 15.414 3.336 15.75 3.75 15.75H5.25C5.664 15.75 6 15.414 6 15C6 14.586 5.664 14.25 5.25 14.25Z" fill="#004799"/>
<path d="M9 14.25H7.875C7.461 14.25 7.125 14.586 7.125 15C7.125 15.414 7.461 15.75 7.875 15.75H9C9.414 15.75 9.75 15.414 9.75 15C9.75 14.586 9.414 14.25 9 14.25Z" fill="#004799"/>
<path d="M5.25 17.25H3.75C3.336 17.25 3 17.586 3 18C3 18.414 3.336 18.75 3.75 18.75H5.25C5.664 18.75 6 18.414 6 18C6 17.586 5.664 17.25 5.25 17.25Z" fill="#004799"/>
<path d="M8.625 17.25H7.875C7.461 17.25 7.125 17.586 7.125 18C7.125 18.414 7.461 18.75 7.875 18.75H8.625C9.039 18.75 9.375 18.414 9.375 18C9.375 17.586 9.039 17.25 8.625 17.25Z" fill="#004799"/>
<path d="M6.3781 5.62051H6.37435C5.96035 5.62051 5.62622 5.95651 5.62622 6.37051C5.62622 6.78451 5.96372 7.12051 6.3781 7.12051C6.79247 7.12051 7.1281 6.78451 7.1281 6.37051C7.1281 5.95651 6.79247 5.62051 6.3781 5.62051Z" fill="#004799"/>
<path d="M9.00749 5.625H9.00374C8.58974 5.625 8.25562 5.961 8.25562 6.375C8.25562 6.789 8.59312 7.125 9.00749 7.125C9.42187 7.125 9.75749 6.789 9.75749 6.375C9.75749 5.961 9.42187 5.625 9.00749 5.625Z" fill="#004799"/>
</svg>
