<svg width="32" height="32" viewBox="0 0 32 32" fill="none" xmlns="http://www.w3.org/2000/svg">
<path d="M26.6665 16V19.2H29.8665V16H26.6665ZM28.7998 18.1333H27.7332V17.0667H28.7998V18.1333Z" fill="white"/>
<path d="M9.6001 2.13333H22.4001V3.2H9.6001V2.13333Z" fill="white"/>
<path d="M16 4.26666H22.4V5.33333H16V4.26666Z" fill="white"/>
<path d="M9.6001 4.26666H14.9334V5.33333H9.6001V4.26666Z" fill="white"/>
<path d="M9.6001 6.39999H22.4001V7.46666H9.6001V6.39999Z" fill="white"/>
<path d="M32 8.53333H24.5333V1.6C24.5333 0.716406 23.8169 0 22.9333 0H7.77917L0 7.77917V30.4C0 31.2836 0.716406 32 1.6 32H22.9333C23.8169 32 24.5333 31.2836 24.5333 30.4V29.8667H32V8.53333ZM7.46667 1.82083V6.93333C7.46667 7.22787 7.22787 7.46667 6.93333 7.46667H1.82083L7.46667 1.82083ZM23.4667 30.4C23.4667 30.6945 23.2279 30.9333 22.9333 30.9333H1.6C1.30547 30.9333 1.06667 30.6945 1.06667 30.4V8.53333H6.93333C7.81693 8.53333 8.53333 7.81693 8.53333 6.93333V1.06667H22.9333C23.2279 1.06667 23.4667 1.30547 23.4667 1.6V8.53333H16V29.8667H23.4667V30.4ZM30.9333 28.8H17.0667V9.6H30.9333V28.8Z" fill="white"/>
<path d="M29.8666 10.6667H18.1333V14.9333H29.8666V10.6667ZM28.8 13.8667H19.2V11.7333H28.8V13.8667Z" fill="white"/>
<path d="M21.3333 16H18.1333V19.2H21.3333V16ZM20.2666 18.1333H19.2V17.0667H20.2666V18.1333Z" fill="white"/>
<path d="M22.3999 19.2H25.5999V16H22.3999V19.2ZM23.4666 17.0667H24.5332V18.1333H23.4666V17.0667Z" fill="white"/>
<path d="M21.3333 20.2667H18.1333V23.4667H21.3333V20.2667ZM20.2666 22.4H19.2V21.3333H20.2666V22.4Z" fill="white"/>
<path d="M22.3999 23.4667H25.5999V20.2667H22.3999V23.4667ZM23.4666 21.3333H24.5332V22.4H23.4666V21.3333Z" fill="white"/>
<path d="M26.6665 27.7333H29.8665V20.2667H26.6665V27.7333ZM27.7332 21.3333H28.7998V26.6667H27.7332V21.3333Z" fill="white"/>
<path d="M21.3333 24.5333H18.1333V27.7333H21.3333V24.5333ZM20.2666 26.6667H19.2V25.6H20.2666V26.6667Z" fill="white"/>
<path d="M22.3999 27.7333H25.5999V24.5333H22.3999V27.7333ZM23.4666 25.6H24.5332V26.6667H23.4666V25.6Z" fill="white"/>
<path d="M10.1334 14.4H11.2C11.2 13.3695 10.2821 12.5083 9.0667 12.3099V11.7333H8.00003V12.3099C6.78467 12.5083 5.8667 13.3695 5.8667 14.4C5.8667 15.4305 6.78467 16.2917 8.00003 16.4901V18.599C7.38675 18.4479 6.93337 18.0539 6.93337 17.6H5.8667C5.8667 18.6305 6.78467 19.4917 8.00003 19.6901V20.2667H9.0667V19.6901C10.2821 19.4917 11.2 18.6305 11.2 17.6C11.2 16.5695 10.2821 15.7083 9.0667 15.5099V13.401C9.67998 13.5521 10.1334 13.9461 10.1334 14.4ZM6.93337 14.4C6.93337 13.9461 7.38675 13.5521 8.00003 13.401V15.399C7.38675 15.2479 6.93337 14.8539 6.93337 14.4ZM10.1334 17.6C10.1334 18.0539 9.67998 18.4479 9.0667 18.599V16.601C9.67998 16.7521 10.1334 17.1461 10.1334 17.6Z" fill="white"/>
<path d="M8.5333 9.60001C4.99867 9.60001 2.1333 12.4654 2.1333 16C2.1333 19.5346 4.99867 22.4 8.5333 22.4C12.0679 22.4 14.9333 19.5346 14.9333 16C14.9294 12.4669 12.0664 9.60391 8.5333 9.60001ZM8.5333 21.3333C5.58773 21.3333 3.19997 18.9456 3.19997 16C3.19997 13.0544 5.58773 10.6667 8.5333 10.6667C11.4789 10.6667 13.8666 13.0544 13.8666 16C13.8635 18.9443 11.4776 21.3302 8.5333 21.3333Z" fill="white"/>
<path d="M2.1333 23.4667H14.9333V24.5333H2.1333V23.4667Z" fill="white"/>
<path d="M8.5332 25.6H14.9332V26.6667H8.5332V25.6Z" fill="white"/>
<path d="M2.1333 25.6H7.46663V26.6667H2.1333V25.6Z" fill="white"/>
<path d="M2.1333 27.7333H14.9333V28.8H2.1333V27.7333Z" fill="white"/>
<path d="M4.2666 15.4667H4.79993V16.5333H4.2666V15.4667Z" fill="white"/>
<path d="M12.2666 15.4667H12.7999V16.5333H12.2666V15.4667Z" fill="white"/>
</svg>
