<svg width="32" height="32" viewBox="0 0 32 32" fill="none" xmlns="http://www.w3.org/2000/svg">
<g clip-path="url(#clip0_702_1315)">
<path d="M1.73213 12.6788C1.84301 12.7254 1.96045 12.7487 2.07788 12.7487C2.19936 12.7487 2.3209 12.7237 2.43503 12.674L5.18216 11.4765C5.64945 11.2728 5.8684 10.7165 5.67112 10.2339C5.47391 9.75126 4.93535 9.52507 4.46787 9.72881L3.79583 10.0217C5.88089 5.12009 10.5982 1.89701 15.8473 1.89701C21.8488 1.89701 27.0896 6.08801 28.5921 12.0887C28.6991 12.5163 29.072 12.8001 29.4806 12.8C29.5567 12.8 29.6341 12.7901 29.7112 12.7696C30.2023 12.6384 30.4975 12.121 30.3705 11.6138C28.6584 4.77578 22.6861 0 15.8473 0C9.83219 0 4.43015 3.71453 2.07482 9.35314L1.76476 8.59433C1.56761 8.11173 1.02904 7.88561 0.561567 8.08922C0.0942123 8.2929 -0.12474 8.84929 0.0725375 9.33189L1.23183 12.1689C1.32643 12.4007 1.50644 12.5841 1.73213 12.6788Z" fill="white"/>
<path d="M31.9271 22.5795L30.7678 19.7734C30.6731 19.5441 30.4932 19.3627 30.2675 19.269C30.0419 19.1754 29.789 19.1771 29.5646 19.2739L26.8174 20.4583C26.3501 20.6597 26.1311 21.2101 26.3284 21.6874C26.5257 22.1648 27.0643 22.3885 27.5317 22.187L28.3008 21.8553C26.2681 26.8337 21.4846 30.1236 16.1523 30.1236C10.1508 30.1236 4.90993 25.9782 3.40745 20.0429C3.28053 19.5412 2.77925 19.2399 2.28838 19.3694C1.79727 19.4991 1.50209 20.011 1.62908 20.5126C3.3412 27.2762 9.3134 32 16.1523 32C22.2013 32 27.6303 28.2843 29.9642 22.6541L30.2348 23.3091C30.3828 23.6675 30.7231 23.8828 31.0813 23.8828C31.2004 23.8828 31.3214 23.859 31.438 23.8087C31.9054 23.6072 32.1243 23.0569 31.9271 22.5795Z" fill="white"/>
<path d="M26.3996 16C26.3996 14.4952 25.2181 13.2611 23.7341 13.1768C23.6537 12.9565 23.5638 12.7398 23.4649 12.5273C24.4546 11.4182 24.4176 9.71005 23.3535 8.64604C22.8209 8.11341 22.1108 7.82008 21.354 7.82008C20.6517 7.82008 19.9896 8.07269 19.4722 8.53469C19.2598 8.43578 19.0431 8.34598 18.8228 8.26561C18.7385 6.78152 17.5044 5.60001 15.9996 5.60001C14.4948 5.60001 13.2607 6.78158 13.1764 8.26561C12.9561 8.34598 12.7395 8.43578 12.5269 8.53469C12.0096 8.07263 11.3475 7.82008 10.6452 7.82008C9.88846 7.82008 9.1783 8.11341 8.64567 8.64604C7.58159 9.71011 7.54452 11.4182 8.53431 12.5273C8.43534 12.7398 8.34548 12.9566 8.26517 13.1768C6.78107 13.2611 5.59961 14.4952 5.59961 16C5.59961 17.5048 6.78113 18.7389 8.26517 18.8232C8.34554 19.0435 8.43534 19.2602 8.53425 19.4727C7.54458 20.5817 7.58165 22.2898 8.64567 23.3539C9.1783 23.8865 9.88839 24.1799 10.6452 24.1799C11.3475 24.1799 12.0096 23.9273 12.5269 23.4653C12.7395 23.5642 12.9562 23.654 13.1764 23.7344C13.2607 25.2185 14.4948 26.4 15.9996 26.4C17.5044 26.4 18.7385 25.2184 18.8228 23.7344C19.0431 23.654 19.2598 23.5642 19.4723 23.4653C19.9896 23.9274 20.6517 24.1799 21.354 24.1799C22.1108 24.1799 22.8209 23.8866 23.3536 23.3539C24.4176 22.2898 24.4547 20.5818 23.4649 19.4727C23.5639 19.2602 23.6537 19.0435 23.7341 18.8233C25.2182 18.7389 26.3996 17.5048 26.3996 16ZM23.0424 16.9426C22.6155 16.9426 22.2418 17.2296 22.1318 17.6421C21.9886 18.1784 21.7749 18.6939 21.4967 19.1745C21.2827 19.544 21.3439 20.0114 21.646 20.3133L22.0205 20.6878C22.3881 21.0553 22.3881 21.6533 22.0205 22.0208C21.8439 22.1974 21.6072 22.2946 21.354 22.2946C21.1007 22.2946 20.864 22.1974 20.6875 22.0208L20.3129 21.6462C20.0109 21.3443 19.5437 21.283 19.1741 21.497C18.6938 21.7751 18.1782 21.9887 17.6416 22.132C17.2292 22.2421 16.9422 22.6157 16.9422 23.0427V23.5721C16.9422 24.0918 16.5194 24.5147 15.9996 24.5147C15.4799 24.5147 15.057 24.0918 15.057 23.5721V23.0427C15.057 22.6157 14.7701 22.2421 14.3575 22.132C13.8214 21.9888 13.3058 21.7751 12.825 21.4969C12.6777 21.4116 12.5148 21.37 12.3531 21.37C12.1092 21.37 11.8679 21.4646 11.6863 21.6462L11.3117 22.0207C11.1351 22.1973 10.8984 22.2945 10.6452 22.2945C10.3919 22.2945 10.1552 22.1973 9.9787 22.0207C9.61121 21.6531 9.61121 21.0552 9.9787 20.6877L10.3532 20.3131C10.6552 20.0112 10.7164 19.5439 10.5025 19.1744C10.2244 18.6941 10.0107 18.1785 9.86747 17.6418C9.75731 17.2293 9.38372 16.9424 8.95679 16.9424H8.42742C7.90767 16.9424 7.48482 16.5196 7.48482 15.9998C7.48482 15.4801 7.90767 15.0572 8.42742 15.0572H8.95679C9.38372 15.0572 9.75737 14.7702 9.86747 14.3577C10.0106 13.8215 10.2243 13.3059 10.5025 12.8253C10.7165 12.4558 10.6553 11.9884 10.3532 11.6865L9.9787 11.312C9.61114 10.9445 9.61114 10.3465 9.9787 9.979C10.1553 9.80242 10.392 9.70521 10.6452 9.70521C10.8985 9.70521 11.1352 9.80242 11.3117 9.979L11.6863 10.3536C11.9883 10.6556 12.4555 10.7169 12.8251 10.5028C13.3053 10.2249 13.8209 10.0112 14.3577 9.86784C14.7701 9.75768 15.057 9.3841 15.057 8.95716V8.42774C15.057 7.90799 15.4799 7.48514 15.9996 7.48514C16.5194 7.48514 16.9422 7.90799 16.9422 8.42774V8.95716C16.9422 9.38403 17.2291 9.75768 17.6416 9.86784C18.1782 10.0112 18.6938 10.2248 19.1742 10.5029C19.5438 10.7169 20.0109 10.6556 20.3129 10.3537L20.6875 9.97907C20.8641 9.80249 21.1007 9.70527 21.354 9.70527C21.6072 9.70527 21.8439 9.80249 22.0205 9.97907C22.3881 10.3466 22.3881 10.9446 22.0206 11.312L21.646 11.6866C21.3439 11.9886 21.2827 12.4558 21.4967 12.8255C21.7748 13.3057 21.9885 13.8213 22.1318 14.358C22.2419 14.7704 22.6155 15.0573 23.0424 15.0573H23.5718C24.0915 15.0573 24.5144 15.4802 24.5144 15.9999C24.5144 16.5197 24.0915 16.9425 23.5718 16.9425H23.0424V16.9426Z" fill="white"/>
<path d="M15.9996 13.6C14.6762 13.6 13.5996 14.6766 13.5996 16C13.5996 17.3234 14.6762 18.4 15.9996 18.4C17.323 18.4 18.3996 17.3234 18.3996 16C18.3996 14.6766 17.323 13.6 15.9996 13.6ZM15.9996 16.8C15.5585 16.8 15.1996 16.4411 15.1996 16C15.1996 15.5589 15.5585 15.2 15.9996 15.2C16.4407 15.2 16.7996 15.5589 16.7996 16C16.7996 16.4411 16.4407 16.8 15.9996 16.8Z" fill="white"/>
</g>
<defs>
<clipPath id="clip0_702_1315">
<rect width="32" height="32" fill="white" transform="matrix(-1 0 0 1 32 0)"/>
</clipPath>
</defs>
</svg>
