<svg width="12" height="12" viewBox="0 0 12 12" fill="none" xmlns="http://www.w3.org/2000/svg">
<path d="M12 6C12 2.68912 9.31088 0 6 0C2.68912 0 0 2.68912 0 6C0 9.31088 2.68912 12 6 12C9.31088 12 12 9.31088 12 6ZM5.98368 3.72045C5.77822 3.6999 5.57277 3.78209 5.4084 3.92591C5.26458 4.06973 5.16185 4.27518 5.16185 4.48064H3.41546C3.41546 3.80263 3.7031 3.14517 4.1962 2.67261C4.6893 2.20006 5.34676 1.95351 6.04532 1.97406C7.31916 2.03569 8.36699 3.08353 8.42863 4.35737C8.46972 5.42575 7.85335 6.41194 6.8466 6.80231C6.82606 6.82286 6.78497 6.86395 6.78497 6.92559C6.78497 7.26887 6.50668 7.54715 6.1634 7.54715H5.66014C5.31686 7.54715 5.03858 7.26887 5.03858 6.92559C5.03858 6.14485 5.49058 5.46684 6.18914 5.19974C6.49733 5.07647 6.68224 4.76828 6.66169 4.43955C6.68224 4.06973 6.35351 3.74099 5.98368 3.72045ZM5.1413 8.83634C5.1413 8.40489 5.49058 8.03506 5.94259 8.03506C6.37405 8.03506 6.74388 8.38434 6.74388 8.83634C6.74388 9.26781 6.3946 9.63763 5.94259 9.63763C5.49058 9.61709 5.1413 9.26781 5.1413 8.83634Z" fill="#004799"/>
</svg>
