<svg width="72" height="72" viewBox="0 0 72 72" fill="none" xmlns="http://www.w3.org/2000/svg">
<path opacity="0.15" d="M71.9999 45.7515C71.9999 69.6386 55.8149 52.1927 40.95 63.7795C16.665 82.709 0 65.6647 0 45.7515C0 25.8382 15.3 2.48415 36 9.69534C55.0928 16.3467 71.9999 21.8643 71.9999 45.7515Z" fill="#CCE4FF"/>
<path d="M17.1411 0.150391H54.7456C57.7082 0.150584 60.1235 2.45309 60.1236 5.27539V40.6426C60.1235 43.4648 57.7082 45.7674 54.7456 45.7676H17.1411C14.1786 45.7674 11.7633 43.4648 11.7632 40.6426V5.27539C11.7633 2.45309 14.1786 0.150596 17.1411 0.150391ZM17.1411 1.79102C15.0882 1.79121 13.3619 3.32306 13.3618 5.27539V40.6426C13.362 42.5949 15.0883 44.1268 17.1411 44.127H54.7456C56.8009 44.1268 58.4828 42.5927 58.4829 40.6426V5.27539C58.4829 3.32523 56.8009 1.7912 54.7456 1.79102H17.1411Z" fill="white" stroke="white" stroke-width="0.299941"/>
<path d="M12.5835 7.78906H59.3033C59.7691 7.78906 60.1236 8.14355 60.1236 8.60938C60.1236 9.02867 59.7735 9.3877 59.3033 9.3877H12.5835C12.1133 9.3877 11.7632 9.02867 11.7632 8.60938C11.7632 8.14355 12.1177 7.78906 12.5835 7.78906Z" fill="white" stroke="white" stroke-width="0.299941"/>
<path d="M18.1545 3.99097H21.3616C21.7939 3.99097 22.1829 4.3541 22.1829 4.76929C22.1827 5.23082 21.7894 5.5896 21.3616 5.5896H18.1545C17.6888 5.5896 17.3343 5.235 17.3342 4.76929C17.3342 4.34998 17.6843 3.99097 18.1545 3.99097Z" fill="white" stroke="white" stroke-width="0.299941"/>
<path d="M24.654 3.99097H27.904C28.3275 3.99114 28.6823 4.34577 28.6823 4.76929C28.6822 5.23927 28.3231 5.58943 27.904 5.5896H24.654C24.2262 5.5896 23.8338 5.23082 23.8337 4.76929C23.8337 4.3541 24.2217 3.99097 24.654 3.99097Z" fill="white" stroke="white" stroke-width="0.299941"/>
<path d="M31.1954 3.99097H34.4025C34.8727 3.99097 35.2238 4.34998 35.2238 4.76929C35.2236 5.235 34.8682 5.5896 34.4025 5.5896H31.1954C30.7297 5.5896 30.3752 5.235 30.3751 4.76929C30.3751 4.34998 30.7252 3.99097 31.1954 3.99097Z" fill="white" stroke="white" stroke-width="0.299941"/>
<path d="M5.15569 15.8501H12.5834C13.0027 15.8501 13.3617 16.2002 13.3617 16.6704C13.3617 17.1027 12.9986 17.4907 12.5834 17.4907H5.00627L5.00529 17.6411L4.9633 55.9624V56.1118H5.11369L66.6889 56.1548C66.6958 56.1548 66.7137 56.1546 66.7299 56.1528C66.745 56.1512 66.7926 56.1448 66.8324 56.105C66.8717 56.0654 66.8776 56.0187 66.8793 56.0034C66.8811 55.9873 66.8813 55.9694 66.8813 55.9624V17.6831C66.8813 17.6761 66.8811 17.6581 66.8793 17.6421C66.8776 17.6268 66.8717 17.58 66.8324 17.5405C66.7926 17.5007 66.745 17.4944 66.7299 17.4927C66.7137 17.4909 66.6958 17.4907 66.6889 17.4907H59.3031C58.8416 17.4906 58.4828 17.0982 58.4828 16.6704C58.4828 16.2046 58.8374 15.8502 59.3031 15.8501H66.6889C67.7033 15.8501 68.5228 16.6687 68.5229 17.6831V56.0044C68.5229 56.9746 67.7055 57.7954 66.6889 57.7954H5.15569C4.18341 57.7954 3.36467 56.9767 3.36467 56.0044V17.6831C3.36477 16.6666 4.18556 15.8501 5.15569 15.8501Z" fill="white" stroke="white" stroke-width="0.299941"/>
<path d="M4.18498 50.6687H67.7016C68.1295 50.6687 68.5229 51.0274 68.5229 51.489C68.5229 51.9042 68.1339 52.2673 67.7016 52.2673H4.18498C3.71478 52.2673 3.36468 51.9083 3.36467 51.489C3.36467 51.0232 3.71916 50.6687 4.18498 50.6687Z" fill="white" stroke="white" stroke-width="0.299941"/>
<path d="M21.1088 66.0308H50.7778C51.1971 66.0308 51.5571 66.3809 51.5571 66.8511V71.0718C51.5569 71.4953 51.2013 71.8501 50.7778 71.8501H21.1088C20.6387 71.8501 20.2887 71.4909 20.2885 71.0718V66.8511C20.2885 66.3852 20.643 66.0308 21.1088 66.0308ZM21.9291 70.2505H49.9575V67.6714H21.9291V70.2505Z" fill="white" stroke="white" stroke-width="0.299941"/>
<path d="M33.0526 56.155H38.8348C39.2499 56.1552 39.6131 56.5431 39.6131 56.9753V66.8513C39.613 67.2834 39.2498 67.6714 38.8348 67.6716H33.0526C32.591 67.6716 32.2324 67.2791 32.2323 66.8513V56.9753C32.2323 56.5475 32.5909 56.155 33.0526 56.155ZM33.8729 66.03H38.0135V57.7957H33.8729V66.03Z" fill="white" stroke="white" stroke-width="0.299941"/>
<path d="M55.7162 53.4116H58.3754C58.8031 53.4118 59.1957 53.7704 59.1957 54.2319C59.1957 54.6554 58.7989 55.052 58.3754 55.0522H55.7162C55.2546 55.0522 54.8959 54.6598 54.8959 54.2319C54.8959 53.7661 55.2504 53.4116 55.7162 53.4116Z" fill="white" stroke="white" stroke-width="0.299941"/>
<path d="M61.3292 53.4116H63.9884C64.4161 53.4118 64.8087 53.7704 64.8087 54.2319C64.8087 54.6554 64.4119 55.052 63.9884 55.0522H61.3292C60.9056 55.0522 60.5089 54.6555 60.5089 54.2319C60.5089 53.7703 60.9013 53.4116 61.3292 53.4116Z" fill="white" stroke="white" stroke-width="0.299941"/>
<path d="M54.6428 12.8572L48.2142 20.5715L44.9999 16.7143" stroke="white" stroke-width="2" stroke-linecap="round" stroke-linejoin="round"/>
<path d="M44.5743 24.3755H56.1798C56.6456 24.3755 57.0011 24.73 57.0011 25.1958C57.0011 25.6151 56.65 25.9741 56.1798 25.9741H44.5743C44.1507 25.9741 43.796 25.6194 43.796 25.1958C43.796 24.7256 44.155 24.3755 44.5743 24.3755Z" fill="white" stroke="white" stroke-width="0.299941"/>
<path d="M44.5743 29.229H56.1798C56.6456 29.229 57.0011 29.5835 57.0011 30.0493C57.0011 30.4686 56.65 30.8276 56.1798 30.8276H44.5743C44.1507 30.8276 43.796 30.4729 43.796 30.0493C43.796 29.5791 44.155 29.229 44.5743 29.229Z" fill="white" stroke="white" stroke-width="0.299941"/>
<path d="M44.5743 34.0825H56.1798C56.6456 34.0825 57.0011 34.437 57.0011 34.9028C57.0011 35.3221 56.65 35.6812 56.1798 35.6812H44.5743C44.1507 35.6812 43.796 35.3264 43.796 34.9028C43.796 34.4326 44.155 34.0825 44.5743 34.0825Z" fill="white" stroke="white" stroke-width="0.299941"/>
<path d="M44.5743 38.9358H56.1798C56.6456 38.9358 57.0011 39.2903 57.0011 39.7561C57.0011 40.184 56.6414 40.5764 56.1798 40.5764H44.5743C44.1591 40.5764 43.796 40.1884 43.796 39.7561C43.796 39.2859 44.155 38.9358 44.5743 38.9358Z" fill="white" stroke="white" stroke-width="0.299941"/>
<path d="M21.1928 29.5664H23.5141C23.6861 29.5664 23.8668 29.6351 24.015 29.7461L28.0199 32.9932L28.1127 33.0684L28.2065 32.9951L32.3822 29.7461L32.3832 29.7471C32.5314 29.636 32.7111 29.5665 32.8832 29.5664H35.2045C38.666 29.5664 41.5119 32.4101 41.5121 35.915V41.4023C41.5119 41.8678 41.1573 42.2224 40.6918 42.2227H15.6645C15.2367 42.2227 14.8444 41.8638 14.8441 41.4023V35.915C14.8444 32.4108 17.6886 29.5666 21.1928 29.5664ZM21.1928 31.207C18.578 31.2072 16.485 33.3003 16.4848 35.915V40.623H39.9125V35.915C39.9123 33.2993 37.7763 31.207 35.2045 31.207H33.1703L33.1293 31.2393L28.6156 34.7402C28.3321 34.9529 27.9043 34.9517 27.6225 34.7051L27.6176 34.7012L23.2699 31.2402L23.2289 31.207H21.1928Z" fill="white" stroke="white" stroke-width="0.299941"/>
<path d="M26.3416 14.4995C27.1205 14.4995 27.671 15.0001 28.1678 15.5825L28.3777 15.8364L28.3816 15.8413C29.0067 16.5497 29.6411 17.3267 30.8582 17.3267C31.255 17.3266 31.7318 17.2389 32.2058 17.0679C32.422 17.0244 32.5675 16.9888 32.7146 16.9888C33.5726 16.9888 34.1567 17.6239 34.5555 18.5249C34.952 19.4211 35.1405 20.5311 35.2244 21.3696V21.3706C35.4962 23.933 34.5684 25.6903 33.7029 26.7505L33.533 26.9507C32.1681 28.4397 30.1392 29.3501 28.114 29.3501C26.4195 29.35 24.7287 28.7407 23.4568 27.4585C22.186 26.1773 21.3214 24.212 21.3006 21.48V21.4624L21.2967 21.4448L21.2937 21.3979C21.2923 21.3605 21.2914 21.3078 21.2928 21.2417C21.2955 21.1093 21.307 20.9241 21.3338 20.6987C21.3874 20.248 21.5048 19.637 21.7508 18.9585C22.2423 17.603 23.2451 15.9785 25.2752 14.8179C25.641 14.6146 25.9955 14.4996 26.3416 14.4995ZM26.3279 16.0991C26.322 16.0995 26.3148 16.0999 26.3064 16.1011C26.2894 16.1035 26.2672 16.1083 26.242 16.1167C26.199 16.131 26.1497 16.159 26.0984 16.2026C24.4787 17.1313 23.6784 18.44 23.284 19.5151C23.087 20.0521 22.9908 20.531 22.9441 20.8765C22.9208 21.0493 22.9103 21.1894 22.9051 21.2866C22.9025 21.335 22.9007 21.3728 22.9002 21.3989V21.4409C22.9216 23.7487 23.5957 25.3306 24.5896 26.3354C25.5826 27.3391 26.8789 27.7514 28.114 27.7515C29.7173 27.7515 31.2781 27.0583 32.3201 25.8862L32.3191 25.8853C33.3648 24.7513 33.7961 23.2305 33.6238 21.5503V21.5493L33.5496 21.0093C33.4675 20.4908 33.3618 20.0377 33.2488 19.6704C33.1735 19.4256 33.094 19.2168 33.0164 19.0513C32.9405 18.8893 32.8602 18.7564 32.7781 18.6743L32.7127 18.6089L32.6248 18.6382C32.0081 18.8437 31.4336 18.9262 30.8582 18.9263C28.907 18.9263 27.8483 17.7123 27.1765 16.8726L27.1717 16.8657L27.1658 16.8599L26.7635 16.4263C26.6972 16.3547 26.6318 16.2864 26.574 16.2329C26.5451 16.2062 26.5161 16.1803 26.4881 16.1597C26.462 16.1405 26.4275 16.1187 26.3894 16.106L26.366 16.0981H26.3357C26.3335 16.0982 26.3307 16.0989 26.3279 16.0991Z" fill="white" stroke="white" stroke-width="0.299941"/>
<path d="M26.2624 11.8333C29.2085 10.8647 31.8557 11.3094 33.6618 12.9446L33.8337 13.1057C35.8481 15.079 36.3583 18.3888 35.1892 21.7708V21.7717C35.084 22.0871 34.7638 22.303 34.445 22.303C34.3504 22.303 34.3013 22.2746 34.155 22.2258C33.7276 22.0834 33.5183 21.6215 33.6579 21.2375L33.6589 21.2356C34.5983 18.5029 34.2684 15.8177 32.6941 14.2434L32.6921 14.2415C31.2476 12.841 29.0345 12.5515 26.4763 13.4846C26.2848 13.5221 26.0647 13.5202 25.8904 13.4504C25.7376 13.385 25.4143 13.2469 24.9929 13.2874C24.5629 13.3286 24.0543 13.5522 23.5271 14.1672L23.5251 14.1702C22.8274 15.0205 22.3868 16.2315 22.2419 17.4231C22.0974 18.6121 22.2433 19.8121 22.7536 20.6331L22.7585 20.6389C22.8775 20.8089 22.9068 21.0274 22.8571 21.2356C22.8072 21.4445 22.6803 21.6295 22.5085 21.7327L22.5056 21.7356C22.1061 21.9898 21.6159 21.8739 21.4089 21.4944H21.4099L21.404 21.4846L21.2644 21.2551C20.6032 20.0819 20.4395 18.5976 20.6345 17.1497C20.8423 15.6069 21.4553 14.1274 22.2771 13.1399C23.3858 11.8669 24.7616 11.3904 26.1706 11.8333L26.2165 11.8479L26.2624 11.8333Z" fill="white" stroke="white" stroke-width="0.299941"/>
<path d="M23.5752 27.0049C23.6758 26.6022 24.0912 26.3322 24.4853 26.4141L24.5644 26.4355L24.5752 26.4385C24.9987 26.5444 25.2477 26.9669 25.1416 27.3945L24.2988 30.5967C24.1899 30.9598 23.8656 31.2069 23.5146 31.207C23.4941 31.207 23.4695 31.2019 23.4238 31.1904C23.3916 31.1824 23.3444 31.1719 23.2929 31.168C22.866 31.0583 22.5903 30.5951 22.7285 30.1807L22.7304 30.1719L23.5752 27.0068V27.0049Z" fill="white" stroke="white" stroke-width="0.299941"/>
<path d="M31.8336 26.4778C32.2494 26.3392 32.7142 26.6169 32.8219 27.0461V27.0471L32.8229 27.05L33.6667 30.1692V30.1702C33.7745 30.6022 33.5207 31.0598 33.1061 31.1672C33.0539 31.1711 33.0057 31.1826 32.9733 31.1907C32.9278 31.202 32.9039 31.2073 32.8835 31.2073C32.534 31.2073 32.2107 30.9623 32.1003 30.6018L31.2555 27.4358C31.1568 27.0354 31.3694 26.6394 31.7448 26.5042L31.8229 26.4807L31.8336 26.4778Z" fill="white" stroke="white" stroke-width="0.299941"/>
<path d="M20.3491 36.8254C20.7643 36.8254 21.1274 37.2134 21.1274 37.6458V41.4016C21.1274 41.8718 20.7684 42.2229 20.3491 42.2229C19.8833 42.2229 19.5288 41.8674 19.5288 41.4016V37.6458C19.5288 37.2179 19.8875 36.8254 20.3491 36.8254Z" fill="white" stroke="white" stroke-width="0.299941"/>
<path d="M36.049 36.8254C36.4726 36.8254 36.8693 37.2221 36.8693 37.6458V41.4016C36.8693 41.8632 36.4769 42.2229 36.049 42.2229C35.5832 42.2229 35.2287 41.8674 35.2287 41.4016V37.6458C35.2287 37.2179 35.5874 36.8254 36.049 36.8254Z" fill="white" stroke="white" stroke-width="0.299941"/>
</svg>
