<svg width="20" height="24" viewBox="0 0 20 24" fill="none" xmlns="http://www.w3.org/2000/svg">
<path d="M6.39756 11.1975C6.18472 11.1975 5.9806 11.113 5.83011 10.9625C5.67961 10.812 5.59506 10.6078 5.59506 10.395V7.99501C5.58425 7.88361 5.59687 7.77119 5.63209 7.66496C5.66731 7.55872 5.72437 7.46103 5.79959 7.37816C5.87481 7.29529 5.96654 7.22907 6.06887 7.18375C6.17121 7.13843 6.28189 7.11502 6.39381 7.11502C6.50573 7.11502 6.61641 7.13843 6.71875 7.18375C6.82108 7.22907 6.91281 7.29529 6.98803 7.37816C7.06325 7.46103 7.1203 7.55872 7.15553 7.66496C7.19075 7.77119 7.20337 7.88361 7.19256 7.99501V10.395C7.19257 10.6066 7.10905 10.8095 6.96017 10.9598C6.81129 11.1101 6.60909 11.1955 6.39756 11.1975Z" fill="#004799"/>
<path d="M9.59986 11.1975C9.38703 11.1975 9.18291 11.1129 9.03241 10.9624C8.88191 10.8119 8.79736 10.6078 8.79736 10.395V7.19999C8.81662 7.0015 8.90909 6.81729 9.05675 6.68326C9.20442 6.54923 9.39669 6.47498 9.59611 6.47498C9.79553 6.47498 9.98781 6.54923 10.1355 6.68326C10.2831 6.81729 10.3756 7.0015 10.3949 7.19999V10.4025C10.3929 10.6127 10.3085 10.8138 10.1599 10.9625C10.0112 11.1111 9.8101 11.1955 9.59986 11.1975Z" fill="#004799"/>
<path d="M12.8026 11.1975C12.5898 11.1975 12.3856 11.1129 12.2351 10.9624C12.0846 10.8119 12.0001 10.6078 12.0001 10.395V5.60249C11.9893 5.4911 12.0019 5.37867 12.0371 5.27244C12.0723 5.16621 12.1294 5.06851 12.2046 4.98564C12.2798 4.90277 12.3716 4.83655 12.4739 4.79123C12.5762 4.74591 12.6869 4.7225 12.7988 4.7225C12.9108 4.7225 13.0214 4.74591 13.1238 4.79123C13.2261 4.83655 13.3178 4.90277 13.3931 4.98564C13.4683 5.06851 13.5253 5.16621 13.5606 5.27244C13.5958 5.37867 13.6084 5.4911 13.5976 5.60249V10.4025C13.5956 10.6127 13.5112 10.8138 13.3626 10.9625C13.2139 11.1112 13.0128 11.1955 12.8026 11.1975Z" fill="#004799"/>
<path d="M15.9975 24H3.2025C2.35315 24 1.53858 23.6626 0.937995 23.062C0.33741 22.4614 4.79471e-06 21.6469 4.79471e-06 20.7975V6.3C-0.000905022 5.71309 0.127677 5.1332 0.376584 4.60168C0.625491 4.07016 0.988593 3.6001 1.44 3.225L4.20001 0.93C4.91814 0.331549 5.8227 0.00261963 6.7575 0L15.9975 0C16.8469 0 17.6614 0.337405 18.262 0.937991C18.8626 1.53858 19.2 2.35314 19.2 3.2025V20.7975C19.2 21.6469 18.8626 22.4614 18.262 23.062C17.6614 23.6626 16.8469 24 15.9975 24ZM6.7575 1.5975C6.20887 1.60616 5.67965 1.80197 5.2575 2.1525L2.46 4.455C2.18935 4.68013 1.97172 4.96222 1.82263 5.28114C1.67354 5.60006 1.59667 5.94795 1.5975 6.3V20.7975C1.59948 21.2206 1.76842 21.6258 2.06758 21.9249C2.36674 22.2241 2.77193 22.393 3.195 22.395H15.9975C16.4206 22.393 16.8258 22.2241 17.1249 21.9249C17.4241 21.6258 17.593 21.2206 17.595 20.7975V3.2025C17.593 2.77942 17.4241 2.37424 17.1249 2.07508C16.8258 1.77591 16.4206 1.60697 15.9975 1.605L6.7575 1.5975Z" fill="#004799"/>
<path d="M14.3999 19.2H4.79991C4.68851 19.2108 4.57609 19.1982 4.46986 19.163C4.36362 19.1278 4.26593 19.0707 4.18306 18.9955C4.10019 18.9203 4.03397 18.8285 3.98865 18.7262C3.94333 18.6239 3.91992 18.5132 3.91992 18.4013C3.91992 18.2893 3.94333 18.1787 3.98865 18.0763C4.03397 17.974 4.10019 17.8823 4.18306 17.807C4.26593 17.7318 4.36362 17.6748 4.46986 17.6395C4.57609 17.6043 4.68851 17.5917 4.79991 17.6025H14.3999C14.5113 17.5917 14.6237 17.6043 14.73 17.6395C14.8362 17.6748 14.9339 17.7318 15.0168 17.807C15.0996 17.8823 15.1659 17.974 15.2112 18.0763C15.2565 18.1787 15.2799 18.2893 15.2799 18.4013C15.2799 18.5132 15.2565 18.6239 15.2112 18.7262C15.1659 18.8285 15.0996 18.9203 15.0168 18.9955C14.9339 19.0707 14.8362 19.1278 14.73 19.163C14.6237 19.1982 14.5113 19.2108 14.3999 19.2Z" fill="#004799"/>
<path d="M14.4 15.2025H4.79996C4.60147 15.1833 4.41726 15.0908 4.28323 14.9431C4.1492 14.7955 4.07495 14.6032 4.07495 14.4038C4.07495 14.2043 4.1492 14.0121 4.28323 13.8644C4.41726 13.7167 4.60147 13.6243 4.79996 13.605H14.4C14.5114 13.5942 14.6238 13.6068 14.73 13.642C14.8362 13.6773 14.9339 13.7343 15.0168 13.8095C15.0997 13.8848 15.1659 13.9765 15.2112 14.0788C15.2565 14.1812 15.28 14.2918 15.28 14.4038C15.28 14.5157 15.2565 14.6264 15.2112 14.7287C15.1659 14.831 15.0997 14.9228 15.0168 14.998C14.9339 15.0732 14.8362 15.1303 14.73 15.1655C14.6238 15.2007 14.5114 15.2133 14.4 15.2025Z" fill="#004799"/>
</svg>
