<svg width="33" height="40" viewBox="0 0 33 40" fill="none" xmlns="http://www.w3.org/2000/svg">
<path d="M23.6367 0H9.09103C6.67994 0 4.3676 0.957789 2.6627 2.66267C0.957802 4.36754 0 6.67985 0 9.09091V30.9091C0 32.1029 0.235146 33.2851 0.692013 34.388C1.14888 35.491 1.81852 36.4932 2.6627 37.3373C4.3676 39.0422 6.67994 40 9.09103 40H10.9092C11.3914 40 11.8539 39.8084 12.1949 39.4675C12.5359 39.1265 12.7274 38.664 12.7274 38.1818C12.7274 37.6996 12.5359 37.2371 12.1949 36.8962C11.8539 36.5552 11.3914 36.3636 10.9092 36.3636H9.09103C7.64437 36.3636 6.25697 35.789 5.23403 34.766C4.21109 33.7431 3.63641 32.3557 3.63641 30.9091V9.09091C3.63641 7.64427 4.21109 6.25689 5.23403 5.23396C6.25697 4.21104 7.64437 3.63636 9.09103 3.63636H23.6367C25.0833 3.63636 26.4707 4.21104 27.4937 5.23396C28.5166 6.25689 29.0913 7.64427 29.0913 9.09091V21.8182C29.0913 22.3004 29.2828 22.7629 29.6238 23.1038C29.9648 23.4448 30.4273 23.6364 30.9095 23.6364C31.3917 23.6364 31.8542 23.4448 32.1952 23.1038C32.5361 22.7629 32.7277 22.3004 32.7277 21.8182V9.09091C32.7277 7.89707 32.4925 6.71493 32.0357 5.61197C31.5788 4.50901 30.9092 3.50683 30.065 2.66267C29.2208 1.8185 28.2186 1.14887 27.1157 0.692004C26.0127 0.235143 24.8305 0 23.6367 0Z" fill="#004799"/>
<path d="M9.09164 21.8182H23.6373C24.1195 21.8182 24.582 21.6266 24.923 21.2856C25.2639 20.9446 25.4555 20.4822 25.4555 20C25.4555 19.5178 25.2639 19.0553 24.923 18.7143C24.582 18.3734 24.1195 18.1818 23.6373 18.1818H9.09164C8.60942 18.1818 8.14696 18.3734 7.80598 18.7143C7.465 19.0553 7.27344 19.5178 7.27344 20C7.27344 20.4822 7.465 20.9446 7.80598 21.2856C8.14696 21.6266 8.60942 21.8182 9.09164 21.8182Z" fill="#004799"/>
<path d="M12.7281 25.4546H9.09164C8.60942 25.4546 8.14696 25.6461 7.80598 25.9871C7.465 26.3281 7.27344 26.7905 7.27344 27.2727C7.27344 27.755 7.465 28.2174 7.80598 28.5584C8.14696 28.8994 8.60942 29.0909 9.09164 29.0909H12.7281C13.2103 29.0909 13.6727 28.8994 14.0137 28.5584C14.3547 28.2174 14.5463 27.755 14.5463 27.2727C14.5463 26.7905 14.3547 26.3281 14.0137 25.9871C13.6727 25.6461 13.2103 25.4546 12.7281 25.4546Z" fill="#004799"/>
<path d="M9.09164 14.5455H23.6373C24.1195 14.5455 24.582 14.3539 24.923 14.0129C25.2639 13.6719 25.4555 13.2095 25.4555 12.7273C25.4555 12.2451 25.2639 11.7826 24.923 11.4416C24.582 11.1006 24.1195 10.9091 23.6373 10.9091H9.09164C8.60942 10.9091 8.14696 11.1006 7.80598 11.4416C7.465 11.7826 7.27344 12.2451 7.27344 12.7273C7.27344 13.2095 7.465 13.6719 7.80598 14.0129C8.14696 14.3539 8.60942 14.5455 9.09164 14.5455Z" fill="#004799"/>
<path d="M29.6359 27.8727L22.1631 35.1454L19.2903 32.3273C18.9455 31.9897 18.4808 31.803 17.9983 31.8081C17.5158 31.8132 17.0551 32.0098 16.7175 32.3545C16.38 32.6993 16.1932 33.1641 16.1983 33.6466C16.2035 34.129 16.4 34.5897 16.7448 34.9273L20.8903 39C21.2302 39.3331 21.6871 39.5197 22.1631 39.5197C22.639 39.5197 23.0959 39.3331 23.4358 39L32.1814 30.4C32.3521 30.2329 32.4882 30.0337 32.582 29.814C32.6758 29.5942 32.7253 29.3582 32.7279 29.1193C32.7304 28.8804 32.6858 28.6433 32.5968 28.4216C32.5077 28.2 32.3758 27.998 32.2087 27.8273C32.0415 27.6566 31.8424 27.5204 31.6226 27.4267C31.4029 27.3329 31.1668 27.2833 30.9279 27.2808C30.689 27.2783 30.452 27.3228 30.2303 27.4119C30.0086 27.501 29.8066 27.6329 29.6359 27.8V27.8727Z" fill="#004799"/>
</svg>
