<svg width="38" height="42" viewBox="0 0 38 42" fill="none" xmlns="http://www.w3.org/2000/svg">
<path d="M18.9044 42C23.4613 42 37.8088 34.3468 37.8088 16.5644V11.3152C37.8088 7.95734 36.1237 4.83943 33.5493 3.27227C33.1319 2.96868 32.6386 2.70612 32.0242 2.46407C23.4541 -0.817939 14.3793 -0.828195 5.75993 2.47433C2.31484 3.84457 0 7.39735 0 11.3152V13.6845C0 36.9621 15.1537 42 18.9044 42ZM4.20097 11.3152C4.20097 9.10194 5.45122 7.11838 7.28812 6.38608C11.0901 4.92968 14.9988 4.19123 18.9044 4.19123C22.81 4.19123 26.7187 4.92968 30.5022 6.37992C30.8386 6.5112 31.0068 6.61787 31.2171 6.76146C32.6919 7.66606 33.6078 9.40963 33.6078 11.3152V16.5644C33.6078 32.876 20.3362 37.797 18.9044 37.799C16.486 37.799 4.20097 33.6063 4.20097 13.6845V11.3152Z" fill="#004FA9"/>
<path d="M16.4347 26.4863C16.8337 26.9991 17.446 27.2965 18.0911 27.2965C18.1342 27.2965 18.1773 27.2945 18.2214 27.2924C18.9137 27.2494 19.5393 26.8678 19.8952 26.273L24.9095 17.871C25.5033 16.8741 25.1782 15.5859 24.1823 14.991C23.1885 14.3982 21.8972 14.7203 21.3013 15.7172L17.8603 21.4833L16.3598 19.5592C15.6481 18.6382 14.324 18.4823 13.4122 19.192C12.4973 19.9059 12.3332 21.2248 13.0471 22.1397L16.4347 26.4863Z" fill="#00AAFF"/>
</svg>
