<svg width="32" height="32" viewBox="0 0 32 32" fill="none" xmlns="http://www.w3.org/2000/svg">
<path d="M15.1765 28.8H6.94117C6.50437 28.8 6.08544 28.6314 5.77656 28.3313C5.46768 28.0313 5.29414 27.6243 5.29414 27.2V4.79998C5.29414 4.37565 5.46768 3.96869 5.77656 3.66863C6.08544 3.36857 6.50437 3.19999 6.94117 3.19999H15.1765V8C15.1765 9.27304 15.697 10.4939 16.6237 11.3941C17.5504 12.2943 18.8072 12.8 20.1177 12.8H25.0588V16C25.0588 16.4243 25.2324 16.8313 25.5412 17.1314C25.8501 17.4314 26.2691 17.6 26.7059 17.6C27.1427 17.6 27.5616 17.4314 27.8705 17.1314C28.1794 16.8313 28.3529 16.4243 28.3529 16V11.2C28.3529 11.2 28.3529 11.2 28.3529 11.104C28.3357 10.957 28.3026 10.8122 28.2541 10.672V10.528C28.1712 10.3606 28.066 10.2046 27.9412 10.064L18.0588 0.463995C17.9141 0.342705 17.7535 0.240492 17.5811 0.159998C17.532 0.153216 17.4821 0.153216 17.4329 0.159998L16.9223 0H6.94117C5.63069 0 4.37389 0.505713 3.44723 1.40589C2.52059 2.30606 2 3.52696 2 4.79998V27.2C2 28.473 2.52059 29.6939 3.44723 30.5941C4.37389 31.4943 5.63069 32 6.94117 32H15.1765C15.6133 32 16.0322 31.8314 16.3411 31.5314C16.65 31.2313 16.8235 30.8243 16.8235 30.4C16.8235 29.9756 16.65 29.5687 16.3411 29.2686C16.0322 28.9685 15.6133 28.8 15.1765 28.8ZM18.4705 5.456L22.7365 9.59998H20.1177C19.6808 9.59998 19.2618 9.4314 18.953 9.13134C18.6441 8.83129 18.4705 8.42432 18.4705 8V5.456ZM15.1847 27.0027L24.3917 27.0027L22.2506 29.0667C21.9404 29.3679 21.7662 29.7766 21.7662 30.2027C21.7662 30.6288 21.9404 31.0374 22.2506 31.3387C22.5607 31.64 22.9813 31.8093 23.4199 31.8093C23.8586 31.8093 24.2792 31.64 24.5894 31.3387L29.5305 26.5387C29.676 26.3832 29.793 26.2046 29.8764 26.0107C30.0412 25.6212 30.0412 25.1843 29.8764 24.7947C29.801 24.5969 29.6831 24.4169 29.5305 24.2667L24.5894 19.4667C24.4362 19.3167 24.2541 19.1977 24.0534 19.1165C23.8527 19.0352 23.6374 18.9934 23.4199 18.9934C23.2025 18.9934 22.9873 19.0352 22.7865 19.1165C22.5859 19.1977 22.4036 19.3167 22.2506 19.4667C22.0962 19.6154 21.9736 19.7924 21.89 19.9874C21.8064 20.1824 21.7633 20.3915 21.7633 20.6027C21.7633 20.8139 21.8064 21.023 21.89 21.218C21.9736 21.413 22.0962 21.59 22.2506 21.7387L24.3917 23.8027L15.1847 23.8027C14.7478 23.8027 14.3289 23.9713 14.02 24.2713C13.7111 24.5714 13.5376 24.9784 13.5376 25.4027C13.5376 25.827 13.7111 26.234 14.02 26.534C14.3289 26.8341 14.7478 27.0027 15.1847 27.0027Z" fill="white"/>
</svg>
