<svg width="12" height="10" viewBox="0 0 12 10" fill="none" xmlns="http://www.w3.org/2000/svg">
<path d="M0.214286 7.75024H11.7857C11.9041 7.75024 12 7.84618 12 7.96453V8.82167C12 8.94002 11.9041 9.03596 11.7857 9.03596H0.214286C0.0959387 9.03596 0 8.94002 0 8.82167V7.96453C0 7.84618 0.0959387 7.75024 0.214286 7.75024Z" fill="#004799"/>
<path d="M1.36543 6.15491L0.0696041 4.99603C0.0448921 4.97333 0.0258322 4.94517 0.0139473 4.91379C0.00206237 4.88241 -0.00231791 4.84869 0.00115641 4.81531C0.00463072 4.78194 0.0158633 4.74984 0.0339566 4.72158C0.0520499 4.69332 0.0765022 4.66968 0.10536 4.65256L1.06744 4.09194C1.0964 4.07527 1.12885 4.06558 1.16221 4.06364C1.19556 4.0617 1.22891 4.06757 1.25961 4.08078L2.66777 4.68012C2.7003 4.69368 2.73552 4.69951 2.77067 4.69716C2.80583 4.69482 2.83996 4.68435 2.87039 4.66659L4.91164 3.43389C4.94252 3.41493 4.96835 3.38876 4.9869 3.35762C5.00545 3.32649 5.01617 3.29132 5.01814 3.25513C5.02012 3.21894 5.01328 3.18282 4.99823 3.14985C4.98317 3.11688 4.96034 3.08806 4.9317 3.06586L1.96938 0.807305C1.94077 0.785326 1.91819 0.756468 1.90374 0.723416C1.88928 0.690365 1.88343 0.654195 1.88671 0.618271C1.88999 0.582347 1.90231 0.547837 1.92251 0.517952C1.94271 0.488067 1.97015 0.463779 2.00226 0.447346L2.50561 0.18877C2.72651 0.0756877 2.96929 0.011794 3.21724 0.00148374C3.46519 -0.00882647 3.71243 0.0346917 3.94196 0.129044L7.36124 1.5247C7.44546 1.55906 7.5367 1.57272 7.6273 1.56451C7.7179 1.55631 7.8052 1.52648 7.88188 1.47755L8.49314 1.08852C9.24935 0.538647 10.5983 0.469351 11.4095 0.722251C11.5456 0.760225 11.6671 0.838059 11.7586 0.945731C11.85 1.0534 11.9072 1.18598 11.9226 1.3264C11.9407 1.46747 11.9165 1.61073 11.853 1.73801C11.7895 1.86528 11.6896 1.97081 11.566 2.04122L3.92889 6.49253C3.5246 6.72829 3.05344 6.82306 2.58944 6.76195C2.12544 6.70084 1.69489 6.48731 1.36543 6.15491Z" fill="#004799"/>
</svg>
