<svg width="32" height="26" viewBox="0 0 32 26" fill="none" xmlns="http://www.w3.org/2000/svg">
<path fill-rule="evenodd" clip-rule="evenodd" d="M12.8 14.4002V17.6002C12.8 18.221 12.4416 18.7858 11.8784 19.0498C11.3168 19.3122 10.6528 19.2274 10.176 18.829L0.576 10.829C0.2112 10.525 0 10.0754 0 9.6002C0 9.125 0.2112 8.6754 0.576 8.3714L10.176 0.371398C10.6528 -0.0270017 11.3168 -0.111802 11.8784 0.150598C12.4416 0.414598 12.8 0.979398 12.8 1.6002V4.8002H14.4C15.2832 4.8002 16 5.517 16 6.4002C16 7.2834 15.2832 8.0002 14.4 8.0002H11.2C10.3168 8.0002 9.6 7.2834 9.6 6.4002V5.0162L4.0992 9.6002L9.6 14.1842V12.8002C9.6 11.917 10.3168 11.2002 11.2 11.2002H19.2V8.0002C19.2 7.3794 19.5584 6.8146 20.1216 6.5506C20.6832 6.2882 21.3472 6.373 21.824 6.7714L31.424 14.7714C31.7888 15.0754 32 15.525 32 16.0002C32 16.4754 31.7888 16.925 31.424 17.229L21.824 25.229C21.3472 25.6274 20.6832 25.7122 20.1216 25.4498C19.5584 25.1858 19.2 24.621 19.2 24.0002V20.8002H17.6C16.7168 20.8002 16 20.0834 16 19.2002C16 18.317 16.7168 17.6002 17.6 17.6002H20.8C21.6832 17.6002 22.4 18.317 22.4 19.2002V20.5842L27.9008 16.0002L22.4 11.4162V12.8002C22.4 13.6834 21.6832 14.4002 20.8 14.4002H12.8Z" fill="white"/>
</svg>
