<svg width="24" height="20" viewBox="0 0 24 20" fill="none" xmlns="http://www.w3.org/2000/svg">
<path d="M15.3681 10.2008C16.7566 9.16836 17.6618 7.52057 17.6618 5.66096C17.6618 2.53934 15.1225 0 12.0009 0C8.87923 0 6.33989 2.53934 6.33989 5.66096C6.33989 7.52057 7.24513 9.16836 8.63359 10.2008C6.15868 11.0328 4.36914 13.37 4.36914 16.1211V16.9104C4.36914 17.8462 5.03357 18.6532 5.94928 18.8288C7.93936 19.2097 9.97534 19.4022 12.0017 19.4022C14.028 19.4022 16.064 19.2089 18.0548 18.8288C18.9697 18.6532 19.6342 17.8462 19.6342 16.9104V16.1211C19.6326 13.37 17.8422 11.0328 15.3681 10.2008ZM7.78875 5.66096C7.78875 3.33907 9.67816 1.44967 12 1.44967C14.3219 1.44967 16.2113 3.33907 16.2113 5.66096C16.2113 7.98285 14.3219 9.87226 12 9.87226C9.67816 9.87226 7.78875 7.98366 7.78875 5.66096ZM18.1821 16.9104C18.1821 17.152 18.013 17.3606 17.7802 17.4049C13.9797 18.1314 10.0196 18.1314 6.22069 17.4049C5.98713 17.3598 5.81801 17.152 5.81801 16.9104V16.1211C5.81801 13.4747 7.97077 11.3219 10.6164 11.3219H13.3837C16.0293 11.3219 18.1821 13.4747 18.1821 16.1211V16.9104Z" fill="#004799"/>
<path d="M20.9066 9.94074C21.8585 9.07577 22.4376 7.82986 22.4376 6.50341C22.4376 4.58984 21.2867 2.89937 19.506 2.19708C19.1355 2.05131 18.7135 2.23252 18.5661 2.60541C18.4188 2.97749 18.6016 3.3987 18.9745 3.54528C20.1978 4.02769 20.9871 5.18904 20.9871 6.5026C20.9871 7.81133 20.1672 9.0049 18.9479 9.47443C18.6386 9.59362 18.4494 9.90691 18.4888 10.2363C18.5275 10.5657 18.7852 10.8258 19.113 10.8693C20.9114 11.1069 22.5503 12.9722 22.5503 14.7818V15.402C22.5503 15.5204 22.4666 15.6275 22.3522 15.65C22.2096 15.6782 22.0615 15.704 21.9084 15.7306L21.5992 15.7845C21.2053 15.8562 20.9444 16.2331 21.0153 16.6269C21.0789 16.9773 21.3841 17.2221 21.728 17.2221C21.7715 17.2221 21.8142 17.2181 21.8585 17.21L22.1533 17.1585C22.3192 17.1295 22.4811 17.1021 22.6341 17.0715C23.425 16.9161 24 16.2138 24 15.402V14.7818C24 12.7837 22.6905 10.8532 20.9066 9.94074Z" fill="#004799"/>
<path d="M2.40082 15.7861L2.09155 15.7322C1.93934 15.7056 1.79034 15.6806 1.64538 15.6508C1.53423 15.6291 1.44967 15.5228 1.44967 15.4036V14.7834C1.44967 12.9738 3.0878 11.1085 4.887 10.8709C5.21479 10.8274 5.47331 10.5673 5.51116 10.2379C5.55063 9.90851 5.36056 9.59522 5.0521 9.47602C3.83196 9.00649 3.0129 7.81212 3.0129 6.5042C3.0129 5.18983 3.80216 4.02848 5.02552 3.54687C5.39841 3.39949 5.58043 2.97828 5.43385 2.6062C5.28647 2.23331 4.86364 2.05129 4.49398 2.19787C2.7133 2.90016 1.56242 4.59063 1.56242 6.5042C1.56242 7.82984 2.14229 9.07656 3.09344 9.94153C1.30954 10.8532 0 12.7837 0 14.7834V15.4036C0 16.2154 0.575036 16.9177 1.3635 17.0723C1.51813 17.1037 1.68081 17.1311 1.84672 17.1601L2.14149 17.2116C2.18578 17.2197 2.22847 17.2237 2.27196 17.2237C2.61585 17.2237 2.92109 16.9781 2.98471 16.6285C3.05639 16.2347 2.79464 15.8578 2.40082 15.7861Z" fill="#004799"/>
</svg>
