<svg width="20" height="23" viewBox="0 0 20 23" fill="none" xmlns="http://www.w3.org/2000/svg">
<path d="M17.0338 11.4068C16.9494 11.3247 16.8488 11.2594 16.7376 11.2148C16.6265 11.1701 16.5071 11.1469 16.3865 11.1466C16.2658 11.1463 16.1463 11.1688 16.0349 11.2129C15.9235 11.257 15.8225 11.3218 15.7376 11.4035C15.6528 11.4851 15.5859 11.582 15.5408 11.6885C15.4957 11.7951 15.4733 11.9091 15.475 12.0239C15.4766 12.1387 15.5023 12.2521 15.5505 12.3574C15.5986 12.4627 15.6683 12.5578 15.7555 12.6372C16.5267 13.3597 17.1386 14.2215 17.5553 15.1721C17.9719 16.1228 18.1849 17.1431 18.1817 18.1731C18.1817 19.2315 14.9946 20.7692 9.99996 20.7692C5.00537 20.7692 1.81821 19.2308 1.81821 18.1714C1.81515 17.1484 2.02527 16.135 2.43642 15.1899C2.84757 14.2447 3.45157 13.3866 4.21346 12.6652C4.29964 12.5852 4.36827 12.4897 4.41538 12.3843C4.46249 12.2789 4.48715 12.1656 4.48791 12.051C4.48867 11.9365 4.46553 11.8229 4.41982 11.7169C4.37412 11.6109 4.30676 11.5146 4.22166 11.4336C4.13656 11.3526 4.03541 11.2885 3.92407 11.245C3.81273 11.2015 3.69343 11.1795 3.57308 11.1802C3.45273 11.1809 3.33373 11.2044 3.22298 11.2492C3.11224 11.2941 3.01195 11.3594 2.92793 11.4414C1.9965 12.3234 1.25813 13.3725 0.755549 14.528C0.252972 15.6835 -0.00381894 16.9225 4.29193e-05 18.1731C4.29193e-05 20.9835 5.15182 22.5 9.99996 22.5C14.8481 22.5 19.9999 20.9835 19.9999 18.1731C20.0039 16.914 19.7436 15.6669 19.2343 14.505C18.7249 13.343 17.9768 12.2897 17.0338 11.4068Z" fill="#004799"/>
<path d="M9.99982 12.1154C11.2584 12.1154 12.4887 11.7601 13.5352 11.0945C14.5817 10.4289 15.3974 9.48278 15.879 8.37588C16.3606 7.26898 16.4867 6.05098 16.2411 4.8759C15.9956 3.70082 15.3895 2.62145 14.4995 1.77426C13.6096 0.927077 12.4757 0.350137 11.2413 0.1164C10.0069 -0.117338 8.72737 0.0026247 7.56458 0.461117C6.40178 0.91961 5.40793 1.69604 4.70869 2.69222C4.00945 3.68841 3.63623 4.8596 3.63623 6.0577C3.63818 7.66373 4.30925 9.20345 5.50223 10.3391C6.69521 11.4747 8.31269 12.1135 9.99982 12.1154ZM9.99982 1.73077C10.8988 1.73077 11.7776 1.98454 12.5251 2.45999C13.2726 2.93544 13.8552 3.61121 14.1992 4.40186C14.5433 5.1925 14.6333 6.0625 14.4579 6.90184C14.2825 7.74118 13.8496 8.51217 13.2139 9.1173C12.5782 9.72243 11.7683 10.1345 10.8866 10.3015C10.0049 10.4684 9.09093 10.3828 8.26036 10.0553C7.42979 9.72776 6.7199 9.17317 6.22044 8.46161C5.72098 7.75005 5.4544 6.91349 5.4544 6.0577C5.45582 4.91054 5.93516 3.81076 6.78729 2.99959C7.63941 2.18843 8.79473 1.73212 9.99982 1.73077Z" fill="#004799"/>
</svg>
