<svg width="32" height="31" viewBox="0 0 32 31" fill="none" xmlns="http://www.w3.org/2000/svg">
<path d="M30.5455 13.3665V9.80285C30.546 9.4092 30.4689 9.0193 30.3185 8.65551C30.1682 8.29171 29.9475 7.96117 29.6691 7.68282C29.3908 7.40446 29.0602 7.18378 28.6964 7.0334C28.3326 6.88302 27.9427 6.80591 27.5491 6.80648H25.6L9.67273 0.173757C9.40191 0.0593731 9.11096 0.000296518 8.81698 1.11336e-06C8.523 -0.000294291 8.23193 0.0581975 7.96088 0.172036C7.68984 0.285876 7.44429 0.452763 7.23868 0.662885C7.03308 0.873007 6.87156 1.12212 6.76364 1.39557L4.59637 6.80648H2.99637C2.60272 6.80591 2.21282 6.88302 1.84903 7.0334C1.48523 7.18378 1.15469 7.40446 0.876337 7.68282C0.597984 7.96117 0.377296 8.29171 0.226918 8.65551C0.0765398 9.0193 -0.000571345 9.4092 3.18698e-06 9.80285V27.0828C-0.000571345 27.4765 0.0765398 27.8664 0.226918 28.2302C0.377296 28.594 0.597984 28.9245 0.876337 29.2029C1.15469 29.4812 1.48523 29.7019 1.84903 29.8523C2.21282 30.0027 2.60272 30.0798 2.99637 30.0792H27.5491C27.9427 30.0798 28.3326 30.0027 28.6964 29.8523C29.0602 29.7019 29.3908 29.4812 29.6691 29.2029C29.9475 28.9245 30.1682 28.594 30.3185 28.2302C30.4689 27.8664 30.546 27.4765 30.5455 27.0828V23.5192C30.9345 23.5057 31.3031 23.3422 31.5743 23.0629C31.8454 22.7836 31.998 22.4103 32 22.021V14.8647C31.998 14.4754 31.8454 14.1021 31.5743 13.8228C31.3031 13.5435 30.9345 13.38 30.5455 13.3665ZM8.11637 1.93376C8.15126 1.83903 8.20549 1.75261 8.27561 1.67998C8.34573 1.60736 8.4302 1.55013 8.52364 1.51194C8.71078 1.43934 8.91831 1.43934 9.10546 1.51194L21.8182 6.80648H18.2982L9.68728 3.94103C9.50963 3.87919 9.31494 3.88858 9.14407 3.96723C8.97321 4.04589 8.83946 4.18768 8.77091 4.36285L7.82546 6.80648H6.16728L8.11637 1.93376ZM13.7018 6.80648H9.39637L9.87637 5.54103L13.7018 6.80648ZM29.0909 27.0828C29.0905 27.4916 28.928 27.8836 28.6389 28.1727C28.3498 28.4617 27.9579 28.6243 27.5491 28.6247H2.99637C2.58757 28.6243 2.19563 28.4617 1.90656 28.1727C1.6175 27.8836 1.45493 27.4916 1.45455 27.0828V9.80285C1.45722 9.39475 1.62052 9.00414 1.90909 8.71557C2.19766 8.427 2.58827 8.2637 2.99637 8.26103H27.5491C27.9572 8.2637 28.3478 8.427 28.6364 8.71557C28.9249 9.00414 29.0882 9.39475 29.0909 9.80285V13.3519H22.5455C21.1953 13.3519 19.9004 13.8883 18.9456 14.843C17.9909 15.7978 17.4545 17.0927 17.4545 18.4428C17.4545 19.793 17.9909 21.0879 18.9456 22.0427C19.9004 22.9974 21.1953 23.5338 22.5455 23.5338H29.0909V27.0828ZM30.5455 22.021C30.5444 22.0361 30.538 22.0503 30.5273 22.061C30.5166 22.0717 30.5024 22.0782 30.4873 22.0792H22.5455C21.581 22.0792 20.6561 21.6961 19.9742 21.0141C19.2922 20.3322 18.9091 19.4073 18.9091 18.4428C18.9091 17.4784 19.2922 16.5535 19.9742 15.8715C20.6561 15.1896 21.581 14.8065 22.5455 14.8065L30.5455 14.8647V22.021Z" fill="white"/>
<path d="M22.5451 16.261C22.1136 16.261 21.6917 16.389 21.3329 16.6287C20.9741 16.8685 20.6945 17.2092 20.5294 17.6079C20.3642 18.0066 20.321 18.4453 20.4052 18.8685C20.4894 19.2917 20.6972 19.6805 21.0023 19.9856C21.3075 20.2907 21.6962 20.4985 22.1194 20.5827C22.5427 20.6669 22.9814 20.6237 23.38 20.4586C23.7787 20.2934 24.1195 20.0138 24.3592 19.655C24.599 19.2962 24.7269 18.8744 24.7269 18.4428C24.7269 17.8642 24.497 17.3092 24.0879 16.9001C23.6787 16.4909 23.1238 16.261 22.5451 16.261ZM22.5451 19.1701C22.4013 19.1701 22.2606 19.1275 22.1411 19.0475C22.0215 18.9676 21.9282 18.854 21.8732 18.7211C21.8181 18.5883 21.8037 18.442 21.8318 18.301C21.8599 18.1599 21.9291 18.0303 22.0308 17.9286C22.1326 17.8269 22.2621 17.7576 22.4032 17.7295C22.5443 17.7015 22.6905 17.7159 22.8234 17.7709C22.9563 17.826 23.0699 17.9192 23.1498 18.0388C23.2297 18.1584 23.2724 18.299 23.2724 18.4428C23.2724 18.6357 23.1958 18.8207 23.0594 18.9571C22.923 19.0935 22.738 19.1701 22.5451 19.1701Z" fill="white"/>
<path d="M8.72692 11.8974C8.72692 12.0903 8.65029 12.2753 8.5139 12.4117C8.37751 12.5481 8.19253 12.6247 7.99964 12.6247H5.09055C4.89767 12.6247 4.71268 12.5481 4.57629 12.4117C4.4399 12.2753 4.36328 12.0903 4.36328 11.8974C4.36328 11.7045 4.4399 11.5195 4.57629 11.3831C4.71268 11.2468 4.89767 11.1701 5.09055 11.1701H7.99964C8.19253 11.1701 8.37751 11.2468 8.5139 11.3831C8.65029 11.5195 8.72692 11.7045 8.72692 11.8974Z" fill="white"/>
<path d="M11.636 14.8065C11.636 14.9994 11.5594 15.1844 11.423 15.3208C11.2866 15.4571 11.1016 15.5338 10.9087 15.5338H5.09055C4.89767 15.5338 4.71268 15.4571 4.57629 15.3208C4.4399 15.1844 4.36328 14.9994 4.36328 14.8065C4.36328 14.6136 4.4399 14.4286 4.57629 14.2922C4.71268 14.1558 4.89767 14.0792 5.09055 14.0792H10.9087C11.1016 14.0792 11.2866 14.1558 11.423 14.2922C11.5594 14.4286 11.636 14.6136 11.636 14.8065Z" fill="white"/>
</svg>
