<svg width="32" height="32" viewBox="0 0 32 32" fill="none" xmlns="http://www.w3.org/2000/svg">
<path d="M24.2812 29.783H10.2453C9.80108 29.783 9.41235 29.5054 9.25963 29.1028C9.10692 28.6863 9.23187 28.2282 9.56506 27.9505C9.89826 27.6729 10.2037 27.3119 10.4258 26.9232C10.8701 26.2152 11.0922 25.4099 11.0922 24.5909C11.0922 22.1058 9.06527 20.0789 6.58018 20.0789C5.55282 20.0789 4.581 20.426 3.7619 21.0785C3.44258 21.3284 3.02609 21.37 2.66512 21.2034C2.30416 21.0368 2.08203 20.662 2.08203 20.2594V14.1926C2.08203 10.7358 4.88643 7.93146 8.34334 7.93146H24.2812C27.7381 7.93146 30.5425 10.7358 30.5425 14.1926V16.1917C30.5425 16.7609 30.0705 17.233 29.5013 17.233H26.6969C26.211 17.233 25.7667 17.4134 25.4474 17.7466L25.4335 17.7605C25.0448 18.1353 24.8643 18.649 24.906 19.1765C24.9893 20.0928 25.8639 20.8286 26.8635 20.8286H29.5013C30.0705 20.8286 30.5425 21.3006 30.5425 21.8698V23.5219C30.5425 26.9787 27.7381 29.783 24.2812 29.783ZM12.3972 27.7006H24.2812C26.5858 27.7006 28.4601 25.8264 28.4601 23.5219V22.911H26.8635C24.7671 22.911 22.9901 21.3562 22.8235 19.357C22.7124 18.2186 23.1289 17.0941 23.9619 16.275C24.6838 15.5392 25.6557 15.1366 26.6969 15.1366H28.4601V14.1787C28.4601 11.8742 26.5858 9.99999 24.2812 9.99999H8.34334C6.03874 9.99999 4.16451 11.8742 4.16451 14.1787V18.4546C4.94197 18.1492 5.76107 17.9826 6.59406 17.9826C10.2315 17.9826 13.1886 20.9397 13.1886 24.577C13.1886 25.6737 12.9109 26.7566 12.3972 27.7006Z" fill="white"/>
<path d="M3.12327 16.4694C2.55406 16.4694 2.08203 15.9974 2.08203 15.4282V9.0838C2.08203 7.01526 3.38705 5.141 5.31681 4.40521L16.3401 0.240358C17.4646 -0.19001 18.7418 -0.0372434 19.7275 0.656899C20.7271 1.35104 21.3102 2.47555 21.3102 3.68336V8.95881C21.3102 9.52801 20.8382 10 20.269 10C19.6998 10 19.2278 9.52801 19.2278 8.95881V3.68336C19.2278 3.15581 18.9779 2.66988 18.5336 2.36446C18.0893 2.05904 17.5618 1.98962 17.062 2.18398L6.03874 6.34884C4.9142 6.77921 4.15062 7.87599 4.15062 9.0838V15.4282C4.16451 16.0113 3.69248 16.4694 3.12327 16.4694Z" fill="white"/>
<path d="M26.8624 22.9109C24.766 22.9109 22.989 21.356 22.8224 19.3569C22.7113 18.2046 23.1278 17.0801 23.9608 16.261C24.6688 15.5391 25.6406 15.1367 26.6819 15.1367H29.5696C30.944 15.1783 31.9991 16.261 31.9991 17.5938V20.4538C31.9991 21.7865 30.944 22.8693 29.6112 22.9109H26.8624ZM29.5418 17.2191H26.6958C26.2098 17.2191 25.7656 17.3994 25.4463 17.7326C25.0437 18.1213 24.8493 18.6489 24.9048 19.1764C24.9881 20.0927 25.8628 20.8285 26.8624 20.8285H29.5835C29.7639 20.8285 29.9305 20.662 29.9305 20.4538V17.5938C29.9305 17.3855 29.7639 17.233 29.5418 17.2191Z" fill="white"/>
<path d="M19.0895 15.9002H9.37132C8.80211 15.9002 8.33008 15.4282 8.33008 14.859C8.33008 14.2898 8.80211 13.8177 9.37132 13.8177H19.0895C19.6587 13.8177 20.1308 14.2898 20.1308 14.859C20.1308 15.4282 19.6587 15.9002 19.0895 15.9002Z" fill="white"/>
<path d="M6.59451 31.1713C4.2899 31.1713 2.12413 29.9496 0.957942 27.9644C0.333199 26.9648 0 25.7848 0 24.577C0 22.5501 0.902405 20.6759 2.4712 19.4264C3.63739 18.4963 5.10901 17.9826 6.59451 17.9826C10.2319 17.9826 13.189 20.9397 13.189 24.577C13.189 25.7848 12.8558 26.9648 12.2311 27.9783C11.8979 28.5613 11.4397 29.0889 10.9122 29.5331C9.75987 30.5882 8.21884 31.1713 6.59451 31.1713ZM6.59451 20.065C5.56715 20.065 4.59533 20.4121 3.77622 21.0646C2.70722 21.9114 2.08248 23.2026 2.08248 24.577C2.08248 25.396 2.30461 26.2013 2.73499 26.8954C3.55409 28.2837 4.99794 29.0889 6.59451 29.0889C7.69128 29.0889 8.7464 28.6863 9.55162 27.9644C9.91259 27.6589 10.218 27.298 10.4401 26.9093C10.8844 26.2013 11.1065 25.396 11.1065 24.577C11.1065 22.0919 9.0796 20.065 6.59451 20.065Z" fill="white"/>
<path d="M8.66301 25.5904H4.51194C3.94273 25.5904 3.4707 25.1184 3.4707 24.5492C3.4707 23.98 3.94273 23.508 4.51194 23.508H8.66301C9.23222 23.508 9.70425 23.98 9.70425 24.5492C9.70425 25.1184 9.2461 25.5904 8.66301 25.5904Z" fill="white"/>
</svg>
